<?xml version="1.0" encoding="UTF-8"?>
<svg xmlns="http://www.w3.org/2000/svg" xmlns:xlink="http://www.w3.org/1999/xlink" width="100pt" height="150pt" viewBox="0 0 100 150" version="1.1">
<g id="surface1">
<path style=" stroke:none;fill-rule:nonzero;fill:rgb(100%,100%,100%);fill-opacity:1;" d="M 1 17.667969 C 1 8.460938 8.460938 1 17.667969 1 L 82.332031 1 C 91.539062 1 99 8.460938 99 17.667969 L 99 132.332031 C 99 141.539062 91.539062 149 82.332031 149 L 17.667969 149 C 8.460938 149 1 141.539062 1 132.332031 L 1 17.667969 "/>
<path style=" stroke:none;fill-rule:nonzero;fill:rgb(99.607843%,99.607843%,99.607843%);fill-opacity:1;" d="M 5 75 L 5 20 L 95 20 L 95 130 L 5 130 Z M 5 75 "/>
<path style=" stroke:none;fill-rule:nonzero;fill:rgb(0%,0%,0%);fill-opacity:1;" d="M 26 82.46875 C 26 53.410156 26.464844 50.957031 32.433594 48.464844 C 37.347656 46.410156 62.652344 46.410156 67.566406 48.464844 C 73.535156 50.957031 74 53.410156 74 82.46875 L 74 108 L 26 108 Z M 73 84.5 L 73 62 L 27 62 L 27 107 L 73 107 Z M 73 84.5 "/>
<path style=" stroke:none;fill-rule:nonzero;fill:rgb(0%,0%,100%);fill-opacity:1;" d="M 39.757812 77.65625 C 39.757812 76.832031 39.347656 76.3125 38.5625 76.3125 C 37.515625 76.3125 37.425781 76.964844 35.296875 77.167969 C 34.492188 77.246094 34.007812 77.542969 34.007812 78.195312 C 34.007812 78.773438 34.492188 79.1875 35.332031 79.1875 C 36.023438 79.1875 36.621094 78.960938 37.21875 78.867188 L 37.21875 87.136719 L 35.238281 87.136719 C 34.605469 87.136719 34.082031 87.472656 34.082031 88.203125 C 34.082031 88.929688 34.605469 89.265625 35.238281 89.265625 L 41.792969 89.265625 C 42.425781 89.265625 42.929688 88.929688 42.929688 88.203125 C 42.929688 87.472656 42.425781 87.136719 41.792969 87.136719 L 39.757812 87.136719 Z M 39.757812 77.65625 "/>
<path style=" stroke:none;fill-rule:nonzero;fill:rgb(0%,0%,100%);fill-opacity:1;" d="M 44.3125 82.84375 C 44.3125 86.261719 45.953125 89.378906 49.425781 89.378906 C 52.898438 89.378906 54.542969 86.261719 54.542969 82.84375 C 54.542969 79.429688 52.898438 76.3125 49.425781 76.3125 C 45.953125 76.3125 44.3125 79.429688 44.3125 82.84375 Z M 46.777344 82.84375 C 46.777344 80.457031 47.710938 78.550781 49.425781 78.550781 C 51.164062 78.550781 52.078125 80.457031 52.078125 82.84375 C 52.078125 85.234375 51.164062 87.136719 49.425781 87.136719 C 47.710938 87.136719 46.777344 85.234375 46.777344 82.84375 Z M 46.777344 82.84375 "/>
<path style=" stroke:none;fill-rule:nonzero;fill:rgb(0%,0%,100%);fill-opacity:1;" d="M 55.71875 82.84375 C 55.71875 86.261719 57.359375 89.378906 60.832031 89.378906 C 64.304688 89.378906 65.945312 86.261719 65.945312 82.84375 C 65.945312 79.429688 64.304688 76.3125 60.832031 76.3125 C 57.359375 76.3125 55.71875 79.429688 55.71875 82.84375 Z M 58.179688 82.84375 C 58.179688 80.457031 59.113281 78.550781 60.832031 78.550781 C 62.566406 78.550781 63.484375 80.457031 63.484375 82.84375 C 63.484375 85.234375 62.566406 87.136719 60.832031 87.136719 C 59.113281 87.136719 58.179688 85.234375 58.179688 82.84375 Z M 58.179688 82.84375 "/>
<path style="fill:none;stroke-width:2;stroke-linecap:butt;stroke-linejoin:miter;stroke:rgb(0%,0%,0%);stroke-opacity:1;stroke-miterlimit:10;" d="M 1 17.667969 C 1 8.460938 8.460938 1 17.667969 1 L 82.332031 1 C 91.539062 1 99 8.460938 99 17.667969 L 99 132.332031 C 99 141.539062 91.539062 149 82.332031 149 L 17.667969 149 C 8.460938 149 1 141.539062 1 132.332031 L 1 17.667969 "/>
<path style=" stroke:none;fill-rule:nonzero;fill:rgb(0%,0%,0%);fill-opacity:1;" d="M 11.417969 9.054688 C 11.417969 8.617188 11.199219 8.335938 10.777344 8.335938 C 10.214844 8.335938 10.167969 8.679688 9.027344 8.789062 C 8.589844 8.835938 8.339844 8.992188 8.339844 9.335938 C 8.339844 9.648438 8.589844 9.867188 9.042969 9.867188 C 9.417969 9.867188 9.730469 9.757812 10.058594 9.710938 L 10.058594 14.132812 L 8.996094 14.132812 C 8.652344 14.132812 8.371094 14.320312 8.371094 14.710938 C 8.371094 15.085938 8.652344 15.273438 8.996094 15.273438 L 12.496094 15.273438 C 12.839844 15.273438 13.121094 15.085938 13.121094 14.710938 C 13.121094 14.320312 12.839844 14.132812 12.496094 14.132812 L 11.417969 14.132812 Z M 13.855469 11.835938 C 13.855469 13.664062 14.730469 15.335938 16.589844 15.335938 C 18.449219 15.335938 19.339844 13.664062 19.339844 11.835938 C 19.339844 10.007812 18.449219 8.335938 16.589844 8.335938 C 14.730469 8.335938 13.855469 10.007812 13.855469 11.835938 Z M 15.167969 11.835938 C 15.167969 10.554688 15.667969 9.539062 16.589844 9.539062 C 17.527344 9.539062 18.011719 10.554688 18.011719 11.835938 C 18.011719 13.117188 17.527344 14.132812 16.589844 14.132812 C 15.667969 14.132812 15.167969 13.117188 15.167969 11.835938 Z M 19.964844 11.835938 C 19.964844 13.664062 20.839844 15.335938 22.699219 15.335938 C 24.558594 15.335938 25.449219 13.664062 25.449219 11.835938 C 25.449219 10.007812 24.558594 8.335938 22.699219 8.335938 C 20.839844 8.335938 19.964844 10.007812 19.964844 11.835938 Z M 21.277344 11.835938 C 21.277344 10.554688 21.777344 9.539062 22.699219 9.539062 C 23.636719 9.539062 24.121094 10.554688 24.121094 11.835938 C 24.121094 13.117188 23.636719 14.132812 22.699219 14.132812 C 21.777344 14.132812 21.277344 13.117188 21.277344 11.835938 Z M 25.761719 15.273438 "/>
<path style=" stroke:none;fill-rule:nonzero;fill:rgb(0%,0%,0%);fill-opacity:1;" d="M 77.320312 135.386719 C 77.320312 134.949219 77.101562 134.667969 76.679688 134.667969 C 76.117188 134.667969 76.070312 135.011719 74.929688 135.121094 C 74.492188 135.167969 74.242188 135.324219 74.242188 135.667969 C 74.242188 135.980469 74.492188 136.199219 74.945312 136.199219 C 75.320312 136.199219 75.632812 136.089844 75.960938 136.042969 L 75.960938 140.464844 L 74.898438 140.464844 C 74.554688 140.464844 74.273438 140.652344 74.273438 141.042969 C 74.273438 141.417969 74.554688 141.605469 74.898438 141.605469 L 78.398438 141.605469 C 78.742188 141.605469 79.023438 141.417969 79.023438 141.042969 C 79.023438 140.652344 78.742188 140.464844 78.398438 140.464844 L 77.320312 140.464844 Z M 79.757812 138.167969 C 79.757812 139.996094 80.632812 141.667969 82.492188 141.667969 C 84.351562 141.667969 85.242188 139.996094 85.242188 138.167969 C 85.242188 136.339844 84.351562 134.667969 82.492188 134.667969 C 80.632812 134.667969 79.757812 136.339844 79.757812 138.167969 Z M 81.070312 138.167969 C 81.070312 136.886719 81.570312 135.871094 82.492188 135.871094 C 83.429688 135.871094 83.914062 136.886719 83.914062 138.167969 C 83.914062 139.449219 83.429688 140.464844 82.492188 140.464844 C 81.570312 140.464844 81.070312 139.449219 81.070312 138.167969 Z M 85.867188 138.167969 C 85.867188 139.996094 86.742188 141.667969 88.601562 141.667969 C 90.460938 141.667969 91.351562 139.996094 91.351562 138.167969 C 91.351562 136.339844 90.460938 134.667969 88.601562 134.667969 C 86.742188 134.667969 85.867188 136.339844 85.867188 138.167969 Z M 87.179688 138.167969 C 87.179688 136.886719 87.679688 135.871094 88.601562 135.871094 C 89.539062 135.871094 90.023438 136.886719 90.023438 138.167969 C 90.023438 139.449219 89.539062 140.464844 88.601562 140.464844 C 87.679688 140.464844 87.179688 139.449219 87.179688 138.167969 Z M 91.664062 141.605469 "/>
</g>
</svg>
