<?xml version="1.0" encoding="UTF-8"?>
<svg xmlns="http://www.w3.org/2000/svg" xmlns:xlink="http://www.w3.org/1999/xlink" width="100pt" height="150pt" viewBox="0 0 100 150" version="1.1">
<g id="surface4">
<path style=" stroke:none;fill-rule:nonzero;fill:rgb(100%,100%,100%);fill-opacity:1;" d="M 1 17.667969 C 1 8.460938 8.460938 1 17.667969 1 L 82.332031 1 C 91.539062 1 99 8.460938 99 17.667969 L 99 132.332031 C 99 141.539062 91.539062 149 82.332031 149 L 17.667969 149 C 8.460938 149 1 141.539062 1 132.332031 L 1 17.667969 "/>
<path style=" stroke:none;fill-rule:nonzero;fill:rgb(99.607843%,99.607843%,99.607843%);fill-opacity:1;" d="M 5 75 L 5 20 L 95 20 L 95 130 L 5 130 Z M 5 75 "/>
<path style=" stroke:none;fill-rule:nonzero;fill:rgb(0%,0%,0%);fill-opacity:1;" d="M 26 82.46875 C 26 53.410156 26.464844 50.957031 32.433594 48.464844 C 37.347656 46.410156 62.652344 46.410156 67.566406 48.464844 C 73.535156 50.957031 74 53.410156 74 82.46875 L 74 108 L 26 108 Z M 73 84.5 L 73 62 L 27 62 L 27 107 L 73 107 Z M 73 84.5 "/>
<path style=" stroke:none;fill-rule:nonzero;fill:rgb(0%,0%,100%);fill-opacity:1;" d="M 34.753906 76.421875 C 34.082031 76.421875 33.542969 76.777344 33.542969 77.523438 C 33.542969 78.289062 34.082031 78.664062 34.753906 78.664062 L 38.1875 78.664062 C 39.234375 78.664062 39.757812 78.925781 39.757812 79.785156 C 39.757812 80.960938 38.523438 81.59375 37.347656 82.265625 C 34.886719 83.722656 33.054688 84.507812 33.054688 87.269531 C 33.054688 88.949219 33.558594 89.265625 34.921875 89.265625 L 41.867188 89.265625 C 42.5 89.265625 43.003906 88.929688 43.003906 88.203125 C 43.003906 87.492188 42.5 87.136719 41.867188 87.136719 L 35.707031 87.136719 L 35.707031 86.671875 C 35.707031 84.339844 42.558594 84.039062 42.558594 79.785156 C 42.539062 77.75 40.988281 76.421875 38.5625 76.421875 Z M 34.753906 76.421875 "/>
<path style=" stroke:none;fill-rule:nonzero;fill:rgb(0%,0%,100%);fill-opacity:1;" d="M 44.3125 82.84375 C 44.3125 86.261719 45.953125 89.378906 49.425781 89.378906 C 52.898438 89.378906 54.542969 86.261719 54.542969 82.84375 C 54.542969 79.429688 52.898438 76.3125 49.425781 76.3125 C 45.953125 76.3125 44.3125 79.429688 44.3125 82.84375 Z M 46.777344 82.84375 C 46.777344 80.457031 47.710938 78.550781 49.425781 78.550781 C 51.164062 78.550781 52.078125 80.457031 52.078125 82.84375 C 52.078125 85.234375 51.164062 87.136719 49.425781 87.136719 C 47.710938 87.136719 46.777344 85.234375 46.777344 82.84375 Z M 46.777344 82.84375 "/>
<path style=" stroke:none;fill-rule:nonzero;fill:rgb(0%,0%,100%);fill-opacity:1;" d="M 55.71875 82.84375 C 55.71875 86.261719 57.359375 89.378906 60.832031 89.378906 C 64.304688 89.378906 65.945312 86.261719 65.945312 82.84375 C 65.945312 79.429688 64.304688 76.3125 60.832031 76.3125 C 57.359375 76.3125 55.71875 79.429688 55.71875 82.84375 Z M 58.179688 82.84375 C 58.179688 80.457031 59.113281 78.550781 60.832031 78.550781 C 62.566406 78.550781 63.484375 80.457031 63.484375 82.84375 C 63.484375 85.234375 62.566406 87.136719 60.832031 87.136719 C 59.113281 87.136719 58.179688 85.234375 58.179688 82.84375 Z M 58.179688 82.84375 "/>
<path style="fill:none;stroke-width:2;stroke-linecap:butt;stroke-linejoin:miter;stroke:rgb(0%,0%,0%);stroke-opacity:1;stroke-miterlimit:10;" d="M 1 17.667969 C 1 8.460938 8.460938 1 17.667969 1 L 82.332031 1 C 91.539062 1 99 8.460938 99 17.667969 L 99 132.332031 C 99 141.539062 91.539062 149 82.332031 149 L 17.667969 149 C 8.460938 149 1 141.539062 1 132.332031 L 1 17.667969 "/>
<path style=" stroke:none;fill-rule:nonzero;fill:rgb(0%,0%,0%);fill-opacity:1;" d="M 9.238281 8.398438 C 8.878906 8.398438 8.597656 8.585938 8.597656 8.976562 C 8.597656 9.398438 8.878906 9.585938 9.238281 9.585938 L 11.082031 9.585938 C 11.644531 9.585938 11.925781 9.726562 11.925781 10.195312 C 11.925781 10.820312 11.253906 11.164062 10.628906 11.523438 C 9.316406 12.304688 8.332031 12.726562 8.332031 14.210938 C 8.332031 15.101562 8.597656 15.273438 9.332031 15.273438 L 13.050781 15.273438 C 13.394531 15.273438 13.660156 15.085938 13.660156 14.710938 C 13.660156 14.320312 13.394531 14.132812 13.050781 14.132812 L 9.753906 14.132812 L 9.753906 13.882812 C 9.753906 12.632812 13.425781 12.476562 13.425781 10.195312 C 13.410156 9.101562 12.582031 8.398438 11.285156 8.398438 Z M 14.363281 11.835938 C 14.363281 13.664062 15.238281 15.335938 17.097656 15.335938 C 18.957031 15.335938 19.847656 13.664062 19.847656 11.835938 C 19.847656 10.007812 18.957031 8.335938 17.097656 8.335938 C 15.238281 8.335938 14.363281 10.007812 14.363281 11.835938 Z M 15.675781 11.835938 C 15.675781 10.554688 16.175781 9.539062 17.097656 9.539062 C 18.035156 9.539062 18.519531 10.554688 18.519531 11.835938 C 18.519531 13.117188 18.035156 14.132812 17.097656 14.132812 C 16.175781 14.132812 15.675781 13.117188 15.675781 11.835938 Z M 20.472656 11.835938 C 20.472656 13.664062 21.347656 15.335938 23.207031 15.335938 C 25.066406 15.335938 25.957031 13.664062 25.957031 11.835938 C 25.957031 10.007812 25.066406 8.335938 23.207031 8.335938 C 21.347656 8.335938 20.472656 10.007812 20.472656 11.835938 Z M 21.785156 11.835938 C 21.785156 10.554688 22.285156 9.539062 23.207031 9.539062 C 24.144531 9.539062 24.628906 10.554688 24.628906 11.835938 C 24.628906 13.117188 24.144531 14.132812 23.207031 14.132812 C 22.285156 14.132812 21.785156 13.117188 21.785156 11.835938 Z M 26.269531 15.273438 "/>
<path style=" stroke:none;fill-rule:nonzero;fill:rgb(0%,0%,0%);fill-opacity:1;" d="M 74.632812 134.730469 C 74.273438 134.730469 73.992188 134.917969 73.992188 135.308594 C 73.992188 135.730469 74.273438 135.917969 74.632812 135.917969 L 76.476562 135.917969 C 77.039062 135.917969 77.320312 136.058594 77.320312 136.527344 C 77.320312 137.152344 76.648438 137.496094 76.023438 137.855469 C 74.710938 138.636719 73.726562 139.058594 73.726562 140.542969 C 73.726562 141.433594 73.992188 141.605469 74.726562 141.605469 L 78.445312 141.605469 C 78.789062 141.605469 79.054688 141.417969 79.054688 141.042969 C 79.054688 140.652344 78.789062 140.464844 78.445312 140.464844 L 75.148438 140.464844 L 75.148438 140.214844 C 75.148438 138.964844 78.820312 138.808594 78.820312 136.527344 C 78.804688 135.433594 77.976562 134.730469 76.679688 134.730469 Z M 79.757812 138.167969 C 79.757812 139.996094 80.632812 141.667969 82.492188 141.667969 C 84.351562 141.667969 85.242188 139.996094 85.242188 138.167969 C 85.242188 136.339844 84.351562 134.667969 82.492188 134.667969 C 80.632812 134.667969 79.757812 136.339844 79.757812 138.167969 Z M 81.070312 138.167969 C 81.070312 136.886719 81.570312 135.871094 82.492188 135.871094 C 83.429688 135.871094 83.914062 136.886719 83.914062 138.167969 C 83.914062 139.449219 83.429688 140.464844 82.492188 140.464844 C 81.570312 140.464844 81.070312 139.449219 81.070312 138.167969 Z M 85.867188 138.167969 C 85.867188 139.996094 86.742188 141.667969 88.601562 141.667969 C 90.460938 141.667969 91.351562 139.996094 91.351562 138.167969 C 91.351562 136.339844 90.460938 134.667969 88.601562 134.667969 C 86.742188 134.667969 85.867188 136.339844 85.867188 138.167969 Z M 87.179688 138.167969 C 87.179688 136.886719 87.679688 135.871094 88.601562 135.871094 C 89.539062 135.871094 90.023438 136.886719 90.023438 138.167969 C 90.023438 139.449219 89.539062 140.464844 88.601562 140.464844 C 87.679688 140.464844 87.179688 139.449219 87.179688 138.167969 Z M 91.664062 141.605469 "/>
</g>
</svg>
