<?xml version="1.0" encoding="UTF-8"?>
<svg xmlns="http://www.w3.org/2000/svg" xmlns:xlink="http://www.w3.org/1999/xlink" width="100pt" height="150pt" viewBox="0 0 100 150" version="1.1">
<g id="surface7">
<path style=" stroke:none;fill-rule:nonzero;fill:rgb(100%,100%,100%);fill-opacity:1;" d="M 1 17.667969 C 1 8.460938 8.460938 1 17.667969 1 L 82.332031 1 C 91.539062 1 99 8.460938 99 17.667969 L 99 132.332031 C 99 141.539062 91.539062 149 82.332031 149 L 17.667969 149 C 8.460938 149 1 141.539062 1 132.332031 L 1 17.667969 "/>
<path style=" stroke:none;fill-rule:nonzero;fill:rgb(99.607843%,99.607843%,99.607843%);fill-opacity:1;" d="M 5 75 L 5 20 L 95 20 L 95 130 L 5 130 Z M 5 75 "/>
<path style=" stroke:none;fill-rule:nonzero;fill:rgb(0%,0%,0%);fill-opacity:1;" d="M 26 82.46875 C 26 53.410156 26.464844 50.957031 32.433594 48.464844 C 37.347656 46.410156 62.652344 46.410156 67.566406 48.464844 C 73.535156 50.957031 74 53.410156 74 82.46875 L 74 108 L 26 108 Z M 73 84.5 L 73 62 L 27 62 L 27 107 L 73 107 Z M 73 84.5 "/>
<path style=" stroke:none;fill-rule:nonzero;fill:rgb(0%,0%,100%);fill-opacity:1;" d="M 42.175781 76.652344 C 41.503906 76.652344 40.960938 77.007812 40.960938 77.753906 C 40.960938 78.519531 41.503906 78.894531 42.175781 78.894531 L 45.609375 78.894531 C 46.65625 78.894531 47.175781 79.15625 47.175781 80.015625 C 47.175781 81.191406 45.945312 81.824219 44.769531 82.496094 C 42.304688 83.953125 40.476562 84.738281 40.476562 87.5 C 40.476562 89.179688 40.980469 89.496094 42.34375 89.496094 L 49.285156 89.496094 C 49.921875 89.496094 50.425781 89.160156 50.425781 88.433594 C 50.425781 87.722656 49.921875 87.367188 49.285156 87.367188 L 43.125 87.367188 L 43.125 86.902344 C 43.125 84.570312 49.976562 84.269531 49.976562 80.015625 C 49.957031 77.980469 48.410156 76.652344 45.984375 76.652344 Z M 42.175781 76.652344 "/>
<path style=" stroke:none;fill-rule:nonzero;fill:rgb(0%,0%,100%);fill-opacity:1;" d="M 55.09375 78.78125 L 59.648438 78.78125 C 60.28125 78.78125 60.785156 78.445312 60.785156 77.71875 C 60.785156 76.988281 60.28125 76.652344 59.648438 76.652344 L 54.027344 76.652344 C 53.28125 76.652344 52.816406 76.988281 52.757812 77.511719 L 52.480469 80.164062 C 52.421875 80.667969 52.367188 81.058594 52.367188 81.449219 C 52.367188 82.140625 52.796875 82.589844 53.578125 82.589844 C 53.992188 82.589844 54.363281 82.515625 54.960938 82.515625 C 57.722656 82.515625 59.628906 83.148438 59.628906 85.390625 C 59.628906 86.433594 58.808594 87.367188 56.679688 87.367188 L 53.019531 87.367188 C 52.386719 87.367188 51.863281 87.703125 51.863281 88.433594 C 51.863281 89.160156 52.386719 89.496094 53.019531 89.496094 L 56.53125 89.496094 C 60.449219 89.496094 62.167969 87.554688 62.167969 85.183594 C 62.167969 82.328125 59.628906 80.386719 55.632812 80.386719 L 54.90625 80.386719 Z M 55.09375 78.78125 "/>
<path style="fill:none;stroke-width:2;stroke-linecap:butt;stroke-linejoin:miter;stroke:rgb(0%,0%,0%);stroke-opacity:1;stroke-miterlimit:10;" d="M 1 17.667969 C 1 8.460938 8.460938 1 17.667969 1 L 82.332031 1 C 91.539062 1 99 8.460938 99 17.667969 L 99 132.332031 C 99 141.539062 91.539062 149 82.332031 149 L 17.667969 149 C 8.460938 149 1 141.539062 1 132.332031 L 1 17.667969 "/>
<path style=" stroke:none;fill-rule:nonzero;fill:rgb(0%,0%,0%);fill-opacity:1;" d="M 9.238281 8.339844 C 8.878906 8.339844 8.597656 8.527344 8.597656 8.917969 C 8.597656 9.339844 8.878906 9.527344 9.238281 9.527344 L 11.082031 9.527344 C 11.644531 9.527344 11.925781 9.667969 11.925781 10.136719 C 11.925781 10.761719 11.253906 11.105469 10.628906 11.464844 C 9.316406 12.246094 8.332031 12.667969 8.332031 14.152344 C 8.332031 15.042969 8.597656 15.214844 9.332031 15.214844 L 13.050781 15.214844 C 13.394531 15.214844 13.660156 15.027344 13.660156 14.652344 C 13.660156 14.261719 13.394531 14.074219 13.050781 14.074219 L 9.753906 14.074219 L 9.753906 13.824219 C 9.753906 12.574219 13.425781 12.417969 13.425781 10.136719 C 13.410156 9.042969 12.582031 8.339844 11.285156 8.339844 Z M 16.160156 9.480469 L 18.597656 9.480469 C 18.941406 9.480469 19.207031 9.292969 19.207031 8.902344 C 19.207031 8.511719 18.941406 8.339844 18.597656 8.339844 L 15.597656 8.339844 C 15.191406 8.339844 14.941406 8.511719 14.910156 8.792969 L 14.753906 10.214844 C 14.738281 10.480469 14.707031 10.699219 14.707031 10.902344 C 14.707031 11.277344 14.925781 11.511719 15.347656 11.511719 C 15.566406 11.511719 15.769531 11.480469 16.097656 11.480469 C 17.566406 11.480469 18.597656 11.808594 18.597656 13.011719 C 18.597656 13.574219 18.144531 14.074219 17.003906 14.074219 L 15.050781 14.074219 C 14.707031 14.074219 14.425781 14.261719 14.425781 14.652344 C 14.425781 15.027344 14.707031 15.214844 15.050781 15.214844 L 16.925781 15.214844 C 19.035156 15.214844 19.957031 14.167969 19.957031 12.902344 C 19.957031 11.371094 18.597656 10.339844 16.457031 10.339844 L 16.066406 10.339844 Z M 20.160156 15.214844 "/>
<path style=" stroke:none;fill-rule:nonzero;fill:rgb(0%,0%,0%);fill-opacity:1;" d="M 80.742188 134.792969 C 80.382812 134.792969 80.101562 134.980469 80.101562 135.371094 C 80.101562 135.792969 80.382812 135.980469 80.742188 135.980469 L 82.585938 135.980469 C 83.148438 135.980469 83.429688 136.121094 83.429688 136.589844 C 83.429688 137.214844 82.757812 137.558594 82.132812 137.917969 C 80.820312 138.699219 79.835938 139.121094 79.835938 140.605469 C 79.835938 141.496094 80.101562 141.667969 80.835938 141.667969 L 84.554688 141.667969 C 84.898438 141.667969 85.164062 141.480469 85.164062 141.105469 C 85.164062 140.714844 84.898438 140.527344 84.554688 140.527344 L 81.257812 140.527344 L 81.257812 140.277344 C 81.257812 139.027344 84.929688 138.871094 84.929688 136.589844 C 84.914062 135.496094 84.085938 134.792969 82.789062 134.792969 Z M 87.664062 135.933594 L 90.101562 135.933594 C 90.445312 135.933594 90.710938 135.746094 90.710938 135.355469 C 90.710938 134.964844 90.445312 134.792969 90.101562 134.792969 L 87.101562 134.792969 C 86.695312 134.792969 86.445312 134.964844 86.414062 135.246094 L 86.257812 136.667969 C 86.242188 136.933594 86.210938 137.152344 86.210938 137.355469 C 86.210938 137.730469 86.429688 137.964844 86.851562 137.964844 C 87.070312 137.964844 87.273438 137.933594 87.601562 137.933594 C 89.070312 137.933594 90.101562 138.261719 90.101562 139.464844 C 90.101562 140.027344 89.648438 140.527344 88.507812 140.527344 L 86.554688 140.527344 C 86.210938 140.527344 85.929688 140.714844 85.929688 141.105469 C 85.929688 141.480469 86.210938 141.667969 86.554688 141.667969 L 88.429688 141.667969 C 90.539062 141.667969 91.460938 140.621094 91.460938 139.355469 C 91.460938 137.824219 90.101562 136.792969 87.960938 136.792969 L 87.570312 136.792969 Z M 91.664062 141.667969 "/>
</g>
</svg>
