<?xml version="1.0" encoding="UTF-8"?>
<svg xmlns="http://www.w3.org/2000/svg" xmlns:xlink="http://www.w3.org/1999/xlink" width="100pt" height="150pt" viewBox="0 0 100 150" version="1.1">
<g id="surface13">
<path style=" stroke:none;fill-rule:nonzero;fill:rgb(100%,100%,100%);fill-opacity:1;" d="M 1 17.667969 C 1 8.460938 8.460938 1 17.667969 1 L 82.332031 1 C 91.539062 1 99 8.460938 99 17.667969 L 99 132.332031 C 99 141.539062 91.539062 149 82.332031 149 L 17.667969 149 C 8.460938 149 1 141.539062 1 132.332031 L 1 17.667969 "/>
<path style=" stroke:none;fill-rule:nonzero;fill:rgb(99.607843%,99.607843%,99.607843%);fill-opacity:1;" d="M 5 75 L 5 20 L 95 20 L 95 130 L 5 130 Z M 5 75 "/>
<path style=" stroke:none;fill-rule:nonzero;fill:rgb(0%,0%,0%);fill-opacity:1;" d="M 26 82.46875 C 26 53.410156 26.464844 50.957031 32.433594 48.464844 C 37.347656 46.410156 62.652344 46.410156 67.566406 48.464844 C 73.535156 50.957031 74 53.410156 74 82.46875 L 74 108 L 26 108 Z M 73 84.5 L 73 62 L 27 62 L 27 107 L 73 107 Z M 73 84.5 "/>
<path style=" stroke:none;fill-rule:nonzero;fill:rgb(0%,0%,100%);fill-opacity:1;" d="M 46.300781 78.476562 C 46.074219 80.808594 41.929688 83.5 41.929688 87.121094 C 41.929688 88.296875 42.34375 89.414062 43.425781 89.414062 C 44.039062 89.414062 44.582031 88.894531 44.582031 88.222656 C 44.582031 87.660156 44.527344 87.289062 44.527344 86.878906 C 44.507812 84.320312 48.839844 81.464844 48.839844 77.859375 C 48.839844 76.835938 48.484375 76.460938 47.4375 76.460938 L 40.886719 76.460938 C 40.269531 76.460938 39.785156 76.777344 39.785156 77.46875 C 39.785156 78.160156 40.269531 78.476562 40.886719 78.476562 Z M 46.300781 78.476562 "/>
<path style=" stroke:none;fill-rule:nonzero;fill:rgb(0%,0%,100%);fill-opacity:1;" d="M 53.859375 78.589844 L 58.414062 78.589844 C 59.046875 78.589844 59.550781 78.253906 59.550781 77.523438 C 59.550781 76.796875 59.046875 76.460938 58.414062 76.460938 L 52.796875 76.460938 C 52.046875 76.460938 51.582031 76.796875 51.527344 77.320312 L 51.246094 79.96875 C 51.191406 80.472656 51.132812 80.867188 51.132812 81.257812 C 51.132812 81.949219 51.5625 82.398438 52.347656 82.398438 C 52.757812 82.398438 53.132812 82.324219 53.730469 82.324219 C 56.492188 82.324219 58.394531 82.957031 58.394531 85.195312 C 58.394531 86.242188 57.574219 87.175781 55.445312 87.175781 L 51.789062 87.175781 C 51.152344 87.175781 50.628906 87.511719 50.628906 88.238281 C 50.628906 88.96875 51.152344 89.304688 51.789062 89.304688 L 55.296875 89.304688 C 59.214844 89.304688 60.933594 87.363281 60.933594 84.992188 C 60.933594 82.136719 58.394531 80.195312 54.402344 80.195312 L 53.671875 80.195312 Z M 53.859375 78.589844 "/>
<path style="fill:none;stroke-width:2;stroke-linecap:butt;stroke-linejoin:miter;stroke:rgb(0%,0%,0%);stroke-opacity:1;stroke-miterlimit:10;" d="M 1 17.667969 C 1 8.460938 8.460938 1 17.667969 1 L 82.332031 1 C 91.539062 1 99 8.460938 99 17.667969 L 99 132.332031 C 99 141.539062 91.539062 149 82.332031 149 L 17.667969 149 C 8.460938 149 1 141.539062 1 132.332031 L 1 17.667969 "/>
<path style=" stroke:none;fill-rule:nonzero;fill:rgb(0%,0%,0%);fill-opacity:1;" d="M 11.824219 9.417969 C 11.699219 10.667969 9.480469 12.105469 9.480469 14.042969 C 9.480469 14.667969 9.699219 15.277344 10.277344 15.277344 C 10.605469 15.277344 10.902344 14.996094 10.902344 14.636719 C 10.902344 14.339844 10.871094 14.136719 10.871094 13.917969 C 10.855469 12.542969 13.183594 11.011719 13.183594 9.089844 C 13.183594 8.527344 12.996094 8.339844 12.433594 8.339844 L 8.917969 8.339844 C 8.589844 8.339844 8.339844 8.511719 8.339844 8.871094 C 8.339844 9.246094 8.589844 9.417969 8.917969 9.417969 Z M 15.871094 9.480469 L 18.308594 9.480469 C 18.652344 9.480469 18.917969 9.292969 18.917969 8.902344 C 18.917969 8.511719 18.652344 8.339844 18.308594 8.339844 L 15.308594 8.339844 C 14.902344 8.339844 14.652344 8.511719 14.621094 8.792969 L 14.464844 10.214844 C 14.449219 10.480469 14.417969 10.699219 14.417969 10.902344 C 14.417969 11.277344 14.636719 11.511719 15.058594 11.511719 C 15.277344 11.511719 15.480469 11.480469 15.808594 11.480469 C 17.277344 11.480469 18.308594 11.808594 18.308594 13.011719 C 18.308594 13.574219 17.855469 14.074219 16.714844 14.074219 L 14.761719 14.074219 C 14.417969 14.074219 14.136719 14.261719 14.136719 14.652344 C 14.136719 15.027344 14.417969 15.214844 14.761719 15.214844 L 16.636719 15.214844 C 18.746094 15.214844 19.667969 14.167969 19.667969 12.902344 C 19.667969 11.371094 18.308594 10.339844 16.167969 10.339844 L 15.777344 10.339844 Z M 19.871094 15.214844 "/>
<path style=" stroke:none;fill-rule:nonzero;fill:rgb(0%,0%,0%);fill-opacity:1;" d="M 83.617188 135.808594 C 83.492188 137.058594 81.273438 138.496094 81.273438 140.433594 C 81.273438 141.058594 81.492188 141.667969 82.070312 141.667969 C 82.398438 141.667969 82.695312 141.386719 82.695312 141.027344 C 82.695312 140.730469 82.664062 140.527344 82.664062 140.308594 C 82.648438 138.933594 84.976562 137.402344 84.976562 135.480469 C 84.976562 134.917969 84.789062 134.730469 84.226562 134.730469 L 80.710938 134.730469 C 80.382812 134.730469 80.132812 134.902344 80.132812 135.261719 C 80.132812 135.636719 80.382812 135.808594 80.710938 135.808594 Z M 87.664062 135.871094 L 90.101562 135.871094 C 90.445312 135.871094 90.710938 135.683594 90.710938 135.292969 C 90.710938 134.902344 90.445312 134.730469 90.101562 134.730469 L 87.101562 134.730469 C 86.695312 134.730469 86.445312 134.902344 86.414062 135.183594 L 86.257812 136.605469 C 86.242188 136.871094 86.210938 137.089844 86.210938 137.292969 C 86.210938 137.667969 86.429688 137.902344 86.851562 137.902344 C 87.070312 137.902344 87.273438 137.871094 87.601562 137.871094 C 89.070312 137.871094 90.101562 138.199219 90.101562 139.402344 C 90.101562 139.964844 89.648438 140.464844 88.507812 140.464844 L 86.554688 140.464844 C 86.210938 140.464844 85.929688 140.652344 85.929688 141.042969 C 85.929688 141.417969 86.210938 141.605469 86.554688 141.605469 L 88.429688 141.605469 C 90.539062 141.605469 91.460938 140.558594 91.460938 139.292969 C 91.460938 137.761719 90.101562 136.730469 87.960938 136.730469 L 87.570312 136.730469 Z M 91.664062 141.605469 "/>
</g>
</svg>
