<?xml version="1.0" encoding="UTF-8"?>
<svg xmlns="http://www.w3.org/2000/svg" xmlns:xlink="http://www.w3.org/1999/xlink" width="100pt" height="150pt" viewBox="0 0 100 150" version="1.1">
<g id="surface16">
<path style=" stroke:none;fill-rule:nonzero;fill:rgb(100%,100%,100%);fill-opacity:1;" d="M 1 17.667969 C 1 8.460938 8.460938 1 17.667969 1 L 82.332031 1 C 91.539062 1 99 8.460938 99 17.667969 L 99 132.332031 C 99 141.539062 91.539062 149 82.332031 149 L 17.667969 149 C 8.460938 149 1 141.539062 1 132.332031 L 1 17.667969 "/>
<path style=" stroke:none;fill-rule:nonzero;fill:rgb(99.607843%,99.607843%,99.607843%);fill-opacity:1;" d="M 15 75 L 15 50 L 85 50 L 85 100 L 15 100 Z M 15 75 "/>
<path style=" stroke:none;fill-rule:nonzero;fill:rgb(99.607843%,0%,0%);fill-opacity:1;" d="M 77.207031 95.363281 C 78.132812 94.4375 79.558594 94 80.484375 94.355469 C 82.839844 95.261719 81.355469 97 78.226562 97 C 75.769531 97 75.691406 96.878906 77.207031 95.363281 Z M 28.710938 95.378906 C 28.320312 94.988281 28 93.839844 28 92.832031 C 28 91.667969 27.273438 91 26 91 C 24.691406 91 24 90.332031 24 89.074219 C 24 87.296875 24.734375 87.160156 33.445312 87.296875 C 38.640625 87.382812 42.460938 87.714844 41.933594 88.042969 C 41.40625 88.367188 37.378906 88.503906 32.988281 88.347656 C 28.59375 88.191406 25 88.449219 25 88.917969 C 25 90.160156 39.15625 90.859375 41.402344 89.726562 C 42.539062 89.152344 49.070312 89.03125 57.652344 89.421875 C 68.300781 89.910156 72 89.777344 72 88.914062 C 72 88.113281 70.757812 87.941406 68.058594 88.375 C 65.894531 88.722656 63.886719 88.625 63.601562 88.164062 C 63.316406 87.703125 59.351562 87.441406 54.792969 87.582031 L 46.5 87.839844 L 54.5 87.058594 C 58.898438 86.628906 62.910156 86.648438 63.410156 87.097656 C 63.910156 87.550781 66.273438 87.648438 68.660156 87.324219 C 72.609375 86.78125 73 86.917969 73 88.863281 C 73 90.050781 72.363281 91 71.570312 91 C 70.78125 91 69.996094 92.011719 69.820312 93.25 C 69.382812 96.324219 63.714844 96.539062 63.167969 93.5 C 62.96875 92.398438 62.445312 91.117188 62.003906 90.652344 C 60.609375 89.175781 57.03125 91.035156 56.394531 93.566406 C 55.820312 95.851562 55.359375 96 48.890625 96 C 42.367188 96 42 95.878906 42 93.699219 C 42 91.742188 41.484375 91.398438 38.542969 91.398438 C 35.820312 91.398438 35.023438 91.835938 34.792969 93.449219 C 34.496094 95.515625 30.210938 96.875 28.710938 95.378906 Z M 30.664062 91.75 C 30.386719 91.0625 30.15625 91.625 30.15625 93 C 30.15625 94.375 30.386719 94.9375 30.664062 94.25 C 30.941406 93.5625 30.941406 92.4375 30.664062 91.75 Z M 32.664062 91.75 C 32.386719 91.0625 32.15625 91.625 32.15625 93 C 32.15625 94.375 32.386719 94.9375 32.664062 94.25 C 32.941406 93.5625 32.941406 92.4375 32.664062 91.75 Z M 65.664062 91.75 C 65.386719 91.0625 65.15625 91.625 65.15625 93 C 65.15625 94.375 65.386719 94.9375 65.664062 94.25 C 65.941406 93.5625 65.941406 92.4375 65.664062 91.75 Z M 67.664062 91.75 C 67.386719 91.0625 67.15625 91.625 67.15625 93 C 67.15625 94.375 67.386719 94.9375 67.664062 94.25 C 67.941406 93.5625 67.941406 92.4375 67.664062 91.75 Z M 25.5 84.652344 C 23.539062 78.417969 24.875 70.371094 29.5625 60.230469 L 31.996094 54.960938 L 37.25 55.039062 C 40.136719 55.078125 47.675781 55.09375 54 55.074219 C 65.710938 55.03125 66.960938 55.410156 68.300781 59.390625 C 68.558594 60.15625 69.175781 60.085938 70.28125 59.171875 C 71.167969 58.445312 72.925781 57.992188 74.195312 58.171875 C 78.574219 58.792969 77.34375 66 72.859375 66 C 70.90625 66 70.960938 67.871094 73.070312 73.617188 C 73.5 74.78125 73.460938 77.453125 72.988281 79.554688 C 72.511719 81.65625 72.210938 83.855469 72.3125 84.4375 C 72.589844 86 25.992188 86.214844 25.5 84.652344 Z M 35.429688 81.429688 C 36.292969 80.5625 37 79.246094 37 78.5 C 37 76.75 34.25 74 32.5 74 C 30.75 74 28 76.75 28 78.5 C 28 80.25 30.75 83 32.5 83 C 33.246094 83 34.5625 82.292969 35.429688 81.429688 Z M 30.976562 79.824219 C 31.621094 79.046875 31.539062 78.117188 30.726562 77.074219 C 29.675781 75.726562 29.726562 75.675781 31.074219 76.726562 C 32.117188 77.539062 33.046875 77.621094 33.824219 76.976562 C 34.664062 76.28125 34.71875 76.335938 34.023438 77.175781 C 33.378906 77.953125 33.460938 78.882812 34.273438 79.925781 C 35.324219 81.273438 35.273438 81.324219 33.925781 80.273438 C 32.882812 79.460938 31.953125 79.378906 31.175781 80.023438 C 30.335938 80.71875 30.28125 80.664062 30.976562 79.824219 Z M 68.429688 81.429688 C 69.292969 80.5625 70 79.246094 70 78.5 C 70 77.753906 69.292969 76.4375 68.429688 75.570312 C 66.433594 73.578125 64.566406 73.578125 62.570312 75.570312 C 61.707031 76.4375 61 77.753906 61 78.5 C 61 80.25 63.75 83 65.5 83 C 66.246094 83 67.5625 82.292969 68.429688 81.429688 Z M 63.976562 79.824219 C 64.621094 79.046875 64.539062 78.117188 63.726562 77.074219 C 62.675781 75.726562 62.726562 75.675781 64.074219 76.726562 C 65.117188 77.539062 66.046875 77.621094 66.824219 76.976562 C 67.664062 76.28125 67.71875 76.335938 67.023438 77.175781 C 66.378906 77.953125 66.460938 78.882812 67.273438 79.925781 C 68.324219 81.273438 68.273438 81.324219 66.925781 80.273438 C 65.882812 79.460938 64.953125 79.378906 64.175781 80.023438 C 63.335938 80.71875 63.28125 80.664062 63.976562 79.824219 Z M 54.972656 64.015625 C 60.265625 61.3125 60.476562 60.574219 56.371094 59.089844 C 54.433594 58.390625 53.039062 57.625 53.273438 57.394531 C 53.503906 57.164062 55.28125 57.636719 57.226562 58.449219 C 60.507812 59.820312 60.882812 59.785156 62.535156 57.960938 C 64.28125 56.03125 64.199219 55.996094 57.40625 55.808594 C 53.605469 55.703125 49.375 55.703125 48 55.8125 C 46.625 55.917969 42.53125 56.046875 38.902344 56.097656 L 32.304688 56.1875 L 30.152344 60.621094 C 28.96875 63.058594 28 65.265625 28 65.527344 C 28 65.785156 33.191406 66 39.539062 66 C 49.078125 66 51.753906 65.65625 54.972656 64.015625 Z M 43 63.355469 C 45.476562 62.5625 49.75 61.722656 52.5 61.488281 L 57.5 61.066406 L 53 61.917969 C 50.523438 62.382812 46.699219 63.265625 44.5 63.878906 C 38.78125 65.46875 37.648438 65.074219 43 63.355469 Z M 40.574219 59.421875 C 36.191406 57.816406 34.09375 56.296875 38 57.558594 C 39.375 58.003906 42.523438 58.929688 45 59.617188 C 47.867188 60.410156 48.59375 60.863281 47 60.863281 C 45.625 60.859375 42.734375 60.210938 40.574219 59.421875 Z M 58.332031 57.332031 C 58.699219 56.964844 59.300781 56.964844 59.667969 57.332031 C 60.035156 57.699219 59.734375 58 59 58 C 58.265625 58 57.964844 57.699219 58.332031 57.332031 Z M 60.5 64.9375 C 58.878906 64.292969 59.128906 64.128906 61.808594 64.070312 C 64.042969 64.023438 64.886719 63.625 64.40625 62.84375 C 64.011719 62.210938 64.097656 61.9375 64.59375 62.242188 C 66.460938 63.375 67.820312 60.46875 66.542969 58.082031 L 65.332031 55.816406 L 62.546875 59.160156 C 61.011719 60.996094 58.351562 63.253906 56.628906 64.175781 L 53.5 65.851562 L 58 65.789062 C 61.277344 65.746094 61.957031 65.515625 60.5 64.9375 Z M 62 62 C 62 61.265625 62.300781 60.964844 62.667969 61.332031 C 63.035156 61.699219 63.035156 62.300781 62.667969 62.667969 C 62.300781 63.035156 62 62.734375 62 62 Z M 69.984375 65.25 C 69.949219 63.546875 68.144531 61.792969 67.09375 62.441406 C 66.476562 62.824219 66.269531 63.625 66.636719 64.222656 C 67.023438 64.847656 66.847656 65.023438 66.222656 64.636719 C 65.625 64.269531 64.855469 64.425781 64.511719 64.984375 C 64.136719 65.585938 65.125 66 66.941406 66 C 68.625 66 69.992188 65.664062 69.984375 65.25 Z M 76 64.058594 C 76.273438 64.007812 75.824219 63.492188 75 62.910156 C 73.863281 62.105469 73.804688 61.722656 74.757812 61.339844 C 76.449219 60.652344 75.308594 59 73.140625 59 C 70.414062 59 68.929688 61.003906 70.078125 63.140625 C 70.710938 64.328125 71.84375 64.832031 73.28125 64.5625 C 74.5 64.335938 75.726562 64.109375 76 64.058594 Z M 71.429688 62 C 71.429688 60.703125 71.765625 60.367188 72.414062 61.015625 C 73.0625 61.660156 73.0625 62.339844 72.414062 62.984375 C 71.765625 63.632812 71.429688 63.296875 71.429688 62 Z M 71.429688 62 "/>
<path style=" stroke:none;fill-rule:nonzero;fill:rgb(0%,0%,0%);fill-opacity:1;" d="M 28.710938 95.378906 C 28.320312 94.988281 28 93.839844 28 92.832031 C 28 91.667969 27.273438 91 26 91 C 24.691406 91 24 90.332031 24 89.074219 C 24 87.296875 24.734375 87.160156 33.445312 87.296875 C 38.640625 87.382812 42.460938 87.714844 41.933594 88.042969 C 41.40625 88.367188 37.378906 88.503906 32.988281 88.347656 C 28.59375 88.191406 25 88.449219 25 88.917969 C 25 90.160156 39.15625 90.859375 41.402344 89.726562 C 42.539062 89.152344 49.070312 89.03125 57.652344 89.421875 C 68.300781 89.910156 72 89.777344 72 88.914062 C 72 88.113281 70.757812 87.941406 68.058594 88.375 C 65.894531 88.722656 63.886719 88.625 63.601562 88.164062 C 63.316406 87.703125 59.351562 87.441406 54.792969 87.582031 L 46.5 87.839844 L 54.214844 87.121094 C 58.457031 86.726562 62.148438 86.183594 62.417969 85.917969 C 62.683594 85.648438 54.488281 85.445312 44.203125 85.464844 L 25.5 85.5 L 24.871094 80.5 C 24.175781 74.972656 25.609375 68.789062 29.5625 60.230469 L 31.996094 54.960938 L 37.25 55.039062 C 40.136719 55.078125 47.675781 55.09375 54 55.074219 C 65.710938 55.03125 66.960938 55.410156 68.300781 59.390625 C 68.558594 60.15625 69.175781 60.085938 70.28125 59.171875 C 71.167969 58.445312 72.925781 57.992188 74.195312 58.171875 C 78.574219 58.792969 77.34375 66 72.859375 66 C 70.90625 66 70.960938 67.871094 73.070312 73.617188 C 73.5 74.78125 73.460938 77.453125 72.988281 79.554688 C 72.511719 81.65625 72.210938 83.855469 72.3125 84.4375 C 72.417969 85.03125 70.394531 85.636719 67.726562 85.804688 C 65.097656 85.972656 63.207031 86.523438 63.519531 87.03125 C 63.832031 87.535156 66.09375 87.675781 68.542969 87.339844 C 72.617188 86.78125 73 86.910156 73 88.863281 C 73 90.050781 72.363281 91 71.570312 91 C 70.78125 91 69.996094 92.011719 69.820312 93.25 C 69.382812 96.324219 63.714844 96.539062 63.167969 93.5 C 62.96875 92.398438 62.445312 91.117188 62.003906 90.652344 C 60.609375 89.175781 57.03125 91.035156 56.394531 93.566406 C 55.820312 95.851562 55.359375 96 48.890625 96 C 42.367188 96 42 95.878906 42 93.699219 C 42 91.742188 41.484375 91.398438 38.542969 91.398438 C 35.820312 91.398438 35.023438 91.835938 34.792969 93.449219 C 34.496094 95.515625 30.210938 96.875 28.710938 95.378906 Z M 30.664062 91.75 C 30.386719 91.0625 30.15625 91.625 30.15625 93 C 30.15625 94.375 30.386719 94.9375 30.664062 94.25 C 30.941406 93.5625 30.941406 92.4375 30.664062 91.75 Z M 32.664062 91.75 C 32.386719 91.0625 32.15625 91.625 32.15625 93 C 32.15625 94.375 32.386719 94.9375 32.664062 94.25 C 32.941406 93.5625 32.941406 92.4375 32.664062 91.75 Z M 54.488281 93.984375 C 54.144531 93.425781 53.519531 93.179688 53.097656 93.441406 C 52.675781 93.699219 52.332031 93.332031 52.332031 92.621094 C 52.332031 91.914062 52.914062 91.332031 53.621094 91.332031 C 54.332031 91.332031 54.679688 91.707031 54.398438 92.167969 C 54.113281 92.625 54.359375 93 54.941406 93 C 55.523438 93 56 92.324219 56 91.5 C 56 90.320312 54.609375 90 49.5 90 C 43.234375 90 43 90.089844 43 92.5 C 43 94.890625 43.261719 95 49.058594 95 C 52.910156 95 54.890625 94.628906 54.488281 93.984375 Z M 44.332031 92.5 C 44.332031 91.859375 44.859375 91.332031 45.5 91.332031 C 46.140625 91.332031 46.667969 91.859375 46.667969 92.5 C 46.667969 93.140625 46.140625 93.667969 45.5 93.667969 C 44.859375 93.667969 44.332031 93.140625 44.332031 92.5 Z M 48.332031 92.5 C 48.332031 91.859375 48.859375 91.332031 49.5 91.332031 C 50.140625 91.332031 50.667969 91.859375 50.667969 92.5 C 50.667969 93.140625 50.140625 93.667969 49.5 93.667969 C 48.859375 93.667969 48.332031 93.140625 48.332031 92.5 Z M 65.664062 91.75 C 65.386719 91.0625 65.15625 91.625 65.15625 93 C 65.15625 94.375 65.386719 94.9375 65.664062 94.25 C 65.941406 93.5625 65.941406 92.4375 65.664062 91.75 Z M 67.664062 91.75 C 67.386719 91.0625 67.15625 91.625 67.15625 93 C 67.15625 94.375 67.386719 94.9375 67.664062 94.25 C 67.941406 93.5625 67.941406 92.4375 67.664062 91.75 Z M 71.527344 84.042969 C 71.304688 83.683594 71.5 81.714844 71.960938 79.671875 C 73.347656 73.53125 72.441406 72 67.429688 72 C 65.046875 72 61.941406 72.527344 60.53125 73.167969 C 58.375 74.152344 57.761719 74.054688 56.679688 72.578125 C 55.566406 71.050781 54.847656 70.964844 51.292969 71.921875 C 48.550781 72.660156 46.347656 72.703125 44.632812 72.050781 C 42.945312 71.410156 41.859375 71.417969 41.453125 72.078125 C 41.109375 72.628906 40.074219 72.839844 39.152344 72.546875 C 38.230469 72.253906 35.34375 71.816406 32.742188 71.570312 C 27.296875 71.0625 24.472656 72.917969 25.410156 76.398438 C 25.71875 77.554688 25.980469 79.914062 25.988281 81.640625 L 26 84.777344 L 48.964844 84.734375 C 61.59375 84.710938 71.746094 84.398438 71.527344 84.042969 Z M 29 82 C 27.898438 80.898438 27 79.324219 27 78.5 C 27 76.5625 30.5625 73 32.5 73 C 34.4375 73 38 76.5625 38 78.5 C 38 79.324219 37.101562 80.898438 36 82 C 34.898438 83.101562 33.324219 84 32.5 84 C 31.675781 84 30.101562 83.101562 29 82 Z M 35.429688 81.429688 C 36.292969 80.5625 37 79.246094 37 78.5 C 37 76.75 34.25 74 32.5 74 C 30.75 74 28 76.75 28 78.5 C 28 80.25 30.75 83 32.5 83 C 33.246094 83 34.5625 82.292969 35.429688 81.429688 Z M 30.976562 79.824219 C 31.621094 79.046875 31.539062 78.117188 30.726562 77.074219 C 29.675781 75.726562 29.726562 75.675781 31.074219 76.726562 C 32.117188 77.539062 33.046875 77.621094 33.824219 76.976562 C 34.664062 76.28125 34.71875 76.335938 34.023438 77.175781 C 33.378906 77.953125 33.460938 78.882812 34.273438 79.925781 C 35.324219 81.273438 35.273438 81.324219 33.925781 80.273438 C 32.882812 79.460938 31.953125 79.378906 31.175781 80.023438 C 30.335938 80.71875 30.28125 80.664062 30.976562 79.824219 Z M 62 82 C 60.898438 80.898438 60 79.324219 60 78.5 C 60 76.5625 63.5625 73 65.5 73 C 67.4375 73 71 76.5625 71 78.5 C 71 80.4375 67.4375 84 65.5 84 C 64.675781 84 63.101562 83.101562 62 82 Z M 68.429688 81.429688 C 69.292969 80.5625 70 79.246094 70 78.5 C 70 77.753906 69.292969 76.4375 68.429688 75.570312 C 66.433594 73.578125 64.566406 73.578125 62.570312 75.570312 C 61.707031 76.4375 61 77.753906 61 78.5 C 61 80.25 63.75 83 65.5 83 C 66.246094 83 67.5625 82.292969 68.429688 81.429688 Z M 63.976562 79.824219 C 64.621094 79.046875 64.539062 78.117188 63.726562 77.074219 C 62.675781 75.726562 62.726562 75.675781 64.074219 76.726562 C 65.117188 77.539062 66.046875 77.621094 66.824219 76.976562 C 67.664062 76.28125 67.71875 76.335938 67.023438 77.175781 C 66.378906 77.953125 66.460938 78.882812 67.273438 79.925781 C 68.324219 81.273438 68.273438 81.324219 66.925781 80.273438 C 65.882812 79.460938 64.953125 79.378906 64.175781 80.023438 C 63.335938 80.71875 63.28125 80.664062 63.976562 79.824219 Z M 41.921875 81.75 C 43.804688 79.261719 54.195312 79.261719 56.078125 81.75 C 57.207031 83.238281 57.195312 83.3125 56 82.25 C 55.230469 81.5625 52.078125 81 49 81 C 45.921875 81 42.769531 81.5625 42 82.25 C 40.804688 83.3125 40.792969 83.238281 41.921875 81.75 Z M 44.75 77.269531 C 47.085938 77.058594 50.914062 77.058594 53.25 77.269531 C 55.585938 77.476562 53.675781 77.652344 49 77.652344 C 44.324219 77.652344 42.414062 77.476562 44.75 77.269531 Z M 44.75 75.269531 C 47.085938 75.058594 50.914062 75.058594 53.25 75.269531 C 55.585938 75.476562 53.675781 75.652344 49 75.652344 C 44.324219 75.652344 42.414062 75.476562 44.75 75.269531 Z M 67.066406 71 C 71.28125 71 71.3125 70.976562 70.394531 68.582031 C 69.867188 67.210938 67.023438 67 48.894531 67 C 37.402344 67 28 67.1875 28 67.417969 C 28 67.648438 27.753906 68.476562 27.453125 69.261719 C 27.042969 70.332031 27.707031 70.636719 30.148438 70.492188 C 31.929688 70.386719 34.988281 70.660156 36.945312 71.101562 C 38.898438 71.539062 40.894531 71.507812 41.375 71.023438 C 41.878906 70.519531 43.304688 70.546875 44.722656 71.085938 C 46.328125 71.695312 48.617188 71.640625 51.234375 70.9375 C 54.539062 70.046875 55.550781 70.121094 56.777344 71.347656 C 57.878906 72.449219 58.917969 72.601562 60.703125 71.921875 C 62.039062 71.414062 64.902344 71 67.066406 71 Z M 36 69 C 36 68.265625 36.300781 67.964844 36.667969 68.332031 C 37.035156 68.699219 37.035156 69.300781 36.667969 69.667969 C 36.300781 70.035156 36 69.734375 36 69 Z M 61 69 C 61 68.265625 61.300781 67.964844 61.667969 68.332031 C 62.035156 68.699219 62.035156 69.300781 61.667969 69.667969 C 61.300781 70.035156 61 69.734375 61 69 Z M 54.972656 64.015625 C 60.265625 61.3125 60.476562 60.574219 56.371094 59.089844 C 54.433594 58.390625 53.039062 57.625 53.273438 57.394531 C 53.503906 57.164062 55.28125 57.636719 57.226562 58.449219 C 60.507812 59.820312 60.882812 59.785156 62.535156 57.960938 C 64.28125 56.03125 64.199219 55.996094 57.40625 55.808594 C 53.605469 55.703125 49.375 55.703125 48 55.8125 C 46.625 55.917969 42.53125 56.046875 38.902344 56.097656 L 32.304688 56.1875 L 30.152344 60.621094 C 28.96875 63.058594 28 65.265625 28 65.527344 C 28 65.785156 33.191406 66 39.539062 66 C 49.078125 66 51.753906 65.65625 54.972656 64.015625 Z M 43 63.355469 C 45.476562 62.5625 49.75 61.722656 52.5 61.488281 L 57.5 61.066406 L 53 61.917969 C 50.523438 62.382812 46.699219 63.265625 44.5 63.878906 C 38.78125 65.46875 37.648438 65.074219 43 63.355469 Z M 40.574219 59.421875 C 36.191406 57.816406 34.09375 56.296875 38 57.558594 C 39.375 58.003906 42.523438 58.929688 45 59.617188 C 47.867188 60.410156 48.59375 60.863281 47 60.863281 C 45.625 60.859375 42.734375 60.210938 40.574219 59.421875 Z M 58.332031 57.332031 C 58.699219 56.964844 59.300781 56.964844 59.667969 57.332031 C 60.035156 57.699219 59.734375 58 59 58 C 58.265625 58 57.964844 57.699219 58.332031 57.332031 Z M 60.5 64.9375 C 58.878906 64.292969 59.128906 64.128906 61.808594 64.070312 C 64.042969 64.023438 64.886719 63.625 64.40625 62.84375 C 64.011719 62.210938 64.097656 61.9375 64.59375 62.242188 C 66.460938 63.375 67.820312 60.46875 66.542969 58.082031 L 65.332031 55.816406 L 62.546875 59.160156 C 61.011719 60.996094 58.351562 63.253906 56.628906 64.175781 L 53.5 65.851562 L 58 65.789062 C 61.277344 65.746094 61.957031 65.515625 60.5 64.9375 Z M 62 62 C 62 61.265625 62.300781 60.964844 62.667969 61.332031 C 63.035156 61.699219 63.035156 62.300781 62.667969 62.667969 C 62.300781 63.035156 62 62.734375 62 62 Z M 69.984375 65.25 C 69.949219 63.546875 68.144531 61.792969 67.09375 62.441406 C 66.476562 62.824219 66.269531 63.625 66.636719 64.222656 C 67.023438 64.847656 66.847656 65.023438 66.222656 64.636719 C 65.625 64.269531 64.855469 64.425781 64.511719 64.984375 C 64.136719 65.585938 65.125 66 66.941406 66 C 68.625 66 69.992188 65.664062 69.984375 65.25 Z M 75.5 61.914062 C 75.5 59.195312 72.726562 58.152344 70.472656 60.023438 C 68.375 61.765625 70.390625 65.082031 73.28125 64.640625 C 74.859375 64.398438 75.5 63.609375 75.5 61.914062 Z M 71.429688 62 C 71.429688 60.703125 71.765625 60.367188 72.414062 61.015625 C 73.0625 61.660156 73.0625 62.339844 72.414062 62.984375 C 71.765625 63.632812 71.429688 63.296875 71.429688 62 Z M 74 62.5 C 74 62.226562 74.226562 62 74.5 62 C 74.773438 62 75 62.226562 75 62.5 C 75 62.773438 74.773438 63 74.5 63 C 74.226562 63 74 62.773438 74 62.5 Z M 74 62.5 "/>
<path style="fill:none;stroke-width:2;stroke-linecap:butt;stroke-linejoin:miter;stroke:rgb(0%,0%,0%);stroke-opacity:1;stroke-miterlimit:10;" d="M 1 17.667969 C 1 8.460938 8.460938 1 17.667969 1 L 82.332031 1 C 91.539062 1 99 8.460938 99 17.667969 L 99 132.332031 C 99 141.539062 91.539062 149 82.332031 149 L 17.667969 149 C 8.460938 149 1 141.539062 1 132.332031 L 1 17.667969 "/>
<path style=" stroke:none;fill-rule:nonzero;fill:rgb(0%,0%,0%);fill-opacity:1;" d="M 10.339844 12.550781 C 11.464844 12.550781 12.886719 13.238281 13.152344 14.675781 C 13.261719 15.207031 13.371094 15.503906 13.871094 15.503906 C 14.230469 15.503906 14.480469 15.222656 14.480469 14.707031 C 14.480469 14.394531 14.199219 12.597656 12.886719 10.128906 C 12.324219 9.035156 11.980469 8.535156 11.402344 8.535156 C 10.699219 8.535156 10.386719 9.035156 9.808594 10.128906 C 8.511719 12.597656 8.339844 14.394531 8.339844 14.707031 C 8.339844 15.175781 8.449219 15.503906 8.980469 15.503906 C 9.339844 15.503906 9.558594 15.285156 9.589844 14.910156 C 9.667969 14.238281 9.808594 13.285156 10.089844 12.550781 Z M 10.386719 11.550781 C 10.636719 10.925781 10.980469 10.332031 11.371094 9.738281 C 11.871094 10.519531 12.246094 11.347656 12.542969 12.207031 L 12.527344 12.238281 C 11.871094 11.691406 11.011719 11.550781 10.511719 11.550781 Z M 17.230469 10.394531 C 15.902344 10.394531 15.058594 11.394531 15.058594 12.582031 C 15.058594 13.925781 16.105469 15.472656 18.527344 15.472656 C 19.464844 15.472656 19.730469 15.300781 19.730469 14.910156 C 19.730469 14.457031 19.527344 14.332031 18.699219 14.332031 C 17.355469 14.332031 16.386719 13.753906 16.386719 12.550781 C 16.386719 12.035156 16.761719 11.535156 17.464844 11.535156 L 18.980469 11.535156 C 19.308594 11.535156 19.589844 11.347656 19.589844 10.957031 C 19.589844 10.566406 19.308594 10.394531 18.980469 10.394531 Z M 22.230469 10.394531 C 20.902344 10.394531 20.058594 11.394531 20.058594 12.582031 C 20.058594 13.925781 21.105469 15.472656 23.527344 15.472656 C 24.464844 15.472656 24.730469 15.300781 24.730469 14.910156 C 24.730469 14.457031 24.527344 14.332031 23.699219 14.332031 C 22.355469 14.332031 21.386719 13.753906 21.386719 12.550781 C 21.386719 12.035156 21.761719 11.535156 22.464844 11.535156 L 23.980469 11.535156 C 24.308594 11.535156 24.589844 11.347656 24.589844 10.957031 C 24.589844 10.566406 24.308594 10.394531 23.980469 10.394531 Z M 26.730469 10.988281 C 26.730469 10.628906 26.542969 10.332031 26.136719 10.332031 C 25.730469 10.332031 25.542969 10.628906 25.542969 10.988281 L 25.542969 14.847656 C 25.542969 15.207031 25.730469 15.503906 26.136719 15.503906 C 26.542969 15.503906 26.730469 15.207031 26.730469 14.847656 Z M 26.136719 8.332031 C 25.761719 8.332031 25.480469 8.597656 25.480469 9.066406 C 25.480469 9.550781 25.761719 9.816406 26.136719 9.816406 C 26.511719 9.816406 26.792969 9.550781 26.792969 9.066406 C 26.792969 8.597656 26.511719 8.332031 26.136719 8.332031 Z M 32.460938 9.019531 C 32.460938 8.660156 32.257812 8.363281 31.851562 8.363281 C 31.445312 8.363281 31.257812 8.660156 31.257812 9.019531 L 31.257812 10.332031 C 28.960938 10.332031 27.820312 11.753906 27.820312 13.253906 C 27.820312 14.457031 28.648438 15.472656 30.304688 15.472656 L 31.851562 15.472656 C 32.320312 15.472656 32.460938 15.253906 32.460938 14.941406 Z M 31.257812 14.394531 L 30.164062 14.394531 C 29.476562 14.394531 29.085938 13.878906 29.085938 13.238281 C 29.085938 12.128906 30.179688 11.410156 31.257812 11.410156 Z M 37.664062 15.472656 C 37.992188 15.472656 38.242188 15.300781 38.242188 14.925781 C 38.242188 14.566406 37.992188 14.394531 37.664062 14.394531 L 36.382812 14.394531 C 35.539062 14.394531 34.820312 14.144531 34.742188 13.207031 L 37.804688 13.207031 C 38.226562 13.207031 38.289062 12.957031 38.289062 12.613281 C 38.289062 11.441406 37.601562 10.332031 35.929688 10.332031 C 34.398438 10.332031 33.429688 11.503906 33.429688 13.003906 C 33.429688 14.488281 34.429688 15.472656 36.210938 15.472656 Z M 34.820312 12.300781 C 34.960938 11.707031 35.460938 11.332031 35.929688 11.332031 C 36.398438 11.332031 36.898438 11.707031 37.039062 12.300781 Z M 39.253906 14.847656 C 39.253906 15.207031 39.441406 15.503906 39.847656 15.503906 C 40.269531 15.503906 40.457031 15.207031 40.457031 14.847656 L 40.457031 12.816406 C 40.457031 11.878906 40.894531 11.410156 41.582031 11.410156 C 42.113281 11.410156 42.378906 11.753906 42.378906 12.457031 L 42.378906 14.847656 C 42.378906 15.207031 42.582031 15.503906 42.988281 15.503906 C 43.394531 15.503906 43.582031 15.207031 43.582031 14.847656 L 43.582031 12.128906 C 43.582031 11.113281 42.878906 10.332031 41.800781 10.332031 C 41.253906 10.332031 40.847656 10.488281 40.457031 10.878906 C 40.457031 10.628906 40.269531 10.332031 39.847656 10.332031 C 39.441406 10.332031 39.253906 10.628906 39.253906 10.988281 Z M 47.28125 11.472656 C 47.609375 11.472656 47.859375 11.300781 47.859375 10.925781 C 47.859375 10.566406 47.609375 10.394531 47.28125 10.394531 L 46.40625 10.394531 L 46.40625 9.535156 C 46.40625 9.175781 46.21875 8.894531 45.796875 8.894531 C 45.390625 8.894531 45.203125 9.175781 45.203125 9.535156 L 45.203125 10.394531 L 44.859375 10.394531 C 44.53125 10.394531 44.265625 10.566406 44.265625 10.925781 C 44.265625 11.300781 44.53125 11.472656 44.859375 11.472656 L 45.203125 11.472656 L 45.203125 13.628906 C 45.203125 15.472656 45.90625 15.472656 47.421875 15.472656 C 47.96875 15.472656 48.234375 15.285156 48.234375 14.910156 C 48.234375 14.519531 47.96875 14.332031 47.625 14.332031 L 46.984375 14.332031 C 46.515625 14.332031 46.40625 14.050781 46.40625 13.457031 L 46.40625 11.472656 Z M 48.09375 15.472656 "/>
<path style=" stroke:none;fill-rule:nonzero;fill:rgb(0%,0%,0%);fill-opacity:1;" d="M 53.914062 138.714844 C 55.039062 138.714844 56.460938 139.402344 56.726562 140.839844 C 56.835938 141.371094 56.945312 141.667969 57.445312 141.667969 C 57.804688 141.667969 58.054688 141.386719 58.054688 140.871094 C 58.054688 140.558594 57.773438 138.761719 56.460938 136.292969 C 55.898438 135.199219 55.554688 134.699219 54.976562 134.699219 C 54.273438 134.699219 53.960938 135.199219 53.382812 136.292969 C 52.085938 138.761719 51.914062 140.558594 51.914062 140.871094 C 51.914062 141.339844 52.023438 141.667969 52.554688 141.667969 C 52.914062 141.667969 53.132812 141.449219 53.164062 141.074219 C 53.242188 140.402344 53.382812 139.449219 53.664062 138.714844 Z M 53.960938 137.714844 C 54.210938 137.089844 54.554688 136.496094 54.945312 135.902344 C 55.445312 136.683594 55.820312 137.511719 56.117188 138.371094 L 56.101562 138.402344 C 55.445312 137.855469 54.585938 137.714844 54.085938 137.714844 Z M 60.804688 136.558594 C 59.476562 136.558594 58.632812 137.558594 58.632812 138.746094 C 58.632812 140.089844 59.679688 141.636719 62.101562 141.636719 C 63.039062 141.636719 63.304688 141.464844 63.304688 141.074219 C 63.304688 140.621094 63.101562 140.496094 62.273438 140.496094 C 60.929688 140.496094 59.960938 139.917969 59.960938 138.714844 C 59.960938 138.199219 60.335938 137.699219 61.039062 137.699219 L 62.554688 137.699219 C 62.882812 137.699219 63.164062 137.511719 63.164062 137.121094 C 63.164062 136.730469 62.882812 136.558594 62.554688 136.558594 Z M 65.804688 136.558594 C 64.476562 136.558594 63.632812 137.558594 63.632812 138.746094 C 63.632812 140.089844 64.679688 141.636719 67.101562 141.636719 C 68.039062 141.636719 68.304688 141.464844 68.304688 141.074219 C 68.304688 140.621094 68.101562 140.496094 67.273438 140.496094 C 65.929688 140.496094 64.960938 139.917969 64.960938 138.714844 C 64.960938 138.199219 65.335938 137.699219 66.039062 137.699219 L 67.554688 137.699219 C 67.882812 137.699219 68.164062 137.511719 68.164062 137.121094 C 68.164062 136.730469 67.882812 136.558594 67.554688 136.558594 Z M 70.304688 137.152344 C 70.304688 136.792969 70.117188 136.496094 69.710938 136.496094 C 69.304688 136.496094 69.117188 136.792969 69.117188 137.152344 L 69.117188 141.011719 C 69.117188 141.371094 69.304688 141.667969 69.710938 141.667969 C 70.117188 141.667969 70.304688 141.371094 70.304688 141.011719 Z M 69.710938 134.496094 C 69.335938 134.496094 69.054688 134.761719 69.054688 135.230469 C 69.054688 135.714844 69.335938 135.980469 69.710938 135.980469 C 70.085938 135.980469 70.367188 135.714844 70.367188 135.230469 C 70.367188 134.761719 70.085938 134.496094 69.710938 134.496094 Z M 76.035156 135.183594 C 76.035156 134.824219 75.832031 134.527344 75.425781 134.527344 C 75.019531 134.527344 74.832031 134.824219 74.832031 135.183594 L 74.832031 136.496094 C 72.535156 136.496094 71.394531 137.917969 71.394531 139.417969 C 71.394531 140.621094 72.222656 141.636719 73.878906 141.636719 L 75.425781 141.636719 C 75.894531 141.636719 76.035156 141.417969 76.035156 141.105469 Z M 74.832031 140.558594 L 73.738281 140.558594 C 73.050781 140.558594 72.660156 140.042969 72.660156 139.402344 C 72.660156 138.292969 73.753906 137.574219 74.832031 137.574219 Z M 81.238281 141.636719 C 81.566406 141.636719 81.816406 141.464844 81.816406 141.089844 C 81.816406 140.730469 81.566406 140.558594 81.238281 140.558594 L 79.957031 140.558594 C 79.113281 140.558594 78.394531 140.308594 78.316406 139.371094 L 81.378906 139.371094 C 81.800781 139.371094 81.863281 139.121094 81.863281 138.777344 C 81.863281 137.605469 81.175781 136.496094 79.503906 136.496094 C 77.972656 136.496094 77.003906 137.667969 77.003906 139.167969 C 77.003906 140.652344 78.003906 141.636719 79.785156 141.636719 Z M 78.394531 138.464844 C 78.535156 137.871094 79.035156 137.496094 79.503906 137.496094 C 79.972656 137.496094 80.472656 137.871094 80.613281 138.464844 Z M 82.828125 141.011719 C 82.828125 141.371094 83.015625 141.667969 83.421875 141.667969 C 83.84375 141.667969 84.03125 141.371094 84.03125 141.011719 L 84.03125 138.980469 C 84.03125 138.042969 84.46875 137.574219 85.15625 137.574219 C 85.6875 137.574219 85.953125 137.917969 85.953125 138.621094 L 85.953125 141.011719 C 85.953125 141.371094 86.15625 141.667969 86.5625 141.667969 C 86.96875 141.667969 87.15625 141.371094 87.15625 141.011719 L 87.15625 138.292969 C 87.15625 137.277344 86.453125 136.496094 85.375 136.496094 C 84.828125 136.496094 84.421875 136.652344 84.03125 137.042969 C 84.03125 136.792969 83.84375 136.496094 83.421875 136.496094 C 83.015625 136.496094 82.828125 136.792969 82.828125 137.152344 Z M 90.855469 137.636719 C 91.183594 137.636719 91.433594 137.464844 91.433594 137.089844 C 91.433594 136.730469 91.183594 136.558594 90.855469 136.558594 L 89.980469 136.558594 L 89.980469 135.699219 C 89.980469 135.339844 89.792969 135.058594 89.371094 135.058594 C 88.964844 135.058594 88.777344 135.339844 88.777344 135.699219 L 88.777344 136.558594 L 88.433594 136.558594 C 88.105469 136.558594 87.839844 136.730469 87.839844 137.089844 C 87.839844 137.464844 88.105469 137.636719 88.433594 137.636719 L 88.777344 137.636719 L 88.777344 139.792969 C 88.777344 141.636719 89.480469 141.636719 90.996094 141.636719 C 91.542969 141.636719 91.808594 141.449219 91.808594 141.074219 C 91.808594 140.683594 91.542969 140.496094 91.199219 140.496094 L 90.558594 140.496094 C 90.089844 140.496094 89.980469 140.214844 89.980469 139.621094 L 89.980469 137.636719 Z M 91.667969 141.636719 "/>
</g>
</svg>
