<?xml version="1.0" encoding="UTF-8"?>
<svg xmlns="http://www.w3.org/2000/svg" xmlns:xlink="http://www.w3.org/1999/xlink" width="100pt" height="150pt" viewBox="0 0 100 150" version="1.1">
<g id="surface1">
<path style=" stroke:none;fill-rule:nonzero;fill:rgb(100%,100%,100%);fill-opacity:1;" d="M 1 17.667969 C 1 8.460938 8.460938 1 17.667969 1 L 82.332031 1 C 91.539062 1 99 8.460938 99 17.667969 L 99 132.332031 C 99 141.539062 91.539062 149 82.332031 149 L 17.667969 149 C 8.460938 149 1 141.539062 1 132.332031 L 1 17.667969 "/>
<path style=" stroke:none;fill-rule:nonzero;fill:rgb(99.607843%,99.607843%,99.607843%);fill-opacity:1;" d="M 5.117188 79.636719 C 5.117188 35.066406 5.289062 29.449219 6.65625 29.449219 C 7.527344 29.449219 7.972656 30.023438 7.683594 30.777344 C 7.402344 31.507812 7.820312 32.109375 8.605469 32.109375 C 9.535156 32.109375 9.816406 31.523438 9.402344 30.449219 C 8.992188 29.382812 9.15625 29.03125 9.863281 29.46875 C 11.851562 30.695312 12.121094 28.371094 10.261719 26.074219 L 8.4375 23.820312 L 5.117188 28.5625 L 5.117188 20.144531 L 94.855469 20.144531 L 94.855469 129.820312 L 5.117188 129.820312 Z M 90.167969 119.1875 C 89.757812 118.121094 89.921875 117.773438 90.628906 118.207031 C 92.613281 119.4375 92.886719 117.113281 91.027344 114.816406 L 89.203125 112.5625 L 87.582031 114.875 C 85.890625 117.289062 86.222656 119.375 88.113281 118.207031 C 88.820312 117.773438 88.984375 118.121094 88.574219 119.1875 C 88.164062 120.261719 88.445312 120.847656 89.371094 120.847656 C 90.296875 120.847656 90.578125 120.261719 90.167969 119.1875 Z M 35.03125 78.472656 C 36.007812 77.292969 38.84375 76.976562 48.488281 76.976562 C 58.136719 76.976562 60.972656 77.292969 61.949219 78.472656 C 62.632812 79.292969 63.980469 79.96875 64.941406 79.96875 C 65.90625 79.96875 67.25 79.292969 67.933594 78.472656 C 68.617188 77.648438 69.945312 76.976562 70.886719 76.976562 C 73.289062 76.976562 75.222656 72.4375 73.886719 69.941406 C 73.316406 68.875 72.164062 68.003906 71.328125 68.003906 C 70.492188 68.003906 70.085938 67.554688 70.425781 67.003906 C 70.765625 66.457031 70.089844 66.007812 68.929688 66.007812 C 67.769531 66.007812 67.09375 66.457031 67.433594 67.003906 C 68.371094 68.523438 65.851562 68.207031 59.457031 66.007812 C 51.40625 63.238281 43.195312 63.378906 37.238281 66.394531 C 34.652344 67.703125 30.738281 69.3125 28.542969 69.96875 C 26.34375 70.625 23.707031 71.777344 22.683594 72.527344 C 20.074219 74.4375 21.339844 76.976562 24.90625 76.976562 C 26.5 76.976562 28.363281 77.648438 29.046875 78.472656 C 29.730469 79.292969 31.074219 79.96875 32.039062 79.96875 C 33 79.96875 34.347656 79.292969 35.03125 78.472656 Z M 31.042969 75.980469 C 31.042969 75.429688 31.488281 74.980469 32.039062 74.980469 C 32.585938 74.980469 33.035156 75.429688 33.035156 75.980469 C 33.035156 76.527344 32.585938 76.976562 32.039062 76.976562 C 31.488281 76.976562 31.042969 76.527344 31.042969 75.980469 Z M 63.945312 75.980469 C 63.945312 75.429688 64.394531 74.980469 64.941406 74.980469 C 65.488281 74.980469 65.9375 75.429688 65.9375 75.980469 C 65.9375 76.527344 65.488281 76.976562 64.941406 76.976562 C 64.394531 76.976562 63.945312 76.527344 63.945312 75.980469 Z M 38.019531 67.003906 C 39.941406 65.953125 43.039062 65.078125 44.90625 65.054688 C 48.238281 65.011719 48.265625 65.046875 46.496094 67.003906 C 45.128906 68.515625 43.460938 68.988281 39.609375 68.957031 L 34.53125 68.917969 Z M 47.753906 66.886719 C 49.730469 64.835938 50.265625 64.707031 52.09375 65.847656 C 53.242188 66.566406 53.886719 66.671875 53.519531 66.082031 C 52.683594 64.726562 53.601562 64.820312 57.960938 66.535156 L 61.453125 67.910156 L 57.464844 67.820312 C 55.269531 67.769531 51.679688 68.066406 49.488281 68.476562 L 45.5 69.226562 Z M 47.753906 66.886719 "/>
<path style=" stroke:none;fill-rule:nonzero;fill:rgb(0%,0%,99.607843%);fill-opacity:1;" d="M 88.574219 119.1875 C 88.984375 118.121094 88.820312 117.773438 88.113281 118.207031 C 86.222656 119.375 85.890625 117.289062 87.582031 114.875 L 89.203125 112.5625 L 91.027344 114.816406 C 92.886719 117.113281 92.613281 119.4375 90.628906 118.207031 C 89.921875 117.773438 89.757812 118.121094 90.167969 119.1875 C 90.578125 120.261719 90.296875 120.847656 89.371094 120.847656 C 88.445312 120.847656 88.164062 120.261719 88.574219 119.1875 Z M 22.066406 74.925781 C 22.066406 74.347656 23.972656 73.039062 26.304688 72.015625 C 29.777344 70.496094 34.339844 70.035156 51.574219 69.449219 C 70.859375 68.796875 72.660156 68.878906 73.257812 70.4375 C 74.03125 72.457031 72.359375 75.980469 70.628906 75.980469 C 69.960938 75.980469 68.847656 75.082031 68.164062 73.984375 C 67.480469 72.886719 66.03125 71.992188 64.941406 71.992188 C 63.855469 71.992188 62.402344 72.886719 61.71875 73.984375 C 60.585938 75.800781 59.394531 75.980469 48.488281 75.980469 C 37.585938 75.980469 36.394531 75.800781 35.261719 73.984375 C 34.574219 72.886719 33.125 71.992188 32.039062 71.992188 C 30.949219 71.992188 29.5 72.886719 28.816406 73.984375 C 27.507812 76.082031 22.066406 76.839844 22.066406 74.925781 Z M 7.808594 30.449219 C 8.21875 29.382812 8.054688 29.03125 7.347656 29.46875 C 5.457031 30.636719 5.125 28.550781 6.820312 26.132812 L 8.4375 23.820312 L 10.261719 26.074219 C 12.121094 28.371094 11.851562 30.695312 9.863281 29.46875 C 9.15625 29.03125 8.992188 29.382812 9.402344 30.449219 C 9.816406 31.523438 9.535156 32.109375 8.605469 32.109375 C 7.679688 32.109375 7.398438 31.523438 7.808594 30.449219 Z M 7.808594 30.449219 "/>
<path style=" stroke:none;fill-rule:nonzero;fill:rgb(0%,0%,0%);fill-opacity:1;" d="M 29.046875 78.472656 C 28.363281 77.648438 26.5 76.976562 24.90625 76.976562 C 21.339844 76.976562 20.074219 74.4375 22.683594 72.527344 C 23.707031 71.777344 26.34375 70.625 28.542969 69.96875 C 30.738281 69.3125 34.652344 67.703125 37.238281 66.394531 C 43.195312 63.378906 51.40625 63.238281 59.457031 66.007812 C 65.851562 68.207031 68.371094 68.523438 67.433594 67.003906 C 67.09375 66.457031 67.769531 66.007812 68.929688 66.007812 C 70.089844 66.007812 70.765625 66.457031 70.425781 67.003906 C 70.085938 67.554688 70.492188 68.003906 71.328125 68.003906 C 72.164062 68.003906 73.316406 68.875 73.886719 69.941406 C 75.222656 72.4375 73.289062 76.976562 70.886719 76.976562 C 69.945312 76.976562 68.617188 77.648438 67.933594 78.472656 C 67.25 79.292969 65.90625 79.96875 64.941406 79.96875 C 63.980469 79.96875 62.632812 79.292969 61.949219 78.472656 C 60.972656 77.292969 58.136719 76.976562 48.488281 76.976562 C 38.84375 76.976562 36.007812 77.292969 35.03125 78.472656 C 34.347656 79.292969 33 79.96875 32.039062 79.96875 C 31.074219 79.96875 29.730469 79.292969 29.046875 78.472656 Z M 33.035156 75.980469 C 33.035156 75.429688 32.585938 74.980469 32.039062 74.980469 C 31.488281 74.980469 31.042969 75.429688 31.042969 75.980469 C 31.042969 76.527344 31.488281 76.976562 32.039062 76.976562 C 32.585938 76.976562 33.035156 76.527344 33.035156 75.980469 Z M 65.9375 75.980469 C 65.9375 75.429688 65.488281 74.980469 64.941406 74.980469 C 64.394531 74.980469 63.945312 75.429688 63.945312 75.980469 C 63.945312 76.527344 64.394531 76.976562 64.941406 76.976562 C 65.488281 76.976562 65.9375 76.527344 65.9375 75.980469 Z M 28.816406 73.984375 C 29.5 72.886719 30.949219 71.992188 32.039062 71.992188 C 33.125 71.992188 34.574219 72.886719 35.261719 73.984375 C 36.394531 75.800781 37.585938 75.980469 48.488281 75.980469 C 59.394531 75.980469 60.585938 75.800781 61.71875 73.984375 C 62.402344 72.886719 63.855469 71.992188 64.941406 71.992188 C 66.03125 71.992188 67.480469 72.886719 68.164062 73.984375 C 68.847656 75.082031 69.960938 75.980469 70.628906 75.980469 C 72.359375 75.980469 74.03125 72.457031 73.257812 70.4375 C 72.660156 68.878906 70.859375 68.796875 51.574219 69.449219 C 34.339844 70.035156 29.777344 70.496094 26.304688 72.015625 C 21.464844 74.136719 20.773438 75.980469 24.820312 75.980469 C 26.488281 75.980469 28.058594 75.195312 28.816406 73.984375 Z M 46.496094 67.003906 C 48.265625 65.046875 48.238281 65.011719 44.90625 65.054688 C 43.039062 65.078125 39.941406 65.953125 38.019531 67.003906 L 34.53125 68.917969 L 39.609375 68.957031 C 43.460938 68.988281 45.128906 68.515625 46.496094 67.003906 Z M 57.464844 67.820312 L 61.453125 67.910156 L 57.960938 66.535156 C 53.601562 64.820312 52.683594 64.726562 53.519531 66.082031 C 53.886719 66.671875 53.242188 66.566406 52.09375 65.847656 C 50.265625 64.707031 49.730469 64.835938 47.753906 66.886719 L 45.5 69.226562 L 49.488281 68.476562 C 51.679688 68.066406 55.269531 67.769531 57.464844 67.820312 Z M 57.464844 67.820312 "/>
<path style="fill:none;stroke-width:2;stroke-linecap:butt;stroke-linejoin:miter;stroke:rgb(0%,0%,0%);stroke-opacity:1;stroke-miterlimit:10;" d="M 1 17.667969 C 1 8.460938 8.460938 1 17.667969 1 L 82.332031 1 C 91.539062 1 99 8.460938 99 17.667969 L 99 132.332031 C 99 141.539062 91.539062 149 82.332031 149 L 17.667969 149 C 8.460938 149 1 141.539062 1 132.332031 L 1 17.667969 "/>
<path style=" stroke:none;fill-rule:nonzero;fill:rgb(0%,0%,0%);fill-opacity:1;" d="M 10.339844 12.519531 C 11.464844 12.519531 12.886719 13.207031 13.152344 14.644531 C 13.261719 15.175781 13.371094 15.472656 13.871094 15.472656 C 14.230469 15.472656 14.480469 15.191406 14.480469 14.675781 C 14.480469 14.363281 14.199219 12.566406 12.886719 10.097656 C 12.324219 9.003906 11.980469 8.503906 11.402344 8.503906 C 10.699219 8.503906 10.386719 9.003906 9.808594 10.097656 C 8.511719 12.566406 8.339844 14.363281 8.339844 14.675781 C 8.339844 15.144531 8.449219 15.472656 8.980469 15.472656 C 9.339844 15.472656 9.558594 15.253906 9.589844 14.878906 C 9.667969 14.207031 9.808594 13.253906 10.089844 12.519531 Z M 10.386719 11.519531 C 10.636719 10.894531 10.980469 10.300781 11.371094 9.707031 C 11.871094 10.488281 12.246094 11.316406 12.542969 12.175781 L 12.527344 12.207031 C 11.871094 11.660156 11.011719 11.519531 10.511719 11.519531 Z M 17.496094 15.441406 C 18.621094 15.441406 19.464844 14.925781 19.464844 13.722656 C 19.464844 11.613281 16.308594 12.378906 16.308594 11.691406 C 16.308594 11.457031 16.558594 11.441406 16.746094 11.441406 L 18.496094 11.441406 C 18.808594 11.441406 19.074219 11.269531 19.074219 10.894531 C 19.074219 10.535156 18.808594 10.363281 18.496094 10.363281 L 16.808594 10.363281 C 15.714844 10.363281 15.121094 10.769531 15.121094 11.675781 C 15.121094 13.769531 18.261719 12.675781 18.261719 13.707031 C 18.261719 14.253906 17.886719 14.363281 17.402344 14.363281 L 15.605469 14.363281 C 15.277344 14.363281 15.011719 14.535156 15.011719 14.894531 C 15.011719 15.269531 15.277344 15.441406 15.605469 15.441406 Z M 27.730469 8.988281 C 27.730469 8.628906 27.527344 8.332031 27.121094 8.332031 C 26.714844 8.332031 26.527344 8.628906 26.527344 8.988281 L 26.527344 10.300781 C 24.230469 10.300781 23.089844 11.722656 23.089844 13.222656 C 23.089844 14.425781 23.917969 15.441406 25.574219 15.441406 L 27.121094 15.441406 C 27.589844 15.441406 27.730469 15.222656 27.730469 14.910156 Z M 26.527344 14.363281 L 25.433594 14.363281 C 24.746094 14.363281 24.355469 13.847656 24.355469 13.207031 C 24.355469 12.097656 25.449219 11.378906 26.527344 11.378906 Z M 33.292969 10.957031 C 33.292969 10.597656 33.105469 10.300781 32.699219 10.300781 C 32.292969 10.300781 32.089844 10.597656 32.089844 10.957031 L 32.089844 13.019531 C 32.089844 13.957031 31.652344 14.425781 30.980469 14.425781 C 30.433594 14.425781 30.167969 14.082031 30.167969 13.378906 L 30.167969 10.957031 C 30.167969 10.597656 29.980469 10.300781 29.558594 10.300781 C 29.152344 10.300781 28.964844 10.597656 28.964844 10.957031 L 28.964844 13.707031 C 28.964844 14.722656 29.667969 15.503906 30.746094 15.503906 C 31.292969 15.503906 31.699219 15.347656 32.089844 14.957031 C 32.089844 15.207031 32.292969 15.503906 32.699219 15.503906 C 33.105469 15.503906 33.292969 15.207031 33.292969 14.847656 Z M 39.464844 14.207031 C 38.933594 13.441406 38.652344 12.253906 38.496094 11.238281 C 38.402344 10.597656 38.308594 10.300781 37.871094 10.300781 C 37.480469 10.300781 37.292969 10.503906 37.292969 10.847656 C 37.292969 12.019531 37.824219 13.675781 38.667969 15.050781 C 38.886719 15.394531 39.183594 15.503906 39.464844 15.503906 C 39.746094 15.503906 40.042969 15.394531 40.261719 15.050781 C 41.105469 13.675781 41.636719 12.019531 41.636719 10.847656 C 41.636719 10.503906 41.449219 10.300781 41.058594 10.300781 C 40.621094 10.300781 40.527344 10.597656 40.433594 11.238281 C 40.277344 12.253906 39.996094 13.441406 39.464844 14.207031 Z M 47.199219 12.894531 C 47.199219 11.441406 46.308594 10.300781 44.746094 10.300781 C 43.183594 10.300781 42.277344 11.441406 42.277344 12.894531 C 42.277344 14.363281 43.183594 15.503906 44.746094 15.503906 C 46.308594 15.503906 47.199219 14.363281 47.199219 12.894531 Z M 45.949219 12.894531 C 45.949219 13.707031 45.558594 14.425781 44.746094 14.425781 C 43.917969 14.425781 43.542969 13.707031 43.542969 12.894531 C 43.542969 12.097656 43.917969 11.378906 44.746094 11.378906 C 45.558594 11.378906 45.949219 12.097656 45.949219 12.894531 Z M 49.507812 8.988281 C 49.507812 8.628906 49.320312 8.332031 48.914062 8.332031 C 48.507812 8.332031 48.320312 8.628906 48.320312 8.988281 L 48.320312 14.816406 C 48.320312 15.175781 48.507812 15.472656 48.914062 15.472656 C 49.320312 15.472656 49.507812 15.175781 49.507812 14.816406 Z M 55.007812 12.066406 C 55.007812 10.832031 54.382812 10.363281 53.320312 10.363281 L 51.570312 10.363281 C 51.242188 10.363281 50.992188 10.535156 50.992188 10.894531 C 50.992188 11.269531 51.242188 11.441406 51.570312 11.441406 L 53.398438 11.441406 C 53.679688 11.441406 53.804688 11.582031 53.804688 12.097656 L 53.382812 12.097656 C 52.210938 12.097656 50.601562 12.488281 50.601562 13.925781 C 50.601562 14.878906 51.351562 15.503906 52.351562 15.503906 C 53.039062 15.503906 53.585938 15.316406 53.898438 14.925781 C 53.929688 15.300781 54.085938 15.503906 54.414062 15.503906 C 54.851562 15.503906 55.007812 15.253906 55.007812 14.847656 Z M 53.867188 13.628906 C 53.867188 14.207031 53.289062 14.535156 52.726562 14.535156 C 52.117188 14.535156 51.804688 14.269531 51.804688 13.863281 C 51.804688 13.394531 52.476562 12.988281 53.867188 12.988281 Z M 56.472656 14.816406 C 56.472656 15.175781 56.660156 15.472656 57.066406 15.472656 C 57.488281 15.472656 57.675781 15.175781 57.675781 14.816406 L 57.675781 12.785156 C 57.675781 11.847656 58.113281 11.378906 58.800781 11.378906 C 59.332031 11.378906 59.597656 11.722656 59.597656 12.425781 L 59.597656 14.816406 C 59.597656 15.175781 59.800781 15.472656 60.207031 15.472656 C 60.613281 15.472656 60.800781 15.175781 60.800781 14.816406 L 60.800781 12.097656 C 60.800781 11.082031 60.097656 10.300781 59.019531 10.300781 C 58.472656 10.300781 58.066406 10.457031 57.675781 10.847656 C 57.675781 10.597656 57.488281 10.300781 57.066406 10.300781 C 56.660156 10.300781 56.472656 10.597656 56.472656 10.957031 Z M 64.503906 11.441406 C 64.832031 11.441406 65.082031 11.269531 65.082031 10.894531 C 65.082031 10.535156 64.832031 10.363281 64.503906 10.363281 L 63.628906 10.363281 L 63.628906 9.503906 C 63.628906 9.144531 63.441406 8.863281 63.019531 8.863281 C 62.613281 8.863281 62.425781 9.144531 62.425781 9.503906 L 62.425781 10.363281 L 62.082031 10.363281 C 61.753906 10.363281 61.488281 10.535156 61.488281 10.894531 C 61.488281 11.269531 61.753906 11.441406 62.082031 11.441406 L 62.425781 11.441406 L 62.425781 13.597656 C 62.425781 15.441406 63.128906 15.441406 64.644531 15.441406 C 65.191406 15.441406 65.457031 15.253906 65.457031 14.878906 C 65.457031 14.488281 65.191406 14.300781 64.847656 14.300781 L 64.207031 14.300781 C 63.738281 14.300781 63.628906 14.019531 63.628906 13.425781 L 63.628906 11.441406 Z M 65.3125 15.441406 "/>
<path style=" stroke:none;fill-rule:nonzero;fill:rgb(0%,0%,0%);fill-opacity:1;" d="M 36.691406 138.683594 C 37.816406 138.683594 39.238281 139.371094 39.503906 140.808594 C 39.613281 141.339844 39.722656 141.636719 40.222656 141.636719 C 40.582031 141.636719 40.832031 141.355469 40.832031 140.839844 C 40.832031 140.527344 40.550781 138.730469 39.238281 136.261719 C 38.675781 135.167969 38.332031 134.667969 37.753906 134.667969 C 37.050781 134.667969 36.738281 135.167969 36.160156 136.261719 C 34.863281 138.730469 34.691406 140.527344 34.691406 140.839844 C 34.691406 141.308594 34.800781 141.636719 35.332031 141.636719 C 35.691406 141.636719 35.910156 141.417969 35.941406 141.042969 C 36.019531 140.371094 36.160156 139.417969 36.441406 138.683594 Z M 36.738281 137.683594 C 36.988281 137.058594 37.332031 136.464844 37.722656 135.871094 C 38.222656 136.652344 38.597656 137.480469 38.894531 138.339844 L 38.878906 138.371094 C 38.222656 137.824219 37.363281 137.683594 36.863281 137.683594 Z M 43.847656 141.605469 C 44.972656 141.605469 45.816406 141.089844 45.816406 139.886719 C 45.816406 137.777344 42.660156 138.542969 42.660156 137.855469 C 42.660156 137.621094 42.910156 137.605469 43.097656 137.605469 L 44.847656 137.605469 C 45.160156 137.605469 45.425781 137.433594 45.425781 137.058594 C 45.425781 136.699219 45.160156 136.527344 44.847656 136.527344 L 43.160156 136.527344 C 42.066406 136.527344 41.472656 136.933594 41.472656 137.839844 C 41.472656 139.933594 44.613281 138.839844 44.613281 139.871094 C 44.613281 140.417969 44.238281 140.527344 43.753906 140.527344 L 41.957031 140.527344 C 41.628906 140.527344 41.363281 140.699219 41.363281 141.058594 C 41.363281 141.433594 41.628906 141.605469 41.957031 141.605469 Z M 54.082031 135.152344 C 54.082031 134.792969 53.878906 134.496094 53.472656 134.496094 C 53.066406 134.496094 52.878906 134.792969 52.878906 135.152344 L 52.878906 136.464844 C 50.582031 136.464844 49.441406 137.886719 49.441406 139.386719 C 49.441406 140.589844 50.269531 141.605469 51.925781 141.605469 L 53.472656 141.605469 C 53.941406 141.605469 54.082031 141.386719 54.082031 141.074219 Z M 52.878906 140.527344 L 51.785156 140.527344 C 51.097656 140.527344 50.707031 140.011719 50.707031 139.371094 C 50.707031 138.261719 51.800781 137.542969 52.878906 137.542969 Z M 59.644531 137.121094 C 59.644531 136.761719 59.457031 136.464844 59.050781 136.464844 C 58.644531 136.464844 58.441406 136.761719 58.441406 137.121094 L 58.441406 139.183594 C 58.441406 140.121094 58.003906 140.589844 57.332031 140.589844 C 56.785156 140.589844 56.519531 140.246094 56.519531 139.542969 L 56.519531 137.121094 C 56.519531 136.761719 56.332031 136.464844 55.910156 136.464844 C 55.503906 136.464844 55.316406 136.761719 55.316406 137.121094 L 55.316406 139.871094 C 55.316406 140.886719 56.019531 141.667969 57.097656 141.667969 C 57.644531 141.667969 58.050781 141.511719 58.441406 141.121094 C 58.441406 141.371094 58.644531 141.667969 59.050781 141.667969 C 59.457031 141.667969 59.644531 141.371094 59.644531 141.011719 Z M 65.816406 140.371094 C 65.285156 139.605469 65.003906 138.417969 64.847656 137.402344 C 64.753906 136.761719 64.660156 136.464844 64.222656 136.464844 C 63.832031 136.464844 63.644531 136.667969 63.644531 137.011719 C 63.644531 138.183594 64.175781 139.839844 65.019531 141.214844 C 65.238281 141.558594 65.535156 141.667969 65.816406 141.667969 C 66.097656 141.667969 66.394531 141.558594 66.613281 141.214844 C 67.457031 139.839844 67.988281 138.183594 67.988281 137.011719 C 67.988281 136.667969 67.800781 136.464844 67.410156 136.464844 C 66.972656 136.464844 66.878906 136.761719 66.785156 137.402344 C 66.628906 138.417969 66.347656 139.605469 65.816406 140.371094 Z M 73.550781 139.058594 C 73.550781 137.605469 72.660156 136.464844 71.097656 136.464844 C 69.535156 136.464844 68.628906 137.605469 68.628906 139.058594 C 68.628906 140.527344 69.535156 141.667969 71.097656 141.667969 C 72.660156 141.667969 73.550781 140.527344 73.550781 139.058594 Z M 72.300781 139.058594 C 72.300781 139.871094 71.910156 140.589844 71.097656 140.589844 C 70.269531 140.589844 69.894531 139.871094 69.894531 139.058594 C 69.894531 138.261719 70.269531 137.542969 71.097656 137.542969 C 71.910156 137.542969 72.300781 138.261719 72.300781 139.058594 Z M 75.859375 135.152344 C 75.859375 134.792969 75.671875 134.496094 75.265625 134.496094 C 74.859375 134.496094 74.671875 134.792969 74.671875 135.152344 L 74.671875 140.980469 C 74.671875 141.339844 74.859375 141.636719 75.265625 141.636719 C 75.671875 141.636719 75.859375 141.339844 75.859375 140.980469 Z M 81.359375 138.230469 C 81.359375 136.996094 80.734375 136.527344 79.671875 136.527344 L 77.921875 136.527344 C 77.59375 136.527344 77.34375 136.699219 77.34375 137.058594 C 77.34375 137.433594 77.59375 137.605469 77.921875 137.605469 L 79.75 137.605469 C 80.03125 137.605469 80.15625 137.746094 80.15625 138.261719 L 79.734375 138.261719 C 78.5625 138.261719 76.953125 138.652344 76.953125 140.089844 C 76.953125 141.042969 77.703125 141.667969 78.703125 141.667969 C 79.390625 141.667969 79.9375 141.480469 80.25 141.089844 C 80.28125 141.464844 80.4375 141.667969 80.765625 141.667969 C 81.203125 141.667969 81.359375 141.417969 81.359375 141.011719 Z M 80.21875 139.792969 C 80.21875 140.371094 79.640625 140.699219 79.078125 140.699219 C 78.46875 140.699219 78.15625 140.433594 78.15625 140.027344 C 78.15625 139.558594 78.828125 139.152344 80.21875 139.152344 Z M 82.824219 140.980469 C 82.824219 141.339844 83.011719 141.636719 83.417969 141.636719 C 83.839844 141.636719 84.027344 141.339844 84.027344 140.980469 L 84.027344 138.949219 C 84.027344 138.011719 84.464844 137.542969 85.152344 137.542969 C 85.683594 137.542969 85.949219 137.886719 85.949219 138.589844 L 85.949219 140.980469 C 85.949219 141.339844 86.152344 141.636719 86.558594 141.636719 C 86.964844 141.636719 87.152344 141.339844 87.152344 140.980469 L 87.152344 138.261719 C 87.152344 137.246094 86.449219 136.464844 85.371094 136.464844 C 84.824219 136.464844 84.417969 136.621094 84.027344 137.011719 C 84.027344 136.761719 83.839844 136.464844 83.417969 136.464844 C 83.011719 136.464844 82.824219 136.761719 82.824219 137.121094 Z M 90.855469 137.605469 C 91.183594 137.605469 91.433594 137.433594 91.433594 137.058594 C 91.433594 136.699219 91.183594 136.527344 90.855469 136.527344 L 89.980469 136.527344 L 89.980469 135.667969 C 89.980469 135.308594 89.792969 135.027344 89.371094 135.027344 C 88.964844 135.027344 88.777344 135.308594 88.777344 135.667969 L 88.777344 136.527344 L 88.433594 136.527344 C 88.105469 136.527344 87.839844 136.699219 87.839844 137.058594 C 87.839844 137.433594 88.105469 137.605469 88.433594 137.605469 L 88.777344 137.605469 L 88.777344 139.761719 C 88.777344 141.605469 89.480469 141.605469 90.996094 141.605469 C 91.542969 141.605469 91.808594 141.417969 91.808594 141.042969 C 91.808594 140.652344 91.542969 140.464844 91.199219 140.464844 L 90.558594 140.464844 C 90.089844 140.464844 89.980469 140.183594 89.980469 139.589844 L 89.980469 137.605469 Z M 91.664062 141.605469 "/>
</g>
</svg>
