<?xml version="1.0" encoding="UTF-8"?>
<svg xmlns="http://www.w3.org/2000/svg" xmlns:xlink="http://www.w3.org/1999/xlink" width="100pt" height="150pt" viewBox="0 0 100 150" version="1.1">
<g id="surface25">
<path style=" stroke:none;fill-rule:nonzero;fill:rgb(100%,100%,100%);fill-opacity:1;" d="M 1 17.667969 C 1 8.460938 8.460938 1 17.667969 1 L 82.332031 1 C 91.539062 1 99 8.460938 99 17.667969 L 99 132.332031 C 99 141.539062 91.539062 149 82.332031 149 L 17.667969 149 C 8.460938 149 1 141.539062 1 132.332031 L 1 17.667969 "/>
<path style=" stroke:none;fill-rule:nonzero;fill:rgb(99.607843%,99.607843%,99.607843%);fill-opacity:1;" d="M 5 75 L 5 20 L 7.941406 20 C 11.472656 20 12.808594 21.554688 9.921875 22.308594 C 8.226562 22.753906 7.925781 23.511719 8.183594 26.671875 C 8.5 30.496094 8.503906 30.5 13 30.5 C 17.496094 30.5 17.5 30.496094 17.816406 26.671875 C 18.074219 23.511719 17.773438 22.753906 16.078125 22.308594 C 9.484375 20.585938 19.375 20 55.058594 20 L 95 20 L 94.988281 70.25 C 94.980469 97.886719 94.703125 121.511719 94.371094 122.75 C 93.875 124.59375 93.066406 125 89.882812 125 C 87.097656 125 86 124.574219 86 123.5 C 86 122.421875 87.191406 121.96875 90.25 121.882812 C 92.585938 121.820312 93.707031 121.5625 92.738281 121.308594 C 91.769531 121.054688 91.234375 120.433594 91.546875 119.925781 C 91.859375 119.414062 91.164062 119 90 119 C 88.835938 119 88.128906 119.398438 88.429688 119.886719 C 88.730469 120.375 88.03125 121.019531 86.878906 121.320312 C 85.089844 121.789062 84.835938 122.476562 85.164062 125.933594 L 85.554688 130 L 5 130 Z M 29.8125 75.734375 C 30.210938 73.667969 27.324219 72.277344 25.800781 73.800781 C 24.277344 75.324219 25.667969 78.210938 27.734375 77.8125 C 28.691406 77.628906 29.628906 76.691406 29.8125 75.734375 Z M 62.8125 75.734375 C 63.210938 73.667969 60.324219 72.277344 58.800781 73.800781 C 57.277344 75.324219 58.667969 78.210938 60.734375 77.8125 C 61.691406 77.628906 62.628906 76.691406 62.8125 75.734375 Z M 68.8125 75.734375 C 69.210938 73.667969 66.324219 72.277344 64.800781 73.800781 C 63.277344 75.324219 64.667969 78.210938 66.734375 77.8125 C 67.691406 77.628906 68.628906 76.691406 68.8125 75.734375 Z M 24.363281 73.5 C 25.109375 71.554688 29.890625 71.554688 30.636719 73.5 C 31.464844 75.660156 56.507812 75.726562 57.335938 73.570312 C 58.105469 71.566406 68.894531 71.566406 69.664062 73.570312 C 70.390625 75.457031 72 75.40625 72 73.5 C 72 72.675781 72.898438 71.101562 74 70 C 76.183594 67.816406 76.589844 63.972656 74.964844 60.933594 C 74.003906 59.140625 72.714844 59 57 59 C 41.285156 59 39.996094 59.140625 39.035156 60.933594 C 37.570312 63.671875 37.75 67.289062 39.46875 69.558594 C 41.527344 72.28125 41.347656 74 39 74 C 37.265625 74 37 73.332031 37 69 L 37 64 L 33.480469 64 C 30.691406 64 29.71875 64.523438 28.816406 66.5 C 27.933594 68.441406 26.929688 69 24.339844 69 C 21.296875 69 21 69.265625 21 72 C 21 75.1875 23.316406 76.21875 24.363281 73.5 Z M 29.015625 68.25 C 29.023438 67.835938 29.46875 66.824219 30 66 C 30.785156 64.785156 30.972656 64.929688 30.984375 66.75 C 30.992188 67.988281 30.550781 69 30 69 C 29.449219 69 29.007812 68.664062 29.015625 68.25 Z M 32 67 C 32 65.898438 32.449219 65 33 65 C 33.550781 65 34 65.898438 34 67 C 34 68.101562 33.550781 69 33 69 C 32.449219 69 32 68.101562 32 67 Z M 9 24.5 C 9 23.417969 10.109375 23 13 23 C 15.890625 23 17 23.417969 17 24.5 C 17 25.582031 15.890625 26 13 26 C 10.109375 26 9 25.582031 9 24.5 Z M 9 24.5 "/>
<path style=" stroke:none;fill-rule:nonzero;fill:rgb(0%,0%,99.607843%);fill-opacity:1;" d="M 85.714844 129.378906 C 85.320312 128.988281 85 127.125 85 125.238281 C 85 122.660156 85.492188 121.683594 86.988281 121.292969 C 88.082031 121.007812 88.730469 120.375 88.429688 119.886719 C 88.128906 119.398438 88.835938 119 90 119 C 91.164062 119 91.871094 119.398438 91.570312 119.886719 C 91.269531 120.375 91.945312 121.015625 93.078125 121.308594 C 94.773438 121.753906 95.074219 122.511719 94.816406 125.671875 C 94.511719 129.367188 94.359375 129.511719 90.464844 129.796875 C 88.242188 129.960938 86.105469 129.773438 85.714844 129.378906 Z M 94 123.5 C 94 122.417969 92.890625 122 90 122 C 87.109375 122 86 122.417969 86 123.5 C 86 124.582031 87.109375 125 90 125 C 92.890625 125 94 124.582031 94 123.5 Z M 22 72.15625 C 22 70.171875 22.511719 70 28.433594 70 C 34.683594 70 34.878906 69.921875 35.285156 67.25 C 35.542969 65.550781 35.757812 66.316406 35.851562 69.25 C 35.976562 73.285156 35.714844 74 34.121094 74 C 33.089844 74 31.683594 73.324219 31 72.5 C 29.359375 70.523438 26.105469 70.59375 23.828125 72.65625 C 22.109375 74.210938 22 74.179688 22 72.15625 Z M 39.410156 67.5 C 39.066406 66.125 39.066406 63.875 39.410156 62.5 L 40.039062 60 L 73.960938 60 L 74.589844 62.5 C 74.933594 63.875 74.933594 66.125 74.589844 67.5 L 73.960938 70 L 40.039062 70 Z M 8.714844 30.378906 C 8.320312 29.988281 8 28.125 8 26.238281 C 8 23.660156 8.492188 22.683594 9.988281 22.292969 C 11.082031 22.007812 11.730469 21.375 11.429688 20.886719 C 11.128906 20.398438 11.835938 20 13 20 C 14.164062 20 14.871094 20.398438 14.570312 20.886719 C 14.269531 21.375 14.945312 22.015625 16.078125 22.308594 C 17.773438 22.753906 18.074219 23.511719 17.816406 26.671875 C 17.511719 30.367188 17.359375 30.511719 13.464844 30.796875 C 11.242188 30.960938 9.105469 30.773438 8.714844 30.378906 Z M 17 24.5 C 17 23.417969 15.890625 23 13 23 C 10.109375 23 9 23.417969 9 24.5 C 9 25.582031 10.109375 26 13 26 C 15.890625 26 17 25.582031 17 24.5 Z M 17 24.5 "/>
<path style=" stroke:none;fill-rule:nonzero;fill:rgb(0%,0%,0%);fill-opacity:1;" d="M 25.363281 76.507812 C 25.019531 75.605469 25.214844 74.386719 25.800781 73.800781 C 27.324219 72.277344 30.210938 73.667969 29.8125 75.734375 C 29.367188 78.039062 26.164062 78.59375 25.363281 76.507812 Z M 58.363281 76.507812 C 58.019531 75.605469 58.214844 74.386719 58.800781 73.800781 C 60.324219 72.277344 63.210938 73.667969 62.8125 75.734375 C 62.367188 78.039062 59.164062 78.59375 58.363281 76.507812 Z M 64.363281 76.507812 C 64.019531 75.605469 64.214844 74.386719 64.800781 73.800781 C 66.324219 72.277344 69.210938 73.667969 68.8125 75.734375 C 68.367188 78.039062 65.164062 78.59375 64.363281 76.507812 Z M 21 72 C 21 69.265625 21.296875 69 24.339844 69 C 26.929688 69 27.933594 68.441406 28.816406 66.5 C 29.71875 64.523438 30.691406 64 33.480469 64 L 37 64 L 37 69 C 37 73.332031 37.265625 74 39 74 C 41.347656 74 41.527344 72.28125 39.46875 69.558594 C 37.75 67.289062 37.570312 63.671875 39.035156 60.933594 C 39.996094 59.140625 41.285156 59 57 59 C 72.714844 59 74.003906 59.140625 74.964844 60.933594 C 76.589844 63.972656 76.183594 67.816406 74 70 C 72.898438 71.101562 72 72.675781 72 73.5 C 72 75.40625 70.390625 75.457031 69.664062 73.570312 C 68.894531 71.566406 58.105469 71.566406 57.335938 73.570312 C 56.507812 75.726562 31.464844 75.660156 30.636719 73.5 C 30.320312 72.675781 28.910156 72 27.5 72 C 26.089844 72 24.679688 72.675781 24.363281 73.5 C 23.316406 76.21875 21 75.1875 21 72 Z M 27.707031 71 C 28.832031 71 30.316406 71.675781 31 72.5 C 31.683594 73.324219 33.089844 74 34.121094 74 C 35.714844 74 35.976562 73.285156 35.851562 69.25 C 35.757812 66.316406 35.542969 65.550781 35.285156 67.25 C 34.878906 69.921875 34.683594 70 28.433594 70 C 22.511719 70 22 70.171875 22 72.15625 C 22 74.179688 22.109375 74.210938 23.828125 72.65625 C 24.835938 71.746094 26.578125 71 27.707031 71 Z M 74.589844 67.5 C 74.933594 66.125 74.933594 63.875 74.589844 62.5 L 73.960938 60 L 40.039062 60 L 39.410156 62.5 C 39.066406 63.875 39.066406 66.125 39.410156 67.5 L 40.039062 70 L 73.960938 70 Z M 30.984375 66.75 C 30.972656 64.929688 30.785156 64.785156 30 66 C 28.746094 67.9375 28.746094 69 30 69 C 30.550781 69 30.992188 67.988281 30.984375 66.75 Z M 34 67 C 34 65.898438 33.550781 65 33 65 C 32.449219 65 32 65.898438 32 67 C 32 68.101562 32.449219 69 33 69 C 33.550781 69 34 68.101562 34 67 Z M 34 67 "/>
<path style="fill:none;stroke-width:2;stroke-linecap:butt;stroke-linejoin:miter;stroke:rgb(0%,0%,0%);stroke-opacity:1;stroke-miterlimit:10;" d="M 1 17.667969 C 1 8.460938 8.460938 1 17.667969 1 L 82.332031 1 C 91.539062 1 99 8.460938 99 17.667969 L 99 132.332031 C 99 141.539062 91.539062 149 82.332031 149 L 17.667969 149 C 8.460938 149 1 141.539062 1 132.332031 L 1 17.667969 "/>
<path style=" stroke:none;fill-rule:nonzero;fill:rgb(0%,0%,0%);fill-opacity:1;" d="M 13.058594 9.785156 C 13.417969 9.785156 13.714844 9.597656 13.714844 9.191406 C 13.714844 8.785156 13.417969 8.597656 13.058594 8.597656 L 10.839844 8.597656 C 9.402344 8.597656 8.339844 9.707031 8.339844 11.425781 C 8.339844 14.207031 10.761719 15.535156 12.714844 15.535156 C 13.417969 15.535156 13.777344 15.347656 13.777344 14.878906 C 13.777344 14.535156 13.542969 14.269531 12.964844 14.269531 C 10.855469 14.269531 9.746094 12.785156 9.746094 11.519531 C 9.746094 10.488281 10.121094 9.785156 11.199219 9.785156 Z M 15.996094 10.988281 C 15.996094 10.628906 15.808594 10.332031 15.402344 10.332031 C 14.996094 10.332031 14.808594 10.628906 14.808594 10.988281 L 14.808594 14.847656 C 14.808594 15.207031 14.996094 15.503906 15.402344 15.503906 C 15.808594 15.503906 15.996094 15.207031 15.996094 14.847656 Z M 15.402344 8.332031 C 15.027344 8.332031 14.746094 8.597656 14.746094 9.066406 C 14.746094 9.550781 15.027344 9.816406 15.402344 9.816406 C 15.777344 9.816406 16.058594 9.550781 16.058594 9.066406 C 16.058594 8.597656 15.777344 8.332031 15.402344 8.332031 Z M 19.871094 11.472656 C 20.199219 11.472656 20.449219 11.300781 20.449219 10.925781 C 20.449219 10.566406 20.199219 10.394531 19.871094 10.394531 L 18.996094 10.394531 L 18.996094 9.535156 C 18.996094 9.175781 18.808594 8.894531 18.386719 8.894531 C 17.980469 8.894531 17.792969 9.175781 17.792969 9.535156 L 17.792969 10.394531 L 17.449219 10.394531 C 17.121094 10.394531 16.855469 10.566406 16.855469 10.925781 C 16.855469 11.300781 17.121094 11.472656 17.449219 11.472656 L 17.792969 11.472656 L 17.792969 13.628906 C 17.792969 15.472656 18.496094 15.472656 20.011719 15.472656 C 20.558594 15.472656 20.824219 15.285156 20.824219 14.910156 C 20.824219 14.519531 20.558594 14.332031 20.214844 14.332031 L 19.574219 14.332031 C 19.105469 14.332031 18.996094 14.050781 18.996094 13.457031 L 18.996094 11.472656 Z M 25.261719 15.472656 C 25.589844 15.472656 25.839844 15.300781 25.839844 14.925781 C 25.839844 14.566406 25.589844 14.394531 25.261719 14.394531 L 23.980469 14.394531 C 23.136719 14.394531 22.417969 14.144531 22.339844 13.207031 L 25.402344 13.207031 C 25.824219 13.207031 25.886719 12.957031 25.886719 12.613281 C 25.886719 11.441406 25.199219 10.332031 23.527344 10.332031 C 21.996094 10.332031 21.027344 11.503906 21.027344 13.003906 C 21.027344 14.488281 22.027344 15.472656 23.808594 15.472656 Z M 22.417969 12.300781 C 22.558594 11.707031 23.058594 11.332031 23.527344 11.332031 C 23.996094 11.332031 24.496094 11.707031 24.636719 12.300781 Z M 26.929688 14.816406 C 26.929688 15.207031 27.148438 15.503906 27.539062 15.503906 C 27.914062 15.503906 28.132812 15.207031 28.132812 14.816406 L 28.132812 12.628906 C 28.132812 11.707031 28.429688 11.472656 29.007812 11.472656 C 29.445312 11.472656 29.695312 11.285156 29.695312 10.910156 C 29.695312 10.566406 29.523438 10.332031 29.085938 10.332031 C 28.523438 10.332031 28.148438 10.566406 28.054688 11.128906 L 28.039062 11.128906 L 28.023438 10.816406 C 27.976562 10.363281 27.695312 10.332031 27.476562 10.332031 C 27.132812 10.332031 26.929688 10.535156 26.929688 10.941406 Z M 30.183594 14.847656 C 30.183594 15.207031 30.371094 15.503906 30.777344 15.503906 C 31.199219 15.503906 31.386719 15.207031 31.386719 14.847656 L 31.386719 12.816406 C 31.386719 11.878906 31.824219 11.410156 32.511719 11.410156 C 33.042969 11.410156 33.308594 11.753906 33.308594 12.457031 L 33.308594 14.847656 C 33.308594 15.207031 33.511719 15.503906 33.917969 15.503906 C 34.324219 15.503906 34.511719 15.207031 34.511719 14.847656 L 34.511719 12.128906 C 34.511719 11.113281 33.808594 10.332031 32.730469 10.332031 C 32.183594 10.332031 31.777344 10.488281 31.386719 10.878906 C 31.386719 10.628906 31.199219 10.332031 30.777344 10.332031 C 30.371094 10.332031 30.183594 10.628906 30.183594 10.988281 Z M 39.710938 15.472656 C 40.039062 15.472656 40.289062 15.300781 40.289062 14.925781 C 40.289062 14.566406 40.039062 14.394531 39.710938 14.394531 L 38.429688 14.394531 C 37.585938 14.394531 36.867188 14.144531 36.789062 13.207031 L 39.851562 13.207031 C 40.273438 13.207031 40.335938 12.957031 40.335938 12.613281 C 40.335938 11.441406 39.648438 10.332031 37.976562 10.332031 C 36.445312 10.332031 35.476562 11.503906 35.476562 13.003906 C 35.476562 14.488281 36.476562 15.472656 38.257812 15.472656 Z M 36.867188 12.300781 C 37.007812 11.707031 37.507812 11.332031 37.976562 11.332031 C 38.445312 11.332031 38.945312 11.707031 39.085938 12.300781 Z M 48.679688 9.019531 C 48.679688 8.660156 48.476562 8.363281 48.070312 8.363281 C 47.664062 8.363281 47.476562 8.660156 47.476562 9.019531 L 47.476562 10.332031 C 45.179688 10.332031 44.039062 11.753906 44.039062 13.253906 C 44.039062 14.457031 44.867188 15.472656 46.523438 15.472656 L 48.070312 15.472656 C 48.539062 15.472656 48.679688 15.253906 48.679688 14.941406 Z M 47.476562 14.394531 L 46.382812 14.394531 C 45.695312 14.394531 45.304688 13.878906 45.304688 13.238281 C 45.304688 12.128906 46.398438 11.410156 47.476562 11.410156 Z M 49.894531 10.769531 C 49.894531 11.082031 50.050781 11.332031 50.410156 11.332031 C 50.769531 11.332031 50.925781 11.082031 50.925781 10.769531 L 50.925781 9.082031 C 50.925781 8.785156 50.769531 8.535156 50.410156 8.535156 C 50.050781 8.535156 49.894531 8.785156 49.894531 9.082031 Z M 56.101562 15.472656 C 56.429688 15.472656 56.679688 15.300781 56.679688 14.925781 C 56.679688 14.566406 56.429688 14.394531 56.101562 14.394531 L 54.820312 14.394531 C 53.976562 14.394531 53.257812 14.144531 53.179688 13.207031 L 56.242188 13.207031 C 56.664062 13.207031 56.726562 12.957031 56.726562 12.613281 C 56.726562 11.441406 56.039062 10.332031 54.367188 10.332031 C 52.835938 10.332031 51.867188 11.503906 51.867188 13.003906 C 51.867188 14.488281 52.867188 15.472656 54.648438 15.472656 Z M 53.257812 12.300781 C 53.398438 11.707031 53.898438 11.332031 54.367188 11.332031 C 54.835938 11.332031 55.335938 11.707031 55.476562 12.300781 Z M 59.832031 15.472656 C 60.957031 15.472656 61.800781 14.957031 61.800781 13.753906 C 61.800781 11.644531 58.644531 12.410156 58.644531 11.722656 C 58.644531 11.488281 58.894531 11.472656 59.082031 11.472656 L 60.832031 11.472656 C 61.144531 11.472656 61.410156 11.300781 61.410156 10.925781 C 61.410156 10.566406 61.144531 10.394531 60.832031 10.394531 L 59.144531 10.394531 C 58.050781 10.394531 57.457031 10.800781 57.457031 11.707031 C 57.457031 13.800781 60.597656 12.707031 60.597656 13.738281 C 60.597656 14.285156 60.222656 14.394531 59.738281 14.394531 L 57.941406 14.394531 C 57.613281 14.394531 57.347656 14.566406 57.347656 14.925781 C 57.347656 15.300781 57.613281 15.472656 57.941406 15.472656 Z M 64.832031 15.472656 C 65.957031 15.472656 66.800781 14.957031 66.800781 13.753906 C 66.800781 11.644531 63.644531 12.410156 63.644531 11.722656 C 63.644531 11.488281 63.894531 11.472656 64.082031 11.472656 L 65.832031 11.472656 C 66.144531 11.472656 66.410156 11.300781 66.410156 10.925781 C 66.410156 10.566406 66.144531 10.394531 65.832031 10.394531 L 64.144531 10.394531 C 63.050781 10.394531 62.457031 10.800781 62.457031 11.707031 C 62.457031 13.800781 65.597656 12.707031 65.597656 13.738281 C 65.597656 14.285156 65.222656 14.394531 64.738281 14.394531 L 62.941406 14.394531 C 62.613281 14.394531 62.347656 14.566406 62.347656 14.925781 C 62.347656 15.300781 62.613281 15.472656 62.941406 15.472656 Z M 71.660156 15.472656 C 71.988281 15.472656 72.238281 15.300781 72.238281 14.925781 C 72.238281 14.566406 71.988281 14.394531 71.660156 14.394531 L 70.378906 14.394531 C 69.535156 14.394531 68.816406 14.144531 68.738281 13.207031 L 71.800781 13.207031 C 72.222656 13.207031 72.285156 12.957031 72.285156 12.613281 C 72.285156 11.441406 71.597656 10.332031 69.925781 10.332031 C 68.394531 10.332031 67.425781 11.503906 67.425781 13.003906 C 67.425781 14.488281 68.425781 15.472656 70.207031 15.472656 Z M 68.816406 12.300781 C 68.957031 11.707031 69.457031 11.332031 69.925781 11.332031 C 70.394531 11.332031 70.894531 11.707031 71.035156 12.300781 Z M 73.25 14.847656 C 73.25 15.207031 73.4375 15.503906 73.84375 15.503906 C 74.265625 15.503906 74.453125 15.207031 74.453125 14.847656 L 74.453125 12.816406 C 74.453125 11.878906 74.890625 11.410156 75.578125 11.410156 C 76.109375 11.410156 76.375 11.753906 76.375 12.457031 L 76.375 14.847656 C 76.375 15.207031 76.578125 15.503906 76.984375 15.503906 C 77.390625 15.503906 77.578125 15.207031 77.578125 14.847656 L 77.578125 12.128906 C 77.578125 11.113281 76.875 10.332031 75.796875 10.332031 C 75.25 10.332031 74.84375 10.488281 74.453125 10.878906 C 74.453125 10.628906 74.265625 10.332031 73.84375 10.332031 C 73.4375 10.332031 73.25 10.628906 73.25 10.988281 Z M 80.6875 10.394531 C 79.359375 10.394531 78.515625 11.394531 78.515625 12.582031 C 78.515625 13.925781 79.5625 15.472656 81.984375 15.472656 C 82.921875 15.472656 83.1875 15.300781 83.1875 14.910156 C 83.1875 14.457031 82.984375 14.332031 82.15625 14.332031 C 80.8125 14.332031 79.84375 13.753906 79.84375 12.550781 C 79.84375 12.035156 80.21875 11.535156 80.921875 11.535156 L 82.4375 11.535156 C 82.765625 11.535156 83.046875 11.347656 83.046875 10.957031 C 83.046875 10.566406 82.765625 10.394531 82.4375 10.394531 Z M 87.78125 15.472656 C 88.109375 15.472656 88.359375 15.300781 88.359375 14.925781 C 88.359375 14.566406 88.109375 14.394531 87.78125 14.394531 L 86.5 14.394531 C 85.65625 14.394531 84.9375 14.144531 84.859375 13.207031 L 87.921875 13.207031 C 88.34375 13.207031 88.40625 12.957031 88.40625 12.613281 C 88.40625 11.441406 87.71875 10.332031 86.046875 10.332031 C 84.515625 10.332031 83.546875 11.503906 83.546875 13.003906 C 83.546875 14.488281 84.546875 15.472656 86.328125 15.472656 Z M 84.9375 12.300781 C 85.078125 11.707031 85.578125 11.332031 86.046875 11.332031 C 86.515625 11.332031 87.015625 11.707031 87.15625 12.300781 Z M 88.761719 15.472656 "/>
<path style=" stroke:none;fill-rule:nonzero;fill:rgb(0%,0%,0%);fill-opacity:1;" d="M 15.964844 135.917969 C 16.324219 135.917969 16.621094 135.730469 16.621094 135.324219 C 16.621094 134.917969 16.324219 134.730469 15.964844 134.730469 L 13.746094 134.730469 C 12.308594 134.730469 11.246094 135.839844 11.246094 137.558594 C 11.246094 140.339844 13.667969 141.667969 15.621094 141.667969 C 16.324219 141.667969 16.683594 141.480469 16.683594 141.011719 C 16.683594 140.667969 16.449219 140.402344 15.871094 140.402344 C 13.761719 140.402344 12.652344 138.917969 12.652344 137.652344 C 12.652344 136.621094 13.027344 135.917969 14.105469 135.917969 Z M 18.902344 137.121094 C 18.902344 136.761719 18.714844 136.464844 18.308594 136.464844 C 17.902344 136.464844 17.714844 136.761719 17.714844 137.121094 L 17.714844 140.980469 C 17.714844 141.339844 17.902344 141.636719 18.308594 141.636719 C 18.714844 141.636719 18.902344 141.339844 18.902344 140.980469 Z M 18.308594 134.464844 C 17.933594 134.464844 17.652344 134.730469 17.652344 135.199219 C 17.652344 135.683594 17.933594 135.949219 18.308594 135.949219 C 18.683594 135.949219 18.964844 135.683594 18.964844 135.199219 C 18.964844 134.730469 18.683594 134.464844 18.308594 134.464844 Z M 22.777344 137.605469 C 23.105469 137.605469 23.355469 137.433594 23.355469 137.058594 C 23.355469 136.699219 23.105469 136.527344 22.777344 136.527344 L 21.902344 136.527344 L 21.902344 135.667969 C 21.902344 135.308594 21.714844 135.027344 21.292969 135.027344 C 20.886719 135.027344 20.699219 135.308594 20.699219 135.667969 L 20.699219 136.527344 L 20.355469 136.527344 C 20.027344 136.527344 19.761719 136.699219 19.761719 137.058594 C 19.761719 137.433594 20.027344 137.605469 20.355469 137.605469 L 20.699219 137.605469 L 20.699219 139.761719 C 20.699219 141.605469 21.402344 141.605469 22.917969 141.605469 C 23.464844 141.605469 23.730469 141.417969 23.730469 141.042969 C 23.730469 140.652344 23.464844 140.464844 23.121094 140.464844 L 22.480469 140.464844 C 22.011719 140.464844 21.902344 140.183594 21.902344 139.589844 L 21.902344 137.605469 Z M 28.167969 141.605469 C 28.496094 141.605469 28.746094 141.433594 28.746094 141.058594 C 28.746094 140.699219 28.496094 140.527344 28.167969 140.527344 L 26.886719 140.527344 C 26.042969 140.527344 25.324219 140.277344 25.246094 139.339844 L 28.308594 139.339844 C 28.730469 139.339844 28.792969 139.089844 28.792969 138.746094 C 28.792969 137.574219 28.105469 136.464844 26.433594 136.464844 C 24.902344 136.464844 23.933594 137.636719 23.933594 139.136719 C 23.933594 140.621094 24.933594 141.605469 26.714844 141.605469 Z M 25.324219 138.433594 C 25.464844 137.839844 25.964844 137.464844 26.433594 137.464844 C 26.902344 137.464844 27.402344 137.839844 27.542969 138.433594 Z M 29.835938 140.949219 C 29.835938 141.339844 30.054688 141.636719 30.445312 141.636719 C 30.820312 141.636719 31.039062 141.339844 31.039062 140.949219 L 31.039062 138.761719 C 31.039062 137.839844 31.335938 137.605469 31.914062 137.605469 C 32.351562 137.605469 32.601562 137.417969 32.601562 137.042969 C 32.601562 136.699219 32.429688 136.464844 31.992188 136.464844 C 31.429688 136.464844 31.054688 136.699219 30.960938 137.261719 L 30.945312 137.261719 L 30.929688 136.949219 C 30.882812 136.496094 30.601562 136.464844 30.382812 136.464844 C 30.039062 136.464844 29.835938 136.667969 29.835938 137.074219 Z M 33.089844 140.980469 C 33.089844 141.339844 33.277344 141.636719 33.683594 141.636719 C 34.105469 141.636719 34.292969 141.339844 34.292969 140.980469 L 34.292969 138.949219 C 34.292969 138.011719 34.730469 137.542969 35.417969 137.542969 C 35.949219 137.542969 36.214844 137.886719 36.214844 138.589844 L 36.214844 140.980469 C 36.214844 141.339844 36.417969 141.636719 36.824219 141.636719 C 37.230469 141.636719 37.417969 141.339844 37.417969 140.980469 L 37.417969 138.261719 C 37.417969 137.246094 36.714844 136.464844 35.636719 136.464844 C 35.089844 136.464844 34.683594 136.621094 34.292969 137.011719 C 34.292969 136.761719 34.105469 136.464844 33.683594 136.464844 C 33.277344 136.464844 33.089844 136.761719 33.089844 137.121094 Z M 42.617188 141.605469 C 42.945312 141.605469 43.195312 141.433594 43.195312 141.058594 C 43.195312 140.699219 42.945312 140.527344 42.617188 140.527344 L 41.335938 140.527344 C 40.492188 140.527344 39.773438 140.277344 39.695312 139.339844 L 42.757812 139.339844 C 43.179688 139.339844 43.242188 139.089844 43.242188 138.746094 C 43.242188 137.574219 42.554688 136.464844 40.882812 136.464844 C 39.351562 136.464844 38.382812 137.636719 38.382812 139.136719 C 38.382812 140.621094 39.382812 141.605469 41.164062 141.605469 Z M 39.773438 138.433594 C 39.914062 137.839844 40.414062 137.464844 40.882812 137.464844 C 41.351562 137.464844 41.851562 137.839844 41.992188 138.433594 Z M 51.585938 135.152344 C 51.585938 134.792969 51.382812 134.496094 50.976562 134.496094 C 50.570312 134.496094 50.382812 134.792969 50.382812 135.152344 L 50.382812 136.464844 C 48.085938 136.464844 46.945312 137.886719 46.945312 139.386719 C 46.945312 140.589844 47.773438 141.605469 49.429688 141.605469 L 50.976562 141.605469 C 51.445312 141.605469 51.585938 141.386719 51.585938 141.074219 Z M 50.382812 140.527344 L 49.289062 140.527344 C 48.601562 140.527344 48.210938 140.011719 48.210938 139.371094 C 48.210938 138.261719 49.304688 137.542969 50.382812 137.542969 Z M 52.800781 136.902344 C 52.800781 137.214844 52.957031 137.464844 53.316406 137.464844 C 53.675781 137.464844 53.832031 137.214844 53.832031 136.902344 L 53.832031 135.214844 C 53.832031 134.917969 53.675781 134.667969 53.316406 134.667969 C 52.957031 134.667969 52.800781 134.917969 52.800781 135.214844 Z M 59.007812 141.605469 C 59.335938 141.605469 59.585938 141.433594 59.585938 141.058594 C 59.585938 140.699219 59.335938 140.527344 59.007812 140.527344 L 57.726562 140.527344 C 56.882812 140.527344 56.164062 140.277344 56.085938 139.339844 L 59.148438 139.339844 C 59.570312 139.339844 59.632812 139.089844 59.632812 138.746094 C 59.632812 137.574219 58.945312 136.464844 57.273438 136.464844 C 55.742188 136.464844 54.773438 137.636719 54.773438 139.136719 C 54.773438 140.621094 55.773438 141.605469 57.554688 141.605469 Z M 56.164062 138.433594 C 56.304688 137.839844 56.804688 137.464844 57.273438 137.464844 C 57.742188 137.464844 58.242188 137.839844 58.382812 138.433594 Z M 62.738281 141.605469 C 63.863281 141.605469 64.707031 141.089844 64.707031 139.886719 C 64.707031 137.777344 61.550781 138.542969 61.550781 137.855469 C 61.550781 137.621094 61.800781 137.605469 61.988281 137.605469 L 63.738281 137.605469 C 64.050781 137.605469 64.316406 137.433594 64.316406 137.058594 C 64.316406 136.699219 64.050781 136.527344 63.738281 136.527344 L 62.050781 136.527344 C 60.957031 136.527344 60.363281 136.933594 60.363281 137.839844 C 60.363281 139.933594 63.503906 138.839844 63.503906 139.871094 C 63.503906 140.417969 63.128906 140.527344 62.644531 140.527344 L 60.847656 140.527344 C 60.519531 140.527344 60.253906 140.699219 60.253906 141.058594 C 60.253906 141.433594 60.519531 141.605469 60.847656 141.605469 Z M 67.738281 141.605469 C 68.863281 141.605469 69.707031 141.089844 69.707031 139.886719 C 69.707031 137.777344 66.550781 138.542969 66.550781 137.855469 C 66.550781 137.621094 66.800781 137.605469 66.988281 137.605469 L 68.738281 137.605469 C 69.050781 137.605469 69.316406 137.433594 69.316406 137.058594 C 69.316406 136.699219 69.050781 136.527344 68.738281 136.527344 L 67.050781 136.527344 C 65.957031 136.527344 65.363281 136.933594 65.363281 137.839844 C 65.363281 139.933594 68.503906 138.839844 68.503906 139.871094 C 68.503906 140.417969 68.128906 140.527344 67.644531 140.527344 L 65.847656 140.527344 C 65.519531 140.527344 65.253906 140.699219 65.253906 141.058594 C 65.253906 141.433594 65.519531 141.605469 65.847656 141.605469 Z M 74.566406 141.605469 C 74.894531 141.605469 75.144531 141.433594 75.144531 141.058594 C 75.144531 140.699219 74.894531 140.527344 74.566406 140.527344 L 73.285156 140.527344 C 72.441406 140.527344 71.722656 140.277344 71.644531 139.339844 L 74.707031 139.339844 C 75.128906 139.339844 75.191406 139.089844 75.191406 138.746094 C 75.191406 137.574219 74.503906 136.464844 72.832031 136.464844 C 71.300781 136.464844 70.332031 137.636719 70.332031 139.136719 C 70.332031 140.621094 71.332031 141.605469 73.113281 141.605469 Z M 71.722656 138.433594 C 71.863281 137.839844 72.363281 137.464844 72.832031 137.464844 C 73.300781 137.464844 73.800781 137.839844 73.941406 138.433594 Z M 76.15625 140.980469 C 76.15625 141.339844 76.34375 141.636719 76.75 141.636719 C 77.171875 141.636719 77.359375 141.339844 77.359375 140.980469 L 77.359375 138.949219 C 77.359375 138.011719 77.796875 137.542969 78.484375 137.542969 C 79.015625 137.542969 79.28125 137.886719 79.28125 138.589844 L 79.28125 140.980469 C 79.28125 141.339844 79.484375 141.636719 79.890625 141.636719 C 80.296875 141.636719 80.484375 141.339844 80.484375 140.980469 L 80.484375 138.261719 C 80.484375 137.246094 79.78125 136.464844 78.703125 136.464844 C 78.15625 136.464844 77.75 136.621094 77.359375 137.011719 C 77.359375 136.761719 77.171875 136.464844 76.75 136.464844 C 76.34375 136.464844 76.15625 136.761719 76.15625 137.121094 Z M 83.59375 136.527344 C 82.265625 136.527344 81.421875 137.527344 81.421875 138.714844 C 81.421875 140.058594 82.46875 141.605469 84.890625 141.605469 C 85.828125 141.605469 86.09375 141.433594 86.09375 141.042969 C 86.09375 140.589844 85.890625 140.464844 85.0625 140.464844 C 83.71875 140.464844 82.75 139.886719 82.75 138.683594 C 82.75 138.167969 83.125 137.667969 83.828125 137.667969 L 85.34375 137.667969 C 85.671875 137.667969 85.953125 137.480469 85.953125 137.089844 C 85.953125 136.699219 85.671875 136.527344 85.34375 136.527344 Z M 90.6875 141.605469 C 91.015625 141.605469 91.265625 141.433594 91.265625 141.058594 C 91.265625 140.699219 91.015625 140.527344 90.6875 140.527344 L 89.40625 140.527344 C 88.5625 140.527344 87.84375 140.277344 87.765625 139.339844 L 90.828125 139.339844 C 91.25 139.339844 91.3125 139.089844 91.3125 138.746094 C 91.3125 137.574219 90.625 136.464844 88.953125 136.464844 C 87.421875 136.464844 86.453125 137.636719 86.453125 139.136719 C 86.453125 140.621094 87.453125 141.605469 89.234375 141.605469 Z M 87.84375 138.433594 C 87.984375 137.839844 88.484375 137.464844 88.953125 137.464844 C 89.421875 137.464844 89.921875 137.839844 90.0625 138.433594 Z M 91.667969 141.605469 "/>
</g>
</svg>
