<?xml version="1.0" encoding="UTF-8"?>
<svg xmlns="http://www.w3.org/2000/svg" xmlns:xlink="http://www.w3.org/1999/xlink" width="100pt" height="150pt" viewBox="0 0 100 150" version="1.1">
<g id="surface28">
<path style=" stroke:none;fill-rule:nonzero;fill:rgb(100%,100%,100%);fill-opacity:1;" d="M 1 17.667969 C 1 8.460938 8.460938 1 17.667969 1 L 82.332031 1 C 91.539062 1 99 8.460938 99 17.667969 L 99 132.332031 C 99 141.539062 91.539062 149 82.332031 149 L 17.667969 149 C 8.460938 149 1 141.539062 1 132.332031 L 1 17.667969 "/>
<path style=" stroke:none;fill-rule:nonzero;fill:rgb(99.607843%,99.607843%,99.607843%);fill-opacity:1;" d="M 5 75 L 5 20 L 95 20 L 95 130 L 5 130 Z M 88 80.46875 C 88 73.617188 87.503906 68.746094 86.574219 66.527344 C 85.519531 63.996094 85.453125 63.011719 86.324219 62.703125 C 87.730469 62.210938 84.746094 58.515625 81 56.105469 C 79.429688 55.097656 78.5 53.570312 78.5 52 C 78.5 50.035156 77.929688 49.433594 75.835938 49.191406 C 72.339844 48.789062 71.007812 52.246094 73.570312 55.074219 C 74.679688 56.304688 75.398438 58.921875 75.542969 62.253906 C 75.820312 68.761719 75.707031 68.488281 77.488281 67.011719 C 78.695312 66.007812 79.097656 66.089844 79.621094 67.453125 C 80.046875 68.566406 79.191406 70.238281 77.078125 72.417969 C 74.078125 75.515625 73.933594 76.007812 74.574219 80.835938 C 75.132812 85.0625 74.964844 86.074219 73.625 86.589844 C 70.976562 87.605469 71.769531 89 75 89 C 77.972656 89 78 88.949219 78 83.453125 C 78 78.640625 78.367188 77.589844 80.75 75.527344 L 83.5 73.152344 L 84.191406 76.828125 C 85.402344 83.25 85.125 88.015625 83.5 88.636719 C 80.957031 89.613281 81.839844 91 85 91 L 88 91 Z M 86.175781 84 C 86.054688 81.523438 85.566406 77.847656 85.097656 75.828125 C 84.527344 73.375 84.621094 71.738281 85.371094 70.902344 C 85.992188 70.210938 84.378906 71.414062 81.78125 73.574219 C 77.519531 77.121094 77.050781 77.933594 76.914062 82 L 76.765625 86.5 L 75.875 81.132812 C 75.011719 75.945312 75.09375 75.632812 78.242188 72.007812 C 80.035156 69.941406 82.496094 67.761719 83.710938 67.164062 C 85.722656 66.175781 85.976562 66.367188 86.515625 69.289062 C 86.84375 71.054688 86.953125 76.101562 86.757812 80.5 C 86.5625 84.898438 86.300781 86.476562 86.175781 84 Z M 76 65.617188 C 76 64.792969 76.449219 63.839844 77 63.5 C 77.550781 63.160156 78 63.558594 78 64.382812 C 78 65.207031 77.550781 66.160156 77 66.5 C 76.449219 66.839844 76 66.441406 76 65.617188 Z M 82.5 60 C 81.503906 58.898438 81.140625 58 81.691406 58 C 82.238281 58 83.503906 58.898438 84.5 60 C 85.496094 61.101562 85.859375 62 85.308594 62 C 84.761719 62 83.496094 61.101562 82.5 60 Z M 34.820312 87.25 C 35.078125 85.417969 35.773438 85 38.570312 85 C 41.5625 85 42 85.320312 42 87.5 C 42 89.945312 42.167969 90 49.5 90 C 56.832031 90 57 89.945312 57 87.5 C 57 85.386719 57.464844 85 60.019531 85 C 62.738281 85 62.976562 85.246094 62.410156 87.5 C 61.808594 89.902344 61.96875 90 66.5 90 C 71.03125 90 71.191406 89.902344 70.589844 87.5 C 70.125 85.65625 70.359375 85 71.480469 85 C 72.332031 85 73 84.121094 73 83 C 73 81.054688 72.332031 81 48.5 81 C 24.667969 81 24 81.054688 24 83 C 24 84.332031 24.667969 85 26 85 C 27.273438 85 28 85.667969 28 86.832031 C 28 89.382812 29.011719 90.140625 31.960938 89.796875 C 33.71875 89.589844 34.597656 88.804688 34.820312 87.25 Z M 29.15625 87 C 29.15625 85.625 29.386719 85.0625 29.664062 85.75 C 29.941406 86.4375 29.941406 87.5625 29.664062 88.25 C 29.386719 88.9375 29.15625 88.375 29.15625 87 Z M 31.15625 87 C 31.15625 85.625 31.386719 85.0625 31.664062 85.75 C 31.941406 86.4375 31.941406 87.5625 31.664062 88.25 C 31.386719 88.9375 31.15625 88.375 31.15625 87 Z M 33.15625 87 C 33.15625 85.625 33.386719 85.0625 33.664062 85.75 C 33.941406 86.4375 33.941406 87.5625 33.664062 88.25 C 33.386719 88.9375 33.15625 88.375 33.15625 87 Z M 43 86.5 C 43 84.089844 43.234375 84 49.5 84 C 55.765625 84 56 84.089844 56 86.5 C 56 88.910156 55.765625 89 49.5 89 C 43.234375 89 43 88.910156 43 86.5 Z M 46.445312 85.914062 C 46.125 85.394531 45.4375 85.230469 44.914062 85.554688 C 44.394531 85.875 44.230469 86.5625 44.554688 87.085938 C 44.875 87.605469 45.5625 87.769531 46.085938 87.445312 C 46.605469 87.125 46.769531 86.4375 46.445312 85.914062 Z M 50.445312 85.914062 C 50.125 85.394531 49.4375 85.230469 48.914062 85.554688 C 48.394531 85.875 48.230469 86.5625 48.554688 87.085938 C 48.875 87.605469 49.5625 87.769531 50.085938 87.445312 C 50.605469 87.125 50.769531 86.4375 50.445312 85.914062 Z M 54.445312 85.914062 C 54.125 85.394531 53.4375 85.230469 52.914062 85.554688 C 52.394531 85.875 52.230469 86.5625 52.554688 87.085938 C 52.875 87.605469 53.5625 87.769531 54.085938 87.445312 C 54.605469 87.125 54.769531 86.4375 54.445312 85.914062 Z M 63.015625 88.25 C 63.023438 87.835938 63.46875 86.824219 64 86 C 64.804688 84.753906 64.984375 84.835938 65.054688 86.5 L 65.140625 88.5 L 66.859375 84.5 L 67 86.5 C 67.136719 88.441406 67.164062 88.445312 67.894531 86.574219 C 68.597656 84.785156 68.699219 84.773438 69.324219 86.40625 C 70.316406 88.988281 70.300781 89 66.5 89 C 64.574219 89 63.007812 88.664062 63.015625 88.25 Z M 25 82.859375 C 25 82.386719 35.574219 82 48.5 82 C 61.425781 82 72 82.371094 72 82.820312 C 72 83.273438 61.425781 83.660156 48.5 83.679688 C 35.574219 83.703125 25 83.332031 25 82.859375 Z M 72.832031 74.5 C 73.253906 68.203125 71.464844 59.894531 68.363281 53.75 L 65.964844 49 L 32.039062 49 L 29.867188 53.25 C 28.671875 55.585938 27.09375 59.75 26.359375 62.5 C 24.945312 67.785156 24.53125 78.195312 25.683594 79.351562 C 26.0625 79.726562 36.75 79.914062 49.433594 79.769531 L 72.5 79.5 Z M 29.570312 75.429688 C 28.707031 74.5625 28 73.246094 28 72.5 C 28 70.75 30.75 68 32.5 68 C 34.25 68 37 70.75 37 72.5 C 37 74.25 34.25 77 32.5 77 C 31.753906 77 30.4375 76.292969 29.570312 75.429688 Z M 34.269531 73.34375 C 33.59375 73.070312 32.242188 73.054688 31.269531 73.308594 C 30.296875 73.5625 30.851562 73.785156 32.5 73.804688 C 34.148438 73.824219 34.945312 73.617188 34.269531 73.34375 Z M 34.269531 71.34375 C 33.59375 71.070312 32.242188 71.054688 31.269531 71.308594 C 30.296875 71.5625 30.851562 71.785156 32.5 71.804688 C 34.148438 71.824219 34.945312 71.617188 34.269531 71.34375 Z M 62.570312 75.429688 C 61.707031 74.5625 61 73.246094 61 72.5 C 61 71.753906 61.707031 70.4375 62.570312 69.570312 C 63.4375 68.707031 64.753906 68 65.5 68 C 67.25 68 70 70.75 70 72.5 C 70 74.25 67.25 77 65.5 77 C 64.753906 77 63.4375 76.292969 62.570312 75.429688 Z M 67.269531 73.34375 C 66.59375 73.070312 65.242188 73.054688 64.269531 73.308594 C 63.296875 73.5625 63.851562 73.785156 65.5 73.804688 C 67.148438 73.824219 67.945312 73.617188 67.269531 73.34375 Z M 67.269531 71.34375 C 66.59375 71.070312 65.242188 71.054688 64.269531 71.308594 C 63.296875 71.5625 63.851562 71.785156 65.5 71.804688 C 67.148438 71.824219 67.945312 71.617188 67.269531 71.34375 Z M 28 59.527344 C 28 59.265625 28.988281 57.015625 30.199219 54.527344 L 32.398438 50 L 65.601562 50 L 67.800781 54.527344 C 69.011719 57.015625 70 59.265625 70 59.527344 C 70 60.5625 63.320312 59.921875 62.175781 58.773438 C 61.207031 57.808594 60.535156 57.808594 58.988281 58.773438 C 57.105469 59.949219 28 60.65625 28 59.527344 Z M 59.8125 59.316406 C 60.535156 59.027344 61.398438 59.0625 61.730469 59.394531 C 62.0625 59.726562 61.472656 59.964844 60.417969 59.921875 C 59.25 59.875 59.015625 59.636719 59.8125 59.316406 Z M 59.8125 59.316406 "/>
<path style=" stroke:none;fill-rule:nonzero;fill:rgb(99.607843%,0%,0%);fill-opacity:1;" d="M 26 72.5 L 26 66 L 72 66 L 72 79 L 26 79 Z M 36 76 C 37.101562 74.898438 38 73.324219 38 72.5 C 38 70.5625 34.4375 67 32.5 67 C 30.5625 67 27 70.5625 27 72.5 C 27 74.4375 30.5625 78 32.5 78 C 33.324219 78 34.898438 77.101562 36 76 Z M 69 76 C 70.101562 74.898438 71 73.324219 71 72.5 C 71 71.675781 70.101562 70.101562 69 69 C 67.898438 67.898438 66.324219 67 65.5 67 C 64.675781 67 63.101562 67.898438 62 69 C 60.898438 70.101562 60 71.675781 60 72.5 C 60 73.324219 60.898438 74.898438 62 76 C 63.101562 77.101562 64.675781 78 65.5 78 C 66.324219 78 67.898438 77.101562 69 76 Z M 53.25 73.269531 C 50.914062 73.058594 47.085938 73.058594 44.75 73.269531 C 42.414062 73.476562 44.324219 73.652344 49 73.652344 C 53.675781 73.652344 55.585938 73.476562 53.25 73.269531 Z M 53.25 71.269531 C 50.914062 71.058594 47.085938 71.058594 44.75 71.269531 C 42.414062 71.476562 44.324219 71.652344 49 71.652344 C 53.675781 71.652344 55.585938 71.476562 53.25 71.269531 Z M 53.25 69.269531 C 50.914062 69.058594 47.085938 69.058594 44.75 69.269531 C 42.414062 69.476562 44.324219 69.652344 49 69.652344 C 53.675781 69.652344 55.585938 69.476562 53.25 69.269531 Z M 78.199219 62.472656 C 75.828125 57.589844 75.410156 55 77 55 C 77.550781 55 78 55.664062 78 56.476562 C 78 57.289062 79.144531 58.703125 80.539062 59.617188 C 84.050781 61.917969 85.617188 64.992188 83.851562 66.113281 C 81.390625 67.671875 80.421875 67.046875 78.199219 62.472656 Z M 27.394531 63.417969 C 27.726562 62.546875 28 61.648438 28 61.417969 C 28 61.1875 37.402344 61 48.894531 61 C 67.023438 61 69.867188 61.210938 70.394531 62.582031 C 70.726562 63.453125 71 64.351562 71 64.582031 C 71 64.8125 61.050781 65 48.894531 65 C 29.144531 65 26.851562 64.832031 27.394531 63.417969 Z M 79.46875 57.949219 C 78.550781 56.464844 79.28125 55.9375 80.886719 56.929688 C 81.746094 57.460938 81.847656 57.976562 81.175781 58.390625 C 80.605469 58.742188 79.835938 58.546875 79.46875 57.949219 Z M 73.667969 54.332031 C 73.300781 53.964844 73 53.066406 73 52.332031 C 73 50.5625 75.640625 50.617188 76.324219 52.402344 C 77.132812 54.507812 75.226562 55.894531 73.667969 54.332031 Z M 73.667969 54.332031 "/>
<path style=" stroke:none;fill-rule:nonzero;fill:rgb(0%,0%,0%);fill-opacity:1;" d="M 82 90.105469 C 82 89.617188 82.675781 88.953125 83.5 88.636719 C 85.125 88.015625 85.402344 83.25 84.191406 76.828125 L 83.5 73.152344 L 80.75 75.527344 C 78.367188 77.589844 78 78.640625 78 83.453125 C 78 88.949219 77.972656 89 75 89 C 71.769531 89 70.976562 87.605469 73.625 86.589844 C 74.964844 86.074219 75.132812 85.0625 74.574219 80.835938 C 73.933594 76.007812 74.078125 75.515625 77.078125 72.417969 C 79.191406 70.238281 80.046875 68.566406 79.621094 67.453125 C 79.097656 66.089844 78.695312 66.007812 77.488281 67.011719 C 75.707031 68.488281 75.820312 68.761719 75.542969 62.253906 C 75.398438 58.921875 74.679688 56.304688 73.570312 55.074219 C 71.007812 52.246094 72.339844 48.789062 75.835938 49.191406 C 77.929688 49.433594 78.5 50.035156 78.5 52 C 78.5 53.570312 79.429688 55.097656 81 56.105469 C 84.746094 58.515625 87.730469 62.210938 86.324219 62.703125 C 85.453125 63.011719 85.519531 63.996094 86.574219 66.527344 C 87.503906 68.746094 88 73.617188 88 80.46875 L 88 91 L 85 91 C 83.351562 91 82 90.597656 82 90.105469 Z M 85.464844 66.269531 C 84.574219 63.933594 82.527344 61.089844 80.921875 59.945312 C 79.316406 58.800781 78 57.21875 78 56.433594 C 78 55.644531 77.550781 55 77 55 C 75.40625 55 75.828125 57.59375 78.222656 62.523438 C 80.164062 66.519531 80.769531 67.035156 82.972656 66.578125 C 85.265625 66.101562 85.316406 66.152344 83.5 67.148438 C 82.398438 67.75 80.035156 69.9375 78.242188 72.003906 C 75.09375 75.632812 75.011719 75.945312 75.875 81.132812 L 76.765625 86.5 L 76.914062 82 C 77.050781 77.933594 77.519531 77.121094 81.78125 73.574219 C 84.378906 71.414062 85.992188 70.210938 85.371094 70.902344 C 84.621094 71.738281 84.527344 73.375 85.097656 75.828125 C 85.566406 77.847656 86.054688 81.523438 86.183594 84 C 86.308594 86.476562 86.5625 84.453125 86.75 79.503906 C 86.992188 72.953125 86.644531 69.359375 85.464844 66.269531 Z M 78 64.382812 C 78 63.558594 77.550781 63.160156 77 63.5 C 76.449219 63.839844 76 64.792969 76 65.617188 C 76 66.441406 76.449219 66.839844 77 66.5 C 77.550781 66.160156 78 65.207031 78 64.382812 Z M 83.15625 58.898438 C 81.316406 57.226562 79.53125 56.132812 79.195312 56.472656 C 78.492188 57.175781 83.976562 61.925781 85.5 61.933594 C 86.050781 61.9375 84.996094 60.574219 83.15625 58.898438 Z M 76.265625 54.402344 C 77.238281 53.429688 75.902344 51 74.394531 51 C 73.625 51 73 51.601562 73 52.332031 C 73 54.546875 74.910156 55.757812 76.265625 54.402344 Z M 28.710938 89.378906 C 28.320312 88.988281 28 87.839844 28 86.832031 C 28 85.667969 27.273438 85 26 85 C 24.667969 85 24 84.332031 24 83 C 24 81.054688 24.667969 81 48.5 81 C 72.332031 81 73 81.054688 73 83 C 73 84.121094 72.332031 85 71.480469 85 C 70.359375 85 70.125 85.65625 70.589844 87.5 C 71.191406 89.902344 71.03125 90 66.5 90 C 61.96875 90 61.808594 89.902344 62.410156 87.5 C 62.976562 85.246094 62.738281 85 60.019531 85 C 57.464844 85 57 85.386719 57 87.5 C 57 89.945312 56.832031 90 49.5 90 C 42.167969 90 42 89.945312 42 87.5 C 42 85.320312 41.5625 85 38.570312 85 C 35.773438 85 35.078125 85.417969 34.820312 87.25 C 34.597656 88.804688 33.71875 89.589844 31.960938 89.796875 C 30.566406 89.957031 29.105469 89.769531 28.710938 89.378906 Z M 29.664062 85.75 C 29.386719 85.0625 29.15625 85.625 29.15625 87 C 29.15625 88.375 29.386719 88.9375 29.664062 88.25 C 29.941406 87.5625 29.941406 86.4375 29.664062 85.75 Z M 31.664062 85.75 C 31.386719 85.0625 31.15625 85.625 31.15625 87 C 31.15625 88.375 31.386719 88.9375 31.664062 88.25 C 31.941406 87.5625 31.941406 86.4375 31.664062 85.75 Z M 33.664062 85.75 C 33.386719 85.0625 33.15625 85.625 33.15625 87 C 33.15625 88.375 33.386719 88.9375 33.664062 88.25 C 33.941406 87.5625 33.941406 86.4375 33.664062 85.75 Z M 56 86.5 C 56 84.089844 55.765625 84 49.5 84 C 43.234375 84 43 84.089844 43 86.5 C 43 88.910156 43.234375 89 49.5 89 C 55.765625 89 56 88.910156 56 86.5 Z M 44.554688 87.085938 C 44.230469 86.5625 44.394531 85.875 44.914062 85.554688 C 45.4375 85.230469 46.125 85.394531 46.445312 85.914062 C 46.769531 86.4375 46.605469 87.125 46.085938 87.445312 C 45.5625 87.769531 44.875 87.605469 44.554688 87.085938 Z M 48.554688 87.085938 C 48.230469 86.5625 48.394531 85.875 48.914062 85.554688 C 49.4375 85.230469 50.125 85.394531 50.445312 85.914062 C 50.769531 86.4375 50.605469 87.125 50.085938 87.445312 C 49.5625 87.769531 48.875 87.605469 48.554688 87.085938 Z M 52.554688 87.085938 C 52.230469 86.5625 52.394531 85.875 52.914062 85.554688 C 53.4375 85.230469 54.125 85.394531 54.445312 85.914062 C 54.769531 86.4375 54.605469 87.125 54.085938 87.445312 C 53.5625 87.769531 52.875 87.605469 52.554688 87.085938 Z M 70 88.582031 C 70 88.351562 69.695312 87.371094 69.324219 86.40625 C 68.699219 84.773438 68.597656 84.785156 67.894531 86.574219 C 67.164062 88.445312 67.136719 88.441406 67 86.5 L 66.859375 84.5 L 65.140625 88.5 L 65.054688 86.5 C 64.984375 84.835938 64.804688 84.753906 64 86 C 62.398438 88.476562 62.832031 89 66.5 89 C 68.425781 89 70 88.8125 70 88.582031 Z M 72 82.820312 C 72 82.371094 61.425781 82 48.5 82 C 35.574219 82 25 82.386719 25 82.859375 C 25 83.332031 35.574219 83.703125 48.5 83.679688 C 61.425781 83.660156 72 83.273438 72 82.820312 Z M 25.683594 79.351562 C 24.53125 78.195312 24.945312 67.785156 26.359375 62.5 C 27.09375 59.75 28.671875 55.585938 29.867188 53.25 L 32.039062 49 L 65.964844 49 L 68.363281 53.75 C 71.464844 59.894531 73.253906 68.203125 72.832031 74.5 L 72.5 79.5 L 49.433594 79.769531 C 36.75 79.914062 26.0625 79.726562 25.683594 79.351562 Z M 72 72.5 L 72 66 L 26 66 L 26 79 L 72 79 Z M 29 76 C 27.898438 74.898438 27 73.324219 27 72.5 C 27 70.5625 30.5625 67 32.5 67 C 34.4375 67 38 70.5625 38 72.5 C 38 74.4375 34.4375 78 32.5 78 C 31.675781 78 30.101562 77.101562 29 76 Z M 35.429688 75.429688 C 36.292969 74.5625 37 73.246094 37 72.5 C 37 70.75 34.25 68 32.5 68 C 30.75 68 28 70.75 28 72.5 C 28 74.25 30.75 77 32.5 77 C 33.246094 77 34.5625 76.292969 35.429688 75.429688 Z M 31.269531 73.308594 C 32.242188 73.054688 33.59375 73.070312 34.269531 73.34375 C 34.945312 73.617188 34.148438 73.824219 32.5 73.804688 C 30.851562 73.785156 30.296875 73.5625 31.269531 73.308594 Z M 31.269531 71.308594 C 32.242188 71.054688 33.59375 71.070312 34.269531 71.34375 C 34.945312 71.617188 34.148438 71.824219 32.5 71.804688 C 30.851562 71.785156 30.296875 71.5625 31.269531 71.308594 Z M 62 76 C 60.898438 74.898438 60 73.324219 60 72.5 C 60 71.675781 60.898438 70.101562 62 69 C 63.101562 67.898438 64.675781 67 65.5 67 C 66.324219 67 67.898438 67.898438 69 69 C 70.101562 70.101562 71 71.675781 71 72.5 C 71 73.324219 70.101562 74.898438 69 76 C 67.898438 77.101562 66.324219 78 65.5 78 C 64.675781 78 63.101562 77.101562 62 76 Z M 68.429688 75.429688 C 69.292969 74.5625 70 73.246094 70 72.5 C 70 70.75 67.25 68 65.5 68 C 64.753906 68 63.4375 68.707031 62.570312 69.570312 C 61.707031 70.4375 61 71.753906 61 72.5 C 61 73.246094 61.707031 74.5625 62.570312 75.429688 C 63.4375 76.292969 64.753906 77 65.5 77 C 66.246094 77 67.5625 76.292969 68.429688 75.429688 Z M 64.269531 73.308594 C 65.242188 73.054688 66.59375 73.070312 67.269531 73.34375 C 67.945312 73.617188 67.148438 73.824219 65.5 73.804688 C 63.851562 73.785156 63.296875 73.5625 64.269531 73.308594 Z M 64.269531 71.308594 C 65.242188 71.054688 66.59375 71.070312 67.269531 71.34375 C 67.945312 71.617188 67.148438 71.824219 65.5 71.804688 C 63.851562 71.785156 63.296875 71.5625 64.269531 71.308594 Z M 44.75 73.269531 C 47.085938 73.058594 50.914062 73.058594 53.25 73.269531 C 55.585938 73.476562 53.675781 73.652344 49 73.652344 C 44.324219 73.652344 42.414062 73.476562 44.75 73.269531 Z M 44.75 71.269531 C 47.085938 71.058594 50.914062 71.058594 53.25 71.269531 C 55.585938 71.476562 53.675781 71.652344 49 71.652344 C 44.324219 71.652344 42.414062 71.476562 44.75 71.269531 Z M 44.75 69.269531 C 47.085938 69.058594 50.914062 69.058594 53.25 69.269531 C 55.585938 69.476562 53.675781 69.652344 49 69.652344 C 44.324219 69.652344 42.414062 69.476562 44.75 69.269531 Z M 71 64.582031 C 71 64.351562 70.726562 63.453125 70.394531 62.582031 C 69.867188 61.210938 67.023438 61 48.894531 61 C 37.402344 61 28 61.1875 28 61.417969 C 28 61.648438 27.726562 62.546875 27.394531 63.417969 C 26.851562 64.832031 29.144531 65 48.894531 65 C 61.050781 65 71 64.8125 71 64.582031 Z M 58.988281 58.773438 C 60.535156 57.808594 61.207031 57.808594 62.175781 58.773438 C 63.320312 59.921875 70 60.5625 70 59.527344 C 70 59.265625 69.011719 57.015625 67.800781 54.527344 L 65.601562 50 L 32.398438 50 L 30.199219 54.527344 C 28.988281 57.015625 28 59.265625 28 59.527344 C 28 60.65625 57.105469 59.949219 58.988281 58.773438 Z M 61.730469 59.394531 C 61.398438 59.0625 60.535156 59.027344 59.8125 59.316406 C 59.015625 59.636719 59.25 59.875 60.417969 59.921875 C 61.472656 59.964844 62.0625 59.726562 61.730469 59.394531 Z M 61.730469 59.394531 "/>
<path style="fill:none;stroke-width:2;stroke-linecap:butt;stroke-linejoin:miter;stroke:rgb(0%,0%,0%);stroke-opacity:1;stroke-miterlimit:10;" d="M 1 17.667969 C 1 8.460938 8.460938 1 17.667969 1 L 82.332031 1 C 91.539062 1 99 8.460938 99 17.667969 L 99 132.332031 C 99 141.539062 91.539062 149 82.332031 149 L 17.667969 149 C 8.460938 149 1 141.539062 1 132.332031 L 1 17.667969 "/>
<path style=" stroke:none;fill-rule:nonzero;fill:rgb(0%,0%,0%);fill-opacity:1;" d="M 13.058594 9.6875 C 13.417969 9.6875 13.714844 9.5 13.714844 9.09375 C 13.714844 8.6875 13.417969 8.5 13.058594 8.5 L 10.839844 8.5 C 9.402344 8.5 8.339844 9.609375 8.339844 11.328125 C 8.339844 14.109375 10.761719 15.4375 12.714844 15.4375 C 13.417969 15.4375 13.777344 15.25 13.777344 14.78125 C 13.777344 14.4375 13.542969 14.171875 12.964844 14.171875 C 10.855469 14.171875 9.746094 12.6875 9.746094 11.421875 C 9.746094 10.390625 10.121094 9.6875 11.199219 9.6875 Z M 14.699219 14.71875 C 14.699219 15.109375 14.917969 15.40625 15.308594 15.40625 C 15.683594 15.40625 15.902344 15.109375 15.902344 14.71875 L 15.902344 12.53125 C 15.902344 11.609375 16.199219 11.375 16.777344 11.375 C 17.214844 11.375 17.464844 11.1875 17.464844 10.8125 C 17.464844 10.46875 17.292969 10.234375 16.855469 10.234375 C 16.292969 10.234375 15.917969 10.46875 15.824219 11.03125 L 15.808594 11.03125 L 15.792969 10.71875 C 15.746094 10.265625 15.464844 10.234375 15.246094 10.234375 C 14.902344 10.234375 14.699219 10.4375 14.699219 10.84375 Z M 21.921875 15.375 C 22.25 15.375 22.5 15.203125 22.5 14.828125 C 22.5 14.46875 22.25 14.296875 21.921875 14.296875 L 20.640625 14.296875 C 19.796875 14.296875 19.078125 14.046875 19 13.109375 L 22.0625 13.109375 C 22.484375 13.109375 22.546875 12.859375 22.546875 12.515625 C 22.546875 11.34375 21.859375 10.234375 20.1875 10.234375 C 18.65625 10.234375 17.6875 11.40625 17.6875 12.90625 C 17.6875 14.390625 18.6875 15.375 20.46875 15.375 Z M 19.078125 12.203125 C 19.21875 11.609375 19.71875 11.234375 20.1875 11.234375 C 20.65625 11.234375 21.15625 11.609375 21.296875 12.203125 Z M 25.402344 14.140625 C 24.871094 13.375 24.589844 12.1875 24.433594 11.171875 C 24.339844 10.53125 24.246094 10.234375 23.808594 10.234375 C 23.417969 10.234375 23.230469 10.4375 23.230469 10.78125 C 23.230469 11.953125 23.761719 13.609375 24.605469 14.984375 C 24.824219 15.328125 25.121094 15.4375 25.402344 15.4375 C 25.683594 15.4375 25.980469 15.328125 26.199219 14.984375 C 27.042969 13.609375 27.574219 11.953125 27.574219 10.78125 C 27.574219 10.4375 27.386719 10.234375 26.996094 10.234375 C 26.558594 10.234375 26.464844 10.53125 26.371094 11.171875 C 26.214844 12.1875 25.933594 13.375 25.402344 14.140625 Z M 32.480469 15.375 C 32.808594 15.375 33.058594 15.203125 33.058594 14.828125 C 33.058594 14.46875 32.808594 14.296875 32.480469 14.296875 L 31.199219 14.296875 C 30.355469 14.296875 29.636719 14.046875 29.558594 13.109375 L 32.621094 13.109375 C 33.042969 13.109375 33.105469 12.859375 33.105469 12.515625 C 33.105469 11.34375 32.417969 10.234375 30.746094 10.234375 C 29.214844 10.234375 28.246094 11.40625 28.246094 12.90625 C 28.246094 14.390625 29.246094 15.375 31.027344 15.375 Z M 29.636719 12.203125 C 29.777344 11.609375 30.277344 11.234375 30.746094 11.234375 C 31.214844 11.234375 31.714844 11.609375 31.855469 12.203125 Z M 29.636719 9.03125 C 29.480469 9.09375 29.386719 9.1875 29.386719 9.296875 C 29.386719 9.5625 29.511719 9.78125 29.746094 9.78125 C 29.917969 9.78125 30.277344 9.671875 30.621094 9.578125 L 31.917969 9.28125 C 32.121094 9.234375 32.167969 9.140625 32.152344 8.9375 C 32.136719 8.6875 32.074219 8.328125 31.777344 8.328125 C 31.574219 8.328125 31.355469 8.421875 31.105469 8.515625 Z M 33.460938 15.375 "/>
<path style=" stroke:none;fill-rule:nonzero;fill:rgb(0%,0%,0%);fill-opacity:1;" d="M 71.261719 135.917969 C 71.621094 135.917969 71.917969 135.730469 71.917969 135.324219 C 71.917969 134.917969 71.621094 134.730469 71.261719 134.730469 L 69.042969 134.730469 C 67.605469 134.730469 66.542969 135.839844 66.542969 137.558594 C 66.542969 140.339844 68.964844 141.667969 70.917969 141.667969 C 71.621094 141.667969 71.980469 141.480469 71.980469 141.011719 C 71.980469 140.667969 71.746094 140.402344 71.167969 140.402344 C 69.058594 140.402344 67.949219 138.917969 67.949219 137.652344 C 67.949219 136.621094 68.324219 135.917969 69.402344 135.917969 Z M 72.902344 140.949219 C 72.902344 141.339844 73.121094 141.636719 73.511719 141.636719 C 73.886719 141.636719 74.105469 141.339844 74.105469 140.949219 L 74.105469 138.761719 C 74.105469 137.839844 74.402344 137.605469 74.980469 137.605469 C 75.417969 137.605469 75.667969 137.417969 75.667969 137.042969 C 75.667969 136.699219 75.496094 136.464844 75.058594 136.464844 C 74.496094 136.464844 74.121094 136.699219 74.027344 137.261719 L 74.011719 137.261719 L 73.996094 136.949219 C 73.949219 136.496094 73.667969 136.464844 73.449219 136.464844 C 73.105469 136.464844 72.902344 136.667969 72.902344 137.074219 Z M 80.125 141.605469 C 80.453125 141.605469 80.703125 141.433594 80.703125 141.058594 C 80.703125 140.699219 80.453125 140.527344 80.125 140.527344 L 78.84375 140.527344 C 78 140.527344 77.28125 140.277344 77.203125 139.339844 L 80.265625 139.339844 C 80.6875 139.339844 80.75 139.089844 80.75 138.746094 C 80.75 137.574219 80.0625 136.464844 78.390625 136.464844 C 76.859375 136.464844 75.890625 137.636719 75.890625 139.136719 C 75.890625 140.621094 76.890625 141.605469 78.671875 141.605469 Z M 77.28125 138.433594 C 77.421875 137.839844 77.921875 137.464844 78.390625 137.464844 C 78.859375 137.464844 79.359375 137.839844 79.5 138.433594 Z M 83.605469 140.371094 C 83.074219 139.605469 82.792969 138.417969 82.636719 137.402344 C 82.542969 136.761719 82.449219 136.464844 82.011719 136.464844 C 81.621094 136.464844 81.433594 136.667969 81.433594 137.011719 C 81.433594 138.183594 81.964844 139.839844 82.808594 141.214844 C 83.027344 141.558594 83.324219 141.667969 83.605469 141.667969 C 83.886719 141.667969 84.183594 141.558594 84.402344 141.214844 C 85.246094 139.839844 85.777344 138.183594 85.777344 137.011719 C 85.777344 136.667969 85.589844 136.464844 85.199219 136.464844 C 84.761719 136.464844 84.667969 136.761719 84.574219 137.402344 C 84.417969 138.417969 84.136719 139.605469 83.605469 140.371094 Z M 90.683594 141.605469 C 91.011719 141.605469 91.261719 141.433594 91.261719 141.058594 C 91.261719 140.699219 91.011719 140.527344 90.683594 140.527344 L 89.402344 140.527344 C 88.558594 140.527344 87.839844 140.277344 87.761719 139.339844 L 90.824219 139.339844 C 91.246094 139.339844 91.308594 139.089844 91.308594 138.746094 C 91.308594 137.574219 90.621094 136.464844 88.949219 136.464844 C 87.417969 136.464844 86.449219 137.636719 86.449219 139.136719 C 86.449219 140.621094 87.449219 141.605469 89.230469 141.605469 Z M 87.839844 138.433594 C 87.980469 137.839844 88.480469 137.464844 88.949219 137.464844 C 89.417969 137.464844 89.917969 137.839844 90.058594 138.433594 Z M 87.839844 135.261719 C 87.683594 135.324219 87.589844 135.417969 87.589844 135.527344 C 87.589844 135.792969 87.714844 136.011719 87.949219 136.011719 C 88.121094 136.011719 88.480469 135.902344 88.824219 135.808594 L 90.121094 135.511719 C 90.324219 135.464844 90.371094 135.371094 90.355469 135.167969 C 90.339844 134.917969 90.277344 134.558594 89.980469 134.558594 C 89.777344 134.558594 89.558594 134.652344 89.308594 134.746094 Z M 91.664062 141.605469 "/>
</g>
</svg>
