<?xml version="1.0" encoding="UTF-8"?>
<svg xmlns="http://www.w3.org/2000/svg" xmlns:xlink="http://www.w3.org/1999/xlink" width="100pt" height="150pt" viewBox="0 0 100 150" version="1.1">
<g id="surface1">
<path style=" stroke:none;fill-rule:nonzero;fill:rgb(0%,80%,0%);fill-opacity:1;" d="M 1 17.667969 C 1 8.460938 8.460938 1 17.667969 1 L 82.332031 1 C 91.539062 1 99 8.460938 99 17.667969 L 99 132.332031 C 99 141.539062 91.539062 149 82.332031 149 L 17.667969 149 C 8.460938 149 1 141.539062 1 132.332031 L 1 17.667969 "/>
<path style=" stroke:none;fill-rule:nonzero;fill:rgb(100%,0%,0%);fill-opacity:1;" d="M 29.5625 58.957031 C 28.367188 57.5 27.671875 55.640625 26.679688 53.226562 C 26.214844 52.089844 25.519531 51.625 24.355469 51.625 C 22.113281 51.625 22.027344 53.339844 21.5625 56.132812 C 21.007812 59.421875 20.511719 65.125 20.511719 68.441406 C 20.511719 70.476562 20.660156 71.816406 22.316406 71.816406 C 23.945312 71.816406 24.179688 70.710938 24.179688 69.34375 L 24.179688 64.746094 C 24.179688 62.214844 24.46875 59.597656 24.878906 56.917969 L 24.9375 56.917969 C 25.402344 58.402344 27.523438 63.261719 29.5625 63.261719 C 31.597656 63.261719 33.722656 58.402344 34.1875 56.917969 L 34.246094 56.917969 C 34.652344 59.597656 34.945312 62.214844 34.945312 64.746094 L 34.945312 69.34375 C 34.945312 70.710938 35.175781 71.816406 36.804688 71.816406 C 38.464844 71.816406 38.609375 70.476562 38.609375 68.441406 C 38.609375 65.125 38.117188 59.421875 37.5625 56.132812 C 37.097656 53.339844 37.007812 51.625 34.769531 51.625 C 33.605469 51.625 32.90625 52.089844 32.441406 53.226562 C 31.453125 55.640625 30.753906 57.5 29.5625 58.957031 Z M 29.5625 58.957031 "/>
<path style=" stroke:none;fill-rule:nonzero;fill:rgb(100%,0%,0%);fill-opacity:1;" d="M 45.855469 58.664062 C 45.855469 57.617188 45.300781 56.773438 44.109375 56.773438 C 42.914062 56.773438 42.363281 57.617188 42.363281 58.664062 L 42.363281 69.925781 C 42.363281 70.972656 42.914062 71.816406 44.109375 71.816406 C 45.300781 71.816406 45.855469 70.972656 45.855469 69.925781 Z M 44.109375 50.957031 C 43.03125 50.957031 42.1875 51.710938 42.1875 53.109375 C 42.1875 54.503906 43.03125 55.261719 44.109375 55.261719 C 45.183594 55.261719 46.027344 54.503906 46.027344 53.109375 C 46.027344 51.710938 45.183594 50.957031 44.109375 50.957031 Z M 44.109375 50.957031 "/>
<path style=" stroke:none;fill-rule:nonzero;fill:rgb(100%,0%,0%);fill-opacity:1;" d="M 53.941406 52.933594 C 53.941406 51.886719 53.390625 51.042969 52.195312 51.042969 C 51.003906 51.042969 50.449219 51.886719 50.449219 52.933594 L 50.449219 69.925781 C 50.449219 70.972656 51.003906 71.816406 52.195312 71.816406 C 53.390625 71.816406 53.941406 70.972656 53.941406 69.925781 Z M 53.941406 52.933594 "/>
<path style=" stroke:none;fill-rule:nonzero;fill:rgb(100%,0%,0%);fill-opacity:1;" d="M 62.03125 52.933594 C 62.03125 51.886719 61.476562 51.042969 60.285156 51.042969 C 59.089844 51.042969 58.539062 51.886719 58.539062 52.933594 L 58.539062 69.925781 C 58.539062 70.972656 59.089844 71.816406 60.285156 71.816406 C 61.476562 71.816406 62.03125 70.972656 62.03125 69.925781 Z M 62.03125 52.933594 "/>
<path style=" stroke:none;fill-rule:nonzero;fill:rgb(100%,0%,0%);fill-opacity:1;" d="M 77.652344 71.726562 C 78.585938 71.726562 79.339844 71.234375 79.339844 70.15625 C 79.339844 69.082031 78.585938 68.585938 77.652344 68.585938 L 73.898438 68.585938 C 71.457031 68.585938 69.390625 67.859375 69.15625 65.125 L 78.0625 65.125 C 79.28125 65.125 79.488281 64.398438 79.488281 63.40625 C 79.488281 60.003906 77.480469 56.773438 72.621094 56.773438 C 68.167969 56.773438 65.316406 60.179688 65.316406 64.542969 C 65.316406 68.878906 68.226562 71.726562 73.40625 71.726562 Z M 69.390625 62.503906 C 69.796875 60.761719 71.253906 59.683594 72.621094 59.683594 C 73.988281 59.683594 75.441406 60.761719 75.820312 62.503906 Z M 69.390625 62.503906 "/>
<path style=" stroke:none;fill-rule:nonzero;fill:rgb(0%,0%,100%);fill-opacity:1;" d="M 7.652344 78.855469 C 6.664062 78.855469 6.054688 79.726562 6.054688 80.832031 L 6.054688 96.890625 C 6.054688 98.289062 6.664062 98.871094 8.585938 98.871094 L 15.453125 98.871094 C 18.710938 98.871094 21.09375 96.25 21.09375 93.140625 C 21.09375 90.8125 19.671875 88.660156 17.867188 87.289062 C 19.378906 86.097656 20.078125 84.875 20.078125 82.898438 C 20.078125 80.773438 19.117188 78.855469 15.800781 78.855469 Z M 9.71875 87.640625 C 12.660156 87.871094 17.253906 89.472656 17.253906 93.023438 C 17.253906 94.972656 15.742188 95.554688 13.296875 95.554688 L 9.71875 95.554688 Z M 9.71875 81.996094 L 13.820312 81.996094 C 15.742188 81.996094 16.410156 82.460938 16.410156 83.539062 C 16.410156 84.496094 15.859375 85.195312 14.925781 85.777344 C 13.414062 85.136719 11.347656 84.730469 9.71875 84.730469 Z M 9.71875 81.996094 "/>
<path style=" stroke:none;fill-rule:nonzero;fill:rgb(0%,0%,100%);fill-opacity:1;" d="M 37.242188 91.480469 C 37.242188 87.234375 34.625 83.914062 30.085938 83.914062 C 25.546875 83.914062 22.929688 87.234375 22.929688 91.480469 C 22.929688 95.726562 25.546875 99.042969 30.085938 99.042969 C 34.625 99.042969 37.242188 95.726562 37.242188 91.480469 Z M 33.578125 91.480469 C 33.578125 93.808594 32.472656 95.902344 30.085938 95.902344 C 27.699219 95.902344 26.59375 93.808594 26.59375 91.480469 C 26.59375 89.152344 27.699219 87.058594 30.085938 87.058594 C 32.472656 87.058594 33.578125 89.152344 33.578125 91.480469 Z M 33.578125 91.480469 "/>
<path style=" stroke:none;fill-rule:nonzero;fill:rgb(0%,0%,100%);fill-opacity:1;" d="M 40.179688 96.980469 C 40.179688 98.113281 40.820312 98.957031 41.925781 98.957031 C 43.03125 98.957031 43.671875 98.113281 43.671875 96.980469 L 43.671875 90.609375 C 43.671875 87.929688 44.515625 87.234375 46.230469 87.234375 C 47.484375 87.234375 48.238281 86.707031 48.238281 85.601562 C 48.238281 84.613281 47.714844 83.914062 46.4375 83.914062 C 44.808594 83.914062 43.703125 84.613281 43.46875 86.214844 L 43.410156 86.214844 L 43.351562 85.3125 C 43.234375 84.003906 42.421875 83.914062 41.78125 83.914062 C 40.761719 83.914062 40.179688 84.496094 40.179688 85.691406 Z M 40.179688 96.980469 "/>
<path style=" stroke:none;fill-rule:nonzero;fill:rgb(0%,0%,100%);fill-opacity:1;" d="M 49.636719 97.066406 C 49.636719 98.113281 50.1875 98.957031 51.382812 98.957031 C 52.574219 98.957031 53.128906 98.113281 53.128906 97.066406 L 53.128906 91.132812 C 53.128906 88.425781 54.40625 87.058594 56.386719 87.058594 C 57.957031 87.058594 58.742188 88.046875 58.742188 90.082031 L 58.742188 97.066406 C 58.742188 98.113281 59.296875 98.957031 60.488281 98.957031 C 61.679688 98.957031 62.234375 98.113281 62.234375 97.066406 L 62.234375 89.152344 C 62.234375 86.183594 60.199219 83.914062 57.054688 83.914062 C 55.453125 83.914062 54.292969 84.382812 53.128906 85.488281 C 53.128906 84.757812 52.574219 83.914062 51.382812 83.914062 C 50.1875 83.914062 49.636719 84.757812 49.636719 85.808594 Z M 49.636719 97.066406 "/>
<path style=" stroke:none;fill-rule:nonzero;fill:rgb(0%,0%,100%);fill-opacity:1;" d="M 77.363281 98.871094 C 78.292969 98.871094 79.050781 98.375 79.050781 97.300781 C 79.050781 96.222656 78.292969 95.726562 77.363281 95.726562 L 73.609375 95.726562 C 71.164062 95.726562 69.101562 95 68.867188 92.265625 L 77.769531 92.265625 C 78.992188 92.265625 79.195312 91.539062 79.195312 90.550781 C 79.195312 87.144531 77.1875 83.914062 72.328125 83.914062 C 67.878906 83.914062 65.027344 87.320312 65.027344 91.683594 C 65.027344 96.019531 67.9375 98.871094 73.113281 98.871094 Z M 69.101562 89.648438 C 69.507812 87.902344 70.960938 86.824219 72.328125 86.824219 C 73.695312 86.824219 75.152344 87.902344 75.53125 89.648438 Z M 69.101562 89.648438 "/>
<path style=" stroke:none;fill-rule:nonzero;fill:rgb(0%,0%,100%);fill-opacity:1;" d="M 88.214844 98.871094 C 91.503906 98.871094 93.945312 97.386719 93.945312 93.867188 C 93.945312 87.726562 84.78125 89.96875 84.78125 87.960938 C 84.78125 87.261719 85.507812 87.234375 86.03125 87.234375 L 91.125 87.234375 C 92.054688 87.234375 92.8125 86.738281 92.8125 85.660156 C 92.8125 84.585938 92.054688 84.089844 91.125 84.089844 L 86.234375 84.089844 C 83.035156 84.089844 81.289062 85.285156 81.289062 87.929688 C 81.289062 94.011719 90.453125 90.839844 90.453125 93.835938 C 90.453125 95.40625 89.347656 95.726562 87.953125 95.726562 L 82.714844 95.726562 C 81.753906 95.726562 81 96.222656 81 97.300781 C 81 98.375 81.753906 98.871094 82.714844 98.871094 Z M 88.214844 98.871094 "/>
<path style="fill:none;stroke-width:2;stroke-linecap:butt;stroke-linejoin:miter;stroke:rgb(0%,0%,0%);stroke-opacity:1;stroke-miterlimit:10;" d="M 1 17.667969 C 1 8.460938 8.460938 1 17.667969 1 L 82.332031 1 C 91.539062 1 99 8.460938 99 17.667969 L 99 132.332031 C 99 141.539062 91.539062 149 82.332031 149 L 17.667969 149 C 8.460938 149 1 141.539062 1 132.332031 L 1 17.667969 "/>
</g>
</svg>
