<?xml version="1.0" encoding="UTF-8"?>
<svg xmlns="http://www.w3.org/2000/svg" xmlns:xlink="http://www.w3.org/1999/xlink" width="100pt" height="150pt" viewBox="0 0 100 150" version="1.1">
<g id="surface1">
<path style=" stroke:none;fill-rule:nonzero;fill:rgb(100%,100%,100%);fill-opacity:1;" d="M 1 17.667969 C 1 8.460938 8.460938 1 17.667969 1 L 82.332031 1 C 91.539062 1 99 8.460938 99 17.667969 L 99 132.332031 C 99 141.539062 91.539062 149 82.332031 149 L 17.667969 149 C 8.460938 149 1 141.539062 1 132.332031 L 1 17.667969 "/>
<path style=" stroke:none;fill-rule:nonzero;fill:rgb(99.607843%,99.607843%,99.607843%);fill-opacity:1;" d="M 5 75 L 5 20 L 95 20 L 95 130 L 5 130 Z M 92 70.5 L 92 41 L 10 41 L 10 100 L 92 100 Z M 11 70.5 L 11 42 L 91 42 L 91 99 L 11 99 Z M 68.738281 90.066406 L 60.980469 89.5 L 68.433594 78.355469 C 74.851562 68.757812 79 61.230469 79 59.1875 C 79 58.875 77.515625 61.066406 75.699219 64.058594 C 73.882812 67.050781 69.320312 74.101562 65.5625 79.726562 L 58.726562 89.953125 L 41.613281 90.253906 C 31.234375 90.433594 34.730469 90.566406 50.5 90.59375 C 64.800781 90.613281 73.007812 90.378906 68.738281 90.066406 Z M 23.617188 61.339844 C 22.773438 59.777344 22.0625 58.816406 22.039062 59.203125 C 21.972656 60.390625 24.296875 65.035156 24.742188 64.59375 C 24.96875 64.363281 24.464844 62.898438 23.617188 61.339844 Z M 50.707031 54.761719 C 50.46875 53.519531 50.261719 54.300781 50.253906 56.5 C 50.242188 58.699219 50.4375 59.71875 50.6875 58.761719 C 50.9375 57.804688 50.945312 56.003906 50.707031 54.761719 Z M 19.75 57.285156 C 16.601562 56.808594 15.753906 53.082031 18.75 52.882812 C 20.417969 52.773438 20.417969 52.746094 18.75 52.3125 C 15.867188 51.558594 16.601562 48.195312 19.75 47.714844 C 22.308594 47.328125 22.273438 47.289062 19.25 47.148438 L 16 47 L 16 58 L 19.25 57.851562 C 22.273438 57.710938 22.308594 57.671875 19.75 57.285156 Z M 81.816406 52.882812 C 83.324219 52.78125 83.316406 52.71875 81.75 52.3125 C 78.867188 51.558594 79.601562 48.195312 82.75 47.714844 C 85.308594 47.328125 85.273438 47.289062 82.25 47.148438 L 79 47 L 79.148438 52.75 C 79.230469 55.914062 79.488281 57.261719 79.714844 55.75 C 79.96875 54.070312 80.789062 52.953125 81.816406 52.882812 Z M 81.816406 52.882812 "/>
<path style=" stroke:none;fill-rule:nonzero;fill:rgb(0%,99.607843%,0%);fill-opacity:1;" d="M 60.558594 87.25 C 69.980469 72.765625 75.464844 65 76.265625 65 C 76.796875 65 76.425781 66.238281 75.441406 67.75 C 66.019531 82.234375 60.535156 90 59.734375 90 C 59.203125 90 59.574219 88.761719 60.558594 87.25 Z M 60.558594 87.25 "/>
<path style=" stroke:none;fill-rule:nonzero;fill:rgb(0%,0%,0%);fill-opacity:1;" d="M 10 70.5 L 10 41 L 92 41 L 92 100 L 10 100 Z M 91 70.5 L 91 42 L 11 42 L 11 99 L 91 99 Z M 37.191406 90.253906 C 44.171875 90.082031 55.871094 90.082031 63.191406 90.253906 C 70.511719 90.421875 64.800781 90.5625 50.5 90.5625 C 36.199219 90.566406 30.210938 90.425781 37.191406 90.253906 Z M 23.164062 62.457031 C 21.488281 58.78125 21.804688 57.996094 23.617188 61.339844 C 24.464844 62.898438 24.96875 64.363281 24.742188 64.59375 C 24.511719 64.820312 23.800781 63.859375 23.164062 62.457031 Z M 76.070312 64.5 C 76.070312 63.949219 76.714844 62.375 77.5 61 C 78.285156 59.625 78.929688 58.949219 78.929688 59.5 C 78.929688 60.050781 78.285156 61.625 77.5 63 C 76.714844 64.375 76.070312 65.050781 76.070312 64.5 Z M 50.253906 56.5 C 50.261719 54.300781 50.46875 53.519531 50.707031 54.761719 C 50.945312 56.003906 50.9375 57.804688 50.6875 58.761719 C 50.4375 59.71875 50.242188 58.699219 50.253906 56.5 Z M 50.253906 56.5 "/>
<path style=" stroke:none;fill-rule:nonzero;fill:rgb(0%,0%,0%);fill-opacity:1;" d="M 19.566406 48.714844 L 23.566406 48.714844 C 24.113281 48.714844 24.542969 48.425781 24.542969 47.804688 C 24.542969 47.179688 24.113281 46.890625 23.566406 46.890625 L 18.335938 46.890625 C 17.792969 46.890625 17.457031 47.371094 17.457031 47.980469 L 17.457031 56.523438 C 17.457031 57.355469 17.792969 57.898438 18.847656 57.898438 L 23.566406 57.898438 C 24.113281 57.898438 24.542969 57.613281 24.542969 56.988281 C 24.542969 56.363281 24.113281 56.074219 23.566406 56.074219 L 19.566406 56.074219 L 19.566406 51.914062 L 23.40625 51.914062 C 23.953125 51.914062 24.382812 51.628906 24.382812 51.003906 C 24.382812 50.378906 23.953125 50.089844 23.40625 50.089844 L 19.566406 50.089844 Z M 19.566406 48.714844 "/>
<path style=" stroke:none;fill-rule:nonzero;fill:rgb(0%,100%,0%);fill-opacity:1;" d="M 79 51.914062 L 82.488281 51.914062 C 83.03125 51.914062 83.464844 51.628906 83.464844 51.003906 C 83.464844 50.378906 83.03125 50.089844 82.488281 50.089844 L 79 50.089844 L 79 48.714844 L 82.648438 48.714844 C 83.191406 48.714844 83.625 48.425781 83.625 47.804688 C 83.625 47.179688 83.191406 46.890625 82.648438 46.890625 L 77.765625 46.890625 C 77.222656 46.890625 76.886719 47.371094 76.886719 47.980469 L 76.886719 56.699219 C 76.886719 57.46875 77.160156 57.949219 77.945312 57.949219 C 78.726562 57.949219 79 57.46875 79 56.699219 Z M 79 51.914062 "/>
<path style="fill:none;stroke-width:2;stroke-linecap:butt;stroke-linejoin:miter;stroke:rgb(0%,0%,0%);stroke-opacity:1;stroke-miterlimit:10;" d="M 1 17.667969 C 1 8.460938 8.460938 1 17.667969 1 L 82.332031 1 C 91.539062 1 99 8.460938 99 17.667969 L 99 132.332031 C 99 141.539062 91.539062 149 82.332031 149 L 17.667969 149 C 8.460938 149 1 141.539062 1 132.332031 L 1 17.667969 "/>
<path style=" stroke:none;fill-rule:nonzero;fill:rgb(0%,0%,0%);fill-opacity:1;" d="M 9.660156 9.480469 L 12.160156 9.480469 C 12.488281 9.480469 12.769531 9.292969 12.769531 8.902344 C 12.769531 8.511719 12.488281 8.339844 12.160156 8.339844 L 8.878906 8.339844 C 8.550781 8.339844 8.332031 8.636719 8.332031 9.011719 L 8.332031 14.355469 C 8.332031 14.871094 8.550781 15.214844 9.207031 15.214844 L 12.160156 15.214844 C 12.488281 15.214844 12.769531 15.027344 12.769531 14.652344 C 12.769531 14.261719 12.488281 14.074219 12.160156 14.074219 L 9.660156 14.074219 L 9.660156 11.480469 L 12.050781 11.480469 C 12.394531 11.480469 12.660156 11.292969 12.660156 10.902344 C 12.660156 10.511719 12.394531 10.339844 12.050781 10.339844 L 9.660156 10.339844 Z M 15.953125 15.214844 C 17.078125 15.214844 17.921875 14.699219 17.921875 13.496094 C 17.921875 11.386719 14.765625 12.152344 14.765625 11.464844 C 14.765625 11.230469 15.015625 11.214844 15.203125 11.214844 L 16.953125 11.214844 C 17.265625 11.214844 17.53125 11.042969 17.53125 10.667969 C 17.53125 10.308594 17.265625 10.136719 16.953125 10.136719 L 15.265625 10.136719 C 14.171875 10.136719 13.578125 10.542969 13.578125 11.449219 C 13.578125 13.542969 16.71875 12.449219 16.71875 13.480469 C 16.71875 14.027344 16.34375 14.136719 15.859375 14.136719 L 14.0625 14.136719 C 13.734375 14.136719 13.46875 14.308594 13.46875 14.667969 C 13.46875 15.042969 13.734375 15.214844 14.0625 15.214844 Z M 20.953125 15.214844 C 22.078125 15.214844 22.921875 14.699219 22.921875 13.496094 C 22.921875 11.386719 19.765625 12.152344 19.765625 11.464844 C 19.765625 11.230469 20.015625 11.214844 20.203125 11.214844 L 21.953125 11.214844 C 22.265625 11.214844 22.53125 11.042969 22.53125 10.667969 C 22.53125 10.308594 22.265625 10.136719 21.953125 10.136719 L 20.265625 10.136719 C 19.171875 10.136719 18.578125 10.542969 18.578125 11.449219 C 18.578125 13.542969 21.71875 12.449219 21.71875 13.480469 C 21.71875 14.027344 21.34375 14.136719 20.859375 14.136719 L 19.0625 14.136719 C 18.734375 14.136719 18.46875 14.308594 18.46875 14.667969 C 18.46875 15.042969 18.734375 15.214844 19.0625 15.214844 Z M 27.78125 15.214844 C 28.109375 15.214844 28.359375 15.042969 28.359375 14.667969 C 28.359375 14.308594 28.109375 14.136719 27.78125 14.136719 L 26.5 14.136719 C 25.65625 14.136719 24.9375 13.886719 24.859375 12.949219 L 27.921875 12.949219 C 28.34375 12.949219 28.40625 12.699219 28.40625 12.355469 C 28.40625 11.183594 27.71875 10.074219 26.046875 10.074219 C 24.515625 10.074219 23.546875 11.246094 23.546875 12.746094 C 23.546875 14.230469 24.546875 15.214844 26.328125 15.214844 Z M 24.9375 12.042969 C 25.078125 11.449219 25.578125 11.074219 26.046875 11.074219 C 26.515625 11.074219 27.015625 11.449219 27.15625 12.042969 Z M 29.375 14.589844 C 29.375 14.949219 29.5625 15.246094 29.96875 15.246094 C 30.390625 15.246094 30.578125 14.949219 30.578125 14.589844 L 30.578125 12.558594 C 30.578125 11.621094 31.015625 11.152344 31.703125 11.152344 C 32.234375 11.152344 32.5 11.496094 32.5 12.199219 L 32.5 14.589844 C 32.5 14.949219 32.703125 15.246094 33.109375 15.246094 C 33.515625 15.246094 33.703125 14.949219 33.703125 14.589844 L 33.703125 11.871094 C 33.703125 10.855469 33 10.074219 31.921875 10.074219 C 31.375 10.074219 30.96875 10.230469 30.578125 10.621094 C 30.578125 10.371094 30.390625 10.074219 29.96875 10.074219 C 29.5625 10.074219 29.375 10.371094 29.375 10.730469 Z M 36.808594 10.136719 C 35.480469 10.136719 34.636719 11.136719 34.636719 12.324219 C 34.636719 13.667969 35.683594 15.214844 38.105469 15.214844 C 39.042969 15.214844 39.308594 15.042969 39.308594 14.652344 C 39.308594 14.199219 39.105469 14.074219 38.277344 14.074219 C 36.933594 14.074219 35.964844 13.496094 35.964844 12.292969 C 35.964844 11.777344 36.339844 11.277344 37.042969 11.277344 L 38.558594 11.277344 C 38.886719 11.277344 39.167969 11.089844 39.167969 10.699219 C 39.167969 10.308594 38.886719 10.136719 38.558594 10.136719 Z M 43.902344 15.214844 C 44.230469 15.214844 44.480469 15.042969 44.480469 14.667969 C 44.480469 14.308594 44.230469 14.136719 43.902344 14.136719 L 42.621094 14.136719 C 41.777344 14.136719 41.058594 13.886719 40.980469 12.949219 L 44.042969 12.949219 C 44.464844 12.949219 44.527344 12.699219 44.527344 12.355469 C 44.527344 11.183594 43.839844 10.074219 42.167969 10.074219 C 40.636719 10.074219 39.667969 11.246094 39.667969 12.746094 C 39.667969 14.230469 40.667969 15.214844 42.449219 15.214844 Z M 41.058594 12.042969 C 41.199219 11.449219 41.699219 11.074219 42.167969 11.074219 C 42.636719 11.074219 43.136719 11.449219 43.277344 12.042969 Z M 44.882812 15.214844 "/>
<path style=" stroke:none;fill-rule:nonzero;fill:rgb(0%,0%,0%);fill-opacity:1;" d="M 56.441406 135.902344 L 58.941406 135.902344 C 59.269531 135.902344 59.550781 135.714844 59.550781 135.324219 C 59.550781 134.933594 59.269531 134.761719 58.941406 134.761719 L 55.660156 134.761719 C 55.332031 134.761719 55.113281 135.058594 55.113281 135.433594 L 55.113281 140.777344 C 55.113281 141.292969 55.332031 141.636719 55.988281 141.636719 L 58.941406 141.636719 C 59.269531 141.636719 59.550781 141.449219 59.550781 141.074219 C 59.550781 140.683594 59.269531 140.496094 58.941406 140.496094 L 56.441406 140.496094 L 56.441406 137.902344 L 58.832031 137.902344 C 59.175781 137.902344 59.441406 137.714844 59.441406 137.324219 C 59.441406 136.933594 59.175781 136.761719 58.832031 136.761719 L 56.441406 136.761719 Z M 62.734375 141.636719 C 63.859375 141.636719 64.703125 141.121094 64.703125 139.917969 C 64.703125 137.808594 61.546875 138.574219 61.546875 137.886719 C 61.546875 137.652344 61.796875 137.636719 61.984375 137.636719 L 63.734375 137.636719 C 64.046875 137.636719 64.3125 137.464844 64.3125 137.089844 C 64.3125 136.730469 64.046875 136.558594 63.734375 136.558594 L 62.046875 136.558594 C 60.953125 136.558594 60.359375 136.964844 60.359375 137.871094 C 60.359375 139.964844 63.5 138.871094 63.5 139.902344 C 63.5 140.449219 63.125 140.558594 62.640625 140.558594 L 60.84375 140.558594 C 60.515625 140.558594 60.25 140.730469 60.25 141.089844 C 60.25 141.464844 60.515625 141.636719 60.84375 141.636719 Z M 67.734375 141.636719 C 68.859375 141.636719 69.703125 141.121094 69.703125 139.917969 C 69.703125 137.808594 66.546875 138.574219 66.546875 137.886719 C 66.546875 137.652344 66.796875 137.636719 66.984375 137.636719 L 68.734375 137.636719 C 69.046875 137.636719 69.3125 137.464844 69.3125 137.089844 C 69.3125 136.730469 69.046875 136.558594 68.734375 136.558594 L 67.046875 136.558594 C 65.953125 136.558594 65.359375 136.964844 65.359375 137.871094 C 65.359375 139.964844 68.5 138.871094 68.5 139.902344 C 68.5 140.449219 68.125 140.558594 67.640625 140.558594 L 65.84375 140.558594 C 65.515625 140.558594 65.25 140.730469 65.25 141.089844 C 65.25 141.464844 65.515625 141.636719 65.84375 141.636719 Z M 74.5625 141.636719 C 74.890625 141.636719 75.140625 141.464844 75.140625 141.089844 C 75.140625 140.730469 74.890625 140.558594 74.5625 140.558594 L 73.28125 140.558594 C 72.4375 140.558594 71.71875 140.308594 71.640625 139.371094 L 74.703125 139.371094 C 75.125 139.371094 75.1875 139.121094 75.1875 138.777344 C 75.1875 137.605469 74.5 136.496094 72.828125 136.496094 C 71.296875 136.496094 70.328125 137.667969 70.328125 139.167969 C 70.328125 140.652344 71.328125 141.636719 73.109375 141.636719 Z M 71.71875 138.464844 C 71.859375 137.871094 72.359375 137.496094 72.828125 137.496094 C 73.296875 137.496094 73.796875 137.871094 73.9375 138.464844 Z M 76.15625 141.011719 C 76.15625 141.371094 76.34375 141.667969 76.75 141.667969 C 77.171875 141.667969 77.359375 141.371094 77.359375 141.011719 L 77.359375 138.980469 C 77.359375 138.042969 77.796875 137.574219 78.484375 137.574219 C 79.015625 137.574219 79.28125 137.917969 79.28125 138.621094 L 79.28125 141.011719 C 79.28125 141.371094 79.484375 141.667969 79.890625 141.667969 C 80.296875 141.667969 80.484375 141.371094 80.484375 141.011719 L 80.484375 138.292969 C 80.484375 137.277344 79.78125 136.496094 78.703125 136.496094 C 78.15625 136.496094 77.75 136.652344 77.359375 137.042969 C 77.359375 136.792969 77.171875 136.496094 76.75 136.496094 C 76.34375 136.496094 76.15625 136.792969 76.15625 137.152344 Z M 83.589844 136.558594 C 82.261719 136.558594 81.417969 137.558594 81.417969 138.746094 C 81.417969 140.089844 82.464844 141.636719 84.886719 141.636719 C 85.824219 141.636719 86.089844 141.464844 86.089844 141.074219 C 86.089844 140.621094 85.886719 140.496094 85.058594 140.496094 C 83.714844 140.496094 82.746094 139.917969 82.746094 138.714844 C 82.746094 138.199219 83.121094 137.699219 83.824219 137.699219 L 85.339844 137.699219 C 85.667969 137.699219 85.949219 137.511719 85.949219 137.121094 C 85.949219 136.730469 85.667969 136.558594 85.339844 136.558594 Z M 90.683594 141.636719 C 91.011719 141.636719 91.261719 141.464844 91.261719 141.089844 C 91.261719 140.730469 91.011719 140.558594 90.683594 140.558594 L 89.402344 140.558594 C 88.558594 140.558594 87.839844 140.308594 87.761719 139.371094 L 90.824219 139.371094 C 91.246094 139.371094 91.308594 139.121094 91.308594 138.777344 C 91.308594 137.605469 90.621094 136.496094 88.949219 136.496094 C 87.417969 136.496094 86.449219 137.667969 86.449219 139.167969 C 86.449219 140.652344 87.449219 141.636719 89.230469 141.636719 Z M 87.839844 138.464844 C 87.980469 137.871094 88.480469 137.496094 88.949219 137.496094 C 89.417969 137.496094 89.917969 137.871094 90.058594 138.464844 Z M 91.664062 141.636719 "/>
</g>
</svg>
