<?xml version="1.0" encoding="UTF-8"?>
<svg xmlns="http://www.w3.org/2000/svg" xmlns:xlink="http://www.w3.org/1999/xlink" width="100pt" height="150pt" viewBox="0 0 100 150" version="1.1">
<g id="surface4">
<path style=" stroke:none;fill-rule:nonzero;fill:rgb(100%,100%,100%);fill-opacity:1;" d="M 1 17.667969 C 1 8.460938 8.460938 1 17.667969 1 L 82.332031 1 C 91.539062 1 99 8.460938 99 17.667969 L 99 132.332031 C 99 141.539062 91.539062 149 82.332031 149 L 17.667969 149 C 8.460938 149 1 141.539062 1 132.332031 L 1 17.667969 "/>
<path style=" stroke:none;fill-rule:nonzero;fill:rgb(0%,0%,0%);fill-opacity:1;" d="M 33.5 75 L 33.5 47.5 L 66.5 47.5 L 66.5 102.5 L 33.5 102.5 Z M 65.5 75 L 65.5 48.5 L 34.5 48.5 L 34.5 101.5 L 65.5 101.5 Z M 65.5 75 "/>
<path style=" stroke:none;fill-rule:nonzero;fill:rgb(0%,100%,0%);fill-opacity:1;" d="M 40.011719 56.933594 L 43.347656 56.933594 C 43.800781 56.933594 44.160156 56.691406 44.160156 56.171875 C 44.160156 55.652344 43.800781 55.414062 43.347656 55.414062 L 38.988281 55.414062 C 38.535156 55.414062 38.253906 55.8125 38.253906 56.320312 L 38.253906 63.441406 C 38.253906 64.132812 38.535156 64.585938 39.414062 64.585938 L 43.347656 64.585938 C 43.800781 64.585938 44.160156 64.347656 44.160156 63.828125 C 44.160156 63.308594 43.800781 63.066406 43.347656 63.066406 L 40.011719 63.066406 L 40.011719 59.601562 L 43.214844 59.601562 C 43.667969 59.601562 44.027344 59.359375 44.027344 58.839844 C 44.027344 58.320312 43.667969 58.078125 43.214844 58.078125 L 40.011719 58.078125 Z M 40.011719 56.933594 "/>
<path style=" stroke:none;fill-rule:nonzero;fill:rgb(0%,100%,0%);fill-opacity:1;" d="M 52.039062 56.292969 C 52.039062 55.773438 51.773438 55.375 51.199219 55.375 C 50.625 55.375 50.359375 55.773438 50.359375 56.292969 L 50.359375 57.960938 C 48.121094 57.332031 47.972656 55.375 46.667969 55.375 C 45.933594 55.375 45.613281 55.773438 45.585938 56.292969 L 45.585938 63.707031 C 45.585938 64.226562 45.851562 64.625 46.425781 64.625 C 47 64.625 47.265625 64.226562 47.265625 63.707031 L 47.265625 57.574219 C 48.148438 58.601562 49.265625 59.359375 50.359375 59.480469 L 50.359375 63.707031 C 50.359375 64.226562 50.625 64.625 51.199219 64.625 C 51.773438 64.625 52.039062 64.226562 52.039062 63.707031 Z M 52.039062 56.292969 "/>
<path style=" stroke:none;fill-rule:nonzero;fill:rgb(0%,100%,0%);fill-opacity:1;" d="M 53.773438 63.601562 C 53.773438 64.375 54.09375 64.585938 54.960938 64.585938 L 57.746094 64.585938 C 60.011719 64.585938 61.304688 62.773438 61.304688 60.761719 C 61.304688 58.71875 59.90625 55.414062 54.933594 55.414062 C 54.09375 55.414062 53.773438 55.785156 53.773438 56.453125 Z M 55.453125 57.011719 C 57.640625 57.011719 59.414062 58.71875 59.414062 60.878906 C 59.414062 62.320312 58.734375 62.988281 56.746094 62.988281 L 55.453125 62.988281 Z M 55.453125 57.011719 "/>
<path style=" stroke:none;fill-rule:nonzero;fill:rgb(0%,100%,0%);fill-opacity:1;" d="M 50.558594 75 C 50.558594 72.011719 48.507812 70.332031 46.226562 70.332031 C 43.945312 70.332031 41.894531 72.011719 41.894531 75 C 41.894531 77.988281 43.945312 79.667969 46.226562 79.667969 C 48.507812 79.667969 50.558594 77.988281 50.558594 75 Z M 48.667969 75 C 48.667969 76.761719 47.679688 78.148438 46.226562 78.148438 C 44.773438 78.148438 43.785156 76.761719 43.785156 75 C 43.785156 73.238281 44.773438 71.851562 46.226562 71.851562 C 47.679688 71.851562 48.667969 73.238281 48.667969 75 Z M 48.667969 75 "/>
<path style=" stroke:none;fill-rule:nonzero;fill:rgb(0%,100%,0%);fill-opacity:1;" d="M 53.71875 74.601562 L 56.625 74.601562 C 57.078125 74.601562 57.441406 74.359375 57.441406 73.839844 C 57.441406 73.320312 57.078125 73.078125 56.625 73.078125 L 53.71875 73.078125 L 53.71875 71.933594 L 56.761719 71.933594 C 57.214844 71.933594 57.574219 71.691406 57.574219 71.171875 C 57.574219 70.652344 57.214844 70.414062 56.761719 70.414062 L 52.691406 70.414062 C 52.238281 70.414062 51.960938 70.8125 51.960938 71.320312 L 51.960938 78.585938 C 51.960938 79.226562 52.1875 79.625 52.839844 79.625 C 53.492188 79.625 53.71875 79.226562 53.71875 78.585938 Z M 53.71875 74.601562 "/>
<path style=" stroke:none;fill-rule:nonzero;fill:rgb(0%,100%,0%);fill-opacity:1;" d="M 35.707031 93.441406 C 35.707031 94.132812 35.988281 94.585938 36.867188 94.585938 L 39.960938 94.585938 C 40.441406 94.585938 40.828125 94.332031 40.828125 93.785156 C 40.828125 93.238281 40.441406 92.988281 39.960938 92.988281 L 37.386719 92.988281 L 37.386719 86.28125 C 37.386719 85.773438 37.105469 85.375 36.546875 85.375 C 35.988281 85.375 35.707031 85.773438 35.707031 86.28125 Z M 35.707031 93.441406 "/>
<path style=" stroke:none;fill-rule:nonzero;fill:rgb(0%,100%,0%);fill-opacity:1;" d="M 43.359375 86.28125 C 43.359375 85.773438 43.09375 85.375 42.519531 85.375 C 41.945312 85.375 41.679688 85.773438 41.679688 86.28125 L 41.679688 93.71875 C 41.679688 94.226562 41.945312 94.625 42.519531 94.625 C 43.09375 94.625 43.359375 94.226562 43.359375 93.71875 Z M 43.359375 86.28125 "/>
<path style=" stroke:none;fill-rule:nonzero;fill:rgb(0%,100%,0%);fill-opacity:1;" d="M 49.1875 88.734375 C 48.640625 88.066406 48.320312 87.214844 47.867188 86.105469 C 47.652344 85.585938 47.332031 85.375 46.800781 85.375 C 45.773438 85.375 45.734375 86.160156 45.519531 87.441406 C 45.265625 88.945312 45.039062 91.558594 45.039062 93.078125 C 45.039062 94.011719 45.105469 94.625 45.867188 94.625 C 46.613281 94.625 46.71875 94.121094 46.71875 93.492188 L 46.71875 91.386719 C 46.71875 90.226562 46.851562 89.027344 47.039062 87.800781 L 47.066406 87.800781 C 47.28125 88.480469 48.253906 90.707031 49.1875 90.707031 C 50.121094 90.707031 51.09375 88.480469 51.308594 87.800781 L 51.332031 87.800781 C 51.519531 89.027344 51.652344 90.226562 51.652344 91.386719 L 51.652344 93.492188 C 51.652344 94.121094 51.761719 94.625 52.507812 94.625 C 53.265625 94.625 53.332031 94.011719 53.332031 93.078125 C 53.332031 91.558594 53.105469 88.945312 52.851562 87.441406 C 52.640625 86.160156 52.601562 85.375 51.574219 85.375 C 51.039062 85.375 50.71875 85.585938 50.507812 86.105469 C 50.054688 87.214844 49.734375 88.066406 49.1875 88.734375 Z M 49.1875 88.734375 "/>
<path style=" stroke:none;fill-rule:nonzero;fill:rgb(0%,100%,0%);fill-opacity:1;" d="M 56.691406 86.28125 C 56.691406 85.773438 56.425781 85.375 55.851562 85.375 C 55.28125 85.375 55.011719 85.773438 55.011719 86.28125 L 55.011719 93.71875 C 55.011719 94.226562 55.28125 94.625 55.851562 94.625 C 56.425781 94.625 56.691406 94.226562 56.691406 93.71875 Z M 56.691406 86.28125 "/>
<path style=" stroke:none;fill-rule:nonzero;fill:rgb(0%,100%,0%);fill-opacity:1;" d="M 61.878906 87.011719 L 63.425781 87.011719 C 63.90625 87.011719 64.292969 86.761719 64.292969 86.214844 C 64.292969 85.667969 63.90625 85.414062 63.425781 85.414062 L 58.652344 85.414062 C 58.171875 85.414062 57.785156 85.667969 57.785156 86.214844 C 57.785156 86.761719 58.171875 87.011719 58.652344 87.011719 L 60.199219 87.011719 L 60.199219 93.71875 C 60.199219 94.226562 60.464844 94.625 61.039062 94.625 C 61.613281 94.625 61.878906 94.226562 61.878906 93.71875 Z M 61.878906 87.011719 "/>
<path style="fill:none;stroke-width:2;stroke-linecap:butt;stroke-linejoin:miter;stroke:rgb(0%,0%,0%);stroke-opacity:1;stroke-miterlimit:10;" d="M 1 17.667969 C 1 8.460938 8.460938 1 17.667969 1 L 82.332031 1 C 91.539062 1 99 8.460938 99 17.667969 L 99 132.332031 C 99 141.539062 91.539062 149 82.332031 149 L 17.667969 149 C 8.460938 149 1 141.539062 1 132.332031 L 1 17.667969 "/>
<path style=" stroke:none;fill-rule:nonzero;fill:rgb(0%,0%,0%);fill-opacity:1;" d="M 9.660156 11.738281 L 11.832031 11.738281 C 12.175781 11.738281 12.441406 11.550781 12.441406 11.160156 C 12.441406 10.769531 12.175781 10.597656 11.832031 10.597656 L 9.660156 10.597656 L 9.660156 9.738281 L 11.941406 9.738281 C 12.269531 9.738281 12.550781 9.550781 12.550781 9.160156 C 12.550781 8.769531 12.269531 8.597656 11.941406 8.597656 L 8.878906 8.597656 C 8.550781 8.597656 8.332031 8.894531 8.332031 9.269531 L 8.332031 14.722656 C 8.332031 15.207031 8.503906 15.503906 8.988281 15.503906 C 9.488281 15.503906 9.660156 15.207031 9.660156 14.722656 Z M 14.628906 10.988281 C 14.628906 10.628906 14.441406 10.332031 14.035156 10.332031 C 13.628906 10.332031 13.441406 10.628906 13.441406 10.988281 L 13.441406 14.847656 C 13.441406 15.207031 13.628906 15.503906 14.035156 15.503906 C 14.441406 15.503906 14.628906 15.207031 14.628906 14.847656 Z M 14.035156 8.332031 C 13.660156 8.332031 13.378906 8.597656 13.378906 9.066406 C 13.378906 9.550781 13.660156 9.816406 14.035156 9.816406 C 14.410156 9.816406 14.691406 9.550781 14.691406 9.066406 C 14.691406 8.597656 14.410156 8.332031 14.035156 8.332031 Z M 16.035156 14.847656 C 16.035156 15.207031 16.222656 15.503906 16.628906 15.503906 C 17.050781 15.503906 17.238281 15.207031 17.238281 14.847656 L 17.238281 12.816406 C 17.238281 11.878906 17.675781 11.410156 18.363281 11.410156 C 18.894531 11.410156 19.160156 11.753906 19.160156 12.457031 L 19.160156 14.847656 C 19.160156 15.207031 19.363281 15.503906 19.769531 15.503906 C 20.175781 15.503906 20.363281 15.207031 20.363281 14.847656 L 20.363281 12.128906 C 20.363281 11.113281 19.660156 10.332031 18.582031 10.332031 C 18.035156 10.332031 17.628906 10.488281 17.238281 10.878906 C 17.238281 10.628906 17.050781 10.332031 16.628906 10.332031 C 16.222656 10.332031 16.035156 10.628906 16.035156 10.988281 Z M 28.972656 9.019531 C 28.972656 8.660156 28.769531 8.363281 28.363281 8.363281 C 27.957031 8.363281 27.769531 8.660156 27.769531 9.019531 L 27.769531 10.332031 C 25.472656 10.332031 24.332031 11.753906 24.332031 13.253906 C 24.332031 14.457031 25.160156 15.472656 26.816406 15.472656 L 28.363281 15.472656 C 28.832031 15.472656 28.972656 15.253906 28.972656 14.941406 Z M 27.769531 14.394531 L 26.675781 14.394531 C 25.988281 14.394531 25.597656 13.878906 25.597656 13.238281 C 25.597656 12.128906 26.691406 11.410156 27.769531 11.410156 Z M 34.171875 15.472656 C 34.5 15.472656 34.75 15.300781 34.75 14.925781 C 34.75 14.566406 34.5 14.394531 34.171875 14.394531 L 32.890625 14.394531 C 32.046875 14.394531 31.328125 14.144531 31.25 13.207031 L 34.3125 13.207031 C 34.734375 13.207031 34.796875 12.957031 34.796875 12.613281 C 34.796875 11.441406 34.109375 10.332031 32.4375 10.332031 C 30.90625 10.332031 29.9375 11.503906 29.9375 13.003906 C 29.9375 14.488281 30.9375 15.472656 32.71875 15.472656 Z M 31.328125 12.300781 C 31.46875 11.707031 31.96875 11.332031 32.4375 11.332031 C 32.90625 11.332031 33.40625 11.707031 33.546875 12.300781 Z M 40.1875 9.019531 C 40.1875 8.660156 40 8.363281 39.59375 8.363281 C 39.1875 8.363281 39 8.660156 39 9.019531 L 39 14.847656 C 39 15.207031 39.1875 15.503906 39.59375 15.503906 C 40 15.503906 40.1875 15.207031 40.1875 14.847656 Z M 42.96875 10.988281 C 42.96875 10.628906 42.78125 10.332031 42.375 10.332031 C 41.96875 10.332031 41.78125 10.628906 41.78125 10.988281 L 41.78125 14.847656 C 41.78125 15.207031 41.96875 15.503906 42.375 15.503906 C 42.78125 15.503906 42.96875 15.207031 42.96875 14.847656 Z M 42.375 8.332031 C 42 8.332031 41.71875 8.597656 41.71875 9.066406 C 41.71875 9.550781 42 9.816406 42.375 9.816406 C 42.75 9.816406 43.03125 9.550781 43.03125 9.066406 C 43.03125 8.597656 42.75 8.332031 42.375 8.332031 Z M 44.359375 14.847656 C 44.359375 15.207031 44.546875 15.503906 44.953125 15.503906 C 45.359375 15.503906 45.5625 15.207031 45.5625 14.847656 L 45.5625 12.816406 C 45.5625 11.878906 45.984375 11.410156 46.515625 11.410156 C 47.1875 11.410156 47.328125 11.941406 47.328125 12.628906 L 47.328125 14.847656 C 47.328125 15.207031 47.515625 15.503906 47.921875 15.503906 C 48.328125 15.503906 48.53125 15.207031 48.53125 14.847656 L 48.53125 12.816406 C 48.53125 11.878906 48.953125 11.410156 49.484375 11.410156 C 50.15625 11.410156 50.296875 11.941406 50.296875 12.628906 L 50.296875 14.847656 C 50.296875 15.207031 50.484375 15.503906 50.890625 15.503906 C 51.3125 15.503906 51.5 15.207031 51.5 14.847656 L 51.5 12.128906 C 51.5 11.113281 50.796875 10.332031 49.71875 10.332031 C 49.0625 10.332031 48.53125 10.675781 48.109375 11.082031 C 47.640625 10.519531 47.28125 10.332031 46.703125 10.332031 C 46.21875 10.332031 45.78125 10.535156 45.4375 10.878906 C 45.4375 10.597656 45.265625 10.332031 44.890625 10.332031 C 44.53125 10.332031 44.359375 10.597656 44.359375 10.910156 Z M 54.078125 10.988281 C 54.078125 10.628906 53.890625 10.332031 53.484375 10.332031 C 53.078125 10.332031 52.890625 10.628906 52.890625 10.988281 L 52.890625 14.847656 C 52.890625 15.207031 53.078125 15.503906 53.484375 15.503906 C 53.890625 15.503906 54.078125 15.207031 54.078125 14.847656 Z M 53.484375 8.332031 C 53.109375 8.332031 52.828125 8.597656 52.828125 9.066406 C 52.828125 9.550781 53.109375 9.816406 53.484375 9.816406 C 53.859375 9.816406 54.140625 9.550781 54.140625 9.066406 C 54.140625 8.597656 53.859375 8.332031 53.484375 8.332031 Z M 57.953125 11.472656 C 58.28125 11.472656 58.53125 11.300781 58.53125 10.925781 C 58.53125 10.566406 58.28125 10.394531 57.953125 10.394531 L 57.078125 10.394531 L 57.078125 9.535156 C 57.078125 9.175781 56.890625 8.894531 56.46875 8.894531 C 56.0625 8.894531 55.875 9.175781 55.875 9.535156 L 55.875 10.394531 L 55.53125 10.394531 C 55.203125 10.394531 54.9375 10.566406 54.9375 10.925781 C 54.9375 11.300781 55.203125 11.472656 55.53125 11.472656 L 55.875 11.472656 L 55.875 13.628906 C 55.875 15.472656 56.578125 15.472656 58.09375 15.472656 C 58.640625 15.472656 58.90625 15.285156 58.90625 14.910156 C 58.90625 14.519531 58.640625 14.332031 58.296875 14.332031 L 57.65625 14.332031 C 57.1875 14.332031 57.078125 14.050781 57.078125 13.457031 L 57.078125 11.472656 Z M 63.34375 15.472656 C 63.671875 15.472656 63.921875 15.300781 63.921875 14.925781 C 63.921875 14.566406 63.671875 14.394531 63.34375 14.394531 L 62.0625 14.394531 C 61.21875 14.394531 60.5 14.144531 60.421875 13.207031 L 63.484375 13.207031 C 63.90625 13.207031 63.96875 12.957031 63.96875 12.613281 C 63.96875 11.441406 63.28125 10.332031 61.609375 10.332031 C 60.078125 10.332031 59.109375 11.503906 59.109375 13.003906 C 59.109375 14.488281 60.109375 15.472656 61.890625 15.472656 Z M 60.5 12.300781 C 60.640625 11.707031 61.140625 11.332031 61.609375 11.332031 C 62.078125 11.332031 62.578125 11.707031 62.71875 12.300781 Z M 64.324219 15.472656 "/>
<path style=" stroke:none;fill-rule:nonzero;fill:rgb(0%,0%,0%);fill-opacity:1;" d="M 37.003906 137.902344 L 39.175781 137.902344 C 39.519531 137.902344 39.785156 137.714844 39.785156 137.324219 C 39.785156 136.933594 39.519531 136.761719 39.175781 136.761719 L 37.003906 136.761719 L 37.003906 135.902344 L 39.285156 135.902344 C 39.613281 135.902344 39.894531 135.714844 39.894531 135.324219 C 39.894531 134.933594 39.613281 134.761719 39.285156 134.761719 L 36.222656 134.761719 C 35.894531 134.761719 35.675781 135.058594 35.675781 135.433594 L 35.675781 140.886719 C 35.675781 141.371094 35.847656 141.667969 36.332031 141.667969 C 36.832031 141.667969 37.003906 141.371094 37.003906 140.886719 Z M 41.972656 137.152344 C 41.972656 136.792969 41.785156 136.496094 41.378906 136.496094 C 40.972656 136.496094 40.785156 136.792969 40.785156 137.152344 L 40.785156 141.011719 C 40.785156 141.371094 40.972656 141.667969 41.378906 141.667969 C 41.785156 141.667969 41.972656 141.371094 41.972656 141.011719 Z M 41.378906 134.496094 C 41.003906 134.496094 40.722656 134.761719 40.722656 135.230469 C 40.722656 135.714844 41.003906 135.980469 41.378906 135.980469 C 41.753906 135.980469 42.035156 135.714844 42.035156 135.230469 C 42.035156 134.761719 41.753906 134.496094 41.378906 134.496094 Z M 43.378906 141.011719 C 43.378906 141.371094 43.566406 141.667969 43.972656 141.667969 C 44.394531 141.667969 44.582031 141.371094 44.582031 141.011719 L 44.582031 138.980469 C 44.582031 138.042969 45.019531 137.574219 45.707031 137.574219 C 46.238281 137.574219 46.503906 137.917969 46.503906 138.621094 L 46.503906 141.011719 C 46.503906 141.371094 46.707031 141.667969 47.113281 141.667969 C 47.519531 141.667969 47.707031 141.371094 47.707031 141.011719 L 47.707031 138.292969 C 47.707031 137.277344 47.003906 136.496094 45.925781 136.496094 C 45.378906 136.496094 44.972656 136.652344 44.582031 137.042969 C 44.582031 136.792969 44.394531 136.496094 43.972656 136.496094 C 43.566406 136.496094 43.378906 136.792969 43.378906 137.152344 Z M 56.316406 135.183594 C 56.316406 134.824219 56.113281 134.527344 55.707031 134.527344 C 55.300781 134.527344 55.113281 134.824219 55.113281 135.183594 L 55.113281 136.496094 C 52.816406 136.496094 51.675781 137.917969 51.675781 139.417969 C 51.675781 140.621094 52.503906 141.636719 54.160156 141.636719 L 55.707031 141.636719 C 56.175781 141.636719 56.316406 141.417969 56.316406 141.105469 Z M 55.113281 140.558594 L 54.019531 140.558594 C 53.332031 140.558594 52.941406 140.042969 52.941406 139.402344 C 52.941406 138.292969 54.035156 137.574219 55.113281 137.574219 Z M 61.515625 141.636719 C 61.84375 141.636719 62.09375 141.464844 62.09375 141.089844 C 62.09375 140.730469 61.84375 140.558594 61.515625 140.558594 L 60.234375 140.558594 C 59.390625 140.558594 58.671875 140.308594 58.59375 139.371094 L 61.65625 139.371094 C 62.078125 139.371094 62.140625 139.121094 62.140625 138.777344 C 62.140625 137.605469 61.453125 136.496094 59.78125 136.496094 C 58.25 136.496094 57.28125 137.667969 57.28125 139.167969 C 57.28125 140.652344 58.28125 141.636719 60.0625 141.636719 Z M 58.671875 138.464844 C 58.8125 137.871094 59.3125 137.496094 59.78125 137.496094 C 60.25 137.496094 60.75 137.871094 60.890625 138.464844 Z M 67.53125 135.183594 C 67.53125 134.824219 67.34375 134.527344 66.9375 134.527344 C 66.53125 134.527344 66.34375 134.824219 66.34375 135.183594 L 66.34375 141.011719 C 66.34375 141.371094 66.53125 141.667969 66.9375 141.667969 C 67.34375 141.667969 67.53125 141.371094 67.53125 141.011719 Z M 70.3125 137.152344 C 70.3125 136.792969 70.125 136.496094 69.71875 136.496094 C 69.3125 136.496094 69.125 136.792969 69.125 137.152344 L 69.125 141.011719 C 69.125 141.371094 69.3125 141.667969 69.71875 141.667969 C 70.125 141.667969 70.3125 141.371094 70.3125 141.011719 Z M 69.71875 134.496094 C 69.34375 134.496094 69.0625 134.761719 69.0625 135.230469 C 69.0625 135.714844 69.34375 135.980469 69.71875 135.980469 C 70.09375 135.980469 70.375 135.714844 70.375 135.230469 C 70.375 134.761719 70.09375 134.496094 69.71875 134.496094 Z M 71.703125 141.011719 C 71.703125 141.371094 71.890625 141.667969 72.296875 141.667969 C 72.703125 141.667969 72.90625 141.371094 72.90625 141.011719 L 72.90625 138.980469 C 72.90625 138.042969 73.328125 137.574219 73.859375 137.574219 C 74.53125 137.574219 74.671875 138.105469 74.671875 138.792969 L 74.671875 141.011719 C 74.671875 141.371094 74.859375 141.667969 75.265625 141.667969 C 75.671875 141.667969 75.875 141.371094 75.875 141.011719 L 75.875 138.980469 C 75.875 138.042969 76.296875 137.574219 76.828125 137.574219 C 77.5 137.574219 77.640625 138.105469 77.640625 138.792969 L 77.640625 141.011719 C 77.640625 141.371094 77.828125 141.667969 78.234375 141.667969 C 78.65625 141.667969 78.84375 141.371094 78.84375 141.011719 L 78.84375 138.292969 C 78.84375 137.277344 78.140625 136.496094 77.0625 136.496094 C 76.40625 136.496094 75.875 136.839844 75.453125 137.246094 C 74.984375 136.683594 74.625 136.496094 74.046875 136.496094 C 73.5625 136.496094 73.125 136.699219 72.78125 137.042969 C 72.78125 136.761719 72.609375 136.496094 72.234375 136.496094 C 71.875 136.496094 71.703125 136.761719 71.703125 137.074219 Z M 81.421875 137.152344 C 81.421875 136.792969 81.234375 136.496094 80.828125 136.496094 C 80.421875 136.496094 80.234375 136.792969 80.234375 137.152344 L 80.234375 141.011719 C 80.234375 141.371094 80.421875 141.667969 80.828125 141.667969 C 81.234375 141.667969 81.421875 141.371094 81.421875 141.011719 Z M 80.828125 134.496094 C 80.453125 134.496094 80.171875 134.761719 80.171875 135.230469 C 80.171875 135.714844 80.453125 135.980469 80.828125 135.980469 C 81.203125 135.980469 81.484375 135.714844 81.484375 135.230469 C 81.484375 134.761719 81.203125 134.496094 80.828125 134.496094 Z M 85.296875 137.636719 C 85.625 137.636719 85.875 137.464844 85.875 137.089844 C 85.875 136.730469 85.625 136.558594 85.296875 136.558594 L 84.421875 136.558594 L 84.421875 135.699219 C 84.421875 135.339844 84.234375 135.058594 83.8125 135.058594 C 83.40625 135.058594 83.21875 135.339844 83.21875 135.699219 L 83.21875 136.558594 L 82.875 136.558594 C 82.546875 136.558594 82.28125 136.730469 82.28125 137.089844 C 82.28125 137.464844 82.546875 137.636719 82.875 137.636719 L 83.21875 137.636719 L 83.21875 139.792969 C 83.21875 141.636719 83.921875 141.636719 85.4375 141.636719 C 85.984375 141.636719 86.25 141.449219 86.25 141.074219 C 86.25 140.683594 85.984375 140.496094 85.640625 140.496094 L 85 140.496094 C 84.53125 140.496094 84.421875 140.214844 84.421875 139.621094 L 84.421875 137.636719 Z M 90.6875 141.636719 C 91.015625 141.636719 91.265625 141.464844 91.265625 141.089844 C 91.265625 140.730469 91.015625 140.558594 90.6875 140.558594 L 89.40625 140.558594 C 88.5625 140.558594 87.84375 140.308594 87.765625 139.371094 L 90.828125 139.371094 C 91.25 139.371094 91.3125 139.121094 91.3125 138.777344 C 91.3125 137.605469 90.625 136.496094 88.953125 136.496094 C 87.421875 136.496094 86.453125 137.667969 86.453125 139.167969 C 86.453125 140.652344 87.453125 141.636719 89.234375 141.636719 Z M 87.84375 138.464844 C 87.984375 137.871094 88.484375 137.496094 88.953125 137.496094 C 89.421875 137.496094 89.921875 137.871094 90.0625 138.464844 Z M 91.667969 141.636719 "/>
</g>
</svg>
