<?xml version="1.0" encoding="UTF-8" standalone="no"?>
<svg
   width="89pt"
   height="89pt"
   viewBox="0 0 89 89"
   version="1.1"
   id="svg17"
   sodipodi:docname="Icon.svg"
   inkscape:version="1.1.1 (3bf5ae0d25, 2021-09-20)"
   xmlns:inkscape="http://www.inkscape.org/namespaces/inkscape"
   xmlns:sodipodi="http://sodipodi.sourceforge.net/DTD/sodipodi-0.dtd"
   xmlns="http://www.w3.org/2000/svg"
   xmlns:svg="http://www.w3.org/2000/svg">
  <defs
     id="defs21" />
  <sodipodi:namedview
     id="namedview19"
     pagecolor="#ffffff"
     bordercolor="#666666"
     borderopacity="1.0"
     inkscape:pageshadow="2"
     inkscape:pageopacity="0.0"
     inkscape:pagecheckerboard="true"
     inkscape:document-units="pt"
     showgrid="false"
     fit-margin-top="0"
     fit-margin-left="20.5"
     fit-margin-right="20.5"
     fit-margin-bottom="0"
     inkscape:zoom="4.365"
     inkscape:cx="59.335624"
     inkscape:cy="59.908362"
     inkscape:window-width="3840"
     inkscape:window-height="2131"
     inkscape:window-x="0"
     inkscape:window-y="0"
     inkscape:window-maximized="1"
     inkscape:current-layer="svg17" />
  <path
     style="fill:#00fd00;fill-opacity:1;fill-rule:nonzero;stroke:none"
     d="M 40.304688,77.85547 C 36.667969,76.52734 34.90625,71.32422 36.480469,66.558594 37.9375,62.148438 42.691406,60.25 47.941406,61.980469 c 6.832032,2.253906 7.085938,13.593751 0.359375,15.941411 -3.621093,1.26171 -4.390625,1.2539 -7.996093,-0.0664 z m 0,0"
     id="path6" />
  <path
     style="fill:#000000;fill-opacity:1;fill-rule:nonzero;stroke:none"
     d="M 20.5,44.5 V 0 h 48 v 89 h -48 z M 48.921875,78.59766 C 56.058594,75.61328 55.90625,64.320312 48.6875,61.304688 40.253906,57.78125 32.835938,64.5 35.464844,73.27734 c 0.855468,2.85157 2,4.23829 4.347656,5.25782 4.058594,1.76562 5.015625,1.77343 9.109375,0.0625 z m 0,-25.000004 C 56.058594,50.613281 55.90625,39.320312 48.6875,36.304688 40.253906,32.78125 32.835938,39.5 35.464844,48.277344 c 0.855468,2.851562 2,4.238281 4.347656,5.257812 4.058594,1.765625 5.015625,1.773438 9.109375,0.0625 z M 40.304688,52.855469 C 36.667969,51.527344 34.90625,46.324219 36.480469,41.558594 37.9375,37.148438 42.691406,35.25 47.941406,36.980469 c 6.832032,2.253906 7.085938,13.59375 0.359375,15.941406 -3.621093,1.261719 -4.390625,1.253906 -7.996093,-0.06641 z M 48.921875,28.597656 C 56.058594,25.613281 55.90625,14.320312 48.6875,11.304688 40.253906,7.78125 32.835938,14.5 35.464844,23.277344 c 0.855468,2.851562 2,4.238281 4.347656,5.257812 4.058594,1.765625 5.015625,1.773438 9.109375,0.0625 z M 40.304688,27.855469 C 36.667969,26.527344 34.90625,21.324219 36.480469,16.558594 37.9375,12.148438 42.691406,10.25 47.941406,11.980469 c 6.832032,2.253906 7.085938,13.59375 0.359375,15.941406 -3.621093,1.261719 -4.390625,1.253906 -7.996093,-0.06641 z m 0,0"
     id="path8" />
</svg>
