<?xml version="1.0" encoding="UTF-8" standalone="no"?>
<svg
   width="64pt"
   height="64pt"
   viewBox="0 0 64 64"
   version="1.1"
   id="svg19"
   sodipodi:docname="Icon.svg"
   inkscape:version="1.1.1 (3bf5ae0d25, 2021-09-20)"
   xmlns:inkscape="http://www.inkscape.org/namespaces/inkscape"
   xmlns:sodipodi="http://sodipodi.sourceforge.net/DTD/sodipodi-0.dtd"
   xmlns="http://www.w3.org/2000/svg"
   xmlns:svg="http://www.w3.org/2000/svg">
  <defs
     id="defs23" />
  <sodipodi:namedview
     id="namedview21"
     pagecolor="#ffffff"
     bordercolor="#666666"
     borderopacity="1.0"
     inkscape:pageshadow="2"
     inkscape:pageopacity="0.0"
     inkscape:pagecheckerboard="0"
     inkscape:document-units="pt"
     showgrid="false"
     fit-margin-top="0"
     fit-margin-left="0"
     fit-margin-right="0"
     fit-margin-bottom="0"
     inkscape:zoom="8.73"
     inkscape:cx="33.619702"
     inkscape:cy="53.780069"
     inkscape:window-width="2307"
     inkscape:window-height="1449"
     inkscape:window-x="1384"
     inkscape:window-y="289"
     inkscape:window-maximized="0"
     inkscape:current-layer="svg19" />
  <g
     id="g230"
     transform="matrix(1.0459118,0,0,1.0459118,6.8981168,0.0598555)">
    <path
       style="fill:#000000;fill-opacity:1;fill-rule:nonzero;stroke:none"
       d="M 0,35.544922 C 0,6.486328 0.464844,4.033203 6.433594,1.541016 c 4.914062,-2.054688 30.21875,-2.054688 35.132812,0 C 47.535156,4.033203 48,6.486328 48,35.544922 v 25.53125 H 0 Z m 47,2.03125 v -22.5 H 1 v 45 h 46 z m 0,0"
       id="path6" />
    <rect
       style="fill:#ffffff;stroke-width:0.581963;stroke-linecap:round;stroke-linejoin:round"
       id="rect31"
       width="46"
       height="45"
       x="1"
       y="15.076172" />
    <g
       id="g601"
       transform="matrix(1.7734163,0,0,1.7734163,-21.15894,-26.742037)">
      <path
         style="fill:#0000ff;fill-opacity:1;fill-rule:nonzero;stroke:none"
         d="m 16.175781,29.728516 c -0.671875,0 -1.214843,0.355468 -1.214843,1.101562 0,0.765625 0.542968,1.140625 1.214843,1.140625 h 3.433594 c 1.046875,0 1.566406,0.261719 1.566406,1.121094 0,1.175781 -1.230469,1.808594 -2.40625,2.480469 -2.464843,1.457031 -4.292969,2.242187 -4.292969,5.003906 0,1.679688 0.503907,1.996094 1.867188,1.996094 h 6.941406 c 0.636719,0 1.140625,-0.335938 1.140625,-1.0625 0,-0.710938 -0.503906,-1.066406 -1.140625,-1.066406 H 17.125 v -0.464844 c 0,-2.332032 6.851562,-2.632813 6.851562,-6.886719 -0.01953,-2.035156 -1.566406,-3.363281 -3.992187,-3.363281 z m 0,0"
         id="path8" />
      <path
         style="fill:#0000ff;fill-opacity:1;fill-rule:nonzero;stroke:none"
         d="m 29.09375,31.857422 h 4.554688 c 0.632812,0 1.136718,-0.335938 1.136718,-1.0625 0,-0.730469 -0.503906,-1.066406 -1.136718,-1.066406 h -5.621094 c -0.746094,0 -1.210938,0.335937 -1.269532,0.859375 l -0.277343,2.652343 c -0.05859,0.503907 -0.113281,0.894532 -0.113281,1.285157 0,0.691406 0.429687,1.140625 1.210937,1.140625 0.414063,0 0.785156,-0.07422 1.382813,-0.07422 2.761718,0 4.667968,0.632813 4.667968,2.875 0,1.042969 -0.820312,1.976563 -2.949218,1.976563 h -3.660157 c -0.632812,0 -1.15625,0.335937 -1.15625,1.066406 0,0.726562 0.523438,1.0625 1.15625,1.0625 h 3.511719 c 3.917969,0 5.636719,-1.941406 5.636719,-4.3125 0,-2.855469 -2.539063,-4.796875 -6.535157,-4.796875 H 28.90625 Z m 0,0"
         id="path10" />
    </g>
  </g>
</svg>
