<?xml version="1.0" encoding="UTF-8"?>
<svg xmlns="http://www.w3.org/2000/svg" xmlns:xlink="http://www.w3.org/1999/xlink" width="100pt" height="150pt" viewBox="0 0 100 150" version="1.1">
<g id="surface40">
<path style=" stroke:none;fill-rule:nonzero;fill:rgb(100%,100%,100%);fill-opacity:1;" d="M 1 17.667969 C 1 8.460938 8.460938 1 17.667969 1 L 82.332031 1 C 91.539062 1 99 8.460938 99 17.667969 L 99 132.332031 C 99 141.539062 91.539062 149 82.332031 149 L 17.667969 149 C 8.460938 149 1 141.539062 1 132.332031 L 1 17.667969 "/>
<path style=" stroke:none;fill-rule:nonzero;fill:rgb(99.607843%,99.607843%,99.607843%);fill-opacity:1;" d="M 5 75 L 5 20 L 95 20 L 95 68 C 95 116 95 116 93 114 C 91.898438 112.898438 90.324219 112 89.5 112 C 87.5625 112 84 115.5625 84 117.5 C 84 119.4375 87.5625 123 89.5 123 C 90.324219 123 91.898438 122.101562 93 121 C 95 119 95 119 95 124.5 L 95 130 L 5 130 Z M 84.75 103.3125 C 83.59375 103.007812 82.945312 101.773438 82.839844 99.675781 L 82.679688 96.5 L 82.277344 99.75 C 82.03125 101.722656 81.308594 103 80.4375 103 C 79.515625 103 78.941406 101.835938 78.839844 99.75 L 78.679688 96.5 L 78.277344 99.75 C 78.03125 101.722656 77.308594 103 76.4375 103 C 75.515625 103 74.941406 101.835938 74.839844 99.75 L 74.679688 96.5 L 74.277344 99.75 C 74.03125 101.722656 73.308594 103 72.4375 103 C 71.515625 103 70.941406 101.835938 70.839844 99.75 L 70.679688 96.5 L 70.277344 99.75 C 70.03125 101.722656 69.308594 103 68.4375 103 C 67.515625 103 66.941406 101.835938 66.839844 99.75 L 66.679688 96.5 L 66.277344 99.75 C 66.03125 101.722656 65.308594 103 64.4375 103 C 63.515625 103 62.941406 101.835938 62.839844 99.75 L 62.679688 96.5 L 62.277344 99.75 C 62.03125 101.722656 61.308594 103 60.4375 103 C 59.515625 103 58.941406 101.835938 58.839844 99.75 L 58.679688 96.5 L 58.277344 99.75 C 57.734375 104.132812 55.054688 104.132812 54.839844 99.75 L 54.679688 96.5 L 54.277344 99.75 C 54.03125 101.722656 53.308594 103 52.4375 103 C 51.515625 103 50.941406 101.835938 50.839844 99.75 L 50.679688 96.5 L 50.277344 99.75 C 50.03125 101.722656 49.308594 103 48.4375 103 C 47.515625 103 46.941406 101.835938 46.839844 99.75 L 46.679688 96.5 L 46.277344 99.75 C 46.03125 101.722656 45.308594 103 44.4375 103 C 43.515625 103 42.941406 101.835938 42.839844 99.75 L 42.679688 96.5 L 42.277344 99.75 C 42.03125 101.722656 41.308594 103 40.4375 103 C 39.515625 103 38.941406 101.835938 38.839844 99.75 L 38.679688 96.5 L 38.277344 99.75 C 38.03125 101.722656 37.308594 103 36.4375 103 C 35.515625 103 34.941406 101.835938 34.839844 99.75 L 34.679688 96.5 L 34.277344 99.75 C 33.734375 104.132812 31.054688 104.132812 30.839844 99.75 L 30.679688 96.5 L 30.277344 99.75 C 30.03125 101.722656 29.308594 103 28.4375 103 C 27.515625 103 26.941406 101.835938 26.839844 99.75 L 26.679688 96.5 L 26.277344 99.75 C 26.03125 101.722656 25.308594 103 24.4375 103 C 23.515625 103 22.941406 101.835938 22.839844 99.75 L 22.679688 96.5 L 22.277344 99.75 C 22.03125 101.722656 21.308594 103 20.4375 103 C 19.515625 103 18.941406 101.835938 18.839844 99.75 L 18.679688 96.5 L 18.28125 99.6875 C 18.042969 101.605469 17.207031 103.054688 16.191406 103.320312 C 15.261719 103.566406 30.699219 103.769531 50.5 103.769531 C 70.300781 103.769531 85.710938 103.5625 84.75 103.3125 Z M 63.371094 90.605469 C 74.328125 85.246094 80.457031 75.339844 80.457031 63 C 80.457031 54.230469 78.292969 48.542969 72.523438 42.15625 C 60.773438 29.148438 39.226562 29.148438 27.476562 42.15625 C 21.707031 48.542969 19.542969 54.230469 19.542969 63 C 19.542969 72.53125 22.210938 78.71875 29.121094 85.203125 C 38.855469 94.347656 51.613281 96.359375 63.371094 90.605469 Z M 41.25 81.59375 C 38.363281 80.21875 36 78.867188 36 78.59375 C 36 78.316406 38.363281 79.191406 41.25 80.535156 C 48.097656 83.722656 52.539062 83.644531 59.101562 80.214844 C 63.417969 77.960938 64.960938 76.417969 67.214844 72.101562 C 70.773438 65.292969 70.773438 60.707031 67.214844 53.898438 C 64.960938 49.582031 63.417969 48.039062 59.101562 45.785156 C 52.5 42.335938 47.816406 42.25 41.46875 45.464844 C 38.789062 46.820312 36.433594 47.769531 36.238281 47.570312 C 36.039062 47.371094 38.386719 45.980469 41.457031 44.476562 C 45.882812 42.3125 47.980469 41.851562 51.5625 42.253906 C 62.335938 43.46875 71.675781 54.128906 70.746094 64.144531 C 69.382812 78.789062 54.207031 87.765625 41.25 81.59375 Z M 31.464844 71.75 C 28.328125 65.015625 28.367188 60.667969 31.613281 54.144531 C 33.054688 51.257812 34.386719 49.054688 34.582031 49.246094 C 34.773438 49.441406 33.820312 51.789062 32.464844 54.46875 C 29.363281 60.597656 29.363281 65.089844 32.464844 71.75 C 33.808594 74.636719 34.683594 77 34.40625 77 C 34.132812 77 32.808594 74.636719 31.464844 71.75 Z M 49 69 C 49 68.449219 49.449219 68 50 68 C 50.550781 68 51 68.449219 51 69 C 51 69.550781 50.550781 70 50 70 C 49.449219 70 49 69.550781 49 69 Z M 44 66 C 44 65.449219 44.449219 65 45 65 C 45.550781 65 46 65.449219 46 66 C 46 66.550781 45.550781 67 45 67 C 44.449219 67 44 66.550781 44 66 Z M 54 66 C 54 65.449219 54.449219 65 55 65 C 55.550781 65 56 65.449219 56 66 C 56 66.550781 55.550781 67 55 67 C 54.449219 67 54 66.550781 54 66 Z M 48.445312 63.914062 C 47.414062 62.246094 49.734375 60.332031 51.113281 61.710938 C 52.265625 62.867188 51.542969 65 50 65 C 49.515625 65 48.816406 64.511719 48.445312 63.914062 Z M 44 60 C 44 59.449219 44.449219 59 45 59 C 45.550781 59 46 59.449219 46 60 C 46 60.550781 45.550781 61 45 61 C 44.449219 61 44 60.550781 44 60 Z M 54 60 C 54 59.449219 54.449219 59 55 59 C 55.550781 59 56 59.449219 56 60 C 56 60.550781 55.550781 61 55 61 C 54.449219 61 54 60.550781 54 60 Z M 49 57 C 49 56.449219 49.449219 56 50 56 C 50.550781 56 51 56.449219 51 57 C 51 57.550781 50.550781 58 50 58 C 49.449219 58 49 57.550781 49 57 Z M 16 43 C 17.101562 41.898438 18 40.324219 18 39.5 C 18 37.5625 14.4375 34 12.5 34 C 10.5625 34 7 37.5625 7 39.5 C 7 41.4375 10.5625 45 12.5 45 C 13.324219 45 14.898438 44.101562 16 43 Z M 10.363281 40.507812 C 10.019531 39.605469 10.214844 38.386719 10.800781 37.800781 C 12.324219 36.277344 15.210938 37.667969 14.8125 39.734375 C 14.367188 42.039062 11.164062 42.59375 10.363281 40.507812 Z M 87.363281 118.507812 C 87.019531 117.605469 87.214844 116.386719 87.800781 115.800781 C 89.324219 114.277344 92.210938 115.667969 91.8125 117.734375 C 91.367188 120.039062 88.164062 120.59375 87.363281 118.507812 Z M 87.363281 118.507812 "/>
<path style=" stroke:none;fill-rule:nonzero;fill:rgb(0%,0%,99.607843%);fill-opacity:1;" d="M 86 121 C 84.898438 119.898438 84 118.324219 84 117.5 C 84 116.675781 84.898438 115.101562 86 114 C 87.101562 112.898438 88.675781 112 89.5 112 C 90.324219 112 91.898438 112.898438 93 114 C 94.101562 115.101562 95 116.675781 95 117.5 C 95 118.324219 94.101562 119.898438 93 121 C 91.898438 122.101562 90.324219 123 89.5 123 C 88.675781 123 87.101562 122.101562 86 121 Z M 91.8125 117.734375 C 92.210938 115.667969 89.324219 114.277344 87.800781 115.800781 C 86.277344 117.324219 87.667969 120.210938 89.734375 119.8125 C 90.691406 119.628906 91.628906 118.691406 91.8125 117.734375 Z M 40.929688 80.25 C 36.390625 77.953125 35.046875 76.609375 32.75 72.070312 C 29.25 65.164062 29.261719 60.644531 32.785156 53.898438 C 35.039062 49.582031 36.582031 48.039062 40.898438 45.785156 C 47.707031 42.226562 52.292969 42.226562 59.101562 45.785156 C 63.417969 48.039062 64.960938 49.582031 67.214844 53.898438 C 70.773438 60.707031 70.773438 65.292969 67.214844 72.101562 C 64.960938 76.417969 63.417969 77.960938 59.101562 80.214844 C 52.355469 83.738281 47.835938 83.75 40.929688 80.25 Z M 43.5 72.984375 C 43.5 69.78125 43.234375 69.472656 40.242188 69.1875 C 35.917969 68.769531 34.929688 71.230469 38.078125 74.585938 C 41.296875 78.011719 43.5 77.363281 43.5 72.984375 Z M 61.953125 74.550781 C 65.070312 71.230469 64.066406 68.769531 59.757812 69.1875 C 57.226562 69.429688 56.425781 70.015625 56.171875 71.824219 C 55.402344 77.25 58.183594 78.5625 61.953125 74.550781 Z M 51 69 C 51 68.449219 50.550781 68 50 68 C 49.449219 68 49 68.449219 49 69 C 49 69.550781 49.449219 70 50 70 C 50.550781 70 51 69.550781 51 69 Z M 46 66 C 46 65.449219 45.550781 65 45 65 C 44.449219 65 44 65.449219 44 66 C 44 66.550781 44.449219 67 45 67 C 45.550781 67 46 66.550781 46 66 Z M 56 66 C 56 65.449219 55.550781 65 55 65 C 54.449219 65 54 65.449219 54 66 C 54 66.550781 54.449219 67 55 67 C 55.550781 67 56 66.550781 56 66 Z M 51.554688 63.914062 C 52.585938 62.246094 50.265625 60.332031 48.886719 61.710938 C 47.734375 62.867188 48.457031 65 50 65 C 50.484375 65 51.183594 64.511719 51.554688 63.914062 Z M 46 60 C 46 59.449219 45.550781 59 45 59 C 44.449219 59 44 59.449219 44 60 C 44 60.550781 44.449219 61 45 61 C 45.550781 61 46 60.550781 46 60 Z M 56 60 C 56 59.449219 55.550781 59 55 59 C 54.449219 59 54 59.449219 54 60 C 54 60.550781 54.449219 61 55 61 C 55.550781 61 56 60.550781 56 60 Z M 43.8125 54.242188 C 44.242188 49.785156 41.675781 48.871094 38.273438 52.273438 C 34.871094 55.675781 35.785156 58.242188 40.242188 57.8125 C 43.109375 57.539062 43.539062 57.109375 43.8125 54.242188 Z M 51 57 C 51 56.449219 50.550781 56 50 56 C 49.449219 56 49 56.449219 49 57 C 49 57.550781 49.449219 58 50 58 C 50.550781 58 51 57.550781 51 57 Z M 63.671875 56.414062 C 64.488281 54.289062 59.710938 49.511719 57.585938 50.328125 C 55.71875 51.042969 55.480469 55.078125 57.199219 56.800781 C 58.921875 58.519531 62.957031 58.28125 63.671875 56.414062 Z M 9 43 C 7.898438 41.898438 7 40.324219 7 39.5 C 7 37.5625 10.5625 34 12.5 34 C 14.4375 34 18 37.5625 18 39.5 C 18 40.324219 17.101562 41.898438 16 43 C 14.898438 44.101562 13.324219 45 12.5 45 C 11.675781 45 10.101562 44.101562 9 43 Z M 14.8125 39.734375 C 15.210938 37.667969 12.324219 36.277344 10.800781 37.800781 C 9.277344 39.324219 10.667969 42.210938 12.734375 41.8125 C 13.691406 41.628906 14.628906 40.691406 14.8125 39.734375 Z M 14.8125 39.734375 "/>
<path style=" stroke:none;fill-rule:nonzero;fill:rgb(0%,0%,0%);fill-opacity:1;" d="M 16.191406 103.320312 C 17.207031 103.054688 18.042969 101.605469 18.28125 99.6875 L 18.679688 96.5 L 18.839844 99.75 C 18.941406 101.835938 19.515625 103 20.4375 103 C 21.308594 103 22.03125 101.722656 22.277344 99.75 L 22.679688 96.5 L 22.839844 99.75 C 23.054688 104.132812 25.734375 104.132812 26.277344 99.75 L 26.679688 96.5 L 26.839844 99.75 C 27.054688 104.132812 29.734375 104.132812 30.277344 99.75 L 30.679688 96.5 L 30.839844 99.75 C 30.941406 101.835938 31.515625 103 32.4375 103 C 33.308594 103 34.03125 101.722656 34.277344 99.75 L 34.679688 96.5 L 34.839844 99.75 C 34.941406 101.835938 35.515625 103 36.4375 103 C 37.308594 103 38.03125 101.722656 38.277344 99.75 L 38.679688 96.5 L 38.839844 99.75 C 38.941406 101.835938 39.515625 103 40.4375 103 C 41.308594 103 42.03125 101.722656 42.277344 99.75 L 42.679688 96.5 L 42.839844 99.75 C 42.941406 101.835938 43.515625 103 44.4375 103 C 45.308594 103 46.03125 101.722656 46.277344 99.75 L 46.679688 96.5 L 46.839844 99.75 C 46.941406 101.835938 47.515625 103 48.4375 103 C 49.308594 103 50.03125 101.722656 50.277344 99.75 L 50.679688 96.5 L 50.839844 99.75 C 50.941406 101.835938 51.515625 103 52.4375 103 C 53.308594 103 54.03125 101.722656 54.277344 99.75 L 54.679688 96.5 L 54.839844 99.75 C 55.054688 104.132812 57.734375 104.132812 58.277344 99.75 L 58.679688 96.5 L 58.839844 99.75 C 58.941406 101.835938 59.515625 103 60.4375 103 C 61.308594 103 62.03125 101.722656 62.277344 99.75 L 62.679688 96.5 L 62.839844 99.75 C 62.941406 101.835938 63.515625 103 64.4375 103 C 65.308594 103 66.03125 101.722656 66.277344 99.75 L 66.679688 96.5 L 66.839844 99.75 C 66.941406 101.835938 67.515625 103 68.4375 103 C 69.308594 103 70.03125 101.722656 70.277344 99.75 L 70.679688 96.5 L 70.839844 99.75 C 70.941406 101.835938 71.515625 103 72.4375 103 C 73.308594 103 74.03125 101.722656 74.277344 99.75 L 74.679688 96.5 L 74.839844 99.75 C 74.941406 101.835938 75.515625 103 76.4375 103 C 77.308594 103 78.03125 101.722656 78.277344 99.75 L 78.679688 96.5 L 78.839844 99.75 C 78.941406 101.835938 79.515625 103 80.4375 103 C 81.308594 103 82.03125 101.722656 82.277344 99.75 L 82.679688 96.5 L 82.839844 99.675781 C 82.945312 101.773438 83.59375 103.007812 84.75 103.3125 C 85.710938 103.5625 70.300781 103.769531 50.5 103.769531 C 30.699219 103.769531 15.261719 103.566406 16.191406 103.320312 Z M 39.316406 91.964844 C 32.648438 89.320312 24.734375 81.871094 21.824219 75.5 C 20.09375 71.710938 19.542969 68.683594 19.542969 63 C 19.542969 54.230469 21.707031 48.542969 27.476562 42.15625 C 39.226562 29.148438 60.773438 29.148438 72.523438 42.15625 C 78.292969 48.542969 80.457031 54.230469 80.457031 63 C 80.457031 71.769531 78.292969 77.457031 72.523438 83.84375 C 64.503906 92.71875 50.101562 96.238281 39.316406 91.964844 Z M 60.367188 80.628906 C 65.925781 77.371094 70.136719 70.683594 70.746094 64.144531 C 71.65625 54.359375 62.550781 43.6875 52.09375 42.285156 C 43.996094 41.199219 34.765625 46.894531 30.929688 55.347656 C 28.507812 60.683594 28.542969 65.390625 31.042969 70.910156 C 36.488281 82.90625 49.257812 87.140625 60.367188 80.628906 Z M 38.078125 74.585938 C 34.929688 71.230469 35.917969 68.769531 40.242188 69.1875 C 43.234375 69.472656 43.5 69.78125 43.5 72.984375 C 43.5 77.363281 41.296875 78.011719 38.078125 74.585938 Z M 56.390625 75.574219 C 56.089844 74.789062 55.988281 73.101562 56.171875 71.824219 C 56.425781 70.015625 57.226562 69.429688 59.757812 69.1875 C 64.066406 68.769531 65.070312 71.230469 61.953125 74.550781 C 59.367188 77.304688 57.207031 77.699219 56.390625 75.574219 Z M 36.351562 56.476562 C 35.953125 55.429688 36.65625 53.890625 38.273438 52.273438 C 41.675781 48.871094 44.242188 49.785156 43.8125 54.242188 C 43.539062 57.109375 43.109375 57.539062 40.242188 57.8125 C 37.9375 58.035156 36.800781 57.644531 36.351562 56.476562 Z M 57.199219 56.800781 C 55.480469 55.078125 55.71875 51.042969 57.585938 50.328125 C 59.710938 49.511719 64.488281 54.289062 63.671875 56.414062 C 62.957031 58.28125 58.921875 58.519531 57.199219 56.800781 Z M 57.199219 56.800781 "/>
<path style="fill:none;stroke-width:2;stroke-linecap:butt;stroke-linejoin:miter;stroke:rgb(0%,0%,0%);stroke-opacity:1;stroke-miterlimit:10;" d="M 1 17.667969 C 1 8.460938 8.460938 1 17.667969 1 L 82.332031 1 C 91.539062 1 99 8.460938 99 17.667969 L 99 132.332031 C 99 141.539062 91.539062 149 82.332031 149 L 17.667969 149 C 8.460938 149 1 141.539062 1 132.332031 L 1 17.667969 "/>
<path style=" stroke:none;fill-rule:nonzero;fill:rgb(0%,0%,0%);fill-opacity:1;" d="M 9.589844 9.207031 C 9.589844 8.832031 9.386719 8.535156 8.964844 8.535156 C 8.527344 8.535156 8.339844 8.832031 8.339844 9.207031 L 8.339844 14.785156 C 8.339844 15.175781 8.527344 15.472656 8.964844 15.472656 C 9.386719 15.472656 9.589844 15.175781 9.589844 14.785156 Z M 10.964844 14.816406 C 10.964844 15.175781 11.152344 15.472656 11.558594 15.472656 C 11.980469 15.472656 12.167969 15.175781 12.167969 14.816406 L 12.167969 12.785156 C 12.167969 11.847656 12.605469 11.378906 13.292969 11.378906 C 13.824219 11.378906 14.089844 11.722656 14.089844 12.425781 L 14.089844 14.816406 C 14.089844 15.175781 14.292969 15.472656 14.699219 15.472656 C 15.105469 15.472656 15.292969 15.175781 15.292969 14.816406 L 15.292969 12.097656 C 15.292969 11.082031 14.589844 10.300781 13.511719 10.300781 C 12.964844 10.300781 12.558594 10.457031 12.167969 10.847656 C 12.167969 10.597656 11.980469 10.300781 11.558594 10.300781 C 11.152344 10.300781 10.964844 10.597656 10.964844 10.957031 Z M 18.398438 10.363281 C 17.070312 10.363281 16.226562 11.363281 16.226562 12.550781 C 16.226562 13.894531 17.273438 15.441406 19.695312 15.441406 C 20.632812 15.441406 20.898438 15.269531 20.898438 14.878906 C 20.898438 14.425781 20.695312 14.300781 19.867188 14.300781 C 18.523438 14.300781 17.554688 13.722656 17.554688 12.519531 C 17.554688 12.003906 17.929688 11.503906 18.632812 11.503906 L 20.148438 11.503906 C 20.476562 11.503906 20.757812 11.316406 20.757812 10.925781 C 20.757812 10.535156 20.476562 10.363281 20.148438 10.363281 Z M 21.601562 14.785156 C 21.601562 15.175781 21.820312 15.472656 22.210938 15.472656 C 22.585938 15.472656 22.804688 15.175781 22.804688 14.785156 L 22.804688 12.597656 C 22.804688 11.675781 23.101562 11.441406 23.679688 11.441406 C 24.117188 11.441406 24.367188 11.253906 24.367188 10.878906 C 24.367188 10.535156 24.195312 10.300781 23.757812 10.300781 C 23.195312 10.300781 22.820312 10.535156 22.726562 11.097656 L 22.710938 11.097656 L 22.695312 10.785156 C 22.648438 10.332031 22.367188 10.300781 22.148438 10.300781 C 21.804688 10.300781 21.601562 10.503906 21.601562 10.910156 Z M 28.824219 15.441406 C 29.152344 15.441406 29.402344 15.269531 29.402344 14.894531 C 29.402344 14.535156 29.152344 14.363281 28.824219 14.363281 L 27.542969 14.363281 C 26.699219 14.363281 25.980469 14.113281 25.902344 13.175781 L 28.964844 13.175781 C 29.386719 13.175781 29.449219 12.925781 29.449219 12.582031 C 29.449219 11.410156 28.761719 10.300781 27.089844 10.300781 C 25.558594 10.300781 24.589844 11.472656 24.589844 12.972656 C 24.589844 14.457031 25.589844 15.441406 27.371094 15.441406 Z M 25.980469 12.269531 C 26.121094 11.675781 26.621094 11.300781 27.089844 11.300781 C 27.558594 11.300781 28.058594 11.675781 28.199219 12.269531 Z M 32.304688 14.207031 C 31.773438 13.441406 31.492188 12.253906 31.335938 11.238281 C 31.242188 10.597656 31.148438 10.300781 30.710938 10.300781 C 30.320312 10.300781 30.132812 10.503906 30.132812 10.847656 C 30.132812 12.019531 30.664062 13.675781 31.507812 15.050781 C 31.726562 15.394531 32.023438 15.503906 32.304688 15.503906 C 32.585938 15.503906 32.882812 15.394531 33.101562 15.050781 C 33.945312 13.675781 34.476562 12.019531 34.476562 10.847656 C 34.476562 10.503906 34.289062 10.300781 33.898438 10.300781 C 33.460938 10.300781 33.367188 10.597656 33.273438 11.238281 C 33.117188 12.253906 32.835938 13.441406 32.304688 14.207031 Z M 39.507812 12.066406 C 39.507812 10.832031 38.882812 10.363281 37.820312 10.363281 L 36.070312 10.363281 C 35.742188 10.363281 35.492188 10.535156 35.492188 10.894531 C 35.492188 11.269531 35.742188 11.441406 36.070312 11.441406 L 37.898438 11.441406 C 38.179688 11.441406 38.304688 11.582031 38.304688 12.097656 L 37.882812 12.097656 C 36.710938 12.097656 35.101562 12.488281 35.101562 13.925781 C 35.101562 14.878906 35.851562 15.503906 36.851562 15.503906 C 37.539062 15.503906 38.085938 15.316406 38.398438 14.925781 C 38.429688 15.300781 38.585938 15.503906 38.914062 15.503906 C 39.351562 15.503906 39.507812 15.253906 39.507812 14.847656 Z M 38.367188 13.628906 C 38.367188 14.207031 37.789062 14.535156 37.226562 14.535156 C 36.617188 14.535156 36.304688 14.269531 36.304688 13.863281 C 36.304688 13.394531 36.976562 12.988281 38.367188 12.988281 Z M 40.988281 14.910156 C 40.988281 15.222656 41.128906 15.441406 41.597656 15.441406 L 43.144531 15.441406 C 44.800781 15.441406 45.628906 14.425781 45.628906 13.222656 C 45.628906 11.722656 44.488281 10.300781 42.191406 10.300781 L 42.191406 8.988281 C 42.191406 8.628906 42.003906 8.332031 41.597656 8.332031 C 41.175781 8.332031 40.988281 8.628906 40.988281 8.988281 Z M 42.191406 11.378906 C 43.269531 11.378906 44.363281 12.097656 44.363281 13.207031 C 44.363281 13.847656 43.957031 14.363281 43.285156 14.363281 L 42.191406 14.363281 Z M 47.910156 8.988281 C 47.910156 8.628906 47.722656 8.332031 47.316406 8.332031 C 46.910156 8.332031 46.722656 8.628906 46.722656 8.988281 L 46.722656 14.816406 C 46.722656 15.175781 46.910156 15.472656 47.316406 15.472656 C 47.722656 15.472656 47.910156 15.175781 47.910156 14.816406 Z M 53.28125 15.441406 C 53.609375 15.441406 53.859375 15.269531 53.859375 14.894531 C 53.859375 14.535156 53.609375 14.363281 53.28125 14.363281 L 52 14.363281 C 51.15625 14.363281 50.4375 14.113281 50.359375 13.175781 L 53.421875 13.175781 C 53.84375 13.175781 53.90625 12.925781 53.90625 12.582031 C 53.90625 11.410156 53.21875 10.300781 51.546875 10.300781 C 50.015625 10.300781 49.046875 11.472656 49.046875 12.972656 C 49.046875 14.457031 50.046875 15.441406 51.828125 15.441406 Z M 50.4375 12.269531 C 50.578125 11.675781 51.078125 11.300781 51.546875 11.300781 C 52.015625 11.300781 52.515625 11.675781 52.65625 12.269531 Z M 54.265625 15.441406 "/>
<path style=" stroke:none;fill-rule:nonzero;fill:rgb(0%,0%,0%);fill-opacity:1;" d="M 46.992188 135.371094 C 46.992188 134.996094 46.789062 134.699219 46.367188 134.699219 C 45.929688 134.699219 45.742188 134.996094 45.742188 135.371094 L 45.742188 140.949219 C 45.742188 141.339844 45.929688 141.636719 46.367188 141.636719 C 46.789062 141.636719 46.992188 141.339844 46.992188 140.949219 Z M 48.367188 140.980469 C 48.367188 141.339844 48.554688 141.636719 48.960938 141.636719 C 49.382812 141.636719 49.570312 141.339844 49.570312 140.980469 L 49.570312 138.949219 C 49.570312 138.011719 50.007812 137.542969 50.695312 137.542969 C 51.226562 137.542969 51.492188 137.886719 51.492188 138.589844 L 51.492188 140.980469 C 51.492188 141.339844 51.695312 141.636719 52.101562 141.636719 C 52.507812 141.636719 52.695312 141.339844 52.695312 140.980469 L 52.695312 138.261719 C 52.695312 137.246094 51.992188 136.464844 50.914062 136.464844 C 50.367188 136.464844 49.960938 136.621094 49.570312 137.011719 C 49.570312 136.761719 49.382812 136.464844 48.960938 136.464844 C 48.554688 136.464844 48.367188 136.761719 48.367188 137.121094 Z M 55.800781 136.527344 C 54.472656 136.527344 53.628906 137.527344 53.628906 138.714844 C 53.628906 140.058594 54.675781 141.605469 57.097656 141.605469 C 58.035156 141.605469 58.300781 141.433594 58.300781 141.042969 C 58.300781 140.589844 58.097656 140.464844 57.269531 140.464844 C 55.925781 140.464844 54.957031 139.886719 54.957031 138.683594 C 54.957031 138.167969 55.332031 137.667969 56.035156 137.667969 L 57.550781 137.667969 C 57.878906 137.667969 58.160156 137.480469 58.160156 137.089844 C 58.160156 136.699219 57.878906 136.527344 57.550781 136.527344 Z M 59.003906 140.949219 C 59.003906 141.339844 59.222656 141.636719 59.613281 141.636719 C 59.988281 141.636719 60.207031 141.339844 60.207031 140.949219 L 60.207031 138.761719 C 60.207031 137.839844 60.503906 137.605469 61.082031 137.605469 C 61.519531 137.605469 61.769531 137.417969 61.769531 137.042969 C 61.769531 136.699219 61.597656 136.464844 61.160156 136.464844 C 60.597656 136.464844 60.222656 136.699219 60.128906 137.261719 L 60.113281 137.261719 L 60.097656 136.949219 C 60.050781 136.496094 59.769531 136.464844 59.550781 136.464844 C 59.207031 136.464844 59.003906 136.667969 59.003906 137.074219 Z M 66.226562 141.605469 C 66.554688 141.605469 66.804688 141.433594 66.804688 141.058594 C 66.804688 140.699219 66.554688 140.527344 66.226562 140.527344 L 64.945312 140.527344 C 64.101562 140.527344 63.382812 140.277344 63.304688 139.339844 L 66.367188 139.339844 C 66.789062 139.339844 66.851562 139.089844 66.851562 138.746094 C 66.851562 137.574219 66.164062 136.464844 64.492188 136.464844 C 62.960938 136.464844 61.992188 137.636719 61.992188 139.136719 C 61.992188 140.621094 62.992188 141.605469 64.773438 141.605469 Z M 63.382812 138.433594 C 63.523438 137.839844 64.023438 137.464844 64.492188 137.464844 C 64.960938 137.464844 65.460938 137.839844 65.601562 138.433594 Z M 69.707031 140.371094 C 69.175781 139.605469 68.894531 138.417969 68.738281 137.402344 C 68.644531 136.761719 68.550781 136.464844 68.113281 136.464844 C 67.722656 136.464844 67.535156 136.667969 67.535156 137.011719 C 67.535156 138.183594 68.066406 139.839844 68.910156 141.214844 C 69.128906 141.558594 69.425781 141.667969 69.707031 141.667969 C 69.988281 141.667969 70.285156 141.558594 70.503906 141.214844 C 71.347656 139.839844 71.878906 138.183594 71.878906 137.011719 C 71.878906 136.667969 71.691406 136.464844 71.300781 136.464844 C 70.863281 136.464844 70.769531 136.761719 70.675781 137.402344 C 70.519531 138.417969 70.238281 139.605469 69.707031 140.371094 Z M 76.910156 138.230469 C 76.910156 136.996094 76.285156 136.527344 75.222656 136.527344 L 73.472656 136.527344 C 73.144531 136.527344 72.894531 136.699219 72.894531 137.058594 C 72.894531 137.433594 73.144531 137.605469 73.472656 137.605469 L 75.300781 137.605469 C 75.582031 137.605469 75.707031 137.746094 75.707031 138.261719 L 75.285156 138.261719 C 74.113281 138.261719 72.503906 138.652344 72.503906 140.089844 C 72.503906 141.042969 73.253906 141.667969 74.253906 141.667969 C 74.941406 141.667969 75.488281 141.480469 75.800781 141.089844 C 75.832031 141.464844 75.988281 141.667969 76.316406 141.667969 C 76.753906 141.667969 76.910156 141.417969 76.910156 141.011719 Z M 75.769531 139.792969 C 75.769531 140.371094 75.191406 140.699219 74.628906 140.699219 C 74.019531 140.699219 73.707031 140.433594 73.707031 140.027344 C 73.707031 139.558594 74.378906 139.152344 75.769531 139.152344 Z M 78.390625 141.074219 C 78.390625 141.386719 78.53125 141.605469 79 141.605469 L 80.546875 141.605469 C 82.203125 141.605469 83.03125 140.589844 83.03125 139.386719 C 83.03125 137.886719 81.890625 136.464844 79.59375 136.464844 L 79.59375 135.152344 C 79.59375 134.792969 79.40625 134.496094 79 134.496094 C 78.578125 134.496094 78.390625 134.792969 78.390625 135.152344 Z M 79.59375 137.542969 C 80.671875 137.542969 81.765625 138.261719 81.765625 139.371094 C 81.765625 140.011719 81.359375 140.527344 80.6875 140.527344 L 79.59375 140.527344 Z M 85.3125 135.152344 C 85.3125 134.792969 85.125 134.496094 84.71875 134.496094 C 84.3125 134.496094 84.125 134.792969 84.125 135.152344 L 84.125 140.980469 C 84.125 141.339844 84.3125 141.636719 84.71875 141.636719 C 85.125 141.636719 85.3125 141.339844 85.3125 140.980469 Z M 90.683594 141.605469 C 91.011719 141.605469 91.261719 141.433594 91.261719 141.058594 C 91.261719 140.699219 91.011719 140.527344 90.683594 140.527344 L 89.402344 140.527344 C 88.558594 140.527344 87.839844 140.277344 87.761719 139.339844 L 90.824219 139.339844 C 91.246094 139.339844 91.308594 139.089844 91.308594 138.746094 C 91.308594 137.574219 90.621094 136.464844 88.949219 136.464844 C 87.417969 136.464844 86.449219 137.636719 86.449219 139.136719 C 86.449219 140.621094 87.449219 141.605469 89.230469 141.605469 Z M 87.839844 138.433594 C 87.980469 137.839844 88.480469 137.464844 88.949219 137.464844 C 89.417969 137.464844 89.917969 137.839844 90.058594 138.433594 Z M 91.667969 141.605469 "/>
</g>
</svg>
