<?xml version="1.0" encoding="UTF-8"?>
<svg xmlns="http://www.w3.org/2000/svg" xmlns:xlink="http://www.w3.org/1999/xlink" width="100pt" height="150pt" viewBox="0 0 100 150" version="1.1">
<g id="surface43">
<path style=" stroke:none;fill-rule:nonzero;fill:rgb(100%,100%,100%);fill-opacity:1;" d="M 1 17.667969 C 1 8.460938 8.460938 1 17.667969 1 L 82.332031 1 C 91.539062 1 99 8.460938 99 17.667969 L 99 132.332031 C 99 141.539062 91.539062 149 82.332031 149 L 17.667969 149 C 8.460938 149 1 141.539062 1 132.332031 L 1 17.667969 "/>
<path style=" stroke:none;fill-rule:nonzero;fill:rgb(0%,0%,0%);fill-opacity:1;" d="M 33.5 75 L 33.5 47.5 L 66.5 47.5 L 66.5 102.5 L 33.5 102.5 Z M 65.5 75 L 65.5 48.5 L 34.5 48.5 L 34.5 101.5 L 65.5 101.5 Z M 65.5 75 "/>
<path style=" stroke:none;fill-rule:nonzero;fill:rgb(0%,0%,0%);fill-opacity:1;" d="M 40.484375 58.121094 C 40.820312 58.121094 41.089844 57.945312 41.089844 57.5625 C 41.089844 57.179688 40.820312 57.003906 40.484375 57.003906 L 38.550781 57.003906 C 37.386719 57.003906 36.648438 57.542969 36.648438 58.515625 C 36.648438 60.867188 40.410156 59.503906 40.410156 61.210938 C 40.410156 62.003906 39.898438 62.304688 38.683594 62.304688 L 37.152344 62.304688 C 36.816406 62.304688 36.546875 62.480469 36.546875 62.863281 C 36.546875 63.246094 36.816406 63.421875 37.152344 63.421875 L 39.160156 63.421875 C 40.753906 63.421875 41.640625 62.339844 41.640625 61.164062 C 41.640625 58.5625 37.878906 59.34375 37.878906 58.496094 C 37.878906 58.253906 38.039062 58.121094 38.328125 58.121094 Z M 40.484375 58.121094 "/>
<path style=" stroke:none;fill-rule:nonzero;fill:rgb(0%,0%,0%);fill-opacity:1;" d="M 42.640625 62.816406 C 42.640625 63.171875 42.828125 63.453125 43.230469 63.453125 C 43.628906 63.453125 43.816406 63.171875 43.816406 62.816406 L 43.816406 60.886719 C 46.148438 60.25 47.175781 59.539062 47.175781 58.328125 C 47.175781 57.542969 46.671875 57.003906 45.703125 57.003906 L 43.230469 57.003906 C 42.828125 57.003906 42.640625 57.207031 42.640625 57.507812 Z M 43.816406 58.011719 L 45.179688 58.011719 C 45.871094 58.011719 46 58.160156 46 58.410156 C 46 58.980469 44.433594 59.632812 43.816406 59.765625 Z M 43.816406 58.011719 "/>
<path style=" stroke:none;fill-rule:nonzero;fill:rgb(0%,0%,0%);fill-opacity:1;" d="M 49.0625 58.066406 L 51.394531 58.066406 C 51.710938 58.066406 51.964844 57.898438 51.964844 57.535156 C 51.964844 57.171875 51.710938 57.003906 51.394531 57.003906 L 48.34375 57.003906 C 48.027344 57.003906 47.828125 57.28125 47.828125 57.636719 L 47.828125 62.621094 C 47.828125 63.105469 48.027344 63.421875 48.640625 63.421875 L 51.394531 63.421875 C 51.710938 63.421875 51.964844 63.253906 51.964844 62.890625 C 51.964844 62.527344 51.710938 62.359375 51.394531 62.359375 L 49.0625 62.359375 L 49.0625 59.933594 L 51.300781 59.933594 C 51.621094 59.933594 51.871094 59.765625 51.871094 59.402344 C 51.871094 59.035156 51.621094 58.867188 51.300781 58.867188 L 49.0625 58.867188 Z M 49.0625 58.066406 "/>
<path style=" stroke:none;fill-rule:nonzero;fill:rgb(0%,0%,0%);fill-opacity:1;" d="M 54.25 58.066406 L 56.585938 58.066406 C 56.902344 58.066406 57.152344 57.898438 57.152344 57.535156 C 57.152344 57.171875 56.902344 57.003906 56.585938 57.003906 L 53.53125 57.003906 C 53.214844 57.003906 53.019531 57.28125 53.019531 57.636719 L 53.019531 62.621094 C 53.019531 63.105469 53.214844 63.421875 53.832031 63.421875 L 56.585938 63.421875 C 56.902344 63.421875 57.152344 63.253906 57.152344 62.890625 C 57.152344 62.527344 56.902344 62.359375 56.585938 62.359375 L 54.25 62.359375 L 54.25 59.933594 L 56.492188 59.933594 C 56.808594 59.933594 57.0625 59.765625 57.0625 59.402344 C 57.0625 59.035156 56.808594 58.867188 56.492188 58.867188 L 54.25 58.867188 Z M 54.25 58.066406 "/>
<path style=" stroke:none;fill-rule:nonzero;fill:rgb(0%,0%,0%);fill-opacity:1;" d="M 58.179688 62.734375 C 58.179688 63.273438 58.40625 63.421875 59.011719 63.421875 L 60.960938 63.421875 C 62.546875 63.421875 63.453125 62.152344 63.453125 60.746094 C 63.453125 59.316406 62.472656 57.003906 58.992188 57.003906 C 58.40625 57.003906 58.179688 57.261719 58.179688 57.730469 Z M 59.355469 58.121094 C 60.886719 58.121094 62.128906 59.316406 62.128906 60.828125 C 62.128906 61.835938 61.652344 62.304688 60.261719 62.304688 L 59.355469 62.304688 Z M 59.355469 58.121094 "/>
<path style=" stroke:none;fill-rule:nonzero;fill:rgb(0%,0%,0%);fill-opacity:1;" d="M 40.34375 71.320312 C 40.34375 71.804688 40.539062 72.125 41.15625 72.125 L 43.320312 72.125 C 43.65625 72.125 43.929688 71.945312 43.929688 71.5625 C 43.929688 71.179688 43.65625 71.003906 43.320312 71.003906 L 41.519531 71.003906 L 41.519531 66.308594 C 41.519531 65.953125 41.324219 65.675781 40.933594 65.675781 C 40.539062 65.675781 40.34375 65.953125 40.34375 66.308594 Z M 40.34375 71.320312 "/>
<path style=" stroke:none;fill-rule:nonzero;fill:rgb(0%,0%,0%);fill-opacity:1;" d="M 45.703125 66.308594 C 45.703125 65.953125 45.515625 65.675781 45.113281 65.675781 C 44.710938 65.675781 44.527344 65.953125 44.527344 66.308594 L 44.527344 71.515625 C 44.527344 71.871094 44.710938 72.152344 45.113281 72.152344 C 45.515625 72.152344 45.703125 71.871094 45.703125 71.515625 Z M 45.703125 66.308594 "/>
<path style=" stroke:none;fill-rule:nonzero;fill:rgb(0%,0%,0%);fill-opacity:1;" d="M 49.78125 68.027344 C 49.398438 67.558594 49.175781 66.960938 48.855469 66.1875 C 48.707031 65.824219 48.484375 65.675781 48.109375 65.675781 C 47.390625 65.675781 47.363281 66.226562 47.214844 67.121094 C 47.035156 68.175781 46.878906 70.003906 46.878906 71.070312 C 46.878906 71.722656 46.925781 72.152344 47.457031 72.152344 C 47.980469 72.152344 48.054688 71.796875 48.054688 71.359375 L 48.054688 69.882812 C 48.054688 69.070312 48.148438 68.230469 48.277344 67.371094 L 48.296875 67.371094 C 48.445312 67.847656 49.128906 69.40625 49.78125 69.40625 C 50.433594 69.40625 51.117188 67.847656 51.265625 67.371094 L 51.285156 67.371094 C 51.414062 68.230469 51.507812 69.070312 51.507812 69.882812 L 51.507812 71.359375 C 51.507812 71.796875 51.582031 72.152344 52.105469 72.152344 C 52.636719 72.152344 52.683594 71.722656 52.683594 71.070312 C 52.683594 70.003906 52.523438 68.175781 52.347656 67.121094 C 52.199219 66.226562 52.171875 65.675781 51.453125 65.675781 C 51.078125 65.675781 50.855469 65.824219 50.703125 66.1875 C 50.386719 66.960938 50.164062 67.558594 49.78125 68.027344 Z M 49.78125 68.027344 "/>
<path style=" stroke:none;fill-rule:nonzero;fill:rgb(0%,0%,0%);fill-opacity:1;" d="M 55.035156 66.308594 C 55.035156 65.953125 54.847656 65.675781 54.449219 65.675781 C 54.046875 65.675781 53.859375 65.953125 53.859375 66.308594 L 53.859375 71.515625 C 53.859375 71.871094 54.046875 72.152344 54.449219 72.152344 C 54.847656 72.152344 55.035156 71.871094 55.035156 71.515625 Z M 55.035156 66.308594 "/>
<path style=" stroke:none;fill-rule:nonzero;fill:rgb(0%,0%,0%);fill-opacity:1;" d="M 58.664062 66.820312 L 59.75 66.820312 C 60.085938 66.820312 60.355469 66.644531 60.355469 66.261719 C 60.355469 65.878906 60.085938 65.703125 59.75 65.703125 L 56.40625 65.703125 C 56.070312 65.703125 55.800781 65.878906 55.800781 66.261719 C 55.800781 66.644531 56.070312 66.820312 56.40625 66.820312 L 57.488281 66.820312 L 57.488281 71.515625 C 57.488281 71.871094 57.675781 72.152344 58.078125 72.152344 C 58.480469 72.152344 58.664062 71.871094 58.664062 71.515625 Z M 58.664062 66.820312 "/>
<path style=" stroke:none;fill-rule:nonzero;fill:rgb(100%,0%,0%);fill-opacity:1;" d="M 40.328125 79.078125 L 46.183594 79.078125 C 47 79.078125 47.648438 78.644531 47.648438 77.710938 C 47.648438 76.773438 47 76.339844 46.183594 76.339844 L 38.960938 76.339844 C 38 76.339844 37.398438 76.773438 37.328125 77.445312 L 36.96875 80.855469 C 36.894531 81.5 36.824219 82.003906 36.824219 82.511719 C 36.824219 83.398438 37.375 83.972656 38.382812 83.972656 C 38.910156 83.972656 39.390625 83.878906 40.160156 83.878906 C 43.710938 83.878906 46.160156 84.695312 46.160156 87.574219 C 46.160156 88.917969 45.105469 90.117188 42.367188 90.117188 L 37.664062 90.117188 C 36.847656 90.117188 36.175781 90.550781 36.175781 91.484375 C 36.175781 92.421875 36.847656 92.855469 37.664062 92.855469 L 42.175781 92.855469 C 47.214844 92.855469 49.425781 90.359375 49.425781 87.308594 C 49.425781 83.636719 46.160156 81.140625 41.023438 81.140625 L 40.089844 81.140625 Z M 40.328125 79.078125 "/>
<path style=" stroke:none;fill-rule:nonzero;fill:rgb(100%,0%,0%);fill-opacity:1;" d="M 50.671875 84.597656 C 50.671875 88.988281 52.785156 92.996094 57.246094 92.996094 C 61.710938 92.996094 63.824219 88.988281 63.824219 84.597656 C 63.824219 80.207031 61.710938 76.199219 57.246094 76.199219 C 52.785156 76.199219 50.671875 80.207031 50.671875 84.597656 Z M 53.839844 84.597656 C 53.839844 81.527344 55.039062 79.078125 57.246094 79.078125 C 59.480469 79.078125 60.65625 81.527344 60.65625 84.597656 C 60.65625 87.667969 59.480469 90.117188 57.246094 90.117188 C 55.039062 90.117188 53.839844 87.667969 53.839844 84.597656 Z M 53.839844 84.597656 "/>
<path style="fill:none;stroke-width:2;stroke-linecap:butt;stroke-linejoin:miter;stroke:rgb(0%,0%,0%);stroke-opacity:1;stroke-miterlimit:10;" d="M 1 17.667969 C 1 8.460938 8.460938 1 17.667969 1 L 82.332031 1 C 91.539062 1 99 8.460938 99 17.667969 L 99 132.332031 C 99 141.539062 91.539062 149 82.332031 149 L 17.667969 149 C 8.460938 149 1 141.539062 1 132.332031 L 1 17.667969 "/>
<path style=" stroke:none;fill-rule:nonzero;fill:rgb(0%,0%,0%);fill-opacity:1;" d="M 8.332031 14.613281 C 8.332031 15.128906 8.550781 15.472656 9.207031 15.472656 L 11.519531 15.472656 C 11.878906 15.472656 12.175781 15.285156 12.175781 14.878906 C 12.175781 14.457031 11.878906 14.269531 11.519531 14.269531 L 9.597656 14.269531 L 9.597656 9.238281 C 9.597656 8.863281 9.378906 8.566406 8.957031 8.566406 C 8.550781 8.566406 8.332031 8.863281 8.332031 9.238281 Z M 14.039062 10.988281 C 14.039062 10.628906 13.851562 10.332031 13.445312 10.332031 C 13.039062 10.332031 12.851562 10.628906 12.851562 10.988281 L 12.851562 14.847656 C 12.851562 15.207031 13.039062 15.503906 13.445312 15.503906 C 13.851562 15.503906 14.039062 15.207031 14.039062 14.847656 Z M 13.445312 8.332031 C 13.070312 8.332031 12.789062 8.597656 12.789062 9.066406 C 12.789062 9.550781 13.070312 9.816406 13.445312 9.816406 C 13.820312 9.816406 14.101562 9.550781 14.101562 9.066406 C 14.101562 8.597656 13.820312 8.332031 13.445312 8.332031 Z M 15.425781 14.847656 C 15.425781 15.207031 15.613281 15.503906 16.019531 15.503906 C 16.425781 15.503906 16.628906 15.207031 16.628906 14.847656 L 16.628906 12.816406 C 16.628906 11.878906 17.050781 11.410156 17.582031 11.410156 C 18.253906 11.410156 18.394531 11.941406 18.394531 12.628906 L 18.394531 14.847656 C 18.394531 15.207031 18.582031 15.503906 18.988281 15.503906 C 19.394531 15.503906 19.597656 15.207031 19.597656 14.847656 L 19.597656 12.816406 C 19.597656 11.878906 20.019531 11.410156 20.550781 11.410156 C 21.222656 11.410156 21.363281 11.941406 21.363281 12.628906 L 21.363281 14.847656 C 21.363281 15.207031 21.550781 15.503906 21.957031 15.503906 C 22.378906 15.503906 22.566406 15.207031 22.566406 14.847656 L 22.566406 12.128906 C 22.566406 11.113281 21.863281 10.332031 20.785156 10.332031 C 20.128906 10.332031 19.597656 10.675781 19.175781 11.082031 C 18.707031 10.519531 18.347656 10.332031 17.769531 10.332031 C 17.285156 10.332031 16.847656 10.535156 16.503906 10.878906 C 16.503906 10.597656 16.332031 10.332031 15.957031 10.332031 C 15.597656 10.332031 15.425781 10.597656 15.425781 10.910156 Z M 25.148438 10.988281 C 25.148438 10.628906 24.960938 10.332031 24.554688 10.332031 C 24.148438 10.332031 23.960938 10.628906 23.960938 10.988281 L 23.960938 14.847656 C 23.960938 15.207031 24.148438 15.503906 24.554688 15.503906 C 24.960938 15.503906 25.148438 15.207031 25.148438 14.847656 Z M 24.554688 8.332031 C 24.179688 8.332031 23.898438 8.597656 23.898438 9.066406 C 23.898438 9.550781 24.179688 9.816406 24.554688 9.816406 C 24.929688 9.816406 25.210938 9.550781 25.210938 9.066406 C 25.210938 8.597656 24.929688 8.332031 24.554688 8.332031 Z M 29.019531 11.472656 C 29.347656 11.472656 29.597656 11.300781 29.597656 10.925781 C 29.597656 10.566406 29.347656 10.394531 29.019531 10.394531 L 28.144531 10.394531 L 28.144531 9.535156 C 28.144531 9.175781 27.957031 8.894531 27.535156 8.894531 C 27.128906 8.894531 26.941406 9.175781 26.941406 9.535156 L 26.941406 10.394531 L 26.597656 10.394531 C 26.269531 10.394531 26.003906 10.566406 26.003906 10.925781 C 26.003906 11.300781 26.269531 11.472656 26.597656 11.472656 L 26.941406 11.472656 L 26.941406 13.628906 C 26.941406 15.472656 27.644531 15.472656 29.160156 15.472656 C 29.707031 15.472656 29.972656 15.285156 29.972656 14.910156 C 29.972656 14.519531 29.707031 14.332031 29.363281 14.332031 L 28.722656 14.332031 C 28.253906 14.332031 28.144531 14.050781 28.144531 13.457031 L 28.144531 11.472656 Z M 34.410156 15.472656 C 34.738281 15.472656 34.988281 15.300781 34.988281 14.925781 C 34.988281 14.566406 34.738281 14.394531 34.410156 14.394531 L 33.128906 14.394531 C 32.285156 14.394531 31.566406 14.144531 31.488281 13.207031 L 34.550781 13.207031 C 34.972656 13.207031 35.035156 12.957031 35.035156 12.613281 C 35.035156 11.441406 34.347656 10.332031 32.675781 10.332031 C 31.144531 10.332031 30.175781 11.503906 30.175781 13.003906 C 30.175781 14.488281 31.175781 15.472656 32.957031 15.472656 Z M 31.566406 12.300781 C 31.707031 11.707031 32.207031 11.332031 32.675781 11.332031 C 33.144531 11.332031 33.644531 11.707031 33.785156 12.300781 Z M 39.097656 14.738281 C 39.097656 15.316406 39.347656 15.472656 39.988281 15.472656 L 42.082031 15.472656 C 43.785156 15.472656 44.753906 14.113281 44.753906 12.597656 C 44.753906 11.066406 43.707031 8.597656 39.972656 8.597656 C 39.347656 8.597656 39.097656 8.878906 39.097656 9.378906 Z M 40.363281 9.785156 C 42.003906 9.785156 43.332031 11.066406 43.332031 12.691406 C 43.332031 13.769531 42.816406 14.269531 41.332031 14.269531 L 40.363281 14.269531 Z M 49.691406 15.472656 C 50.019531 15.472656 50.269531 15.300781 50.269531 14.925781 C 50.269531 14.566406 50.019531 14.394531 49.691406 14.394531 L 48.410156 14.394531 C 47.566406 14.394531 46.847656 14.144531 46.769531 13.207031 L 49.832031 13.207031 C 50.253906 13.207031 50.316406 12.957031 50.316406 12.613281 C 50.316406 11.441406 49.628906 10.332031 47.957031 10.332031 C 46.425781 10.332031 45.457031 11.503906 45.457031 13.003906 C 45.457031 14.488281 46.457031 15.472656 48.238281 15.472656 Z M 46.847656 12.300781 C 46.988281 11.707031 47.488281 11.332031 47.957031 11.332031 C 48.425781 11.332031 48.925781 11.707031 49.066406 12.300781 Z M 56.769531 14.144531 C 55.957031 12.707031 55.550781 11.207031 55.394531 9.566406 C 55.332031 8.957031 55.285156 8.566406 54.660156 8.566406 C 54.316406 8.566406 54.035156 8.769531 54.035156 9.285156 C 54.035156 10.660156 54.847656 13.285156 55.566406 14.488281 C 55.910156 15.066406 56.144531 15.535156 56.769531 15.535156 C 57.410156 15.535156 57.644531 15.066406 57.988281 14.488281 C 58.691406 13.285156 59.519531 10.660156 59.519531 9.285156 C 59.519531 8.769531 59.238281 8.566406 58.878906 8.566406 C 58.253906 8.566406 58.207031 8.957031 58.160156 9.566406 C 57.988281 11.207031 57.597656 12.707031 56.769531 14.144531 Z M 61.816406 10.988281 C 61.816406 10.628906 61.628906 10.332031 61.222656 10.332031 C 60.816406 10.332031 60.628906 10.628906 60.628906 10.988281 L 60.628906 14.847656 C 60.628906 15.207031 60.816406 15.503906 61.222656 15.503906 C 61.628906 15.503906 61.816406 15.207031 61.816406 14.847656 Z M 61.222656 8.332031 C 60.847656 8.332031 60.566406 8.597656 60.566406 9.066406 C 60.566406 9.550781 60.847656 9.816406 61.222656 9.816406 C 61.597656 9.816406 61.878906 9.550781 61.878906 9.066406 C 61.878906 8.597656 61.597656 8.332031 61.222656 8.332031 Z M 65.691406 11.472656 C 66.019531 11.472656 66.269531 11.300781 66.269531 10.925781 C 66.269531 10.566406 66.019531 10.394531 65.691406 10.394531 L 64.816406 10.394531 L 64.816406 9.535156 C 64.816406 9.175781 64.628906 8.894531 64.207031 8.894531 C 63.800781 8.894531 63.613281 9.175781 63.613281 9.535156 L 63.613281 10.394531 L 63.269531 10.394531 C 62.941406 10.394531 62.675781 10.566406 62.675781 10.925781 C 62.675781 11.300781 62.941406 11.472656 63.269531 11.472656 L 63.613281 11.472656 L 63.613281 13.628906 C 63.613281 15.472656 64.316406 15.472656 65.832031 15.472656 C 66.378906 15.472656 66.644531 15.285156 66.644531 14.910156 C 66.644531 14.519531 66.378906 14.332031 66.035156 14.332031 L 65.394531 14.332031 C 64.925781 14.332031 64.816406 14.050781 64.816406 13.457031 L 64.816406 11.472656 Z M 71.082031 15.472656 C 71.410156 15.472656 71.660156 15.300781 71.660156 14.925781 C 71.660156 14.566406 71.410156 14.394531 71.082031 14.394531 L 69.800781 14.394531 C 68.957031 14.394531 68.238281 14.144531 68.160156 13.207031 L 71.222656 13.207031 C 71.644531 13.207031 71.707031 12.957031 71.707031 12.613281 C 71.707031 11.441406 71.019531 10.332031 69.347656 10.332031 C 67.816406 10.332031 66.847656 11.503906 66.847656 13.003906 C 66.847656 14.488281 67.847656 15.472656 69.628906 15.472656 Z M 68.238281 12.300781 C 68.378906 11.707031 68.878906 11.332031 69.347656 11.332031 C 69.816406 11.332031 70.316406 11.707031 70.457031 12.300781 Z M 74.8125 15.472656 C 75.9375 15.472656 76.78125 14.957031 76.78125 13.753906 C 76.78125 11.644531 73.625 12.410156 73.625 11.722656 C 73.625 11.488281 73.875 11.472656 74.0625 11.472656 L 75.8125 11.472656 C 76.125 11.472656 76.390625 11.300781 76.390625 10.925781 C 76.390625 10.566406 76.125 10.394531 75.8125 10.394531 L 74.125 10.394531 C 73.03125 10.394531 72.4375 10.800781 72.4375 11.707031 C 72.4375 13.800781 75.578125 12.707031 75.578125 13.738281 C 75.578125 14.285156 75.203125 14.394531 74.71875 14.394531 L 72.921875 14.394531 C 72.59375 14.394531 72.328125 14.566406 72.328125 14.925781 C 72.328125 15.300781 72.59375 15.472656 72.921875 15.472656 Z M 79.8125 15.472656 C 80.9375 15.472656 81.78125 14.957031 81.78125 13.753906 C 81.78125 11.644531 78.625 12.410156 78.625 11.722656 C 78.625 11.488281 78.875 11.472656 79.0625 11.472656 L 80.8125 11.472656 C 81.125 11.472656 81.390625 11.300781 81.390625 10.925781 C 81.390625 10.566406 81.125 10.394531 80.8125 10.394531 L 79.125 10.394531 C 78.03125 10.394531 77.4375 10.800781 77.4375 11.707031 C 77.4375 13.800781 80.578125 12.707031 80.578125 13.738281 C 80.578125 14.285156 80.203125 14.394531 79.71875 14.394531 L 77.921875 14.394531 C 77.59375 14.394531 77.328125 14.566406 77.328125 14.925781 C 77.328125 15.300781 77.59375 15.472656 77.921875 15.472656 Z M 86.640625 15.472656 C 86.96875 15.472656 87.21875 15.300781 87.21875 14.925781 C 87.21875 14.566406 86.96875 14.394531 86.640625 14.394531 L 85.359375 14.394531 C 84.515625 14.394531 83.796875 14.144531 83.71875 13.207031 L 86.78125 13.207031 C 87.203125 13.207031 87.265625 12.957031 87.265625 12.613281 C 87.265625 11.441406 86.578125 10.332031 84.90625 10.332031 C 83.375 10.332031 82.40625 11.503906 82.40625 13.003906 C 82.40625 14.488281 83.40625 15.472656 85.1875 15.472656 Z M 83.796875 12.300781 C 83.9375 11.707031 84.4375 11.332031 84.90625 11.332031 C 85.375 11.332031 85.875 11.707031 86.015625 12.300781 Z M 87.625 15.472656 "/>
<path style=" stroke:none;fill-rule:nonzero;fill:rgb(0%,0%,0%);fill-opacity:1;" d="M 12.375 140.746094 C 12.375 141.261719 12.59375 141.605469 13.25 141.605469 L 15.5625 141.605469 C 15.921875 141.605469 16.21875 141.417969 16.21875 141.011719 C 16.21875 140.589844 15.921875 140.402344 15.5625 140.402344 L 13.640625 140.402344 L 13.640625 135.371094 C 13.640625 134.996094 13.421875 134.699219 13 134.699219 C 12.59375 134.699219 12.375 134.996094 12.375 135.371094 Z M 18.082031 137.121094 C 18.082031 136.761719 17.894531 136.464844 17.488281 136.464844 C 17.082031 136.464844 16.894531 136.761719 16.894531 137.121094 L 16.894531 140.980469 C 16.894531 141.339844 17.082031 141.636719 17.488281 141.636719 C 17.894531 141.636719 18.082031 141.339844 18.082031 140.980469 Z M 17.488281 134.464844 C 17.113281 134.464844 16.832031 134.730469 16.832031 135.199219 C 16.832031 135.683594 17.113281 135.949219 17.488281 135.949219 C 17.863281 135.949219 18.144531 135.683594 18.144531 135.199219 C 18.144531 134.730469 17.863281 134.464844 17.488281 134.464844 Z M 19.46875 140.980469 C 19.46875 141.339844 19.65625 141.636719 20.0625 141.636719 C 20.46875 141.636719 20.671875 141.339844 20.671875 140.980469 L 20.671875 138.949219 C 20.671875 138.011719 21.09375 137.542969 21.625 137.542969 C 22.296875 137.542969 22.4375 138.074219 22.4375 138.761719 L 22.4375 140.980469 C 22.4375 141.339844 22.625 141.636719 23.03125 141.636719 C 23.4375 141.636719 23.640625 141.339844 23.640625 140.980469 L 23.640625 138.949219 C 23.640625 138.011719 24.0625 137.542969 24.59375 137.542969 C 25.265625 137.542969 25.40625 138.074219 25.40625 138.761719 L 25.40625 140.980469 C 25.40625 141.339844 25.59375 141.636719 26 141.636719 C 26.421875 141.636719 26.609375 141.339844 26.609375 140.980469 L 26.609375 138.261719 C 26.609375 137.246094 25.90625 136.464844 24.828125 136.464844 C 24.171875 136.464844 23.640625 136.808594 23.21875 137.214844 C 22.75 136.652344 22.390625 136.464844 21.8125 136.464844 C 21.328125 136.464844 20.890625 136.667969 20.546875 137.011719 C 20.546875 136.730469 20.375 136.464844 20 136.464844 C 19.640625 136.464844 19.46875 136.730469 19.46875 137.042969 Z M 29.191406 137.121094 C 29.191406 136.761719 29.003906 136.464844 28.597656 136.464844 C 28.191406 136.464844 28.003906 136.761719 28.003906 137.121094 L 28.003906 140.980469 C 28.003906 141.339844 28.191406 141.636719 28.597656 141.636719 C 29.003906 141.636719 29.191406 141.339844 29.191406 140.980469 Z M 28.597656 134.464844 C 28.222656 134.464844 27.941406 134.730469 27.941406 135.199219 C 27.941406 135.683594 28.222656 135.949219 28.597656 135.949219 C 28.972656 135.949219 29.253906 135.683594 29.253906 135.199219 C 29.253906 134.730469 28.972656 134.464844 28.597656 134.464844 Z M 33.0625 137.605469 C 33.390625 137.605469 33.640625 137.433594 33.640625 137.058594 C 33.640625 136.699219 33.390625 136.527344 33.0625 136.527344 L 32.1875 136.527344 L 32.1875 135.667969 C 32.1875 135.308594 32 135.027344 31.578125 135.027344 C 31.171875 135.027344 30.984375 135.308594 30.984375 135.667969 L 30.984375 136.527344 L 30.640625 136.527344 C 30.3125 136.527344 30.046875 136.699219 30.046875 137.058594 C 30.046875 137.433594 30.3125 137.605469 30.640625 137.605469 L 30.984375 137.605469 L 30.984375 139.761719 C 30.984375 141.605469 31.6875 141.605469 33.203125 141.605469 C 33.75 141.605469 34.015625 141.417969 34.015625 141.042969 C 34.015625 140.652344 33.75 140.464844 33.40625 140.464844 L 32.765625 140.464844 C 32.296875 140.464844 32.1875 140.183594 32.1875 139.589844 L 32.1875 137.605469 Z M 38.453125 141.605469 C 38.78125 141.605469 39.03125 141.433594 39.03125 141.058594 C 39.03125 140.699219 38.78125 140.527344 38.453125 140.527344 L 37.171875 140.527344 C 36.328125 140.527344 35.609375 140.277344 35.53125 139.339844 L 38.59375 139.339844 C 39.015625 139.339844 39.078125 139.089844 39.078125 138.746094 C 39.078125 137.574219 38.390625 136.464844 36.71875 136.464844 C 35.1875 136.464844 34.21875 137.636719 34.21875 139.136719 C 34.21875 140.621094 35.21875 141.605469 37 141.605469 Z M 35.609375 138.433594 C 35.75 137.839844 36.25 137.464844 36.71875 137.464844 C 37.1875 137.464844 37.6875 137.839844 37.828125 138.433594 Z M 43.140625 140.871094 C 43.140625 141.449219 43.390625 141.605469 44.03125 141.605469 L 46.125 141.605469 C 47.828125 141.605469 48.796875 140.246094 48.796875 138.730469 C 48.796875 137.199219 47.75 134.730469 44.015625 134.730469 C 43.390625 134.730469 43.140625 135.011719 43.140625 135.511719 Z M 44.40625 135.917969 C 46.046875 135.917969 47.375 137.199219 47.375 138.824219 C 47.375 139.902344 46.859375 140.402344 45.375 140.402344 L 44.40625 140.402344 Z M 53.734375 141.605469 C 54.0625 141.605469 54.3125 141.433594 54.3125 141.058594 C 54.3125 140.699219 54.0625 140.527344 53.734375 140.527344 L 52.453125 140.527344 C 51.609375 140.527344 50.890625 140.277344 50.8125 139.339844 L 53.875 139.339844 C 54.296875 139.339844 54.359375 139.089844 54.359375 138.746094 C 54.359375 137.574219 53.671875 136.464844 52 136.464844 C 50.46875 136.464844 49.5 137.636719 49.5 139.136719 C 49.5 140.621094 50.5 141.605469 52.28125 141.605469 Z M 50.890625 138.433594 C 51.03125 137.839844 51.53125 137.464844 52 137.464844 C 52.46875 137.464844 52.96875 137.839844 53.109375 138.433594 Z M 60.8125 140.277344 C 60 138.839844 59.59375 137.339844 59.4375 135.699219 C 59.375 135.089844 59.328125 134.699219 58.703125 134.699219 C 58.359375 134.699219 58.078125 134.902344 58.078125 135.417969 C 58.078125 136.792969 58.890625 139.417969 59.609375 140.621094 C 59.953125 141.199219 60.1875 141.667969 60.8125 141.667969 C 61.453125 141.667969 61.6875 141.199219 62.03125 140.621094 C 62.734375 139.417969 63.5625 136.792969 63.5625 135.417969 C 63.5625 134.902344 63.28125 134.699219 62.921875 134.699219 C 62.296875 134.699219 62.25 135.089844 62.203125 135.699219 C 62.03125 137.339844 61.640625 138.839844 60.8125 140.277344 Z M 65.859375 137.121094 C 65.859375 136.761719 65.671875 136.464844 65.265625 136.464844 C 64.859375 136.464844 64.671875 136.761719 64.671875 137.121094 L 64.671875 140.980469 C 64.671875 141.339844 64.859375 141.636719 65.265625 141.636719 C 65.671875 141.636719 65.859375 141.339844 65.859375 140.980469 Z M 65.265625 134.464844 C 64.890625 134.464844 64.609375 134.730469 64.609375 135.199219 C 64.609375 135.683594 64.890625 135.949219 65.265625 135.949219 C 65.640625 135.949219 65.921875 135.683594 65.921875 135.199219 C 65.921875 134.730469 65.640625 134.464844 65.265625 134.464844 Z M 69.734375 137.605469 C 70.0625 137.605469 70.3125 137.433594 70.3125 137.058594 C 70.3125 136.699219 70.0625 136.527344 69.734375 136.527344 L 68.859375 136.527344 L 68.859375 135.667969 C 68.859375 135.308594 68.671875 135.027344 68.25 135.027344 C 67.84375 135.027344 67.65625 135.308594 67.65625 135.667969 L 67.65625 136.527344 L 67.3125 136.527344 C 66.984375 136.527344 66.71875 136.699219 66.71875 137.058594 C 66.71875 137.433594 66.984375 137.605469 67.3125 137.605469 L 67.65625 137.605469 L 67.65625 139.761719 C 67.65625 141.605469 68.359375 141.605469 69.875 141.605469 C 70.421875 141.605469 70.6875 141.417969 70.6875 141.042969 C 70.6875 140.652344 70.421875 140.464844 70.078125 140.464844 L 69.4375 140.464844 C 68.96875 140.464844 68.859375 140.183594 68.859375 139.589844 L 68.859375 137.605469 Z M 75.125 141.605469 C 75.453125 141.605469 75.703125 141.433594 75.703125 141.058594 C 75.703125 140.699219 75.453125 140.527344 75.125 140.527344 L 73.84375 140.527344 C 73 140.527344 72.28125 140.277344 72.203125 139.339844 L 75.265625 139.339844 C 75.6875 139.339844 75.75 139.089844 75.75 138.746094 C 75.75 137.574219 75.0625 136.464844 73.390625 136.464844 C 71.859375 136.464844 70.890625 137.636719 70.890625 139.136719 C 70.890625 140.621094 71.890625 141.605469 73.671875 141.605469 Z M 72.28125 138.433594 C 72.421875 137.839844 72.921875 137.464844 73.390625 137.464844 C 73.859375 137.464844 74.359375 137.839844 74.5 138.433594 Z M 78.855469 141.605469 C 79.980469 141.605469 80.824219 141.089844 80.824219 139.886719 C 80.824219 137.777344 77.667969 138.542969 77.667969 137.855469 C 77.667969 137.621094 77.917969 137.605469 78.105469 137.605469 L 79.855469 137.605469 C 80.167969 137.605469 80.433594 137.433594 80.433594 137.058594 C 80.433594 136.699219 80.167969 136.527344 79.855469 136.527344 L 78.167969 136.527344 C 77.074219 136.527344 76.480469 136.933594 76.480469 137.839844 C 76.480469 139.933594 79.621094 138.839844 79.621094 139.871094 C 79.621094 140.417969 79.246094 140.527344 78.761719 140.527344 L 76.964844 140.527344 C 76.636719 140.527344 76.371094 140.699219 76.371094 141.058594 C 76.371094 141.433594 76.636719 141.605469 76.964844 141.605469 Z M 83.855469 141.605469 C 84.980469 141.605469 85.824219 141.089844 85.824219 139.886719 C 85.824219 137.777344 82.667969 138.542969 82.667969 137.855469 C 82.667969 137.621094 82.917969 137.605469 83.105469 137.605469 L 84.855469 137.605469 C 85.167969 137.605469 85.433594 137.433594 85.433594 137.058594 C 85.433594 136.699219 85.167969 136.527344 84.855469 136.527344 L 83.167969 136.527344 C 82.074219 136.527344 81.480469 136.933594 81.480469 137.839844 C 81.480469 139.933594 84.621094 138.839844 84.621094 139.871094 C 84.621094 140.417969 84.246094 140.527344 83.761719 140.527344 L 81.964844 140.527344 C 81.636719 140.527344 81.371094 140.699219 81.371094 141.058594 C 81.371094 141.433594 81.636719 141.605469 81.964844 141.605469 Z M 90.683594 141.605469 C 91.011719 141.605469 91.261719 141.433594 91.261719 141.058594 C 91.261719 140.699219 91.011719 140.527344 90.683594 140.527344 L 89.402344 140.527344 C 88.558594 140.527344 87.839844 140.277344 87.761719 139.339844 L 90.824219 139.339844 C 91.246094 139.339844 91.308594 139.089844 91.308594 138.746094 C 91.308594 137.574219 90.621094 136.464844 88.949219 136.464844 C 87.417969 136.464844 86.449219 137.636719 86.449219 139.136719 C 86.449219 140.621094 87.449219 141.605469 89.230469 141.605469 Z M 87.839844 138.433594 C 87.980469 137.839844 88.480469 137.464844 88.949219 137.464844 C 89.417969 137.464844 89.917969 137.839844 90.058594 138.433594 Z M 91.667969 141.605469 "/>
</g>
</svg>
