<?xml version="1.0" encoding="UTF-8"?>
<svg xmlns="http://www.w3.org/2000/svg" xmlns:xlink="http://www.w3.org/1999/xlink" width="100pt" height="150pt" viewBox="0 0 100 150" version="1.1">
<g id="surface46">
<path style=" stroke:none;fill-rule:nonzero;fill:rgb(100%,100%,100%);fill-opacity:1;" d="M 1 17.667969 C 1 8.460938 8.460938 1 17.667969 1 L 82.332031 1 C 91.539062 1 99 8.460938 99 17.667969 L 99 132.332031 C 99 141.539062 91.539062 149 82.332031 149 L 17.667969 149 C 8.460938 149 1 141.539062 1 132.332031 L 1 17.667969 "/>
<path style=" stroke:none;fill-rule:nonzero;fill:rgb(99.607843%,99.607843%,99.607843%);fill-opacity:1;" d="M 5 75 L 5 20 L 95 20 L 95 130 L 5 130 Z M 92 70.5 L 92 41 L 10 41 L 10 100 L 92 100 Z M 11 70.5 L 11 42 L 91 42 L 91 99 L 11 99 Z M 59.386719 90.253906 L 42.273438 89.953125 L 35.4375 79.726562 C 31.679688 74.101562 27.117188 67.050781 25.300781 64.058594 C 23.484375 61.066406 22 58.875 22 59.1875 C 22 61.230469 26.148438 68.757812 32.566406 78.355469 L 40.019531 89.5 L 32.261719 90.066406 C 27.992188 90.378906 36.199219 90.613281 50.5 90.59375 C 66.269531 90.566406 69.765625 90.433594 59.386719 90.253906 Z M 78.929688 59.5 C 78.929688 58.949219 78.285156 59.625 77.5 61 C 76.714844 62.375 76.070312 63.949219 76.070312 64.5 C 76.070312 65.050781 76.714844 64.375 77.5 63 C 78.285156 61.625 78.929688 60.050781 78.929688 59.5 Z M 50.707031 54.761719 C 50.46875 53.519531 50.261719 54.300781 50.253906 56.5 C 50.242188 58.699219 50.4375 59.71875 50.6875 58.761719 C 50.9375 57.804688 50.945312 56.003906 50.707031 54.761719 Z M 81.816406 52.882812 C 83.324219 52.78125 83.316406 52.71875 81.75 52.3125 C 78.867188 51.558594 79.601562 48.195312 82.75 47.714844 C 85.308594 47.328125 85.273438 47.289062 82.25 47.148438 L 79 47 L 79.148438 52.75 C 79.230469 55.914062 79.488281 57.261719 79.714844 55.75 C 79.96875 54.070312 80.789062 52.953125 81.816406 52.882812 Z M 81.816406 52.882812 "/>
<path style=" stroke:none;fill-rule:nonzero;fill:rgb(99.607843%,0%,0%);fill-opacity:1;" d="M 33.828125 80.25 C 23.839844 65.21875 23.707031 65 24.734375 65 C 25.535156 65 31.019531 72.765625 40.441406 87.25 C 41.425781 88.761719 41.796875 90 41.265625 90 C 40.738281 90 37.390625 85.613281 33.828125 80.25 Z M 33.828125 80.25 "/>
<path style=" stroke:none;fill-rule:nonzero;fill:rgb(0%,0%,0%);fill-opacity:1;" d="M 10 70.5 L 10 41 L 92 41 L 92 100 L 10 100 Z M 91 70.5 L 91 42 L 11 42 L 11 99 L 91 99 Z M 37.191406 90.253906 C 44.171875 90.082031 55.871094 90.082031 63.191406 90.253906 C 70.511719 90.421875 64.800781 90.5625 50.5 90.5625 C 36.199219 90.566406 30.210938 90.425781 37.191406 90.253906 Z M 23.164062 62.457031 C 21.488281 58.78125 21.804688 57.996094 23.617188 61.339844 C 24.464844 62.898438 24.96875 64.363281 24.742188 64.59375 C 24.511719 64.820312 23.800781 63.859375 23.164062 62.457031 Z M 76.070312 64.5 C 76.070312 63.949219 76.714844 62.375 77.5 61 C 78.285156 59.625 78.929688 58.949219 78.929688 59.5 C 78.929688 60.050781 78.285156 61.625 77.5 63 C 76.714844 64.375 76.070312 65.050781 76.070312 64.5 Z M 50.253906 56.5 C 50.261719 54.300781 50.46875 53.519531 50.707031 54.761719 C 50.945312 56.003906 50.9375 57.804688 50.6875 58.761719 C 50.4375 59.71875 50.242188 58.699219 50.253906 56.5 Z M 50.253906 56.5 "/>
<path style=" stroke:none;fill-rule:nonzero;fill:rgb(100%,0%,0%);fill-opacity:1;" d="M 19.566406 48.714844 L 23.566406 48.714844 C 24.113281 48.714844 24.542969 48.425781 24.542969 47.804688 C 24.542969 47.179688 24.113281 46.890625 23.566406 46.890625 L 18.335938 46.890625 C 17.792969 46.890625 17.457031 47.371094 17.457031 47.980469 L 17.457031 56.523438 C 17.457031 57.355469 17.792969 57.898438 18.847656 57.898438 L 23.566406 57.898438 C 24.113281 57.898438 24.542969 57.613281 24.542969 56.988281 C 24.542969 56.363281 24.113281 56.074219 23.566406 56.074219 L 19.566406 56.074219 L 19.566406 51.914062 L 23.40625 51.914062 C 23.953125 51.914062 24.382812 51.628906 24.382812 51.003906 C 24.382812 50.378906 23.953125 50.089844 23.40625 50.089844 L 19.566406 50.089844 Z M 19.566406 48.714844 "/>
<path style=" stroke:none;fill-rule:nonzero;fill:rgb(0%,0%,0%);fill-opacity:1;" d="M 79 51.914062 L 82.488281 51.914062 C 83.03125 51.914062 83.464844 51.628906 83.464844 51.003906 C 83.464844 50.378906 83.03125 50.089844 82.488281 50.089844 L 79 50.089844 L 79 48.714844 L 82.648438 48.714844 C 83.191406 48.714844 83.625 48.425781 83.625 47.804688 C 83.625 47.179688 83.191406 46.890625 82.648438 46.890625 L 77.765625 46.890625 C 77.222656 46.890625 76.886719 47.371094 76.886719 47.980469 L 76.886719 56.699219 C 76.886719 57.46875 77.160156 57.949219 77.945312 57.949219 C 78.726562 57.949219 79 57.46875 79 56.699219 Z M 79 51.914062 "/>
<path style="fill:none;stroke-width:2;stroke-linecap:butt;stroke-linejoin:miter;stroke:rgb(0%,0%,0%);stroke-opacity:1;stroke-miterlimit:10;" d="M 1 17.667969 C 1 8.460938 8.460938 1 17.667969 1 L 82.332031 1 C 91.539062 1 99 8.460938 99 17.667969 L 99 132.332031 C 99 141.539062 91.539062 149 82.332031 149 L 17.667969 149 C 8.460938 149 1 141.539062 1 132.332031 L 1 17.667969 "/>
<path style=" stroke:none;fill-rule:nonzero;fill:rgb(0%,0%,0%);fill-opacity:1;" d="M 8.332031 14.617188 C 8.332031 15.007812 8.535156 15.304688 8.957031 15.304688 C 9.394531 15.304688 9.597656 15.007812 9.597656 14.617188 L 9.597656 12.554688 C 12.097656 11.867188 13.191406 11.117188 13.191406 9.820312 C 13.191406 8.976562 12.660156 8.398438 11.613281 8.398438 L 8.957031 8.398438 C 8.535156 8.398438 8.332031 8.617188 8.332031 8.929688 Z M 9.597656 9.476562 L 11.050781 9.476562 C 11.800781 9.476562 11.941406 9.632812 11.941406 9.898438 C 11.941406 10.507812 10.253906 11.210938 9.597656 11.351562 Z M 17.90625 11.898438 C 17.90625 10.664062 17.28125 10.195312 16.21875 10.195312 L 14.46875 10.195312 C 14.140625 10.195312 13.890625 10.367188 13.890625 10.726562 C 13.890625 11.101562 14.140625 11.273438 14.46875 11.273438 L 16.296875 11.273438 C 16.578125 11.273438 16.703125 11.414062 16.703125 11.929688 L 16.28125 11.929688 C 15.109375 11.929688 13.5 12.320312 13.5 13.757812 C 13.5 14.710938 14.25 15.335938 15.25 15.335938 C 15.9375 15.335938 16.484375 15.148438 16.796875 14.757812 C 16.828125 15.132812 16.984375 15.335938 17.3125 15.335938 C 17.75 15.335938 17.90625 15.085938 17.90625 14.679688 Z M 16.765625 13.460938 C 16.765625 14.039062 16.1875 14.367188 15.625 14.367188 C 15.015625 14.367188 14.703125 14.101562 14.703125 13.695312 C 14.703125 13.226562 15.375 12.820312 16.765625 12.820312 Z M 19.375 14.648438 C 19.375 15.007812 19.5625 15.304688 19.96875 15.304688 C 20.390625 15.304688 20.578125 15.007812 20.578125 14.648438 L 20.578125 12.617188 C 20.578125 11.679688 21.015625 11.210938 21.703125 11.210938 C 22.234375 11.210938 22.5 11.554688 22.5 12.257812 L 22.5 14.648438 C 22.5 15.007812 22.703125 15.304688 23.109375 15.304688 C 23.515625 15.304688 23.703125 15.007812 23.703125 14.648438 L 23.703125 11.929688 C 23.703125 10.914062 23 10.132812 21.921875 10.132812 C 21.375 10.132812 20.96875 10.289062 20.578125 10.679688 C 20.578125 10.429688 20.390625 10.132812 19.96875 10.132812 C 19.5625 10.132812 19.375 10.429688 19.375 10.789062 Z M 24.933594 14.648438 C 24.933594 15.007812 25.121094 15.304688 25.527344 15.304688 C 25.949219 15.304688 26.136719 15.007812 26.136719 14.648438 L 26.136719 12.617188 C 26.136719 11.679688 26.574219 11.210938 27.261719 11.210938 C 27.792969 11.210938 28.058594 11.554688 28.058594 12.257812 L 28.058594 14.648438 C 28.058594 15.007812 28.261719 15.304688 28.667969 15.304688 C 29.074219 15.304688 29.261719 15.007812 29.261719 14.648438 L 29.261719 11.929688 C 29.261719 10.914062 28.558594 10.132812 27.480469 10.132812 C 26.933594 10.132812 26.527344 10.289062 26.136719 10.679688 C 26.136719 10.429688 25.949219 10.132812 25.527344 10.132812 C 25.121094 10.132812 24.933594 10.429688 24.933594 10.789062 Z M 34.460938 15.273438 C 34.789062 15.273438 35.039062 15.101562 35.039062 14.726562 C 35.039062 14.367188 34.789062 14.195312 34.460938 14.195312 L 33.179688 14.195312 C 32.335938 14.195312 31.617188 13.945312 31.539062 13.007812 L 34.601562 13.007812 C 35.023438 13.007812 35.085938 12.757812 35.085938 12.414062 C 35.085938 11.242188 34.398438 10.132812 32.726562 10.132812 C 31.195312 10.132812 30.226562 11.304688 30.226562 12.804688 C 30.226562 14.289062 31.226562 15.273438 33.007812 15.273438 Z M 31.617188 12.101562 C 31.757812 11.507812 32.257812 11.132812 32.726562 11.132812 C 33.195312 11.132812 33.695312 11.507812 33.835938 12.101562 Z M 39.152344 14.539062 C 39.152344 15.117188 39.402344 15.273438 40.042969 15.273438 L 42.136719 15.273438 C 43.839844 15.273438 44.808594 13.914062 44.808594 12.398438 C 44.808594 10.867188 43.761719 8.398438 40.027344 8.398438 C 39.402344 8.398438 39.152344 8.679688 39.152344 9.179688 Z M 40.417969 9.585938 C 42.058594 9.585938 43.386719 10.867188 43.386719 12.492188 C 43.386719 13.570312 42.871094 14.070312 41.386719 14.070312 L 40.417969 14.070312 Z M 45.757812 10.570312 C 45.757812 10.882812 45.914062 11.132812 46.273438 11.132812 C 46.632812 11.132812 46.789062 10.882812 46.789062 10.570312 L 46.789062 8.882812 C 46.789062 8.585938 46.632812 8.335938 46.273438 8.335938 C 45.914062 8.335938 45.757812 8.585938 45.757812 8.882812 Z M 49.398438 9.539062 L 51.898438 9.539062 C 52.226562 9.539062 52.507812 9.351562 52.507812 8.960938 C 52.507812 8.570312 52.226562 8.398438 51.898438 8.398438 L 48.617188 8.398438 C 48.289062 8.398438 48.070312 8.695312 48.070312 9.070312 L 48.070312 14.414062 C 48.070312 14.929688 48.289062 15.273438 48.945312 15.273438 L 51.898438 15.273438 C 52.226562 15.273438 52.507812 15.085938 52.507812 14.710938 C 52.507812 14.320312 52.226562 14.132812 51.898438 14.132812 L 49.398438 14.132812 L 49.398438 11.539062 L 51.789062 11.539062 C 52.132812 11.539062 52.398438 11.351562 52.398438 10.960938 C 52.398438 10.570312 52.132812 10.398438 51.789062 10.398438 L 49.398438 10.398438 Z M 55.695312 15.273438 C 56.820312 15.273438 57.664062 14.757812 57.664062 13.554688 C 57.664062 11.445312 54.507812 12.210938 54.507812 11.523438 C 54.507812 11.289062 54.757812 11.273438 54.945312 11.273438 L 56.695312 11.273438 C 57.007812 11.273438 57.273438 11.101562 57.273438 10.726562 C 57.273438 10.367188 57.007812 10.195312 56.695312 10.195312 L 55.007812 10.195312 C 53.914062 10.195312 53.320312 10.601562 53.320312 11.507812 C 53.320312 13.601562 56.460938 12.507812 56.460938 13.539062 C 56.460938 14.085938 56.085938 14.195312 55.601562 14.195312 L 53.804688 14.195312 C 53.476562 14.195312 53.210938 14.367188 53.210938 14.726562 C 53.210938 15.101562 53.476562 15.273438 53.804688 15.273438 Z M 60.695312 15.273438 C 61.820312 15.273438 62.664062 14.757812 62.664062 13.554688 C 62.664062 11.445312 59.507812 12.210938 59.507812 11.523438 C 59.507812 11.289062 59.757812 11.273438 59.945312 11.273438 L 61.695312 11.273438 C 62.007812 11.273438 62.273438 11.101562 62.273438 10.726562 C 62.273438 10.367188 62.007812 10.195312 61.695312 10.195312 L 60.007812 10.195312 C 58.914062 10.195312 58.320312 10.601562 58.320312 11.507812 C 58.320312 13.601562 61.460938 12.507812 61.460938 13.539062 C 61.460938 14.085938 61.085938 14.195312 60.601562 14.195312 L 58.804688 14.195312 C 58.476562 14.195312 58.210938 14.367188 58.210938 14.726562 C 58.210938 15.101562 58.476562 15.273438 58.804688 15.273438 Z M 67.523438 15.273438 C 67.851562 15.273438 68.101562 15.101562 68.101562 14.726562 C 68.101562 14.367188 67.851562 14.195312 67.523438 14.195312 L 66.242188 14.195312 C 65.398438 14.195312 64.679688 13.945312 64.601562 13.007812 L 67.664062 13.007812 C 68.085938 13.007812 68.148438 12.757812 68.148438 12.414062 C 68.148438 11.242188 67.460938 10.132812 65.789062 10.132812 C 64.257812 10.132812 63.289062 11.304688 63.289062 12.804688 C 63.289062 14.289062 64.289062 15.273438 66.070312 15.273438 Z M 64.679688 12.101562 C 64.820312 11.507812 65.320312 11.132812 65.789062 11.132812 C 66.257812 11.132812 66.757812 11.507812 66.898438 12.101562 Z M 69.113281 14.648438 C 69.113281 15.007812 69.300781 15.304688 69.707031 15.304688 C 70.128906 15.304688 70.316406 15.007812 70.316406 14.648438 L 70.316406 12.617188 C 70.316406 11.679688 70.753906 11.210938 71.441406 11.210938 C 71.972656 11.210938 72.238281 11.554688 72.238281 12.257812 L 72.238281 14.648438 C 72.238281 15.007812 72.441406 15.304688 72.847656 15.304688 C 73.253906 15.304688 73.441406 15.007812 73.441406 14.648438 L 73.441406 11.929688 C 73.441406 10.914062 72.738281 10.132812 71.660156 10.132812 C 71.113281 10.132812 70.707031 10.289062 70.316406 10.679688 C 70.316406 10.429688 70.128906 10.132812 69.707031 10.132812 C 69.300781 10.132812 69.113281 10.429688 69.113281 10.789062 Z M 76.550781 10.195312 C 75.222656 10.195312 74.378906 11.195312 74.378906 12.382812 C 74.378906 13.726562 75.425781 15.273438 77.847656 15.273438 C 78.785156 15.273438 79.050781 15.101562 79.050781 14.710938 C 79.050781 14.257812 78.847656 14.132812 78.019531 14.132812 C 76.675781 14.132812 75.707031 13.554688 75.707031 12.351562 C 75.707031 11.835938 76.082031 11.335938 76.785156 11.335938 L 78.300781 11.335938 C 78.628906 11.335938 78.910156 11.148438 78.910156 10.757812 C 78.910156 10.367188 78.628906 10.195312 78.300781 10.195312 Z M 83.644531 15.273438 C 83.972656 15.273438 84.222656 15.101562 84.222656 14.726562 C 84.222656 14.367188 83.972656 14.195312 83.644531 14.195312 L 82.363281 14.195312 C 81.519531 14.195312 80.800781 13.945312 80.722656 13.007812 L 83.785156 13.007812 C 84.207031 13.007812 84.269531 12.757812 84.269531 12.414062 C 84.269531 11.242188 83.582031 10.132812 81.910156 10.132812 C 80.378906 10.132812 79.410156 11.304688 79.410156 12.804688 C 79.410156 14.289062 80.410156 15.273438 82.191406 15.273438 Z M 80.800781 12.101562 C 80.941406 11.507812 81.441406 11.132812 81.910156 11.132812 C 82.378906 11.132812 82.878906 11.507812 83.019531 12.101562 Z M 84.625 15.273438 "/>
<path style=" stroke:none;fill-rule:nonzero;fill:rgb(0%,0%,0%);fill-opacity:1;" d="M 15.375 140.949219 C 15.375 141.339844 15.578125 141.636719 16 141.636719 C 16.4375 141.636719 16.640625 141.339844 16.640625 140.949219 L 16.640625 138.886719 C 19.140625 138.199219 20.234375 137.449219 20.234375 136.152344 C 20.234375 135.308594 19.703125 134.730469 18.65625 134.730469 L 16 134.730469 C 15.578125 134.730469 15.375 134.949219 15.375 135.261719 Z M 16.640625 135.808594 L 18.09375 135.808594 C 18.84375 135.808594 18.984375 135.964844 18.984375 136.230469 C 18.984375 136.839844 17.296875 137.542969 16.640625 137.683594 Z M 24.949219 138.230469 C 24.949219 136.996094 24.324219 136.527344 23.261719 136.527344 L 21.511719 136.527344 C 21.183594 136.527344 20.933594 136.699219 20.933594 137.058594 C 20.933594 137.433594 21.183594 137.605469 21.511719 137.605469 L 23.339844 137.605469 C 23.621094 137.605469 23.746094 137.746094 23.746094 138.261719 L 23.324219 138.261719 C 22.152344 138.261719 20.542969 138.652344 20.542969 140.089844 C 20.542969 141.042969 21.292969 141.667969 22.292969 141.667969 C 22.980469 141.667969 23.527344 141.480469 23.839844 141.089844 C 23.871094 141.464844 24.027344 141.667969 24.355469 141.667969 C 24.792969 141.667969 24.949219 141.417969 24.949219 141.011719 Z M 23.808594 139.792969 C 23.808594 140.371094 23.230469 140.699219 22.667969 140.699219 C 22.058594 140.699219 21.746094 140.433594 21.746094 140.027344 C 21.746094 139.558594 22.417969 139.152344 23.808594 139.152344 Z M 26.417969 140.980469 C 26.417969 141.339844 26.605469 141.636719 27.011719 141.636719 C 27.433594 141.636719 27.621094 141.339844 27.621094 140.980469 L 27.621094 138.949219 C 27.621094 138.011719 28.058594 137.542969 28.746094 137.542969 C 29.277344 137.542969 29.542969 137.886719 29.542969 138.589844 L 29.542969 140.980469 C 29.542969 141.339844 29.746094 141.636719 30.152344 141.636719 C 30.558594 141.636719 30.746094 141.339844 30.746094 140.980469 L 30.746094 138.261719 C 30.746094 137.246094 30.042969 136.464844 28.964844 136.464844 C 28.417969 136.464844 28.011719 136.621094 27.621094 137.011719 C 27.621094 136.761719 27.433594 136.464844 27.011719 136.464844 C 26.605469 136.464844 26.417969 136.761719 26.417969 137.121094 Z M 31.976562 140.980469 C 31.976562 141.339844 32.164062 141.636719 32.570312 141.636719 C 32.992188 141.636719 33.179688 141.339844 33.179688 140.980469 L 33.179688 138.949219 C 33.179688 138.011719 33.617188 137.542969 34.304688 137.542969 C 34.835938 137.542969 35.101562 137.886719 35.101562 138.589844 L 35.101562 140.980469 C 35.101562 141.339844 35.304688 141.636719 35.710938 141.636719 C 36.117188 141.636719 36.304688 141.339844 36.304688 140.980469 L 36.304688 138.261719 C 36.304688 137.246094 35.601562 136.464844 34.523438 136.464844 C 33.976562 136.464844 33.570312 136.621094 33.179688 137.011719 C 33.179688 136.761719 32.992188 136.464844 32.570312 136.464844 C 32.164062 136.464844 31.976562 136.761719 31.976562 137.121094 Z M 41.503906 141.605469 C 41.832031 141.605469 42.082031 141.433594 42.082031 141.058594 C 42.082031 140.699219 41.832031 140.527344 41.503906 140.527344 L 40.222656 140.527344 C 39.378906 140.527344 38.660156 140.277344 38.582031 139.339844 L 41.644531 139.339844 C 42.066406 139.339844 42.128906 139.089844 42.128906 138.746094 C 42.128906 137.574219 41.441406 136.464844 39.769531 136.464844 C 38.238281 136.464844 37.269531 137.636719 37.269531 139.136719 C 37.269531 140.621094 38.269531 141.605469 40.050781 141.605469 Z M 38.660156 138.433594 C 38.800781 137.839844 39.300781 137.464844 39.769531 137.464844 C 40.238281 137.464844 40.738281 137.839844 40.878906 138.433594 Z M 46.195312 140.871094 C 46.195312 141.449219 46.445312 141.605469 47.085938 141.605469 L 49.179688 141.605469 C 50.882812 141.605469 51.851562 140.246094 51.851562 138.730469 C 51.851562 137.199219 50.804688 134.730469 47.070312 134.730469 C 46.445312 134.730469 46.195312 135.011719 46.195312 135.511719 Z M 47.460938 135.917969 C 49.101562 135.917969 50.429688 137.199219 50.429688 138.824219 C 50.429688 139.902344 49.914062 140.402344 48.429688 140.402344 L 47.460938 140.402344 Z M 52.800781 136.902344 C 52.800781 137.214844 52.957031 137.464844 53.316406 137.464844 C 53.675781 137.464844 53.832031 137.214844 53.832031 136.902344 L 53.832031 135.214844 C 53.832031 134.917969 53.675781 134.667969 53.316406 134.667969 C 52.957031 134.667969 52.800781 134.917969 52.800781 135.214844 Z M 56.441406 135.871094 L 58.941406 135.871094 C 59.269531 135.871094 59.550781 135.683594 59.550781 135.292969 C 59.550781 134.902344 59.269531 134.730469 58.941406 134.730469 L 55.660156 134.730469 C 55.332031 134.730469 55.113281 135.027344 55.113281 135.402344 L 55.113281 140.746094 C 55.113281 141.261719 55.332031 141.605469 55.988281 141.605469 L 58.941406 141.605469 C 59.269531 141.605469 59.550781 141.417969 59.550781 141.042969 C 59.550781 140.652344 59.269531 140.464844 58.941406 140.464844 L 56.441406 140.464844 L 56.441406 137.871094 L 58.832031 137.871094 C 59.175781 137.871094 59.441406 137.683594 59.441406 137.292969 C 59.441406 136.902344 59.175781 136.730469 58.832031 136.730469 L 56.441406 136.730469 Z M 62.738281 141.605469 C 63.863281 141.605469 64.707031 141.089844 64.707031 139.886719 C 64.707031 137.777344 61.550781 138.542969 61.550781 137.855469 C 61.550781 137.621094 61.800781 137.605469 61.988281 137.605469 L 63.738281 137.605469 C 64.050781 137.605469 64.316406 137.433594 64.316406 137.058594 C 64.316406 136.699219 64.050781 136.527344 63.738281 136.527344 L 62.050781 136.527344 C 60.957031 136.527344 60.363281 136.933594 60.363281 137.839844 C 60.363281 139.933594 63.503906 138.839844 63.503906 139.871094 C 63.503906 140.417969 63.128906 140.527344 62.644531 140.527344 L 60.847656 140.527344 C 60.519531 140.527344 60.253906 140.699219 60.253906 141.058594 C 60.253906 141.433594 60.519531 141.605469 60.847656 141.605469 Z M 67.738281 141.605469 C 68.863281 141.605469 69.707031 141.089844 69.707031 139.886719 C 69.707031 137.777344 66.550781 138.542969 66.550781 137.855469 C 66.550781 137.621094 66.800781 137.605469 66.988281 137.605469 L 68.738281 137.605469 C 69.050781 137.605469 69.316406 137.433594 69.316406 137.058594 C 69.316406 136.699219 69.050781 136.527344 68.738281 136.527344 L 67.050781 136.527344 C 65.957031 136.527344 65.363281 136.933594 65.363281 137.839844 C 65.363281 139.933594 68.503906 138.839844 68.503906 139.871094 C 68.503906 140.417969 68.128906 140.527344 67.644531 140.527344 L 65.847656 140.527344 C 65.519531 140.527344 65.253906 140.699219 65.253906 141.058594 C 65.253906 141.433594 65.519531 141.605469 65.847656 141.605469 Z M 74.566406 141.605469 C 74.894531 141.605469 75.144531 141.433594 75.144531 141.058594 C 75.144531 140.699219 74.894531 140.527344 74.566406 140.527344 L 73.285156 140.527344 C 72.441406 140.527344 71.722656 140.277344 71.644531 139.339844 L 74.707031 139.339844 C 75.128906 139.339844 75.191406 139.089844 75.191406 138.746094 C 75.191406 137.574219 74.503906 136.464844 72.832031 136.464844 C 71.300781 136.464844 70.332031 137.636719 70.332031 139.136719 C 70.332031 140.621094 71.332031 141.605469 73.113281 141.605469 Z M 71.722656 138.433594 C 71.863281 137.839844 72.363281 137.464844 72.832031 137.464844 C 73.300781 137.464844 73.800781 137.839844 73.941406 138.433594 Z M 76.15625 140.980469 C 76.15625 141.339844 76.34375 141.636719 76.75 141.636719 C 77.171875 141.636719 77.359375 141.339844 77.359375 140.980469 L 77.359375 138.949219 C 77.359375 138.011719 77.796875 137.542969 78.484375 137.542969 C 79.015625 137.542969 79.28125 137.886719 79.28125 138.589844 L 79.28125 140.980469 C 79.28125 141.339844 79.484375 141.636719 79.890625 141.636719 C 80.296875 141.636719 80.484375 141.339844 80.484375 140.980469 L 80.484375 138.261719 C 80.484375 137.246094 79.78125 136.464844 78.703125 136.464844 C 78.15625 136.464844 77.75 136.621094 77.359375 137.011719 C 77.359375 136.761719 77.171875 136.464844 76.75 136.464844 C 76.34375 136.464844 76.15625 136.761719 76.15625 137.121094 Z M 83.59375 136.527344 C 82.265625 136.527344 81.421875 137.527344 81.421875 138.714844 C 81.421875 140.058594 82.46875 141.605469 84.890625 141.605469 C 85.828125 141.605469 86.09375 141.433594 86.09375 141.042969 C 86.09375 140.589844 85.890625 140.464844 85.0625 140.464844 C 83.71875 140.464844 82.75 139.886719 82.75 138.683594 C 82.75 138.167969 83.125 137.667969 83.828125 137.667969 L 85.34375 137.667969 C 85.671875 137.667969 85.953125 137.480469 85.953125 137.089844 C 85.953125 136.699219 85.671875 136.527344 85.34375 136.527344 Z M 90.6875 141.605469 C 91.015625 141.605469 91.265625 141.433594 91.265625 141.058594 C 91.265625 140.699219 91.015625 140.527344 90.6875 140.527344 L 89.40625 140.527344 C 88.5625 140.527344 87.84375 140.277344 87.765625 139.339844 L 90.828125 139.339844 C 91.25 139.339844 91.3125 139.089844 91.3125 138.746094 C 91.3125 137.574219 90.625 136.464844 88.953125 136.464844 C 87.421875 136.464844 86.453125 137.636719 86.453125 139.136719 C 86.453125 140.621094 87.453125 141.605469 89.234375 141.605469 Z M 87.84375 138.433594 C 87.984375 137.839844 88.484375 137.464844 88.953125 137.464844 C 89.421875 137.464844 89.921875 137.839844 90.0625 138.433594 Z M 91.667969 141.605469 "/>
</g>
</svg>
