<?xml version="1.0" encoding="UTF-8"?>
<svg xmlns="http://www.w3.org/2000/svg" xmlns:xlink="http://www.w3.org/1999/xlink" width="100pt" height="150pt" viewBox="0 0 100 150" version="1.1">
<g id="surface52">
<path style=" stroke:none;fill-rule:nonzero;fill:rgb(100%,100%,100%);fill-opacity:1;" d="M 1 17.667969 C 1 8.460938 8.460938 1 17.667969 1 L 82.332031 1 C 91.539062 1 99 8.460938 99 17.667969 L 99 132.332031 C 99 141.539062 91.539062 149 82.332031 149 L 17.667969 149 C 8.460938 149 1 141.539062 1 132.332031 L 1 17.667969 "/>
<path style=" stroke:none;fill-rule:nonzero;fill:rgb(99.607843%,99.607843%,99.607843%);fill-opacity:1;" d="M 5 75 L 5 20 L 95 20 L 95 130 L 5 130 Z M 34.820312 87.25 C 35.078125 85.417969 35.773438 85 38.570312 85 C 41.5625 85 42 85.320312 42 87.5 C 42 89.945312 42.167969 90 49.5 90 C 56.832031 90 57 89.945312 57 87.5 C 57 85.105469 57.257812 85 63.117188 85 C 69.101562 85 69.222656 85.054688 68.753906 87.5 C 68.386719 89.429688 68.695312 90 70.105469 90 C 71.4375 90 71.753906 89.523438 71.265625 88.253906 C 70.640625 86.625 70.785156 86.628906 73.386719 88.332031 C 74.917969 89.335938 76.410156 89.921875 76.699219 89.632812 C 76.988281 89.34375 75.710938 88.183594 73.863281 87.058594 C 72.011719 85.929688 71.0625 85.003906 71.75 85.003906 C 72.4375 85 73 84.101562 73 83 C 73 81.054688 72.332031 81 48.5 81 C 24.667969 81 24 81.054688 24 83 C 24 84.332031 24.667969 85 26 85 C 27.273438 85 28 85.667969 28 86.832031 C 28 89.382812 29.011719 90.140625 31.960938 89.796875 C 33.71875 89.589844 34.597656 88.804688 34.820312 87.25 Z M 30.15625 87 C 30.15625 85.625 30.386719 85.0625 30.664062 85.75 C 30.941406 86.4375 30.941406 87.5625 30.664062 88.25 C 30.386719 88.9375 30.15625 88.375 30.15625 87 Z M 32.15625 87 C 32.15625 85.625 32.386719 85.0625 32.664062 85.75 C 32.941406 86.4375 32.941406 87.5625 32.664062 88.25 C 32.386719 88.9375 32.15625 88.375 32.15625 87 Z M 25 82.859375 C 25 82.386719 35.574219 82 48.5 82 C 61.425781 82 72 82.371094 72 82.820312 C 72 83.273438 61.425781 83.660156 48.5 83.679688 C 35.574219 83.703125 25 83.332031 25 82.859375 Z M 94 88.183594 C 94.007812 86.433594 91.675781 84.1875 90.367188 84.6875 C 89.007812 85.210938 88.941406 84.980469 89.917969 83.152344 C 90.550781 81.96875 91.503906 81 92.035156 81 C 93.535156 81 93.191406 79.023438 90.855469 74.199219 C 89.671875 71.761719 88.660156 68.179688 88.605469 66.242188 C 88.480469 62.027344 86.015625 59.910156 83.582031 61.929688 C 81.757812 63.445312 81.492188 67.09375 83.09375 68.691406 C 83.867188 69.46875 83.878906 70.359375 83.128906 71.761719 C 82.546875 72.847656 82.355469 74.019531 82.703125 74.367188 C 83.050781 74.714844 82.855469 75 82.273438 75 C 81.691406 75 80.949219 74.308594 80.625 73.464844 C 80.097656 72.089844 79.726562 72.089844 77.019531 73.492188 C 75.359375 74.347656 74 75.277344 74 75.554688 C 74 75.832031 75.347656 78.730469 77 81.996094 C 79.144531 86.25 80.425781 87.773438 81.5 87.363281 C 82.324219 87.046875 83 87.230469 83 87.773438 C 83 88.316406 85.460938 88.703125 88.5 88.628906 C 91.523438 88.558594 93.996094 88.359375 94 88.183594 Z M 84 87.5625 C 84 86.152344 88.480469 78.753906 89.589844 78.328125 C 91.78125 77.484375 92.757812 78.96875 90.910156 80.332031 C 90.039062 80.972656 88.753906 82.574219 88.054688 83.886719 C 86.851562 86.148438 86.921875 86.25 89.339844 85.785156 C 90.75 85.515625 92.085938 85.792969 92.316406 86.398438 C 92.574219 87.085938 91.089844 87.546875 88.367188 87.625 C 85.964844 87.691406 84 87.664062 84 87.5625 Z M 78.949219 80.902344 C 77.800781 78.648438 77.03125 76.632812 77.242188 76.425781 C 77.453125 76.214844 78.601562 78.058594 79.796875 80.523438 C 82.523438 86.132812 81.785156 86.460938 78.949219 80.902344 Z M 80.949219 79.902344 C 79.800781 77.648438 79.03125 75.632812 79.242188 75.425781 C 79.453125 75.214844 80.601562 77.058594 81.796875 79.523438 C 84.523438 85.132812 83.785156 85.460938 80.949219 79.902344 Z M 84.5 81 C 84.160156 80.449219 84.359375 80 84.941406 80 C 85.523438 80 86 80.449219 86 81 C 86 81.550781 85.800781 82 85.558594 82 C 85.316406 82 84.839844 81.550781 84.5 81 Z M 84.035156 67.566406 C 83.320312 66.230469 83.03125 64.359375 83.394531 63.410156 C 84.011719 61.808594 84.183594 61.820312 85.820312 63.59375 C 87.777344 65.707031 88.203125 70 86.453125 70 C 85.839844 70 84.753906 68.90625 84.035156 67.566406 Z M 72.832031 74.5 C 73.253906 68.203125 71.464844 59.894531 68.363281 53.75 L 65.964844 49 L 32.039062 49 L 29.867188 53.25 C 28.671875 55.585938 27.09375 59.75 26.359375 62.5 C 24.945312 67.785156 24.53125 78.195312 25.683594 79.351562 C 26.0625 79.726562 36.75 79.914062 49.433594 79.769531 L 72.5 79.5 Z M 29.570312 75.429688 C 28.707031 74.5625 28 73.246094 28 72.5 C 28 70.75 30.75 68 32.5 68 C 34.25 68 37 70.75 37 72.5 C 37 74.25 34.25 77 32.5 77 C 31.753906 77 30.4375 76.292969 29.570312 75.429688 Z M 33.398438 74.167969 C 33.679688 73.707031 33.277344 73.332031 32.5 73.332031 C 31.722656 73.332031 31.320312 73.707031 31.601562 74.167969 C 31.886719 74.625 32.289062 75 32.5 75 C 32.710938 75 33.113281 74.625 33.398438 74.167969 Z M 34.269531 71.34375 C 33.59375 71.070312 32.242188 71.054688 31.269531 71.308594 C 30.296875 71.5625 30.851562 71.785156 32.5 71.804688 C 34.148438 71.824219 34.945312 71.617188 34.269531 71.34375 Z M 62.570312 75.429688 C 61.707031 74.5625 61 73.246094 61 72.5 C 61 71.753906 61.707031 70.4375 62.570312 69.570312 C 63.4375 68.707031 64.753906 68 65.5 68 C 67.25 68 70 70.75 70 72.5 C 70 74.25 67.25 77 65.5 77 C 64.753906 77 63.4375 76.292969 62.570312 75.429688 Z M 66.398438 74.167969 C 66.679688 73.707031 66.277344 73.332031 65.5 73.332031 C 64.722656 73.332031 64.320312 73.707031 64.601562 74.167969 C 64.886719 74.625 65.289062 75 65.5 75 C 65.710938 75 66.113281 74.625 66.398438 74.167969 Z M 67.269531 71.34375 C 66.59375 71.070312 65.242188 71.054688 64.269531 71.308594 C 63.296875 71.5625 63.851562 71.785156 65.5 71.804688 C 67.148438 71.824219 67.945312 71.617188 67.269531 71.34375 Z M 28 59.527344 C 28 59.265625 28.988281 57.015625 30.199219 54.527344 L 32.398438 50 L 65.601562 50 L 67.800781 54.527344 C 69.011719 57.015625 70 59.265625 70 59.527344 C 70 60.5625 63.320312 59.921875 62.175781 58.773438 C 61.207031 57.808594 60.535156 57.808594 58.988281 58.773438 C 57.105469 59.949219 28 60.65625 28 59.527344 Z M 59.8125 59.316406 C 60.535156 59.027344 61.398438 59.0625 61.730469 59.394531 C 62.0625 59.726562 61.472656 59.964844 60.417969 59.921875 C 59.25 59.875 59.015625 59.636719 59.8125 59.316406 Z M 59.8125 59.316406 "/>
<path style=" stroke:none;fill-rule:nonzero;fill:rgb(0%,99.607843%,0%);fill-opacity:1;" d="M 43 86.5 C 43 84.089844 43.234375 84 49.5 84 C 55.765625 84 56 84.089844 56 86.5 C 56 88.910156 55.765625 89 49.5 89 C 43.234375 89 43 88.910156 43 86.5 Z M 46.445312 85.914062 C 46.125 85.394531 45.4375 85.230469 44.914062 85.554688 C 44.394531 85.875 44.230469 86.5625 44.554688 87.085938 C 44.875 87.605469 45.5625 87.769531 46.085938 87.445312 C 46.605469 87.125 46.769531 86.4375 46.445312 85.914062 Z M 50.445312 85.914062 C 50.125 85.394531 49.4375 85.230469 48.914062 85.554688 C 48.394531 85.875 48.230469 86.5625 48.554688 87.085938 C 48.875 87.605469 49.5625 87.769531 50.085938 87.445312 C 50.605469 87.125 50.769531 86.4375 50.445312 85.914062 Z M 54.445312 85.914062 C 54.125 85.394531 53.4375 85.230469 52.914062 85.554688 C 52.394531 85.875 52.230469 86.5625 52.554688 87.085938 C 52.875 87.605469 53.5625 87.769531 54.085938 87.445312 C 54.605469 87.125 54.769531 86.4375 54.445312 85.914062 Z M 84 78.832031 C 84 78.191406 84.269531 77.9375 84.601562 78.269531 C 84.933594 78.601562 86.269531 77.664062 87.570312 76.1875 C 89.417969 74.089844 89.945312 73.871094 89.96875 75.191406 C 89.984375 76.125 89 77.585938 87.777344 78.441406 C 85.128906 80.300781 84 80.414062 84 78.832031 Z M 26 72.5 L 26 66 L 72 66 L 72 79 L 26 79 Z M 36 76 C 37.101562 74.898438 38 73.324219 38 72.5 C 38 70.5625 34.4375 67 32.5 67 C 30.5625 67 27 70.5625 27 72.5 C 27 74.4375 30.5625 78 32.5 78 C 33.324219 78 34.898438 77.101562 36 76 Z M 69 76 C 70.101562 74.898438 71 73.324219 71 72.5 C 71 71.675781 70.101562 70.101562 69 69 C 67.898438 67.898438 66.324219 67 65.5 67 C 64.675781 67 63.101562 67.898438 62 69 C 60.898438 70.101562 60 71.675781 60 72.5 C 60 73.324219 60.898438 74.898438 62 76 C 63.101562 77.101562 64.675781 78 65.5 78 C 66.324219 78 67.898438 77.101562 69 76 Z M 56.078125 74.25 C 57.207031 72.761719 57.195312 72.6875 56 73.75 C 55.230469 74.4375 52.078125 75 49 75 C 45.921875 75 42.769531 74.4375 42 73.75 C 40.804688 72.6875 40.792969 72.761719 41.921875 74.25 C 42.914062 75.5625 44.691406 76 49 76 C 53.308594 76 55.085938 75.5625 56.078125 74.25 Z M 53.25 71.269531 C 50.914062 71.058594 47.085938 71.058594 44.75 71.269531 C 42.414062 71.476562 44.324219 71.652344 49 71.652344 C 53.675781 71.652344 55.585938 71.476562 53.25 71.269531 Z M 53.25 69.269531 C 50.914062 69.058594 47.085938 69.058594 44.75 69.269531 C 42.414062 69.476562 44.324219 69.652344 49 69.652344 C 53.675781 69.652344 55.585938 69.476562 53.25 69.269531 Z M 85.632812 75 C 86.238281 74.175781 86.933594 72.847656 87.183594 72.050781 C 87.472656 71.121094 87.871094 70.980469 88.292969 71.664062 C 88.65625 72.253906 87.957031 73.582031 86.742188 74.617188 C 85.527344 75.652344 85.027344 75.824219 85.632812 75 Z M 84 72.617188 C 84 71.792969 84.449219 70.839844 85 70.5 C 85.550781 70.160156 86 70.558594 86 71.382812 C 86 72.207031 85.550781 73.160156 85 73.5 C 84.449219 73.839844 84 73.441406 84 72.617188 Z M 27.394531 63.417969 C 27.726562 62.546875 28 61.648438 28 61.417969 C 28 61.1875 37.402344 61 48.894531 61 C 67.023438 61 69.867188 61.210938 70.394531 62.582031 C 70.726562 63.453125 71 64.351562 71 64.582031 C 71 64.8125 61.050781 65 48.894531 65 C 29.144531 65 26.851562 64.832031 27.394531 63.417969 Z M 27.394531 63.417969 "/>
<path style=" stroke:none;fill-rule:nonzero;fill:rgb(0%,0%,0%);fill-opacity:1;" d="M 28.710938 89.378906 C 28.320312 88.988281 28 87.839844 28 86.832031 C 28 85.667969 27.273438 85 26 85 C 24.667969 85 24 84.332031 24 83 C 24 81.054688 24.667969 81 48.5 81 C 72.332031 81 73 81.054688 73 83 C 73 84.101562 72.4375 85 71.75 85.003906 C 71.0625 85.003906 72.011719 85.929688 73.863281 87.058594 C 75.710938 88.183594 76.988281 89.34375 76.699219 89.632812 C 76.410156 89.921875 74.917969 89.335938 73.386719 88.332031 C 70.785156 86.628906 70.640625 86.625 71.265625 88.253906 C 71.753906 89.523438 71.4375 90 70.105469 90 C 68.695312 90 68.386719 89.429688 68.753906 87.5 C 69.222656 85.054688 69.101562 85 63.117188 85 C 57.257812 85 57 85.105469 57 87.5 C 57 89.945312 56.832031 90 49.5 90 C 42.167969 90 42 89.945312 42 87.5 C 42 85.320312 41.5625 85 38.570312 85 C 35.773438 85 35.078125 85.417969 34.820312 87.25 C 34.597656 88.804688 33.71875 89.589844 31.960938 89.796875 C 30.566406 89.957031 29.105469 89.769531 28.710938 89.378906 Z M 30.664062 85.75 C 30.386719 85.0625 30.15625 85.625 30.15625 87 C 30.15625 88.375 30.386719 88.9375 30.664062 88.25 C 30.941406 87.5625 30.941406 86.4375 30.664062 85.75 Z M 32.664062 85.75 C 32.386719 85.0625 32.15625 85.625 32.15625 87 C 32.15625 88.375 32.386719 88.9375 32.664062 88.25 C 32.941406 87.5625 32.941406 86.4375 32.664062 85.75 Z M 56 86.5 C 56 84.089844 55.765625 84 49.5 84 C 43.234375 84 43 84.089844 43 86.5 C 43 88.910156 43.234375 89 49.5 89 C 55.765625 89 56 88.910156 56 86.5 Z M 44.554688 87.085938 C 44.230469 86.5625 44.394531 85.875 44.914062 85.554688 C 45.4375 85.230469 46.125 85.394531 46.445312 85.914062 C 46.769531 86.4375 46.605469 87.125 46.085938 87.445312 C 45.5625 87.769531 44.875 87.605469 44.554688 87.085938 Z M 48.554688 87.085938 C 48.230469 86.5625 48.394531 85.875 48.914062 85.554688 C 49.4375 85.230469 50.125 85.394531 50.445312 85.914062 C 50.769531 86.4375 50.605469 87.125 50.085938 87.445312 C 49.5625 87.769531 48.875 87.605469 48.554688 87.085938 Z M 52.554688 87.085938 C 52.230469 86.5625 52.394531 85.875 52.914062 85.554688 C 53.4375 85.230469 54.125 85.394531 54.445312 85.914062 C 54.769531 86.4375 54.605469 87.125 54.085938 87.445312 C 53.5625 87.769531 52.875 87.605469 52.554688 87.085938 Z M 72 82.820312 C 72 82.371094 61.425781 82 48.5 82 C 35.574219 82 25 82.386719 25 82.859375 C 25 83.332031 35.574219 83.703125 48.5 83.679688 C 61.425781 83.660156 72 83.273438 72 82.820312 Z M 83 87.773438 C 83 87.230469 82.324219 87.046875 81.5 87.363281 C 80.425781 87.773438 79.144531 86.25 77 81.996094 C 75.347656 78.730469 74 75.832031 74 75.554688 C 74 75.277344 75.359375 74.347656 77.019531 73.492188 C 79.726562 72.089844 80.097656 72.089844 80.625 73.464844 C 80.949219 74.308594 81.691406 75 82.273438 75 C 82.855469 75 83.050781 74.714844 82.703125 74.367188 C 82.355469 74.019531 82.546875 72.847656 83.128906 71.761719 C 83.878906 70.359375 83.867188 69.46875 83.09375 68.691406 C 81.492188 67.09375 81.757812 63.445312 83.582031 61.929688 C 86.015625 59.910156 88.480469 62.027344 88.605469 66.242188 C 88.660156 68.179688 89.671875 71.761719 90.855469 74.199219 C 93.191406 79.023438 93.535156 81 92.035156 81 C 91.503906 81 90.550781 81.96875 89.917969 83.152344 C 88.941406 84.980469 89.007812 85.210938 90.367188 84.6875 C 91.675781 84.1875 94.007812 86.433594 94 88.183594 C 93.996094 88.359375 91.523438 88.558594 88.5 88.628906 C 85.460938 88.703125 83 88.316406 83 87.773438 Z M 92.316406 86.398438 C 92.085938 85.792969 90.75 85.515625 89.339844 85.785156 C 86.921875 86.25 86.851562 86.148438 88.054688 83.886719 C 88.753906 82.574219 90.039062 80.972656 90.910156 80.332031 C 92.757812 78.96875 91.78125 77.484375 89.589844 78.328125 C 88.480469 78.753906 84 86.152344 84 87.5625 C 84 87.664062 85.964844 87.691406 88.367188 87.625 C 91.089844 87.546875 92.574219 87.085938 92.316406 86.398438 Z M 79.796875 80.523438 C 78.601562 78.058594 77.453125 76.214844 77.242188 76.425781 C 76.789062 76.878906 80.828125 85 81.507812 85 C 81.765625 85 80.996094 82.984375 79.796875 80.523438 Z M 81.796875 79.523438 C 80.601562 77.058594 79.453125 75.214844 79.242188 75.425781 C 78.789062 75.878906 82.828125 84 83.507812 84 C 83.765625 84 82.996094 81.984375 81.796875 79.523438 Z M 85.113281 78.710938 C 84.296875 77.894531 84 78.007812 84 79.132812 C 84 81.121094 85.34375 82.464844 85.839844 80.976562 C 86.050781 80.34375 85.722656 79.324219 85.113281 78.710938 Z M 88.800781 77.800781 C 89.460938 77.140625 90 75.945312 90 75.144531 C 90 73.988281 89.585938 74.0625 88 75.5 C 85.945312 77.359375 85.382812 79 86.800781 79 C 87.238281 79 88.140625 78.460938 88.800781 77.800781 Z M 88.292969 71.664062 C 87.871094 70.980469 87.472656 71.121094 87.183594 72.050781 C 86.933594 72.847656 86.238281 74.175781 85.632812 75 C 85.027344 75.824219 85.527344 75.652344 86.742188 74.617188 C 87.957031 73.582031 88.65625 72.253906 88.292969 71.664062 Z M 86 71.441406 C 86 70.648438 86.355469 70 86.785156 70 C 88.265625 70 87.585938 65.503906 85.820312 63.59375 C 84.144531 61.78125 84.023438 61.773438 83.371094 63.476562 C 82.992188 64.460938 83.210938 66.109375 83.859375 67.144531 C 84.515625 68.199219 84.742188 70.183594 84.371094 71.660156 C 83.90625 73.515625 84.046875 74.089844 84.855469 73.589844 C 85.484375 73.199219 86 72.234375 86 71.441406 Z M 25.683594 79.351562 C 24.53125 78.195312 24.945312 67.785156 26.359375 62.5 C 27.09375 59.75 28.671875 55.585938 29.867188 53.25 L 32.039062 49 L 65.964844 49 L 68.363281 53.75 C 71.464844 59.894531 73.253906 68.203125 72.832031 74.5 L 72.5 79.5 L 49.433594 79.769531 C 36.75 79.914062 26.0625 79.726562 25.683594 79.351562 Z M 72 72.5 L 72 66 L 26 66 L 26 79 L 72 79 Z M 29 76 C 27.898438 74.898438 27 73.324219 27 72.5 C 27 70.5625 30.5625 67 32.5 67 C 34.4375 67 38 70.5625 38 72.5 C 38 74.4375 34.4375 78 32.5 78 C 31.675781 78 30.101562 77.101562 29 76 Z M 35.429688 75.429688 C 36.292969 74.5625 37 73.246094 37 72.5 C 37 70.75 34.25 68 32.5 68 C 30.75 68 28 70.75 28 72.5 C 28 74.25 30.75 77 32.5 77 C 33.246094 77 34.5625 76.292969 35.429688 75.429688 Z M 31.601562 74.167969 C 31.320312 73.707031 31.722656 73.332031 32.5 73.332031 C 33.277344 73.332031 33.679688 73.707031 33.398438 74.167969 C 33.113281 74.625 32.710938 75 32.5 75 C 32.289062 75 31.886719 74.625 31.601562 74.167969 Z M 31.269531 71.308594 C 32.242188 71.054688 33.59375 71.070312 34.269531 71.34375 C 34.945312 71.617188 34.148438 71.824219 32.5 71.804688 C 30.851562 71.785156 30.296875 71.5625 31.269531 71.308594 Z M 62 76 C 60.898438 74.898438 60 73.324219 60 72.5 C 60 71.675781 60.898438 70.101562 62 69 C 63.101562 67.898438 64.675781 67 65.5 67 C 66.324219 67 67.898438 67.898438 69 69 C 70.101562 70.101562 71 71.675781 71 72.5 C 71 73.324219 70.101562 74.898438 69 76 C 67.898438 77.101562 66.324219 78 65.5 78 C 64.675781 78 63.101562 77.101562 62 76 Z M 68.429688 75.429688 C 69.292969 74.5625 70 73.246094 70 72.5 C 70 70.75 67.25 68 65.5 68 C 64.753906 68 63.4375 68.707031 62.570312 69.570312 C 61.707031 70.4375 61 71.753906 61 72.5 C 61 73.246094 61.707031 74.5625 62.570312 75.429688 C 63.4375 76.292969 64.753906 77 65.5 77 C 66.246094 77 67.5625 76.292969 68.429688 75.429688 Z M 64.601562 74.167969 C 64.320312 73.707031 64.722656 73.332031 65.5 73.332031 C 66.277344 73.332031 66.679688 73.707031 66.398438 74.167969 C 66.113281 74.625 65.710938 75 65.5 75 C 65.289062 75 64.886719 74.625 64.601562 74.167969 Z M 64.269531 71.308594 C 65.242188 71.054688 66.59375 71.070312 67.269531 71.34375 C 67.945312 71.617188 67.148438 71.824219 65.5 71.804688 C 63.851562 71.785156 63.296875 71.5625 64.269531 71.308594 Z M 41.921875 74.25 C 40.792969 72.761719 40.804688 72.6875 42 73.75 C 42.769531 74.4375 45.921875 75 49 75 C 52.078125 75 55.230469 74.4375 56 73.75 C 57.195312 72.6875 57.207031 72.761719 56.078125 74.25 C 54.195312 76.738281 43.804688 76.738281 41.921875 74.25 Z M 44.75 71.269531 C 47.085938 71.058594 50.914062 71.058594 53.25 71.269531 C 55.585938 71.476562 53.675781 71.652344 49 71.652344 C 44.324219 71.652344 42.414062 71.476562 44.75 71.269531 Z M 44.75 69.269531 C 47.085938 69.058594 50.914062 69.058594 53.25 69.269531 C 55.585938 69.476562 53.675781 69.652344 49 69.652344 C 44.324219 69.652344 42.414062 69.476562 44.75 69.269531 Z M 71 64.582031 C 71 64.351562 70.726562 63.453125 70.394531 62.582031 C 69.867188 61.210938 67.023438 61 48.894531 61 C 37.402344 61 28 61.1875 28 61.417969 C 28 61.648438 27.726562 62.546875 27.394531 63.417969 C 26.851562 64.832031 29.144531 65 48.894531 65 C 61.050781 65 71 64.8125 71 64.582031 Z M 58.988281 58.773438 C 60.535156 57.808594 61.207031 57.808594 62.175781 58.773438 C 63.320312 59.921875 70 60.5625 70 59.527344 C 70 59.265625 69.011719 57.015625 67.800781 54.527344 L 65.601562 50 L 32.398438 50 L 30.199219 54.527344 C 28.988281 57.015625 28 59.265625 28 59.527344 C 28 60.65625 57.105469 59.949219 58.988281 58.773438 Z M 61.730469 59.394531 C 61.398438 59.0625 60.535156 59.027344 59.8125 59.316406 C 59.015625 59.636719 59.25 59.875 60.417969 59.921875 C 61.472656 59.964844 62.0625 59.726562 61.730469 59.394531 Z M 61.730469 59.394531 "/>
<path style="fill:none;stroke-width:2;stroke-linecap:butt;stroke-linejoin:miter;stroke:rgb(0%,0%,0%);stroke-opacity:1;stroke-miterlimit:10;" d="M 1 17.667969 C 1 8.460938 8.460938 1 17.667969 1 L 82.332031 1 C 91.539062 1 99 8.460938 99 17.667969 L 99 132.332031 C 99 141.539062 91.539062 149 82.332031 149 L 17.667969 149 C 8.460938 149 1 141.539062 1 132.332031 L 1 17.667969 "/>
<path style=" stroke:none;fill-rule:nonzero;fill:rgb(0%,0%,0%);fill-opacity:1;" d="M 9.59375 11.738281 C 11.5 11.738281 12.328125 13.128906 12.359375 14.628906 C 12.359375 15.097656 12.46875 15.472656 13.015625 15.472656 C 13.515625 15.472656 13.609375 15.035156 13.609375 14.566406 C 13.609375 13.613281 13.15625 12.332031 12.296875 11.550781 C 12.828125 11.207031 13.203125 10.660156 13.203125 9.988281 C 13.203125 9.003906 12.625 8.566406 11.109375 8.566406 L 8.96875 8.566406 C 8.53125 8.566406 8.328125 8.863281 8.328125 9.238281 L 8.328125 14.800781 C 8.328125 15.175781 8.53125 15.472656 8.96875 15.472656 C 9.390625 15.472656 9.59375 15.175781 9.59375 14.800781 Z M 9.59375 9.707031 L 11.265625 9.707031 C 11.6875 9.707031 11.9375 9.847656 11.9375 10.175781 C 11.9375 10.472656 11.53125 10.925781 11.265625 10.925781 L 10.65625 10.753906 C 10.40625 10.707031 10.140625 10.644531 9.59375 10.644531 Z M 19.046875 12.894531 C 19.046875 11.441406 18.15625 10.300781 16.59375 10.300781 C 15.03125 10.300781 14.125 11.441406 14.125 12.894531 C 14.125 14.363281 15.03125 15.503906 16.59375 15.503906 C 18.15625 15.503906 19.046875 14.363281 19.046875 12.894531 Z M 17.796875 12.894531 C 17.796875 13.707031 17.40625 14.425781 16.59375 14.425781 C 15.765625 14.425781 15.390625 13.707031 15.390625 12.894531 C 15.390625 12.097656 15.765625 11.378906 16.59375 11.378906 C 17.40625 11.378906 17.796875 12.097656 17.796875 12.894531 Z M 24.3125 10.957031 C 24.3125 10.597656 24.125 10.300781 23.71875 10.300781 C 23.3125 10.300781 23.109375 10.597656 23.109375 10.957031 L 23.109375 13.019531 C 23.109375 13.957031 22.671875 14.425781 22 14.425781 C 21.453125 14.425781 21.1875 14.082031 21.1875 13.378906 L 21.1875 10.957031 C 21.1875 10.597656 21 10.300781 20.578125 10.300781 C 20.171875 10.300781 19.984375 10.597656 19.984375 10.957031 L 19.984375 13.707031 C 19.984375 14.722656 20.6875 15.503906 21.765625 15.503906 C 22.3125 15.503906 22.71875 15.347656 23.109375 14.957031 C 23.109375 15.207031 23.3125 15.503906 23.71875 15.503906 C 24.125 15.503906 24.3125 15.207031 24.3125 14.847656 Z M 29.511719 15.441406 C 29.839844 15.441406 30.089844 15.269531 30.089844 14.894531 C 30.089844 14.535156 29.839844 14.363281 29.511719 14.363281 L 28.230469 14.363281 C 27.386719 14.363281 26.667969 14.113281 26.589844 13.175781 L 29.652344 13.175781 C 30.074219 13.175781 30.136719 12.925781 30.136719 12.582031 C 30.136719 11.410156 29.449219 10.300781 27.777344 10.300781 C 26.246094 10.300781 25.277344 11.472656 25.277344 12.972656 C 25.277344 14.457031 26.277344 15.441406 28.058594 15.441406 Z M 26.667969 12.269531 C 26.808594 11.675781 27.308594 11.300781 27.777344 11.300781 C 28.246094 11.300781 28.746094 11.675781 28.886719 12.269531 Z M 38.480469 8.988281 C 38.480469 8.628906 38.277344 8.332031 37.871094 8.332031 C 37.464844 8.332031 37.277344 8.628906 37.277344 8.988281 L 37.277344 10.300781 C 34.980469 10.300781 33.839844 11.722656 33.839844 13.222656 C 33.839844 14.425781 34.667969 15.441406 36.324219 15.441406 L 37.871094 15.441406 C 38.339844 15.441406 38.480469 15.222656 38.480469 14.910156 Z M 37.277344 14.363281 L 36.183594 14.363281 C 35.496094 14.363281 35.105469 13.847656 35.105469 13.207031 C 35.105469 12.097656 36.199219 11.378906 37.277344 11.378906 Z M 43.679688 15.441406 C 44.007812 15.441406 44.257812 15.269531 44.257812 14.894531 C 44.257812 14.535156 44.007812 14.363281 43.679688 14.363281 L 42.398438 14.363281 C 41.554688 14.363281 40.835938 14.113281 40.757812 13.175781 L 43.820312 13.175781 C 44.242188 13.175781 44.304688 12.925781 44.304688 12.582031 C 44.304688 11.410156 43.617188 10.300781 41.945312 10.300781 C 40.414062 10.300781 39.445312 11.472656 39.445312 12.972656 C 39.445312 14.457031 40.445312 15.441406 42.226562 15.441406 Z M 40.835938 12.269531 C 40.976562 11.675781 41.476562 11.300781 41.945312 11.300781 C 42.414062 11.300781 42.914062 11.675781 43.054688 12.269531 Z M 50.464844 15.441406 C 51.589844 15.441406 52.433594 14.925781 52.433594 13.722656 C 52.433594 11.613281 49.277344 12.378906 49.277344 11.691406 C 49.277344 11.457031 49.527344 11.441406 49.714844 11.441406 L 51.464844 11.441406 C 51.777344 11.441406 52.042969 11.269531 52.042969 10.894531 C 52.042969 10.535156 51.777344 10.363281 51.464844 10.363281 L 49.777344 10.363281 C 48.683594 10.363281 48.089844 10.769531 48.089844 11.675781 C 48.089844 13.769531 51.230469 12.675781 51.230469 13.707031 C 51.230469 14.253906 50.855469 14.363281 50.371094 14.363281 L 48.574219 14.363281 C 48.246094 14.363281 47.980469 14.535156 47.980469 14.894531 C 47.980469 15.269531 48.246094 15.441406 48.574219 15.441406 Z M 57.292969 15.441406 C 57.621094 15.441406 57.871094 15.269531 57.871094 14.894531 C 57.871094 14.535156 57.621094 14.363281 57.292969 14.363281 L 56.011719 14.363281 C 55.167969 14.363281 54.449219 14.113281 54.371094 13.175781 L 57.433594 13.175781 C 57.855469 13.175781 57.917969 12.925781 57.917969 12.582031 C 57.917969 11.410156 57.230469 10.300781 55.558594 10.300781 C 54.027344 10.300781 53.058594 11.472656 53.058594 12.972656 C 53.058594 14.457031 54.058594 15.441406 55.839844 15.441406 Z M 54.449219 12.269531 C 54.589844 11.675781 55.089844 11.300781 55.558594 11.300781 C 56.027344 11.300781 56.527344 11.675781 56.667969 12.269531 Z M 60.757812 10.363281 C 59.429688 10.363281 58.585938 11.363281 58.585938 12.550781 C 58.585938 13.894531 59.632812 15.441406 62.054688 15.441406 C 62.992188 15.441406 63.257812 15.269531 63.257812 14.878906 C 63.257812 14.425781 63.054688 14.300781 62.226562 14.300781 C 60.882812 14.300781 59.914062 13.722656 59.914062 12.519531 C 59.914062 12.003906 60.289062 11.503906 60.992188 11.503906 L 62.507812 11.503906 C 62.835938 11.503906 63.117188 11.316406 63.117188 10.925781 C 63.117188 10.535156 62.835938 10.363281 62.507812 10.363281 Z M 68.507812 12.894531 C 68.507812 11.441406 67.617188 10.300781 66.054688 10.300781 C 64.492188 10.300781 63.585938 11.441406 63.585938 12.894531 C 63.585938 14.363281 64.492188 15.503906 66.054688 15.503906 C 67.617188 15.503906 68.507812 14.363281 68.507812 12.894531 Z M 67.257812 12.894531 C 67.257812 13.707031 66.867188 14.425781 66.054688 14.425781 C 65.226562 14.425781 64.851562 13.707031 64.851562 12.894531 C 64.851562 12.097656 65.226562 11.378906 66.054688 11.378906 C 66.867188 11.378906 67.257812 12.097656 67.257812 12.894531 Z M 73.769531 10.957031 C 73.769531 10.597656 73.582031 10.300781 73.175781 10.300781 C 72.769531 10.300781 72.566406 10.597656 72.566406 10.957031 L 72.566406 13.019531 C 72.566406 13.957031 72.128906 14.425781 71.457031 14.425781 C 70.910156 14.425781 70.644531 14.082031 70.644531 13.378906 L 70.644531 10.957031 C 70.644531 10.597656 70.457031 10.300781 70.035156 10.300781 C 69.628906 10.300781 69.441406 10.597656 69.441406 10.957031 L 69.441406 13.707031 C 69.441406 14.722656 70.144531 15.503906 71.222656 15.503906 C 71.769531 15.503906 72.175781 15.347656 72.566406 14.957031 C 72.566406 15.207031 72.769531 15.503906 73.175781 15.503906 C 73.582031 15.503906 73.769531 15.207031 73.769531 14.847656 Z M 75.082031 14.785156 C 75.082031 15.175781 75.300781 15.472656 75.691406 15.472656 C 76.066406 15.472656 76.285156 15.175781 76.285156 14.785156 L 76.285156 12.597656 C 76.285156 11.675781 76.582031 11.441406 77.160156 11.441406 C 77.597656 11.441406 77.847656 11.253906 77.847656 10.878906 C 77.847656 10.535156 77.675781 10.300781 77.238281 10.300781 C 76.675781 10.300781 76.300781 10.535156 76.207031 11.097656 L 76.191406 11.097656 L 76.175781 10.785156 C 76.128906 10.332031 75.847656 10.300781 75.628906 10.300781 C 75.285156 10.300781 75.082031 10.503906 75.082031 10.910156 Z M 80.472656 15.441406 C 81.597656 15.441406 82.441406 14.925781 82.441406 13.722656 C 82.441406 11.613281 79.285156 12.378906 79.285156 11.691406 C 79.285156 11.457031 79.535156 11.441406 79.722656 11.441406 L 81.472656 11.441406 C 81.785156 11.441406 82.050781 11.269531 82.050781 10.894531 C 82.050781 10.535156 81.785156 10.363281 81.472656 10.363281 L 79.785156 10.363281 C 78.691406 10.363281 78.097656 10.769531 78.097656 11.675781 C 78.097656 13.769531 81.238281 12.675781 81.238281 13.707031 C 81.238281 14.253906 80.863281 14.363281 80.378906 14.363281 L 78.582031 14.363281 C 78.253906 14.363281 77.988281 14.535156 77.988281 14.894531 C 77.988281 15.269531 78.253906 15.441406 78.582031 15.441406 Z M 82.722656 15.441406 "/>
<path style=" stroke:none;fill-rule:nonzero;fill:rgb(0%,0%,0%);fill-opacity:1;" d="M 18.539062 137.902344 C 20.445312 137.902344 21.273438 139.292969 21.304688 140.792969 C 21.304688 141.261719 21.414062 141.636719 21.960938 141.636719 C 22.460938 141.636719 22.554688 141.199219 22.554688 140.730469 C 22.554688 139.777344 22.101562 138.496094 21.242188 137.714844 C 21.773438 137.371094 22.148438 136.824219 22.148438 136.152344 C 22.148438 135.167969 21.570312 134.730469 20.054688 134.730469 L 17.914062 134.730469 C 17.476562 134.730469 17.273438 135.027344 17.273438 135.402344 L 17.273438 140.964844 C 17.273438 141.339844 17.476562 141.636719 17.914062 141.636719 C 18.335938 141.636719 18.539062 141.339844 18.539062 140.964844 Z M 18.539062 135.871094 L 20.210938 135.871094 C 20.632812 135.871094 20.882812 136.011719 20.882812 136.339844 C 20.882812 136.636719 20.476562 137.089844 20.210938 137.089844 L 19.601562 136.917969 C 19.351562 136.871094 19.085938 136.808594 18.539062 136.808594 Z M 27.992188 139.058594 C 27.992188 137.605469 27.101562 136.464844 25.539062 136.464844 C 23.976562 136.464844 23.070312 137.605469 23.070312 139.058594 C 23.070312 140.527344 23.976562 141.667969 25.539062 141.667969 C 27.101562 141.667969 27.992188 140.527344 27.992188 139.058594 Z M 26.742188 139.058594 C 26.742188 139.871094 26.351562 140.589844 25.539062 140.589844 C 24.710938 140.589844 24.335938 139.871094 24.335938 139.058594 C 24.335938 138.261719 24.710938 137.542969 25.539062 137.542969 C 26.351562 137.542969 26.742188 138.261719 26.742188 139.058594 Z M 33.257812 137.121094 C 33.257812 136.761719 33.070312 136.464844 32.664062 136.464844 C 32.257812 136.464844 32.054688 136.761719 32.054688 137.121094 L 32.054688 139.183594 C 32.054688 140.121094 31.617188 140.589844 30.945312 140.589844 C 30.398438 140.589844 30.132812 140.246094 30.132812 139.542969 L 30.132812 137.121094 C 30.132812 136.761719 29.945312 136.464844 29.523438 136.464844 C 29.117188 136.464844 28.929688 136.761719 28.929688 137.121094 L 28.929688 139.871094 C 28.929688 140.886719 29.632812 141.667969 30.710938 141.667969 C 31.257812 141.667969 31.664062 141.511719 32.054688 141.121094 C 32.054688 141.371094 32.257812 141.667969 32.664062 141.667969 C 33.070312 141.667969 33.257812 141.371094 33.257812 141.011719 Z M 38.457031 141.605469 C 38.785156 141.605469 39.035156 141.433594 39.035156 141.058594 C 39.035156 140.699219 38.785156 140.527344 38.457031 140.527344 L 37.175781 140.527344 C 36.332031 140.527344 35.613281 140.277344 35.535156 139.339844 L 38.597656 139.339844 C 39.019531 139.339844 39.082031 139.089844 39.082031 138.746094 C 39.082031 137.574219 38.394531 136.464844 36.722656 136.464844 C 35.191406 136.464844 34.222656 137.636719 34.222656 139.136719 C 34.222656 140.621094 35.222656 141.605469 37.003906 141.605469 Z M 35.613281 138.433594 C 35.753906 137.839844 36.253906 137.464844 36.722656 137.464844 C 37.191406 137.464844 37.691406 137.839844 37.832031 138.433594 Z M 47.425781 135.152344 C 47.425781 134.792969 47.222656 134.496094 46.816406 134.496094 C 46.410156 134.496094 46.222656 134.792969 46.222656 135.152344 L 46.222656 136.464844 C 43.925781 136.464844 42.785156 137.886719 42.785156 139.386719 C 42.785156 140.589844 43.613281 141.605469 45.269531 141.605469 L 46.816406 141.605469 C 47.285156 141.605469 47.425781 141.386719 47.425781 141.074219 Z M 46.222656 140.527344 L 45.128906 140.527344 C 44.441406 140.527344 44.050781 140.011719 44.050781 139.371094 C 44.050781 138.261719 45.144531 137.542969 46.222656 137.542969 Z M 52.625 141.605469 C 52.953125 141.605469 53.203125 141.433594 53.203125 141.058594 C 53.203125 140.699219 52.953125 140.527344 52.625 140.527344 L 51.34375 140.527344 C 50.5 140.527344 49.78125 140.277344 49.703125 139.339844 L 52.765625 139.339844 C 53.1875 139.339844 53.25 139.089844 53.25 138.746094 C 53.25 137.574219 52.5625 136.464844 50.890625 136.464844 C 49.359375 136.464844 48.390625 137.636719 48.390625 139.136719 C 48.390625 140.621094 49.390625 141.605469 51.171875 141.605469 Z M 49.78125 138.433594 C 49.921875 137.839844 50.421875 137.464844 50.890625 137.464844 C 51.359375 137.464844 51.859375 137.839844 52 138.433594 Z M 59.410156 141.605469 C 60.535156 141.605469 61.378906 141.089844 61.378906 139.886719 C 61.378906 137.777344 58.222656 138.542969 58.222656 137.855469 C 58.222656 137.621094 58.472656 137.605469 58.660156 137.605469 L 60.410156 137.605469 C 60.722656 137.605469 60.988281 137.433594 60.988281 137.058594 C 60.988281 136.699219 60.722656 136.527344 60.410156 136.527344 L 58.722656 136.527344 C 57.628906 136.527344 57.035156 136.933594 57.035156 137.839844 C 57.035156 139.933594 60.175781 138.839844 60.175781 139.871094 C 60.175781 140.417969 59.800781 140.527344 59.316406 140.527344 L 57.519531 140.527344 C 57.191406 140.527344 56.925781 140.699219 56.925781 141.058594 C 56.925781 141.433594 57.191406 141.605469 57.519531 141.605469 Z M 66.238281 141.605469 C 66.566406 141.605469 66.816406 141.433594 66.816406 141.058594 C 66.816406 140.699219 66.566406 140.527344 66.238281 140.527344 L 64.957031 140.527344 C 64.113281 140.527344 63.394531 140.277344 63.316406 139.339844 L 66.378906 139.339844 C 66.800781 139.339844 66.863281 139.089844 66.863281 138.746094 C 66.863281 137.574219 66.175781 136.464844 64.503906 136.464844 C 62.972656 136.464844 62.003906 137.636719 62.003906 139.136719 C 62.003906 140.621094 63.003906 141.605469 64.785156 141.605469 Z M 63.394531 138.433594 C 63.535156 137.839844 64.035156 137.464844 64.503906 137.464844 C 64.972656 137.464844 65.472656 137.839844 65.613281 138.433594 Z M 69.703125 136.527344 C 68.375 136.527344 67.53125 137.527344 67.53125 138.714844 C 67.53125 140.058594 68.578125 141.605469 71 141.605469 C 71.9375 141.605469 72.203125 141.433594 72.203125 141.042969 C 72.203125 140.589844 72 140.464844 71.171875 140.464844 C 69.828125 140.464844 68.859375 139.886719 68.859375 138.683594 C 68.859375 138.167969 69.234375 137.667969 69.9375 137.667969 L 71.453125 137.667969 C 71.78125 137.667969 72.0625 137.480469 72.0625 137.089844 C 72.0625 136.699219 71.78125 136.527344 71.453125 136.527344 Z M 77.453125 139.058594 C 77.453125 137.605469 76.5625 136.464844 75 136.464844 C 73.4375 136.464844 72.53125 137.605469 72.53125 139.058594 C 72.53125 140.527344 73.4375 141.667969 75 141.667969 C 76.5625 141.667969 77.453125 140.527344 77.453125 139.058594 Z M 76.203125 139.058594 C 76.203125 139.871094 75.8125 140.589844 75 140.589844 C 74.171875 140.589844 73.796875 139.871094 73.796875 139.058594 C 73.796875 138.261719 74.171875 137.542969 75 137.542969 C 75.8125 137.542969 76.203125 138.261719 76.203125 139.058594 Z M 82.714844 137.121094 C 82.714844 136.761719 82.527344 136.464844 82.121094 136.464844 C 81.714844 136.464844 81.511719 136.761719 81.511719 137.121094 L 81.511719 139.183594 C 81.511719 140.121094 81.074219 140.589844 80.402344 140.589844 C 79.855469 140.589844 79.589844 140.246094 79.589844 139.542969 L 79.589844 137.121094 C 79.589844 136.761719 79.402344 136.464844 78.980469 136.464844 C 78.574219 136.464844 78.386719 136.761719 78.386719 137.121094 L 78.386719 139.871094 C 78.386719 140.886719 79.089844 141.667969 80.167969 141.667969 C 80.714844 141.667969 81.121094 141.511719 81.511719 141.121094 C 81.511719 141.371094 81.714844 141.667969 82.121094 141.667969 C 82.527344 141.667969 82.714844 141.371094 82.714844 141.011719 Z M 84.027344 140.949219 C 84.027344 141.339844 84.246094 141.636719 84.636719 141.636719 C 85.011719 141.636719 85.230469 141.339844 85.230469 140.949219 L 85.230469 138.761719 C 85.230469 137.839844 85.527344 137.605469 86.105469 137.605469 C 86.542969 137.605469 86.792969 137.417969 86.792969 137.042969 C 86.792969 136.699219 86.621094 136.464844 86.183594 136.464844 C 85.621094 136.464844 85.246094 136.699219 85.152344 137.261719 L 85.136719 137.261719 L 85.121094 136.949219 C 85.074219 136.496094 84.792969 136.464844 84.574219 136.464844 C 84.230469 136.464844 84.027344 136.667969 84.027344 137.074219 Z M 89.417969 141.605469 C 90.542969 141.605469 91.386719 141.089844 91.386719 139.886719 C 91.386719 137.777344 88.230469 138.542969 88.230469 137.855469 C 88.230469 137.621094 88.480469 137.605469 88.667969 137.605469 L 90.417969 137.605469 C 90.730469 137.605469 90.996094 137.433594 90.996094 137.058594 C 90.996094 136.699219 90.730469 136.527344 90.417969 136.527344 L 88.730469 136.527344 C 87.636719 136.527344 87.042969 136.933594 87.042969 137.839844 C 87.042969 139.933594 90.183594 138.839844 90.183594 139.871094 C 90.183594 140.417969 89.808594 140.527344 89.324219 140.527344 L 87.527344 140.527344 C 87.199219 140.527344 86.933594 140.699219 86.933594 141.058594 C 86.933594 141.433594 87.199219 141.605469 87.527344 141.605469 Z M 91.667969 141.605469 "/>
</g>
</svg>
