<?xml version="1.0" encoding="UTF-8"?>
<svg xmlns="http://www.w3.org/2000/svg" xmlns:xlink="http://www.w3.org/1999/xlink" width="100pt" height="150pt" viewBox="0 0 100 150" version="1.1">
<g id="surface55">
<path style=" stroke:none;fill-rule:nonzero;fill:rgb(100%,100%,100%);fill-opacity:1;" d="M 1 17.667969 C 1 8.460938 8.460938 1 17.667969 1 L 82.332031 1 C 91.539062 1 99 8.460938 99 17.667969 L 99 132.332031 C 99 141.539062 91.539062 149 82.332031 149 L 17.667969 149 C 8.460938 149 1 141.539062 1 132.332031 L 1 17.667969 "/>
<path style=" stroke:none;fill-rule:nonzero;fill:rgb(99.607843%,99.607843%,99.607843%);fill-opacity:1;" d="M 5 75 L 5 20 L 95 20 L 95 130 L 5 130 Z M 74 74.5 L 74 30 L 26 30 L 26 119 L 74 119 Z M 45.3125 108.535156 C 42.964844 107.515625 41.820312 106.128906 40.964844 103.277344 C 38.335938 94.5 45.753906 87.78125 54.1875 91.304688 C 61.40625 94.320312 61.558594 105.613281 54.421875 108.597656 C 50.328125 110.308594 49.371094 110.300781 45.3125 108.535156 Z M 53.800781 107.921875 C 60.527344 105.574219 60.273438 94.234375 53.441406 91.980469 C 45.421875 89.335938 39.332031 95.417969 41.980469 103.433594 C 43.554688 108.203125 48.066406 109.917969 53.800781 107.921875 Z M 45.3125 83.535156 C 42.964844 82.515625 41.820312 81.128906 40.964844 78.277344 C 38.335938 69.5 45.753906 62.78125 54.1875 66.304688 C 61.40625 69.320312 61.558594 80.613281 54.421875 83.597656 C 50.328125 85.308594 49.371094 85.300781 45.3125 83.535156 Z M 53.800781 82.921875 C 60.527344 80.574219 60.273438 69.234375 53.441406 66.980469 C 45.421875 64.335938 39.332031 70.417969 41.980469 78.433594 C 43.554688 83.203125 48.066406 84.917969 53.800781 82.921875 Z M 45.3125 58.535156 C 42.964844 57.515625 41.820312 56.128906 40.964844 53.277344 C 38.335938 44.5 45.753906 37.78125 54.1875 41.304688 C 61.40625 44.320312 61.558594 55.613281 54.421875 58.597656 C 50.328125 60.308594 49.371094 60.300781 45.3125 58.535156 Z M 53.800781 57.921875 C 60.527344 55.574219 60.273438 44.234375 53.441406 41.980469 C 45.421875 39.335938 39.332031 45.417969 41.980469 53.433594 C 43.554688 58.203125 48.066406 59.917969 53.800781 57.921875 Z M 53.800781 57.921875 "/>
<path style=" stroke:none;fill-rule:nonzero;fill:rgb(0%,99.607843%,0%);fill-opacity:1;" d="M 45.804688 107.855469 C 42.167969 106.527344 40.40625 101.324219 41.980469 96.558594 C 43.4375 92.148438 48.191406 90.25 53.441406 91.980469 C 60.273438 94.234375 60.527344 105.574219 53.800781 107.921875 C 50.179688 109.183594 49.410156 109.175781 45.804688 107.855469 Z M 45.804688 107.855469 "/>
<path style=" stroke:none;fill-rule:nonzero;fill:rgb(0%,0%,0%);fill-opacity:1;" d="M 26 74.5 L 26 30 L 74 30 L 74 119 L 26 119 Z M 54.421875 108.597656 C 61.558594 105.613281 61.40625 94.320312 54.1875 91.304688 C 45.753906 87.78125 38.335938 94.5 40.964844 103.277344 C 41.820312 106.128906 42.964844 107.515625 45.3125 108.535156 C 49.371094 110.300781 50.328125 110.308594 54.421875 108.597656 Z M 54.421875 83.597656 C 61.558594 80.613281 61.40625 69.320312 54.1875 66.304688 C 45.753906 62.78125 38.335938 69.5 40.964844 78.277344 C 41.820312 81.128906 42.964844 82.515625 45.3125 83.535156 C 49.371094 85.300781 50.328125 85.308594 54.421875 83.597656 Z M 45.804688 82.855469 C 42.167969 81.527344 40.40625 76.324219 41.980469 71.558594 C 43.4375 67.148438 48.191406 65.25 53.441406 66.980469 C 60.273438 69.234375 60.527344 80.574219 53.800781 82.921875 C 50.179688 84.183594 49.410156 84.175781 45.804688 82.855469 Z M 54.421875 58.597656 C 61.558594 55.613281 61.40625 44.320312 54.1875 41.304688 C 45.753906 37.78125 38.335938 44.5 40.964844 53.277344 C 41.820312 56.128906 42.964844 57.515625 45.3125 58.535156 C 49.371094 60.300781 50.328125 60.308594 54.421875 58.597656 Z M 45.804688 57.855469 C 42.167969 56.527344 40.40625 51.324219 41.980469 46.558594 C 43.4375 42.148438 48.191406 40.25 53.441406 41.980469 C 60.273438 44.234375 60.527344 55.574219 53.800781 57.921875 C 50.179688 59.183594 49.410156 59.175781 45.804688 57.855469 Z M 45.804688 57.855469 "/>
<path style="fill:none;stroke-width:2;stroke-linecap:butt;stroke-linejoin:miter;stroke:rgb(0%,0%,0%);stroke-opacity:1;stroke-miterlimit:10;" d="M 1 17.667969 C 1 8.460938 8.460938 1 17.667969 1 L 82.332031 1 C 91.539062 1 99 8.460938 99 17.667969 L 99 132.332031 C 99 141.539062 91.539062 149 82.332031 149 L 17.667969 149 C 8.460938 149 1 141.539062 1 132.332031 L 1 17.667969 "/>
<path style=" stroke:none;fill-rule:nonzero;fill:rgb(0%,0%,0%);fill-opacity:1;" d="M 9.59375 11.738281 C 11.5 11.738281 12.328125 13.128906 12.359375 14.628906 C 12.359375 15.097656 12.46875 15.472656 13.015625 15.472656 C 13.515625 15.472656 13.609375 15.035156 13.609375 14.566406 C 13.609375 13.613281 13.15625 12.332031 12.296875 11.550781 C 12.828125 11.207031 13.203125 10.660156 13.203125 9.988281 C 13.203125 9.003906 12.625 8.566406 11.109375 8.566406 L 8.96875 8.566406 C 8.53125 8.566406 8.328125 8.863281 8.328125 9.238281 L 8.328125 14.800781 C 8.328125 15.175781 8.53125 15.472656 8.96875 15.472656 C 9.390625 15.472656 9.59375 15.175781 9.59375 14.800781 Z M 9.59375 9.707031 L 11.265625 9.707031 C 11.6875 9.707031 11.9375 9.847656 11.9375 10.175781 C 11.9375 10.472656 11.53125 10.925781 11.265625 10.925781 L 10.65625 10.753906 C 10.40625 10.707031 10.140625 10.644531 9.59375 10.644531 Z M 19.046875 12.894531 C 19.046875 11.441406 18.15625 10.300781 16.59375 10.300781 C 15.03125 10.300781 14.125 11.441406 14.125 12.894531 C 14.125 14.363281 15.03125 15.503906 16.59375 15.503906 C 18.15625 15.503906 19.046875 14.363281 19.046875 12.894531 Z M 17.796875 12.894531 C 17.796875 13.707031 17.40625 14.425781 16.59375 14.425781 C 15.765625 14.425781 15.390625 13.707031 15.390625 12.894531 C 15.390625 12.097656 15.765625 11.378906 16.59375 11.378906 C 17.40625 11.378906 17.796875 12.097656 17.796875 12.894531 Z M 24.3125 10.957031 C 24.3125 10.597656 24.125 10.300781 23.71875 10.300781 C 23.3125 10.300781 23.109375 10.597656 23.109375 10.957031 L 23.109375 13.019531 C 23.109375 13.957031 22.671875 14.425781 22 14.425781 C 21.453125 14.425781 21.1875 14.082031 21.1875 13.378906 L 21.1875 10.957031 C 21.1875 10.597656 21 10.300781 20.578125 10.300781 C 20.171875 10.300781 19.984375 10.597656 19.984375 10.957031 L 19.984375 13.707031 C 19.984375 14.722656 20.6875 15.503906 21.765625 15.503906 C 22.3125 15.503906 22.71875 15.347656 23.109375 14.957031 C 23.109375 15.207031 23.3125 15.503906 23.71875 15.503906 C 24.125 15.503906 24.3125 15.207031 24.3125 14.847656 Z M 26.917969 8.988281 C 26.917969 8.628906 26.730469 8.332031 26.324219 8.332031 C 25.917969 8.332031 25.730469 8.628906 25.730469 8.988281 L 25.730469 14.816406 C 25.730469 15.175781 25.917969 15.472656 26.324219 15.472656 C 26.730469 15.472656 26.917969 15.175781 26.917969 14.816406 Z M 32.292969 15.441406 C 32.621094 15.441406 32.871094 15.269531 32.871094 14.894531 C 32.871094 14.535156 32.621094 14.363281 32.292969 14.363281 L 31.011719 14.363281 C 30.167969 14.363281 29.449219 14.113281 29.371094 13.175781 L 32.433594 13.175781 C 32.855469 13.175781 32.917969 12.925781 32.917969 12.582031 C 32.917969 11.410156 32.230469 10.300781 30.558594 10.300781 C 29.027344 10.300781 28.058594 11.472656 28.058594 12.972656 C 28.058594 14.457031 29.058594 15.441406 30.839844 15.441406 Z M 29.449219 12.269531 C 29.589844 11.675781 30.089844 11.300781 30.558594 11.300781 C 31.027344 11.300781 31.527344 11.675781 31.667969 12.269531 Z M 35.945312 11.441406 C 35.976562 12.128906 33.429688 13.066406 33.429688 14.753906 C 33.429688 15.222656 33.554688 15.441406 34.148438 15.441406 L 36.976562 15.441406 C 37.289062 15.441406 37.554688 15.269531 37.554688 14.910156 C 37.554688 14.535156 37.289062 14.363281 36.976562 14.363281 L 34.898438 14.363281 C 34.898438 13.503906 37.367188 12.769531 37.460938 11.066406 C 37.460938 10.597656 37.226562 10.363281 36.726562 10.363281 L 34.273438 10.363281 C 33.945312 10.363281 33.679688 10.535156 33.679688 10.894531 C 33.679688 11.253906 33.945312 11.441406 34.273438 11.441406 Z M 37.714844 15.441406 "/>
<path style=" stroke:none;fill-rule:nonzero;fill:rgb(0%,0%,0%);fill-opacity:1;" d="M 63.546875 137.902344 C 65.453125 137.902344 66.28125 139.292969 66.3125 140.792969 C 66.3125 141.261719 66.421875 141.636719 66.96875 141.636719 C 67.46875 141.636719 67.5625 141.199219 67.5625 140.730469 C 67.5625 139.777344 67.109375 138.496094 66.25 137.714844 C 66.78125 137.371094 67.15625 136.824219 67.15625 136.152344 C 67.15625 135.167969 66.578125 134.730469 65.0625 134.730469 L 62.921875 134.730469 C 62.484375 134.730469 62.28125 135.027344 62.28125 135.402344 L 62.28125 140.964844 C 62.28125 141.339844 62.484375 141.636719 62.921875 141.636719 C 63.34375 141.636719 63.546875 141.339844 63.546875 140.964844 Z M 63.546875 135.871094 L 65.21875 135.871094 C 65.640625 135.871094 65.890625 136.011719 65.890625 136.339844 C 65.890625 136.636719 65.484375 137.089844 65.21875 137.089844 L 64.609375 136.917969 C 64.359375 136.871094 64.09375 136.808594 63.546875 136.808594 Z M 73 139.058594 C 73 137.605469 72.109375 136.464844 70.546875 136.464844 C 68.984375 136.464844 68.078125 137.605469 68.078125 139.058594 C 68.078125 140.527344 68.984375 141.667969 70.546875 141.667969 C 72.109375 141.667969 73 140.527344 73 139.058594 Z M 71.75 139.058594 C 71.75 139.871094 71.359375 140.589844 70.546875 140.589844 C 69.71875 140.589844 69.34375 139.871094 69.34375 139.058594 C 69.34375 138.261719 69.71875 137.542969 70.546875 137.542969 C 71.359375 137.542969 71.75 138.261719 71.75 139.058594 Z M 78.265625 137.121094 C 78.265625 136.761719 78.078125 136.464844 77.671875 136.464844 C 77.265625 136.464844 77.0625 136.761719 77.0625 137.121094 L 77.0625 139.183594 C 77.0625 140.121094 76.625 140.589844 75.953125 140.589844 C 75.40625 140.589844 75.140625 140.246094 75.140625 139.542969 L 75.140625 137.121094 C 75.140625 136.761719 74.953125 136.464844 74.53125 136.464844 C 74.125 136.464844 73.9375 136.761719 73.9375 137.121094 L 73.9375 139.871094 C 73.9375 140.886719 74.640625 141.667969 75.71875 141.667969 C 76.265625 141.667969 76.671875 141.511719 77.0625 141.121094 C 77.0625 141.371094 77.265625 141.667969 77.671875 141.667969 C 78.078125 141.667969 78.265625 141.371094 78.265625 141.011719 Z M 80.871094 135.152344 C 80.871094 134.792969 80.683594 134.496094 80.277344 134.496094 C 79.871094 134.496094 79.683594 134.792969 79.683594 135.152344 L 79.683594 140.980469 C 79.683594 141.339844 79.871094 141.636719 80.277344 141.636719 C 80.683594 141.636719 80.871094 141.339844 80.871094 140.980469 Z M 86.246094 141.605469 C 86.574219 141.605469 86.824219 141.433594 86.824219 141.058594 C 86.824219 140.699219 86.574219 140.527344 86.246094 140.527344 L 84.964844 140.527344 C 84.121094 140.527344 83.402344 140.277344 83.324219 139.339844 L 86.386719 139.339844 C 86.808594 139.339844 86.871094 139.089844 86.871094 138.746094 C 86.871094 137.574219 86.183594 136.464844 84.511719 136.464844 C 82.980469 136.464844 82.011719 137.636719 82.011719 139.136719 C 82.011719 140.621094 83.011719 141.605469 84.792969 141.605469 Z M 83.402344 138.433594 C 83.542969 137.839844 84.042969 137.464844 84.511719 137.464844 C 84.980469 137.464844 85.480469 137.839844 85.621094 138.433594 Z M 89.898438 137.605469 C 89.929688 138.292969 87.382812 139.230469 87.382812 140.917969 C 87.382812 141.386719 87.507812 141.605469 88.101562 141.605469 L 90.929688 141.605469 C 91.242188 141.605469 91.507812 141.433594 91.507812 141.074219 C 91.507812 140.699219 91.242188 140.527344 90.929688 140.527344 L 88.851562 140.527344 C 88.851562 139.667969 91.320312 138.933594 91.414062 137.230469 C 91.414062 136.761719 91.179688 136.527344 90.679688 136.527344 L 88.226562 136.527344 C 87.898438 136.527344 87.632812 136.699219 87.632812 137.058594 C 87.632812 137.417969 87.898438 137.605469 88.226562 137.605469 Z M 91.667969 141.605469 "/>
</g>
</svg>
