<?xml version="1.0" encoding="UTF-8"?>
<svg xmlns="http://www.w3.org/2000/svg" xmlns:xlink="http://www.w3.org/1999/xlink" width="100pt" height="150pt" viewBox="0 0 100 150" version="1.1">
<g id="surface49">
<path style=" stroke:none;fill-rule:nonzero;fill:rgb(100%,100%,100%);fill-opacity:1;" d="M 1 17.667969 C 1 8.460938 8.460938 1 17.667969 1 L 82.332031 1 C 91.539062 1 99 8.460938 99 17.667969 L 99 132.332031 C 99 141.539062 91.539062 149 82.332031 149 L 17.667969 149 C 8.460938 149 1 141.539062 1 132.332031 L 1 17.667969 "/>
<path style=" stroke:none;fill-rule:nonzero;fill:rgb(99.607843%,99.607843%,99.607843%);fill-opacity:1;" d="M 5 75.03125 L 5 20.058594 L 50 20.019531 L 95 19.984375 L 95 130 L 5 130 Z M 34.820312 87.25 C 35.078125 85.417969 35.773438 85 38.570312 85 C 41.5625 85 42 85.320312 42 87.5 C 42 89.945312 42.167969 90 49.5 90 C 56.832031 90 57 89.945312 57 87.5 C 57 85.402344 57.472656 85 59.929688 85 C 62.207031 85 62.933594 85.5 63.179688 87.25 C 63.429688 89.011719 64.148438 89.5 66.5 89.5 C 68.851562 89.5 69.570312 89.011719 69.820312 87.25 C 69.996094 86.011719 70.78125 85 71.570312 85 C 72.355469 85 73 84.101562 73 83 C 73 81.054688 72.332031 81 48.5 81 C 24.667969 81 24 81.054688 24 83 C 24 84.332031 24.667969 85 26 85 C 27.273438 85 28 85.667969 28 86.832031 C 28 89.382812 29.011719 90.140625 31.960938 89.796875 C 33.71875 89.589844 34.597656 88.804688 34.820312 87.25 Z M 30.15625 87 C 30.15625 85.625 30.386719 85.0625 30.664062 85.75 C 30.941406 86.4375 30.941406 87.5625 30.664062 88.25 C 30.386719 88.9375 30.15625 88.375 30.15625 87 Z M 32.15625 87 C 32.15625 85.625 32.386719 85.0625 32.664062 85.75 C 32.941406 86.4375 32.941406 87.5625 32.664062 88.25 C 32.386719 88.9375 32.15625 88.375 32.15625 87 Z M 65.15625 87 C 65.15625 85.625 65.386719 85.0625 65.664062 85.75 C 65.941406 86.4375 65.941406 87.5625 65.664062 88.25 C 65.386719 88.9375 65.15625 88.375 65.15625 87 Z M 67.15625 87 C 67.15625 85.625 67.386719 85.0625 67.664062 85.75 C 67.941406 86.4375 67.941406 87.5625 67.664062 88.25 C 67.386719 88.9375 67.15625 88.375 67.15625 87 Z M 25 82.859375 C 25 82.386719 35.574219 82 48.5 82 C 61.425781 82 72 82.371094 72 82.820312 C 72 83.273438 61.425781 83.660156 48.5 83.679688 C 35.574219 83.703125 25 83.332031 25 82.859375 Z M 72.832031 74.5 C 73.253906 68.203125 71.464844 59.894531 68.363281 53.75 L 65.964844 49 L 32.039062 49 L 29.867188 53.25 C 28.671875 55.585938 27.09375 59.75 26.359375 62.5 C 24.945312 67.785156 24.53125 78.195312 25.683594 79.351562 C 26.0625 79.726562 36.75 79.914062 49.433594 79.769531 L 72.5 79.5 Z M 29.570312 75.429688 C 28.707031 74.5625 28 73.246094 28 72.5 C 28 70.75 30.75 68 32.5 68 C 34.25 68 37 70.75 37 72.5 C 37 74.25 34.25 77 32.5 77 C 31.753906 77 30.4375 76.292969 29.570312 75.429688 Z M 33.398438 74.167969 C 33.679688 73.707031 33.277344 73.332031 32.5 73.332031 C 31.722656 73.332031 31.320312 73.707031 31.601562 74.167969 C 31.886719 74.625 32.289062 75 32.5 75 C 32.710938 75 33.113281 74.625 33.398438 74.167969 Z M 34.269531 71.34375 C 33.59375 71.070312 32.242188 71.054688 31.269531 71.308594 C 30.296875 71.5625 30.851562 71.785156 32.5 71.804688 C 34.148438 71.824219 34.945312 71.617188 34.269531 71.34375 Z M 62.570312 75.429688 C 61.707031 74.5625 61 73.246094 61 72.5 C 61 71.753906 61.707031 70.4375 62.570312 69.570312 C 63.4375 68.707031 64.753906 68 65.5 68 C 67.25 68 70 70.75 70 72.5 C 70 74.25 67.25 77 65.5 77 C 64.753906 77 63.4375 76.292969 62.570312 75.429688 Z M 66.398438 74.167969 C 66.679688 73.707031 66.277344 73.332031 65.5 73.332031 C 64.722656 73.332031 64.320312 73.707031 64.601562 74.167969 C 64.886719 74.625 65.289062 75 65.5 75 C 65.710938 75 66.113281 74.625 66.398438 74.167969 Z M 67.269531 71.34375 C 66.59375 71.070312 65.242188 71.054688 64.269531 71.308594 C 63.296875 71.5625 63.851562 71.785156 65.5 71.804688 C 67.148438 71.824219 67.945312 71.617188 67.269531 71.34375 Z M 28 59.550781 C 28 59.277344 28.988281 57.015625 30.199219 54.527344 L 32.398438 50 L 65.601562 50 L 67.800781 54.527344 C 69.011719 57.015625 70 59.21875 70 59.425781 C 70 59.628906 60.550781 59.851562 49 59.921875 C 37.449219 59.988281 28 59.820312 28 59.550781 Z M 61.730469 58.394531 C 61.398438 58.0625 60.535156 58.027344 59.8125 58.316406 C 59.015625 58.636719 59.25 58.875 60.417969 58.921875 C 61.472656 58.964844 62.0625 58.726562 61.730469 58.394531 Z M 60.5 52.5 C 61.882812 52.5 62.6875 53.40625 63.167969 55.5 L 63.855469 58.5 L 63.675781 55.601562 C 63.453125 51.960938 60.828125 50.070312 58.582031 51.929688 C 57.710938 52.652344 57.054688 54.425781 57.117188 55.871094 C 57.230469 58.402344 57.261719 58.390625 57.878906 55.5 C 58.328125 53.390625 59.109375 52.5 60.5 52.5 Z M 60.5 52.5 "/>
<path style=" stroke:none;fill-rule:nonzero;fill:rgb(0%,99.607843%,0%);fill-opacity:1;" d="M 43 86.5 C 43 84.089844 43.234375 84 49.5 84 C 55.765625 84 56 84.089844 56 86.5 C 56 88.910156 55.765625 89 49.5 89 C 43.234375 89 43 88.910156 43 86.5 Z M 46.445312 85.914062 C 46.125 85.394531 45.4375 85.230469 44.914062 85.554688 C 44.394531 85.875 44.230469 86.5625 44.554688 87.085938 C 44.875 87.605469 45.5625 87.769531 46.085938 87.445312 C 46.605469 87.125 46.769531 86.4375 46.445312 85.914062 Z M 50.445312 85.914062 C 50.125 85.394531 49.4375 85.230469 48.914062 85.554688 C 48.394531 85.875 48.230469 86.5625 48.554688 87.085938 C 48.875 87.605469 49.5625 87.769531 50.085938 87.445312 C 50.605469 87.125 50.769531 86.4375 50.445312 85.914062 Z M 54.445312 85.914062 C 54.125 85.394531 53.4375 85.230469 52.914062 85.554688 C 52.394531 85.875 52.230469 86.5625 52.554688 87.085938 C 52.875 87.605469 53.5625 87.769531 54.085938 87.445312 C 54.605469 87.125 54.769531 86.4375 54.445312 85.914062 Z M 26 72.5 L 26 66 L 72 66 L 72 79 L 26 79 Z M 36 76 C 37.101562 74.898438 38 73.324219 38 72.5 C 38 70.5625 34.4375 67 32.5 67 C 30.5625 67 27 70.5625 27 72.5 C 27 74.4375 30.5625 78 32.5 78 C 33.324219 78 34.898438 77.101562 36 76 Z M 69 76 C 70.101562 74.898438 71 73.324219 71 72.5 C 71 71.675781 70.101562 70.101562 69 69 C 67.898438 67.898438 66.324219 67 65.5 67 C 64.675781 67 63.101562 67.898438 62 69 C 60.898438 70.101562 60 71.675781 60 72.5 C 60 73.324219 60.898438 74.898438 62 76 C 63.101562 77.101562 64.675781 78 65.5 78 C 66.324219 78 67.898438 77.101562 69 76 Z M 56.078125 74.25 C 57.207031 72.761719 57.195312 72.6875 56 73.75 C 55.230469 74.4375 52.078125 75 49 75 C 45.921875 75 42.769531 74.4375 42 73.75 C 40.804688 72.6875 40.792969 72.761719 41.921875 74.25 C 42.914062 75.5625 44.691406 76 49 76 C 53.308594 76 55.085938 75.5625 56.078125 74.25 Z M 53.25 71.269531 C 50.914062 71.058594 47.085938 71.058594 44.75 71.269531 C 42.414062 71.476562 44.324219 71.652344 49 71.652344 C 53.675781 71.652344 55.585938 71.476562 53.25 71.269531 Z M 53.25 69.269531 C 50.914062 69.058594 47.085938 69.058594 44.75 69.269531 C 42.414062 69.476562 44.324219 69.652344 49 69.652344 C 53.675781 69.652344 55.585938 69.476562 53.25 69.269531 Z M 27.394531 63.417969 C 27.726562 62.546875 28 61.648438 28 61.417969 C 28 61.1875 37.402344 61 48.894531 61 C 67.023438 61 69.867188 61.210938 70.394531 62.582031 C 70.726562 63.453125 71 64.351562 71 64.582031 C 71 64.8125 61.050781 65 48.894531 65 C 29.144531 65 26.851562 64.832031 27.394531 63.417969 Z M 27.394531 63.417969 "/>
<path style=" stroke:none;fill-rule:nonzero;fill:rgb(0%,0%,0%);fill-opacity:1;" d="M 28.710938 89.378906 C 28.320312 88.988281 28 87.839844 28 86.832031 C 28 85.667969 27.273438 85 26 85 C 24.667969 85 24 84.332031 24 83 C 24 81.054688 24.667969 81 48.5 81 C 72.332031 81 73 81.054688 73 83 C 73 84.101562 72.355469 85 71.570312 85 C 70.78125 85 69.996094 86.011719 69.820312 87.25 C 69.570312 89.011719 68.851562 89.5 66.5 89.5 C 64.148438 89.5 63.429688 89.011719 63.179688 87.25 C 62.933594 85.5 62.207031 85 59.929688 85 C 57.472656 85 57 85.402344 57 87.5 C 57 89.945312 56.832031 90 49.5 90 C 42.167969 90 42 89.945312 42 87.5 C 42 85.320312 41.5625 85 38.570312 85 C 35.773438 85 35.078125 85.417969 34.820312 87.25 C 34.597656 88.804688 33.71875 89.589844 31.960938 89.796875 C 30.566406 89.957031 29.105469 89.769531 28.710938 89.378906 Z M 30.664062 85.75 C 30.386719 85.0625 30.15625 85.625 30.15625 87 C 30.15625 88.375 30.386719 88.9375 30.664062 88.25 C 30.941406 87.5625 30.941406 86.4375 30.664062 85.75 Z M 32.664062 85.75 C 32.386719 85.0625 32.15625 85.625 32.15625 87 C 32.15625 88.375 32.386719 88.9375 32.664062 88.25 C 32.941406 87.5625 32.941406 86.4375 32.664062 85.75 Z M 56 86.5 C 56 84.089844 55.765625 84 49.5 84 C 43.234375 84 43 84.089844 43 86.5 C 43 88.910156 43.234375 89 49.5 89 C 55.765625 89 56 88.910156 56 86.5 Z M 44.554688 87.085938 C 44.230469 86.5625 44.394531 85.875 44.914062 85.554688 C 45.4375 85.230469 46.125 85.394531 46.445312 85.914062 C 46.769531 86.4375 46.605469 87.125 46.085938 87.445312 C 45.5625 87.769531 44.875 87.605469 44.554688 87.085938 Z M 48.554688 87.085938 C 48.230469 86.5625 48.394531 85.875 48.914062 85.554688 C 49.4375 85.230469 50.125 85.394531 50.445312 85.914062 C 50.769531 86.4375 50.605469 87.125 50.085938 87.445312 C 49.5625 87.769531 48.875 87.605469 48.554688 87.085938 Z M 52.554688 87.085938 C 52.230469 86.5625 52.394531 85.875 52.914062 85.554688 C 53.4375 85.230469 54.125 85.394531 54.445312 85.914062 C 54.769531 86.4375 54.605469 87.125 54.085938 87.445312 C 53.5625 87.769531 52.875 87.605469 52.554688 87.085938 Z M 65.664062 85.75 C 65.386719 85.0625 65.15625 85.625 65.15625 87 C 65.15625 88.375 65.386719 88.9375 65.664062 88.25 C 65.941406 87.5625 65.941406 86.4375 65.664062 85.75 Z M 67.664062 85.75 C 67.386719 85.0625 67.15625 85.625 67.15625 87 C 67.15625 88.375 67.386719 88.9375 67.664062 88.25 C 67.941406 87.5625 67.941406 86.4375 67.664062 85.75 Z M 72 82.820312 C 72 82.371094 61.425781 82 48.5 82 C 35.574219 82 25 82.386719 25 82.859375 C 25 83.332031 35.574219 83.703125 48.5 83.679688 C 61.425781 83.660156 72 83.273438 72 82.820312 Z M 25.683594 79.351562 C 24.53125 78.195312 24.945312 67.785156 26.359375 62.5 C 27.09375 59.75 28.671875 55.585938 29.867188 53.25 L 32.039062 49 L 65.964844 49 L 68.363281 53.75 C 71.464844 59.894531 73.253906 68.203125 72.832031 74.5 L 72.5 79.5 L 49.433594 79.769531 C 36.75 79.914062 26.0625 79.726562 25.683594 79.351562 Z M 72 72.5 L 72 66 L 26 66 L 26 79 L 72 79 Z M 29 76 C 27.898438 74.898438 27 73.324219 27 72.5 C 27 70.5625 30.5625 67 32.5 67 C 34.4375 67 38 70.5625 38 72.5 C 38 74.4375 34.4375 78 32.5 78 C 31.675781 78 30.101562 77.101562 29 76 Z M 35.429688 75.429688 C 36.292969 74.5625 37 73.246094 37 72.5 C 37 70.75 34.25 68 32.5 68 C 30.75 68 28 70.75 28 72.5 C 28 74.25 30.75 77 32.5 77 C 33.246094 77 34.5625 76.292969 35.429688 75.429688 Z M 31.601562 74.167969 C 31.320312 73.707031 31.722656 73.332031 32.5 73.332031 C 33.277344 73.332031 33.679688 73.707031 33.398438 74.167969 C 33.113281 74.625 32.710938 75 32.5 75 C 32.289062 75 31.886719 74.625 31.601562 74.167969 Z M 31.269531 71.308594 C 32.242188 71.054688 33.59375 71.070312 34.269531 71.34375 C 34.945312 71.617188 34.148438 71.824219 32.5 71.804688 C 30.851562 71.785156 30.296875 71.5625 31.269531 71.308594 Z M 62 76 C 60.898438 74.898438 60 73.324219 60 72.5 C 60 71.675781 60.898438 70.101562 62 69 C 63.101562 67.898438 64.675781 67 65.5 67 C 66.324219 67 67.898438 67.898438 69 69 C 70.101562 70.101562 71 71.675781 71 72.5 C 71 73.324219 70.101562 74.898438 69 76 C 67.898438 77.101562 66.324219 78 65.5 78 C 64.675781 78 63.101562 77.101562 62 76 Z M 68.429688 75.429688 C 69.292969 74.5625 70 73.246094 70 72.5 C 70 70.75 67.25 68 65.5 68 C 64.753906 68 63.4375 68.707031 62.570312 69.570312 C 61.707031 70.4375 61 71.753906 61 72.5 C 61 73.246094 61.707031 74.5625 62.570312 75.429688 C 63.4375 76.292969 64.753906 77 65.5 77 C 66.246094 77 67.5625 76.292969 68.429688 75.429688 Z M 64.601562 74.167969 C 64.320312 73.707031 64.722656 73.332031 65.5 73.332031 C 66.277344 73.332031 66.679688 73.707031 66.398438 74.167969 C 66.113281 74.625 65.710938 75 65.5 75 C 65.289062 75 64.886719 74.625 64.601562 74.167969 Z M 64.269531 71.308594 C 65.242188 71.054688 66.59375 71.070312 67.269531 71.34375 C 67.945312 71.617188 67.148438 71.824219 65.5 71.804688 C 63.851562 71.785156 63.296875 71.5625 64.269531 71.308594 Z M 41.921875 74.25 C 40.792969 72.761719 40.804688 72.6875 42 73.75 C 42.769531 74.4375 45.921875 75 49 75 C 52.078125 75 55.230469 74.4375 56 73.75 C 57.195312 72.6875 57.207031 72.761719 56.078125 74.25 C 54.195312 76.738281 43.804688 76.738281 41.921875 74.25 Z M 44.75 71.269531 C 47.085938 71.058594 50.914062 71.058594 53.25 71.269531 C 55.585938 71.476562 53.675781 71.652344 49 71.652344 C 44.324219 71.652344 42.414062 71.476562 44.75 71.269531 Z M 44.75 69.269531 C 47.085938 69.058594 50.914062 69.058594 53.25 69.269531 C 55.585938 69.476562 53.675781 69.652344 49 69.652344 C 44.324219 69.652344 42.414062 69.476562 44.75 69.269531 Z M 71 64.582031 C 71 64.351562 70.726562 63.453125 70.394531 62.582031 C 69.867188 61.210938 67.023438 61 48.894531 61 C 37.402344 61 28 61.1875 28 61.417969 C 28 61.648438 27.726562 62.546875 27.394531 63.417969 C 26.851562 64.832031 29.144531 65 48.894531 65 C 61.050781 65 71 64.8125 71 64.582031 Z M 70 59.425781 C 70 59.21875 69.011719 57.015625 67.800781 54.527344 L 65.601562 50 L 32.398438 50 L 30.199219 54.527344 C 28.988281 57.015625 28 59.277344 28 59.550781 C 28 59.820312 37.449219 59.988281 49 59.921875 C 60.550781 59.851562 70 59.628906 70 59.425781 Z M 59.8125 58.316406 C 60.535156 58.027344 61.398438 58.0625 61.730469 58.394531 C 62.0625 58.726562 61.472656 58.964844 60.417969 58.921875 C 59.25 58.875 59.015625 58.636719 59.8125 58.316406 Z M 57.117188 55.871094 C 57.054688 54.425781 57.710938 52.652344 58.582031 51.929688 C 60.828125 50.070312 63.453125 51.960938 63.675781 55.601562 L 63.855469 58.5 L 63.167969 55.5 C 62.6875 53.40625 61.882812 52.5 60.5 52.5 C 59.109375 52.5 58.328125 53.390625 57.878906 55.5 C 57.261719 58.390625 57.230469 58.402344 57.117188 55.871094 Z M 57.117188 55.871094 "/>
<path style="fill:none;stroke-width:2;stroke-linecap:butt;stroke-linejoin:miter;stroke:rgb(0%,0%,0%);stroke-opacity:1;stroke-miterlimit:10;" d="M 1 17.667969 C 1 8.460938 8.460938 1 17.667969 1 L 82.332031 1 C 91.539062 1 99 8.460938 99 17.667969 L 99 132.332031 C 99 141.539062 91.539062 149 82.332031 149 L 17.667969 149 C 8.460938 149 1 141.539062 1 132.332031 L 1 17.667969 "/>
<path style=" stroke:none;fill-rule:nonzero;fill:rgb(0%,0%,0%);fill-opacity:1;" d="M 9.59375 11.769531 C 11.5 11.769531 12.328125 13.160156 12.359375 14.660156 C 12.359375 15.128906 12.46875 15.503906 13.015625 15.503906 C 13.515625 15.503906 13.609375 15.066406 13.609375 14.597656 C 13.609375 13.644531 13.15625 12.363281 12.296875 11.582031 C 12.828125 11.238281 13.203125 10.691406 13.203125 10.019531 C 13.203125 9.035156 12.625 8.597656 11.109375 8.597656 L 8.96875 8.597656 C 8.53125 8.597656 8.328125 8.894531 8.328125 9.269531 L 8.328125 14.832031 C 8.328125 15.207031 8.53125 15.503906 8.96875 15.503906 C 9.390625 15.503906 9.59375 15.207031 9.59375 14.832031 Z M 9.59375 9.738281 L 11.265625 9.738281 C 11.6875 9.738281 11.9375 9.878906 11.9375 10.207031 C 11.9375 10.503906 11.53125 10.957031 11.265625 10.957031 L 10.65625 10.785156 C 10.40625 10.738281 10.140625 10.675781 9.59375 10.675781 Z M 18.390625 15.472656 C 18.71875 15.472656 18.96875 15.300781 18.96875 14.925781 C 18.96875 14.566406 18.71875 14.394531 18.390625 14.394531 L 17.109375 14.394531 C 16.265625 14.394531 15.546875 14.144531 15.46875 13.207031 L 18.53125 13.207031 C 18.953125 13.207031 19.015625 12.957031 19.015625 12.613281 C 19.015625 11.441406 18.328125 10.332031 16.65625 10.332031 C 15.125 10.332031 14.15625 11.503906 14.15625 13.003906 C 14.15625 14.488281 15.15625 15.472656 16.9375 15.472656 Z M 15.546875 12.300781 C 15.6875 11.707031 16.1875 11.332031 16.65625 11.332031 C 17.125 11.332031 17.625 11.707031 17.765625 12.300781 Z M 15.546875 9.128906 C 15.390625 9.191406 15.296875 9.285156 15.296875 9.394531 C 15.296875 9.660156 15.421875 9.878906 15.65625 9.878906 C 15.828125 9.878906 16.1875 9.769531 16.53125 9.675781 L 17.828125 9.378906 C 18.03125 9.332031 18.078125 9.238281 18.0625 9.035156 C 18.046875 8.785156 17.984375 8.425781 17.6875 8.425781 C 17.484375 8.425781 17.265625 8.519531 17.015625 8.613281 Z M 22.15625 15.472656 C 23.796875 15.472656 24.65625 14.457031 24.65625 13.207031 C 24.65625 11.753906 23.578125 10.332031 21.140625 10.332031 C 20.296875 10.332031 20 10.535156 20 10.910156 L 20 16.941406 C 20 17.300781 20.1875 17.597656 20.609375 17.597656 C 21.015625 17.597656 21.203125 17.300781 21.203125 16.941406 L 21.203125 15.472656 Z M 21.203125 11.410156 C 22.5625 11.457031 23.390625 12.128906 23.390625 13.238281 C 23.390625 13.988281 22.796875 14.394531 21.8125 14.394531 L 21.203125 14.394531 Z M 29.636719 12.097656 C 29.636719 10.863281 29.011719 10.394531 27.949219 10.394531 L 26.199219 10.394531 C 25.871094 10.394531 25.621094 10.566406 25.621094 10.925781 C 25.621094 11.300781 25.871094 11.472656 26.199219 11.472656 L 28.027344 11.472656 C 28.308594 11.472656 28.433594 11.613281 28.433594 12.128906 L 28.011719 12.128906 C 26.839844 12.128906 25.230469 12.519531 25.230469 13.957031 C 25.230469 14.910156 25.980469 15.535156 26.980469 15.535156 C 27.667969 15.535156 28.214844 15.347656 28.527344 14.957031 C 28.558594 15.332031 28.714844 15.535156 29.042969 15.535156 C 29.480469 15.535156 29.636719 15.285156 29.636719 14.878906 Z M 28.496094 13.660156 C 28.496094 14.238281 27.917969 14.566406 27.355469 14.566406 C 26.746094 14.566406 26.433594 14.300781 26.433594 13.894531 C 26.433594 13.425781 27.105469 13.019531 28.496094 13.019531 Z M 31.179688 14.816406 C 31.179688 15.207031 31.398438 15.503906 31.789062 15.503906 C 32.164062 15.503906 32.382812 15.207031 32.382812 14.816406 L 32.382812 12.628906 C 32.382812 11.707031 32.679688 11.472656 33.257812 11.472656 C 33.695312 11.472656 33.945312 11.285156 33.945312 10.910156 C 33.945312 10.566406 33.773438 10.332031 33.335938 10.332031 C 32.773438 10.332031 32.398438 10.566406 32.304688 11.128906 L 32.289062 11.128906 L 32.273438 10.816406 C 32.226562 10.363281 31.945312 10.332031 31.726562 10.332031 C 31.382812 10.332031 31.179688 10.535156 31.179688 10.941406 Z M 38.527344 12.097656 C 38.527344 10.863281 37.902344 10.394531 36.839844 10.394531 L 35.089844 10.394531 C 34.761719 10.394531 34.511719 10.566406 34.511719 10.925781 C 34.511719 11.300781 34.761719 11.472656 35.089844 11.472656 L 36.917969 11.472656 C 37.199219 11.472656 37.324219 11.613281 37.324219 12.128906 L 36.902344 12.128906 C 35.730469 12.128906 34.121094 12.519531 34.121094 13.957031 C 34.121094 14.910156 34.871094 15.535156 35.871094 15.535156 C 36.558594 15.535156 37.105469 15.347656 37.417969 14.957031 C 37.449219 15.332031 37.605469 15.535156 37.933594 15.535156 C 38.371094 15.535156 38.527344 15.285156 38.527344 14.878906 Z M 37.386719 13.660156 C 37.386719 14.238281 36.808594 14.566406 36.246094 14.566406 C 35.636719 14.566406 35.324219 14.300781 35.324219 13.894531 C 35.324219 13.425781 35.996094 13.019531 37.386719 13.019531 Z M 42.460938 11.472656 C 42.789062 11.472656 43.039062 11.300781 43.039062 10.925781 C 43.039062 10.566406 42.789062 10.394531 42.460938 10.394531 L 41.585938 10.394531 L 41.585938 9.535156 C 41.585938 9.175781 41.398438 8.894531 40.976562 8.894531 C 40.570312 8.894531 40.382812 9.175781 40.382812 9.535156 L 40.382812 10.394531 L 40.039062 10.394531 C 39.710938 10.394531 39.445312 10.566406 39.445312 10.925781 C 39.445312 11.300781 39.710938 11.472656 40.039062 11.472656 L 40.382812 11.472656 L 40.382812 13.628906 C 40.382812 15.472656 41.085938 15.472656 42.601562 15.472656 C 43.148438 15.472656 43.414062 15.285156 43.414062 14.910156 C 43.414062 14.519531 43.148438 14.332031 42.804688 14.332031 L 42.164062 14.332031 C 41.695312 14.332031 41.585938 14.050781 41.585938 13.457031 L 41.585938 11.472656 Z M 45.257812 10.988281 C 45.257812 10.628906 45.070312 10.332031 44.664062 10.332031 C 44.257812 10.332031 44.070312 10.628906 44.070312 10.988281 L 44.070312 14.847656 C 44.070312 15.207031 44.257812 15.503906 44.664062 15.503906 C 45.070312 15.503906 45.257812 15.207031 45.257812 14.847656 Z M 44.664062 8.332031 C 44.289062 8.332031 44.007812 8.597656 44.007812 9.066406 C 44.007812 9.550781 44.289062 9.816406 44.664062 9.816406 C 45.039062 9.816406 45.320312 9.550781 45.320312 9.066406 C 45.320312 8.597656 45.039062 8.332031 44.664062 8.332031 Z M 51.289062 12.925781 C 51.289062 11.472656 50.398438 10.332031 48.835938 10.332031 C 47.273438 10.332031 46.367188 11.472656 46.367188 12.925781 C 46.367188 14.394531 47.273438 15.535156 48.835938 15.535156 C 50.398438 15.535156 51.289062 14.394531 51.289062 12.925781 Z M 50.039062 12.925781 C 50.039062 13.738281 49.648438 14.457031 48.835938 14.457031 C 48.007812 14.457031 47.632812 13.738281 47.632812 12.925781 C 47.632812 12.128906 48.007812 11.410156 48.835938 11.410156 C 49.648438 11.410156 50.039062 12.128906 50.039062 12.925781 Z M 52.222656 14.847656 C 52.222656 15.207031 52.410156 15.503906 52.816406 15.503906 C 53.238281 15.503906 53.425781 15.207031 53.425781 14.847656 L 53.425781 12.816406 C 53.425781 11.878906 53.863281 11.410156 54.550781 11.410156 C 55.082031 11.410156 55.347656 11.753906 55.347656 12.457031 L 55.347656 14.847656 C 55.347656 15.207031 55.550781 15.503906 55.957031 15.503906 C 56.363281 15.503906 56.550781 15.207031 56.550781 14.847656 L 56.550781 12.128906 C 56.550781 11.113281 55.847656 10.332031 54.769531 10.332031 C 54.222656 10.332031 53.816406 10.488281 53.425781 10.878906 C 53.425781 10.628906 53.238281 10.332031 52.816406 10.332031 C 52.410156 10.332031 52.222656 10.628906 52.222656 10.988281 Z M 59.921875 15.472656 C 61.046875 15.472656 61.890625 14.957031 61.890625 13.753906 C 61.890625 11.644531 58.734375 12.410156 58.734375 11.722656 C 58.734375 11.488281 58.984375 11.472656 59.171875 11.472656 L 60.921875 11.472656 C 61.234375 11.472656 61.5 11.300781 61.5 10.925781 C 61.5 10.566406 61.234375 10.394531 60.921875 10.394531 L 59.234375 10.394531 C 58.140625 10.394531 57.546875 10.800781 57.546875 11.707031 C 57.546875 13.800781 60.6875 12.707031 60.6875 13.738281 C 60.6875 14.285156 60.3125 14.394531 59.828125 14.394531 L 58.03125 14.394531 C 57.703125 14.394531 57.4375 14.566406 57.4375 14.925781 C 57.4375 15.300781 57.703125 15.472656 58.03125 15.472656 Z M 62.171875 15.472656 "/>
<path style=" stroke:none;fill-rule:nonzero;fill:rgb(0%,0%,0%);fill-opacity:1;" d="M 39.085938 135.84375 C 40.992188 135.84375 41.820312 137.234375 41.851562 138.734375 C 41.851562 139.203125 41.960938 139.578125 42.507812 139.578125 C 43.007812 139.578125 43.101562 139.140625 43.101562 138.671875 C 43.101562 137.71875 42.648438 136.4375 41.789062 135.65625 C 42.320312 135.3125 42.695312 134.765625 42.695312 134.09375 C 42.695312 133.109375 42.117188 132.671875 40.601562 132.671875 L 38.460938 132.671875 C 38.023438 132.671875 37.820312 132.96875 37.820312 133.34375 L 37.820312 138.90625 C 37.820312 139.28125 38.023438 139.578125 38.460938 139.578125 C 38.882812 139.578125 39.085938 139.28125 39.085938 138.90625 Z M 39.085938 133.8125 L 40.757812 133.8125 C 41.179688 133.8125 41.429688 133.953125 41.429688 134.28125 C 41.429688 134.578125 41.023438 135.03125 40.757812 135.03125 L 40.148438 134.859375 C 39.898438 134.8125 39.632812 134.75 39.085938 134.75 Z M 47.882812 139.546875 C 48.210938 139.546875 48.460938 139.375 48.460938 139 C 48.460938 138.640625 48.210938 138.46875 47.882812 138.46875 L 46.601562 138.46875 C 45.757812 138.46875 45.039062 138.21875 44.960938 137.28125 L 48.023438 137.28125 C 48.445312 137.28125 48.507812 137.03125 48.507812 136.6875 C 48.507812 135.515625 47.820312 134.40625 46.148438 134.40625 C 44.617188 134.40625 43.648438 135.578125 43.648438 137.078125 C 43.648438 138.5625 44.648438 139.546875 46.429688 139.546875 Z M 45.039062 136.375 C 45.179688 135.78125 45.679688 135.40625 46.148438 135.40625 C 46.617188 135.40625 47.117188 135.78125 47.257812 136.375 Z M 45.039062 133.203125 C 44.882812 133.265625 44.789062 133.359375 44.789062 133.46875 C 44.789062 133.734375 44.914062 133.953125 45.148438 133.953125 C 45.320312 133.953125 45.679688 133.84375 46.023438 133.75 L 47.320312 133.453125 C 47.523438 133.40625 47.570312 133.3125 47.554688 133.109375 C 47.539062 132.859375 47.476562 132.5 47.179688 132.5 C 46.976562 132.5 46.757812 132.59375 46.507812 132.6875 Z M 51.648438 139.546875 C 53.289062 139.546875 54.148438 138.53125 54.148438 137.28125 C 54.148438 135.828125 53.070312 134.40625 50.632812 134.40625 C 49.789062 134.40625 49.492188 134.609375 49.492188 134.984375 L 49.492188 141.015625 C 49.492188 141.375 49.679688 141.671875 50.101562 141.671875 C 50.507812 141.671875 50.695312 141.375 50.695312 141.015625 L 50.695312 139.546875 Z M 50.695312 135.484375 C 52.054688 135.53125 52.882812 136.203125 52.882812 137.3125 C 52.882812 138.0625 52.289062 138.46875 51.304688 138.46875 L 50.695312 138.46875 Z M 59.128906 136.171875 C 59.128906 134.9375 58.503906 134.46875 57.441406 134.46875 L 55.691406 134.46875 C 55.363281 134.46875 55.113281 134.640625 55.113281 135 C 55.113281 135.375 55.363281 135.546875 55.691406 135.546875 L 57.519531 135.546875 C 57.800781 135.546875 57.925781 135.6875 57.925781 136.203125 L 57.503906 136.203125 C 56.332031 136.203125 54.722656 136.59375 54.722656 138.03125 C 54.722656 138.984375 55.472656 139.609375 56.472656 139.609375 C 57.160156 139.609375 57.707031 139.421875 58.019531 139.03125 C 58.050781 139.40625 58.207031 139.609375 58.535156 139.609375 C 58.972656 139.609375 59.128906 139.359375 59.128906 138.953125 Z M 57.988281 137.734375 C 57.988281 138.3125 57.410156 138.640625 56.847656 138.640625 C 56.238281 138.640625 55.925781 138.375 55.925781 137.96875 C 55.925781 137.5 56.597656 137.09375 57.988281 137.09375 Z M 60.671875 138.890625 C 60.671875 139.28125 60.890625 139.578125 61.28125 139.578125 C 61.65625 139.578125 61.875 139.28125 61.875 138.890625 L 61.875 136.703125 C 61.875 135.78125 62.171875 135.546875 62.75 135.546875 C 63.1875 135.546875 63.4375 135.359375 63.4375 134.984375 C 63.4375 134.640625 63.265625 134.40625 62.828125 134.40625 C 62.265625 134.40625 61.890625 134.640625 61.796875 135.203125 L 61.78125 135.203125 L 61.765625 134.890625 C 61.71875 134.4375 61.4375 134.40625 61.21875 134.40625 C 60.875 134.40625 60.671875 134.609375 60.671875 135.015625 Z M 68.019531 136.171875 C 68.019531 134.9375 67.394531 134.46875 66.332031 134.46875 L 64.582031 134.46875 C 64.253906 134.46875 64.003906 134.640625 64.003906 135 C 64.003906 135.375 64.253906 135.546875 64.582031 135.546875 L 66.410156 135.546875 C 66.691406 135.546875 66.816406 135.6875 66.816406 136.203125 L 66.394531 136.203125 C 65.222656 136.203125 63.613281 136.59375 63.613281 138.03125 C 63.613281 138.984375 64.363281 139.609375 65.363281 139.609375 C 66.050781 139.609375 66.597656 139.421875 66.910156 139.03125 C 66.941406 139.40625 67.097656 139.609375 67.425781 139.609375 C 67.863281 139.609375 68.019531 139.359375 68.019531 138.953125 Z M 66.878906 137.734375 C 66.878906 138.3125 66.300781 138.640625 65.738281 138.640625 C 65.128906 138.640625 64.816406 138.375 64.816406 137.96875 C 64.816406 137.5 65.488281 137.09375 66.878906 137.09375 Z M 71.953125 135.546875 C 72.28125 135.546875 72.53125 135.375 72.53125 135 C 72.53125 134.640625 72.28125 134.46875 71.953125 134.46875 L 71.078125 134.46875 L 71.078125 133.609375 C 71.078125 133.25 70.890625 132.96875 70.46875 132.96875 C 70.0625 132.96875 69.875 133.25 69.875 133.609375 L 69.875 134.46875 L 69.53125 134.46875 C 69.203125 134.46875 68.9375 134.640625 68.9375 135 C 68.9375 135.375 69.203125 135.546875 69.53125 135.546875 L 69.875 135.546875 L 69.875 137.703125 C 69.875 139.546875 70.578125 139.546875 72.09375 139.546875 C 72.640625 139.546875 72.90625 139.359375 72.90625 138.984375 C 72.90625 138.59375 72.640625 138.40625 72.296875 138.40625 L 71.65625 138.40625 C 71.1875 138.40625 71.078125 138.125 71.078125 137.53125 L 71.078125 135.546875 Z M 74.75 135.0625 C 74.75 134.703125 74.5625 134.40625 74.15625 134.40625 C 73.75 134.40625 73.5625 134.703125 73.5625 135.0625 L 73.5625 138.921875 C 73.5625 139.28125 73.75 139.578125 74.15625 139.578125 C 74.5625 139.578125 74.75 139.28125 74.75 138.921875 Z M 74.15625 132.40625 C 73.78125 132.40625 73.5 132.671875 73.5 133.140625 C 73.5 133.625 73.78125 133.890625 74.15625 133.890625 C 74.53125 133.890625 74.8125 133.625 74.8125 133.140625 C 74.8125 132.671875 74.53125 132.40625 74.15625 132.40625 Z M 80.78125 137 C 80.78125 135.546875 79.890625 134.40625 78.328125 134.40625 C 76.765625 134.40625 75.859375 135.546875 75.859375 137 C 75.859375 138.46875 76.765625 139.609375 78.328125 139.609375 C 79.890625 139.609375 80.78125 138.46875 80.78125 137 Z M 79.53125 137 C 79.53125 137.8125 79.140625 138.53125 78.328125 138.53125 C 77.5 138.53125 77.125 137.8125 77.125 137 C 77.125 136.203125 77.5 135.484375 78.328125 135.484375 C 79.140625 135.484375 79.53125 136.203125 79.53125 137 Z M 81.714844 138.921875 C 81.714844 139.28125 81.902344 139.578125 82.308594 139.578125 C 82.730469 139.578125 82.917969 139.28125 82.917969 138.921875 L 82.917969 136.890625 C 82.917969 135.953125 83.355469 135.484375 84.042969 135.484375 C 84.574219 135.484375 84.839844 135.828125 84.839844 136.53125 L 84.839844 138.921875 C 84.839844 139.28125 85.042969 139.578125 85.449219 139.578125 C 85.855469 139.578125 86.042969 139.28125 86.042969 138.921875 L 86.042969 136.203125 C 86.042969 135.1875 85.339844 134.40625 84.261719 134.40625 C 83.714844 134.40625 83.308594 134.5625 82.917969 134.953125 C 82.917969 134.703125 82.730469 134.40625 82.308594 134.40625 C 81.902344 134.40625 81.714844 134.703125 81.714844 135.0625 Z M 89.414062 139.546875 C 90.539062 139.546875 91.382812 139.03125 91.382812 137.828125 C 91.382812 135.71875 88.226562 136.484375 88.226562 135.796875 C 88.226562 135.5625 88.476562 135.546875 88.664062 135.546875 L 90.414062 135.546875 C 90.726562 135.546875 90.992188 135.375 90.992188 135 C 90.992188 134.640625 90.726562 134.46875 90.414062 134.46875 L 88.726562 134.46875 C 87.632812 134.46875 87.039062 134.875 87.039062 135.78125 C 87.039062 137.875 90.179688 136.78125 90.179688 137.8125 C 90.179688 138.359375 89.804688 138.46875 89.320312 138.46875 L 87.523438 138.46875 C 87.195312 138.46875 86.929688 138.640625 86.929688 139 C 86.929688 139.375 87.195312 139.546875 87.523438 139.546875 Z M 91.664062 139.546875 "/>
</g>
</svg>
