<?xml version="1.0" encoding="UTF-8"?>
<svg xmlns="http://www.w3.org/2000/svg" xmlns:xlink="http://www.w3.org/1999/xlink" width="100pt" height="150pt" viewBox="0 0 100 150" version="1.1">
<g id="surface58">
<path style=" stroke:none;fill-rule:nonzero;fill:rgb(100%,100%,100%);fill-opacity:1;" d="M 1 17.667969 C 1 8.460938 8.460938 1 17.667969 1 L 82.332031 1 C 91.539062 1 99 8.460938 99 17.667969 L 99 132.332031 C 99 141.539062 91.539062 149 82.332031 149 L 17.667969 149 C 8.460938 149 1 141.539062 1 132.332031 L 1 17.667969 "/>
<path style=" stroke:none;fill-rule:nonzero;fill:rgb(99.607843%,99.607843%,99.607843%);fill-opacity:1;" d="M 5 75.027344 L 5 20.054688 L 50 20.019531 L 95 19.988281 L 95 130 L 5 130 Z M 74 74.5 L 74 30 L 26 30 L 26 119 L 74 119 Z M 45.3125 108.535156 C 42.964844 107.515625 41.820312 106.128906 40.964844 103.277344 C 38.335938 94.5 45.753906 87.78125 54.1875 91.304688 C 61.40625 94.320312 61.558594 105.613281 54.421875 108.597656 C 50.328125 110.308594 49.371094 110.300781 45.3125 108.535156 Z M 53.800781 107.921875 C 60.527344 105.574219 60.273438 94.234375 53.441406 91.980469 C 45.421875 89.335938 39.332031 95.417969 41.980469 103.433594 C 43.554688 108.203125 48.066406 109.917969 53.800781 107.921875 Z M 45.3125 83.535156 C 42.964844 82.515625 41.820312 81.128906 40.964844 78.277344 C 38.335938 69.5 45.753906 62.78125 54.1875 66.304688 C 61.40625 69.320312 61.558594 80.613281 54.421875 83.597656 C 50.328125 85.308594 49.371094 85.300781 45.3125 83.535156 Z M 53.800781 82.921875 C 60.527344 80.574219 60.273438 69.234375 53.441406 66.980469 C 45.421875 64.335938 39.332031 70.417969 41.980469 78.433594 C 43.554688 83.203125 48.066406 84.917969 53.800781 82.921875 Z M 45.3125 58.535156 C 42.964844 57.515625 41.820312 56.128906 40.964844 53.277344 C 38.335938 44.5 45.753906 37.78125 54.1875 41.304688 C 61.40625 44.320312 61.558594 55.613281 54.421875 58.597656 C 50.328125 60.308594 49.371094 60.300781 45.3125 58.535156 Z M 53.800781 57.921875 C 60.527344 55.574219 60.273438 44.234375 53.441406 41.980469 C 45.421875 39.335938 39.332031 45.417969 41.980469 53.433594 C 43.554688 58.203125 48.066406 59.917969 53.800781 57.921875 Z M 53.800781 57.921875 "/>
<path style=" stroke:none;fill-rule:nonzero;fill:rgb(99.607843%,0%,0%);fill-opacity:1;" d="M 45.804688 57.855469 C 42.167969 56.527344 40.40625 51.324219 41.980469 46.558594 C 43.4375 42.148438 48.191406 40.25 53.441406 41.980469 C 60.273438 44.234375 60.527344 55.574219 53.800781 57.921875 C 50.179688 59.183594 49.410156 59.175781 45.804688 57.855469 Z M 45.804688 57.855469 "/>
<path style=" stroke:none;fill-rule:nonzero;fill:rgb(0%,0%,0%);fill-opacity:1;" d="M 26 74.5 L 26 30 L 74 30 L 74 119 L 26 119 Z M 54.421875 108.597656 C 61.558594 105.613281 61.40625 94.320312 54.1875 91.304688 C 45.753906 87.78125 38.335938 94.5 40.964844 103.277344 C 41.820312 106.128906 42.964844 107.515625 45.3125 108.535156 C 49.371094 110.300781 50.328125 110.308594 54.421875 108.597656 Z M 45.804688 107.855469 C 42.167969 106.527344 40.40625 101.324219 41.980469 96.558594 C 43.4375 92.148438 48.191406 90.25 53.441406 91.980469 C 60.273438 94.234375 60.527344 105.574219 53.800781 107.921875 C 50.179688 109.183594 49.410156 109.175781 45.804688 107.855469 Z M 54.421875 83.597656 C 61.558594 80.613281 61.40625 69.320312 54.1875 66.304688 C 45.753906 62.78125 38.335938 69.5 40.964844 78.277344 C 41.820312 81.128906 42.964844 82.515625 45.3125 83.535156 C 49.371094 85.300781 50.328125 85.308594 54.421875 83.597656 Z M 45.804688 82.855469 C 42.167969 81.527344 40.40625 76.324219 41.980469 71.558594 C 43.4375 67.148438 48.191406 65.25 53.441406 66.980469 C 60.273438 69.234375 60.527344 80.574219 53.800781 82.921875 C 50.179688 84.183594 49.410156 84.175781 45.804688 82.855469 Z M 54.421875 58.597656 C 61.558594 55.613281 61.40625 44.320312 54.1875 41.304688 C 45.753906 37.78125 38.335938 44.5 40.964844 53.277344 C 41.820312 56.128906 42.964844 57.515625 45.3125 58.535156 C 49.371094 60.300781 50.328125 60.308594 54.421875 58.597656 Z M 54.421875 58.597656 "/>
<path style="fill:none;stroke-width:2;stroke-linecap:butt;stroke-linejoin:miter;stroke:rgb(0%,0%,0%);stroke-opacity:1;stroke-miterlimit:10;" d="M 1 17.667969 C 1 8.460938 8.460938 1 17.667969 1 L 82.332031 1 C 91.539062 1 99 8.460938 99 17.667969 L 99 132.332031 C 99 141.539062 91.539062 149 82.332031 149 L 17.667969 149 C 8.460938 149 1 141.539062 1 132.332031 L 1 17.667969 "/>
<path style=" stroke:none;fill-rule:nonzero;fill:rgb(0%,0%,0%);fill-opacity:1;" d="M 12.546875 9.527344 C 12.90625 9.527344 13.203125 9.339844 13.203125 8.933594 C 13.203125 8.527344 12.90625 8.339844 12.546875 8.339844 L 10.484375 8.339844 C 9.234375 8.339844 8.4375 8.917969 8.4375 9.949219 C 8.4375 12.480469 12.46875 11.011719 12.46875 12.839844 C 12.46875 13.699219 11.921875 14.011719 10.625 14.011719 L 8.984375 14.011719 C 8.625 14.011719 8.328125 14.199219 8.328125 14.621094 C 8.328125 15.027344 8.625 15.214844 8.984375 15.214844 L 11.125 15.214844 C 12.84375 15.214844 13.796875 14.058594 13.796875 12.792969 C 13.796875 10.011719 9.765625 10.839844 9.765625 9.933594 C 9.765625 9.667969 9.9375 9.527344 10.25 9.527344 Z M 17.25 11.214844 C 17.578125 11.214844 17.828125 11.042969 17.828125 10.667969 C 17.828125 10.308594 17.578125 10.136719 17.25 10.136719 L 16.375 10.136719 L 16.375 9.277344 C 16.375 8.917969 16.1875 8.636719 15.765625 8.636719 C 15.359375 8.636719 15.171875 8.917969 15.171875 9.277344 L 15.171875 10.136719 L 14.828125 10.136719 C 14.5 10.136719 14.234375 10.308594 14.234375 10.667969 C 14.234375 11.042969 14.5 11.214844 14.828125 11.214844 L 15.171875 11.214844 L 15.171875 13.371094 C 15.171875 15.214844 15.875 15.214844 17.390625 15.214844 C 17.9375 15.214844 18.203125 15.027344 18.203125 14.652344 C 18.203125 14.261719 17.9375 14.074219 17.59375 14.074219 L 16.953125 14.074219 C 16.484375 14.074219 16.375 13.792969 16.375 13.199219 L 16.375 11.214844 Z M 23.296875 12.667969 C 23.296875 11.214844 22.40625 10.074219 20.84375 10.074219 C 19.28125 10.074219 18.375 11.214844 18.375 12.667969 C 18.375 14.136719 19.28125 15.277344 20.84375 15.277344 C 22.40625 15.277344 23.296875 14.136719 23.296875 12.667969 Z M 22.046875 12.667969 C 22.046875 13.480469 21.65625 14.199219 20.84375 14.199219 C 20.015625 14.199219 19.640625 13.480469 19.640625 12.667969 C 19.640625 11.871094 20.015625 11.152344 20.84375 11.152344 C 21.65625 11.152344 22.046875 11.871094 22.046875 12.667969 Z M 26.402344 15.214844 C 28.042969 15.214844 28.902344 14.199219 28.902344 12.949219 C 28.902344 11.496094 27.824219 10.074219 25.386719 10.074219 C 24.542969 10.074219 24.246094 10.277344 24.246094 10.652344 L 24.246094 16.683594 C 24.246094 17.042969 24.433594 17.339844 24.855469 17.339844 C 25.261719 17.339844 25.449219 17.042969 25.449219 16.683594 L 25.449219 15.214844 Z M 25.449219 11.152344 C 26.808594 11.199219 27.636719 11.871094 27.636719 12.980469 C 27.636719 13.730469 27.042969 14.136719 26.058594 14.136719 L 25.449219 14.136719 Z M 30.839844 8.339844 C 30.417969 8.339844 30.136719 8.621094 30.136719 9.027344 C 30.136719 9.777344 30.199219 11.652344 30.246094 12.464844 C 30.277344 13.058594 30.558594 13.230469 30.839844 13.230469 C 31.121094 13.230469 31.417969 13.058594 31.449219 12.464844 C 31.480469 11.652344 31.542969 9.777344 31.542969 9.027344 C 31.542969 8.621094 31.261719 8.339844 30.839844 8.339844 Z M 30.839844 15.277344 C 31.277344 15.277344 31.574219 14.980469 31.574219 14.511719 C 31.574219 14.058594 31.277344 13.761719 30.839844 13.761719 C 30.417969 13.761719 30.121094 14.058594 30.121094 14.511719 C 30.121094 14.980469 30.417969 15.277344 30.839844 15.277344 Z M 32.511719 15.214844 "/>
<path style=" stroke:none;fill-rule:nonzero;fill:rgb(0%,0%,0%);fill-opacity:1;" d="M 71.699219 133.859375 C 72.058594 133.859375 72.355469 133.671875 72.355469 133.265625 C 72.355469 132.859375 72.058594 132.671875 71.699219 132.671875 L 69.636719 132.671875 C 68.386719 132.671875 67.589844 133.25 67.589844 134.28125 C 67.589844 136.8125 71.621094 135.34375 71.621094 137.171875 C 71.621094 138.03125 71.074219 138.34375 69.777344 138.34375 L 68.136719 138.34375 C 67.777344 138.34375 67.480469 138.53125 67.480469 138.953125 C 67.480469 139.359375 67.777344 139.546875 68.136719 139.546875 L 70.277344 139.546875 C 71.996094 139.546875 72.949219 138.390625 72.949219 137.125 C 72.949219 134.34375 68.917969 135.171875 68.917969 134.265625 C 68.917969 134 69.089844 133.859375 69.402344 133.859375 Z M 76.402344 135.546875 C 76.730469 135.546875 76.980469 135.375 76.980469 135 C 76.980469 134.640625 76.730469 134.46875 76.402344 134.46875 L 75.527344 134.46875 L 75.527344 133.609375 C 75.527344 133.25 75.339844 132.96875 74.917969 132.96875 C 74.511719 132.96875 74.324219 133.25 74.324219 133.609375 L 74.324219 134.46875 L 73.980469 134.46875 C 73.652344 134.46875 73.386719 134.640625 73.386719 135 C 73.386719 135.375 73.652344 135.546875 73.980469 135.546875 L 74.324219 135.546875 L 74.324219 137.703125 C 74.324219 139.546875 75.027344 139.546875 76.542969 139.546875 C 77.089844 139.546875 77.355469 139.359375 77.355469 138.984375 C 77.355469 138.59375 77.089844 138.40625 76.746094 138.40625 L 76.105469 138.40625 C 75.636719 138.40625 75.527344 138.125 75.527344 137.53125 L 75.527344 135.546875 Z M 82.449219 137 C 82.449219 135.546875 81.558594 134.40625 79.996094 134.40625 C 78.433594 134.40625 77.527344 135.546875 77.527344 137 C 77.527344 138.46875 78.433594 139.609375 79.996094 139.609375 C 81.558594 139.609375 82.449219 138.46875 82.449219 137 Z M 81.199219 137 C 81.199219 137.8125 80.808594 138.53125 79.996094 138.53125 C 79.167969 138.53125 78.792969 137.8125 78.792969 137 C 78.792969 136.203125 79.167969 135.484375 79.996094 135.484375 C 80.808594 135.484375 81.199219 136.203125 81.199219 137 Z M 85.554688 139.546875 C 87.195312 139.546875 88.054688 138.53125 88.054688 137.28125 C 88.054688 135.828125 86.976562 134.40625 84.539062 134.40625 C 83.695312 134.40625 83.398438 134.609375 83.398438 134.984375 L 83.398438 141.015625 C 83.398438 141.375 83.585938 141.671875 84.007812 141.671875 C 84.414062 141.671875 84.601562 141.375 84.601562 141.015625 L 84.601562 139.546875 Z M 84.601562 135.484375 C 85.960938 135.53125 86.789062 136.203125 86.789062 137.3125 C 86.789062 138.0625 86.195312 138.46875 85.210938 138.46875 L 84.601562 138.46875 Z M 89.992188 132.671875 C 89.570312 132.671875 89.289062 132.953125 89.289062 133.359375 C 89.289062 134.109375 89.351562 135.984375 89.398438 136.796875 C 89.429688 137.390625 89.710938 137.5625 89.992188 137.5625 C 90.273438 137.5625 90.570312 137.390625 90.601562 136.796875 C 90.632812 135.984375 90.695312 134.109375 90.695312 133.359375 C 90.695312 132.953125 90.414062 132.671875 89.992188 132.671875 Z M 89.992188 139.609375 C 90.429688 139.609375 90.726562 139.3125 90.726562 138.84375 C 90.726562 138.390625 90.429688 138.09375 89.992188 138.09375 C 89.570312 138.09375 89.273438 138.390625 89.273438 138.84375 C 89.273438 139.3125 89.570312 139.609375 89.992188 139.609375 Z M 91.664062 139.546875 "/>
</g>
</svg>
