<?xml version="1.0" encoding="UTF-8" standalone="no"?>
<svg
   xmlns:dc="http://purl.org/dc/elements/1.1/"
   xmlns:cc="http://creativecommons.org/ns#"
   xmlns:rdf="http://www.w3.org/1999/02/22-rdf-syntax-ns#"
   xmlns:svg="http://www.w3.org/2000/svg"
   xmlns="http://www.w3.org/2000/svg"
   xmlns:sodipodi="http://sodipodi.sourceforge.net/DTD/sodipodi-0.dtd"
   xmlns:inkscape="http://www.inkscape.org/namespaces/inkscape"
   width="100pt"
   height="150pt"
   viewBox="0 0 100 150"
   version="1.1"
   id="svg17"
   sodipodi:docname="Véhicule prioritaire.svg"
   inkscape:version="1.0.1 (3bc2e813f5, 2020-09-07)">
  <g
     id="surface61">
    <path
       style=" stroke:none;fill-rule:nonzero;fill:rgb(100%,100%,100%);fill-opacity:1;"
       d="M 1 17.667969 C 1 8.460938 8.460938 1 17.667969 1 L 82.332031 1 C 91.539062 1 99 8.460938 99 17.667969 L 99 132.332031 C 99 141.539062 91.539062 149 82.332031 149 L 17.667969 149 C 8.460938 149 1 141.539062 1 132.332031 L 1 17.667969 "
       id="path2" />
    <path
       style=" stroke:none;fill-rule:nonzero;fill:rgb(99.607843%,99.607843%,99.607843%);fill-opacity:1;"
       d="M 5 81.152344 L 5 32.304688 L 7.25 31.148438 L 9.5 29.988281 L 7.25 30.5625 C 6.011719 30.878906 5 30.6875 5 30.136719 C 5 29.589844 6.011719 28.945312 7.25 28.707031 L 9.5 28.273438 L 7.25 28.136719 C 6.011719 28.0625 5 27.519531 5 26.933594 C 5 26.324219 5.964844 26.109375 7.25 26.4375 L 9.5 27.011719 L 7.25 25.851562 C 5.890625 25.152344 5 23.769531 5 22.359375 L 5 20.023438 L 50 20.023438 L 95 20.019531 L 95 130 L 5 130 Z M 87.394531 121.25 C 86.5625 114.253906 86.390625 114 82.5 114 C 78.609375 114 78.4375 114.253906 77.605469 121.25 L 77.039062 126 L 87.960938 126 Z M 78 124 C 78 123.449219 80.023438 123 82.5 123 C 84.976562 123 87 123.449219 87 124 C 87 124.550781 84.976562 125 82.5 125 C 80.023438 125 78 124.550781 78 124 Z M 91 121 C 90.175781 120.46875 89.050781 120.03125 88.5 120.03125 C 87.949219 120.03125 88.175781 120.46875 89 121 C 89.824219 121.53125 90.949219 121.96875 91.5 121.96875 C 92.050781 121.96875 91.824219 121.53125 91 121 Z M 91.25 118.335938 C 90.5625 118.058594 89.4375 118.058594 88.75 118.335938 C 88.0625 118.613281 88.625 118.84375 90 118.84375 C 91.375 118.84375 91.9375 118.613281 91.25 118.335938 Z M 91 116 C 91.824219 115.46875 92.050781 115.03125 91.5 115.03125 C 90.949219 115.03125 89.824219 115.46875 89 116 C 88.175781 116.53125 87.949219 116.96875 88.5 116.96875 C 89.050781 116.96875 90.175781 116.53125 91 116 Z M 29.8125 75.734375 C 30.210938 73.667969 27.324219 72.277344 25.800781 73.800781 C 24.277344 75.324219 25.667969 78.210938 27.734375 77.8125 C 28.691406 77.628906 29.628906 76.691406 29.8125 75.734375 Z M 26 75.5 C 26 74.675781 26.675781 74 27.5 74 C 28.324219 74 29 74.675781 29 75.5 C 29 76.324219 28.324219 77 27.5 77 C 26.675781 77 26 76.324219 26 75.5 Z M 62.8125 75.734375 C 63.210938 73.667969 60.324219 72.277344 58.800781 73.800781 C 57.277344 75.324219 58.667969 78.210938 60.734375 77.8125 C 61.691406 77.628906 62.628906 76.691406 62.8125 75.734375 Z M 59 75.5 C 59 74.675781 59.675781 74 60.5 74 C 61.324219 74 62 74.675781 62 75.5 C 62 76.324219 61.324219 77 60.5 77 C 59.675781 77 59 76.324219 59 75.5 Z M 68.8125 75.734375 C 69.210938 73.667969 66.324219 72.277344 64.800781 73.800781 C 63.277344 75.324219 64.667969 78.210938 66.734375 77.8125 C 67.691406 77.628906 68.628906 76.691406 68.8125 75.734375 Z M 65 75.5 C 65 74.675781 65.675781 74 66.5 74 C 67.324219 74 68 74.675781 68 75.5 C 68 76.324219 67.324219 77 66.5 77 C 65.675781 77 65 76.324219 65 75.5 Z M 24.363281 73.5 C 25.109375 71.554688 29.890625 71.554688 30.636719 73.5 C 31.464844 75.660156 56.507812 75.726562 57.335938 73.570312 C 58.105469 71.566406 68.894531 71.566406 69.664062 73.570312 C 69.96875 74.355469 71.515625 75 73.105469 75 C 75.945312 75 76 74.898438 76 69.5 C 76 64.933594 75.703125 63.996094 74.25 63.984375 C 72.878906 63.972656 72.796875 63.78125 73.863281 63.105469 C 75.015625 62.375 75.015625 62.15625 73.863281 61.695312 C 72.746094 61.25 72.769531 60.960938 74 60.089844 C 75.027344 59.367188 75.105469 59.015625 74.25 58.988281 C 72.621094 58.933594 41.378906 58.933594 39.75 58.988281 C 38.90625 59.015625 38.988281 59.351562 40 60.015625 C 41.332031 60.890625 41.332031 61.109375 40 61.984375 C 38.765625 62.796875 38.75 62.972656 39.917969 62.984375 C 40.695312 62.992188 41.035156 63.296875 40.675781 63.660156 C 40.3125 64.019531 37.757812 64.238281 34.996094 64.140625 C 30.515625 63.980469 29.851562 64.234375 28.828125 66.480469 C 27.933594 68.441406 26.9375 69 24.339844 69 C 21.296875 69 21 69.265625 21 72 C 21 75.1875 23.316406 76.21875 24.363281 73.5 Z M 29.015625 68.25 C 29.023438 67.835938 29.46875 66.824219 30 66 C 30.785156 64.785156 30.972656 64.929688 30.984375 66.75 C 30.992188 67.988281 30.550781 69 30 69 C 29.449219 69 29.007812 68.664062 29.015625 68.25 Z M 32 67 C 32 65.898438 32.449219 65 33 65 C 33.550781 65 34 65.898438 34 67 C 34 68.101562 33.550781 69 33 69 C 32.449219 69 32 68.101562 32 67 Z M 49.25 63.257812 C 53.511719 63.070312 60.488281 63.070312 64.75 63.257812 C 69.011719 63.445312 65.523438 63.597656 57 63.597656 C 48.476562 63.597656 44.988281 63.445312 49.25 63.257812 Z M 44 61 C 44 60.449219 44.449219 60 45 60 C 45.550781 60 46 60.449219 46 61 C 46 61.550781 45.550781 62 45 62 C 44.449219 62 44 61.550781 44 61 Z M 47 61 C 47 60.449219 47.449219 60 48 60 C 48.550781 60 49 60.449219 49 61 C 49 61.550781 48.550781 62 48 62 C 47.449219 62 47 61.550781 47 61 Z M 50 61 C 50 60.449219 50.449219 60 51 60 C 51.550781 60 52 60.449219 52 61 C 52 61.550781 51.550781 62 51 62 C 50.449219 62 50 61.550781 50 61 Z M 53 61 C 53 60.449219 53.449219 60 54 60 C 54.550781 60 55 60.449219 55 61 C 55 61.550781 54.550781 62 54 62 C 53.449219 62 53 61.550781 53 61 Z M 56 61 C 56 60.449219 56.449219 60 57 60 C 57.550781 60 58 60.449219 58 61 C 58 61.550781 57.550781 62 57 62 C 56.449219 62 56 61.550781 56 61 Z M 59 61 C 59 60.449219 59.449219 60 60 60 C 60.550781 60 61 60.449219 61 61 C 61 61.550781 60.550781 62 60 62 C 59.449219 62 59 61.550781 59 61 Z M 62 61 C 62 60.449219 62.449219 60 63 60 C 63.550781 60 64 60.449219 64 61 C 64 61.550781 63.550781 62 63 62 C 62.449219 62 62 61.550781 62 61 Z M 65 61 C 65 60.449219 65.449219 60 66 60 C 66.550781 60 67 60.449219 67 61 C 67 61.550781 66.550781 62 66 62 C 65.449219 62 65 61.550781 65 61 Z M 68 61 C 68 60.449219 68.449219 60 69 60 C 69.550781 60 70 60.449219 70 61 C 70 61.550781 69.550781 62 69 62 C 68.449219 62 68 61.550781 68 61 Z M 19.921875 35.25 C 19.875 34.203125 19.640625 34.003906 19.335938 34.75 C 18.667969 36.40625 10.332031 36.40625 9.664062 34.75 C 9.359375 34.003906 9.125 34.203125 9.078125 35.25 C 9.011719 36.714844 9.898438 37 14.5 37 C 19.101562 37 19.988281 36.714844 19.921875 35.25 Z M 18.808594 28.75 C 18.5 24.507812 18.492188 24.5 14.5 24.5 C 10.507812 24.5 10.5 24.507812 10.191406 28.75 L 9.886719 33 L 19.113281 33 Z M 18.808594 28.75 "
       id="path4" />
    <path
       style=" stroke:none;fill-rule:nonzero;fill:rgb(99.607843%,0%,0%);fill-opacity:1;"
       d="M 78.191406 118.75 C 78.5 114.507812 78.507812 114.5 82.5 114.5 C 86.492188 114.5 86.5 114.507812 86.808594 118.75 L 87.113281 123 L 77.886719 123 Z M 89 121 C 88.175781 120.46875 87.949219 120.03125 88.5 120.03125 C 89.050781 120.03125 90.175781 120.46875 91 121 C 91.824219 121.53125 92.050781 121.96875 91.5 121.96875 C 90.949219 121.96875 89.824219 121.53125 89 121 Z M 88.75 118.335938 C 89.4375 118.058594 90.5625 118.058594 91.25 118.335938 C 91.9375 118.613281 91.375 118.84375 90 118.84375 C 88.625 118.84375 88.0625 118.613281 88.75 118.335938 Z M 89 116 C 89.824219 115.46875 90.949219 115.03125 91.5 115.03125 C 92.050781 115.03125 91.824219 115.46875 91 116 C 90.175781 116.53125 89.050781 116.96875 88.5 116.96875 C 87.949219 116.96875 88.175781 116.53125 89 116 Z M 22 72.15625 C 22 70.171875 22.511719 70 28.433594 70 C 34.683594 70 34.878906 69.921875 35.285156 67.25 C 35.542969 65.550781 35.757812 66.316406 35.851562 69.25 C 35.976562 73.285156 35.714844 74 34.121094 74 C 33.089844 74 31.683594 73.324219 31 72.5 C 29.359375 70.523438 26.105469 70.59375 23.828125 72.65625 C 22.109375 74.210938 22 74.179688 22 72.15625 Z M 37.285156 69.5 C 37.292969 66.75 37.488281 65.742188 37.71875 67.265625 C 37.949219 68.785156 37.941406 71.035156 37.703125 72.265625 C 37.464844 73.492188 37.277344 72.25 37.285156 69.5 Z M 39 69.5 L 39 65 L 75 65 L 75 69.5 C 75 73.234375 74.679688 74 73.121094 74 C 72.089844 74 70.710938 73.355469 70.058594 72.570312 C 69.300781 71.65625 66.9375 71.144531 63.5 71.144531 C 60.0625 71.144531 57.699219 71.65625 56.941406 72.570312 C 56.085938 73.601562 53.417969 74 47.378906 74 L 39 74 Z M 48 69.5 C 48 67.390625 47.535156 67 45 67 C 42.464844 67 42 67.390625 42 69.5 C 42 71.609375 42.464844 72 45 72 C 47.535156 72 48 71.609375 48 69.5 Z M 43 69.5 C 43 68.667969 43.890625 68 45 68 C 46.109375 68 47 68.667969 47 69.5 C 47 70.332031 46.109375 71 45 71 C 43.890625 71 43 70.332031 43 69.5 Z M 52 69 C 52 68.449219 51.550781 68 51 68 C 50.449219 68 50 68.449219 50 69 C 50 69.550781 50.449219 70 51 70 C 51.550781 70 52 69.550781 52 69 Z M 55 69 C 55 68.449219 54.550781 68 54 68 C 53.449219 68 53 68.449219 53 69 C 53 69.550781 53.449219 70 54 70 C 54.550781 70 55 69.550781 55 69 Z M 10.191406 28.75 C 10.5 24.507812 10.507812 24.5 14.5 24.5 C 18.492188 24.5 18.5 24.507812 18.808594 28.75 L 19.113281 33 L 9.886719 33 Z M 6 31 C 6.824219 30.46875 7.949219 30.03125 8.5 30.03125 C 9.050781 30.03125 8.824219 30.46875 8 31 C 7.175781 31.53125 6.050781 31.96875 5.5 31.96875 C 4.949219 31.96875 5.175781 31.53125 6 31 Z M 5.75 28.335938 C 6.4375 28.058594 7.5625 28.058594 8.25 28.335938 C 8.9375 28.613281 8.375 28.84375 7 28.84375 C 5.625 28.84375 5.0625 28.613281 5.75 28.335938 Z M 6 26 C 5.175781 25.46875 4.949219 25.03125 5.5 25.03125 C 6.050781 25.03125 7.175781 25.46875 8 26 C 8.824219 26.53125 9.050781 26.96875 8.5 26.96875 C 7.949219 26.96875 6.824219 26.53125 6 26 Z M 6 26 "
       id="path6" />
    <path
       style=" stroke:none;fill-rule:nonzero;fill:rgb(0%,0%,0%);fill-opacity:1;"
       d="M 77.078125 124.25 C 77.125 123.203125 77.359375 123.003906 77.664062 123.75 C 77.957031 124.480469 79.96875 125 82.5 125 C 85.03125 125 87.042969 124.480469 87.335938 123.75 C 87.640625 123.003906 87.875 123.203125 87.921875 124.25 C 87.988281 125.714844 87.101562 126 82.5 126 C 77.898438 126 77.011719 125.714844 77.078125 124.25 Z M 25.363281 76.507812 C 25.019531 75.605469 25.214844 74.386719 25.800781 73.800781 C 27.324219 72.277344 30.210938 73.667969 29.8125 75.734375 C 29.367188 78.039062 26.164062 78.59375 25.363281 76.507812 Z M 29 75.5 C 29 74.675781 28.324219 74 27.5 74 C 26.675781 74 26 74.675781 26 75.5 C 26 76.324219 26.675781 77 27.5 77 C 28.324219 77 29 76.324219 29 75.5 Z M 58.363281 76.507812 C 58.019531 75.605469 58.214844 74.386719 58.800781 73.800781 C 60.324219 72.277344 63.210938 73.667969 62.8125 75.734375 C 62.367188 78.039062 59.164062 78.59375 58.363281 76.507812 Z M 62 75.5 C 62 74.675781 61.324219 74 60.5 74 C 59.675781 74 59 74.675781 59 75.5 C 59 76.324219 59.675781 77 60.5 77 C 61.324219 77 62 76.324219 62 75.5 Z M 64.363281 76.507812 C 64.019531 75.605469 64.214844 74.386719 64.800781 73.800781 C 66.324219 72.277344 69.210938 73.667969 68.8125 75.734375 C 68.367188 78.039062 65.164062 78.59375 64.363281 76.507812 Z M 68 75.5 C 68 74.675781 67.324219 74 66.5 74 C 65.675781 74 65 74.675781 65 75.5 C 65 76.324219 65.675781 77 66.5 77 C 67.324219 77 68 76.324219 68 75.5 Z M 21 72 C 21 69.265625 21.296875 69 24.339844 69 C 26.929688 69 27.933594 68.441406 28.816406 66.5 C 29.714844 64.53125 30.695312 64 33.425781 64 L 36.894531 64 L 37.628906 74.5 L 37.816406 69.25 C 37.964844 64.992188 38.332031 63.996094 39.75 63.984375 C 41.121094 63.972656 41.203125 63.78125 40.136719 63.105469 C 38.984375 62.375 38.984375 62.15625 40.136719 61.695312 C 41.253906 61.25 41.230469 60.960938 40 60.089844 C 38.972656 59.367188 38.894531 59.015625 39.75 58.988281 C 41.378906 58.933594 72.621094 58.933594 74.25 58.988281 C 75.09375 59.015625 75.011719 59.351562 74 60.015625 C 72.75 60.835938 72.730469 61.148438 73.863281 61.878906 C 75.015625 62.621094 75.015625 62.84375 73.863281 63.300781 C 72.914062 63.679688 73.03125 63.867188 74.25 63.921875 C 75.695312 63.984375 76 64.957031 76 69.5 C 76 74.898438 75.945312 75 73.105469 75 C 71.515625 75 69.96875 74.355469 69.664062 73.570312 C 68.894531 71.566406 58.105469 71.566406 57.335938 73.570312 C 56.507812 75.726562 31.464844 75.660156 30.636719 73.5 C 30.320312 72.675781 28.910156 72 27.5 72 C 26.089844 72 24.679688 72.675781 24.363281 73.5 C 23.316406 76.21875 21 75.1875 21 72 Z M 27.707031 71 C 28.832031 71 30.316406 71.675781 31 72.5 C 31.683594 73.324219 33.089844 74 34.121094 74 C 35.714844 74 35.976562 73.285156 35.851562 69.25 C 35.757812 66.316406 35.542969 65.550781 35.285156 67.25 C 34.878906 69.921875 34.683594 70 28.433594 70 C 22.511719 70 22 70.171875 22 72.15625 C 22 74.179688 22.109375 74.210938 23.828125 72.65625 C 24.835938 71.746094 26.578125 71 27.707031 71 Z M 56.941406 72.570312 C 57.699219 71.65625 60.0625 71.144531 63.5 71.144531 C 66.9375 71.144531 69.300781 71.65625 70.058594 72.570312 C 70.710938 73.355469 72.089844 74 73.121094 74 C 74.679688 74 75 73.234375 75 69.5 L 75 65 L 39 65 L 39 74 L 47.378906 74 C 53.417969 74 56.085938 73.601562 56.941406 72.570312 Z M 42 69.5 C 42 67.390625 42.464844 67 45 67 C 47.535156 67 48 67.390625 48 69.5 C 48 71.609375 47.535156 72 45 72 C 42.464844 72 42 71.609375 42 69.5 Z M 47 69.5 C 47 68.667969 46.109375 68 45 68 C 43.890625 68 43 68.667969 43 69.5 C 43 70.332031 43.890625 71 45 71 C 46.109375 71 47 70.332031 47 69.5 Z M 50 69 C 50 68.449219 50.449219 68 51 68 C 51.550781 68 52 68.449219 52 69 C 52 69.550781 51.550781 70 51 70 C 50.449219 70 50 69.550781 50 69 Z M 53 69 C 53 68.449219 53.449219 68 54 68 C 54.550781 68 55 68.449219 55 69 C 55 69.550781 54.550781 70 54 70 C 53.449219 70 53 69.550781 53 69 Z M 30.984375 66.75 C 30.972656 64.929688 30.785156 64.785156 30 66 C 28.746094 67.9375 28.746094 69 30 69 C 30.550781 69 30.992188 67.988281 30.984375 66.75 Z M 34 67 C 34 65.898438 33.550781 65 33 65 C 32.449219 65 32 65.898438 32 67 C 32 68.101562 32.449219 69 33 69 C 33.550781 69 34 68.101562 34 67 Z M 64.75 63.257812 C 60.488281 63.070312 53.511719 63.070312 49.25 63.257812 C 44.988281 63.445312 48.476562 63.597656 57 63.597656 C 65.523438 63.597656 69.011719 63.445312 64.75 63.257812 Z M 46 61 C 46 60.449219 45.550781 60 45 60 C 44.449219 60 44 60.449219 44 61 C 44 61.550781 44.449219 62 45 62 C 45.550781 62 46 61.550781 46 61 Z M 49 61 C 49 60.449219 48.550781 60 48 60 C 47.449219 60 47 60.449219 47 61 C 47 61.550781 47.449219 62 48 62 C 48.550781 62 49 61.550781 49 61 Z M 52 61 C 52 60.449219 51.550781 60 51 60 C 50.449219 60 50 60.449219 50 61 C 50 61.550781 50.449219 62 51 62 C 51.550781 62 52 61.550781 52 61 Z M 55 61 C 55 60.449219 54.550781 60 54 60 C 53.449219 60 53 60.449219 53 61 C 53 61.550781 53.449219 62 54 62 C 54.550781 62 55 61.550781 55 61 Z M 58 61 C 58 60.449219 57.550781 60 57 60 C 56.449219 60 56 60.449219 56 61 C 56 61.550781 56.449219 62 57 62 C 57.550781 62 58 61.550781 58 61 Z M 61 61 C 61 60.449219 60.550781 60 60 60 C 59.449219 60 59 60.449219 59 61 C 59 61.550781 59.449219 62 60 62 C 60.550781 62 61 61.550781 61 61 Z M 64 61 C 64 60.449219 63.550781 60 63 60 C 62.449219 60 62 60.449219 62 61 C 62 61.550781 62.449219 62 63 62 C 63.550781 62 64 61.550781 64 61 Z M 67 61 C 67 60.449219 66.550781 60 66 60 C 65.449219 60 65 60.449219 65 61 C 65 61.550781 65.449219 62 66 62 C 66.550781 62 67 61.550781 67 61 Z M 70 61 C 70 60.449219 69.550781 60 69 60 C 68.449219 60 68 60.449219 68 61 C 68 61.550781 68.449219 62 69 62 C 69.550781 62 70 61.550781 70 61 Z M 9.078125 35.25 C 9.125 34.203125 9.359375 34.003906 9.664062 34.75 C 10.332031 36.40625 18.667969 36.40625 19.335938 34.75 C 19.640625 34.003906 19.875 34.203125 19.921875 35.25 C 19.988281 36.714844 19.101562 37 14.5 37 C 9.898438 37 9.011719 36.714844 9.078125 35.25 Z M 9.078125 35.25 "
       id="path8" />
    <path
       style="fill:none;stroke-width:2;stroke-linecap:butt;stroke-linejoin:miter;stroke:rgb(0%,0%,0%);stroke-opacity:1;stroke-miterlimit:10;"
       d="M 1 17.667969 C 1 8.460938 8.460938 1 17.667969 1 L 82.332031 1 C 91.539062 1 99 8.460938 99 17.667969 L 99 132.332031 C 99 141.539062 91.539062 149 82.332031 149 L 17.667969 149 C 8.460938 149 1 141.539062 1 132.332031 L 1 17.667969 "
       id="path10" />
    <g
       aria-label="Véhicule prioritaire"
       id="text27"
       style="font-weight:bold;font-size:10px;line-height:15.625px;font-family:'ITC Benguiat Gothic Std';-inkscape-font-specification:'ITC Benguiat Gothic Std, Bold';text-align:center;writing-mode:lr-tb;text-anchor:middle;fill:#000000;stroke-width:2.61;stroke-linecap:round;stroke-linejoin:round">
      <path
         d="m 10.110335,15.012613 c -0.8199998,-1.44 -1.2199998,-2.93 -1.3799998,-4.58 -0.06,-0.6099998 -0.1,-0.9999998 -0.73,-0.9999998 -0.35,0 -0.63,0.2 -0.63,0.7199998 0,1.37 0.82,4.01 1.53,5.21 0.34,0.57 0.58,1.04 1.2099998,1.04 0.63,0 0.87,-0.47 1.21,-1.04 0.71,-1.2 1.53,-3.84 1.53,-5.21 0,-0.5199998 -0.28,-0.7199998 -0.63,-0.7199998 -0.63,0 -0.67,0.39 -0.73,0.9999998 -0.16,1.65 -0.56,3.14 -1.38,4.58 z"
         style="font-size:10px;stroke-width:2.61"
         id="path221" />
      <path
         d="m 17.38031,16.342613 c 0.32,0 0.58,-0.17 0.58,-0.54 0,-0.37 -0.26,-0.54 -0.58,-0.54 h -1.29 c -0.84,0 -1.55,-0.25 -1.63,-1.19 h 3.06 c 0.42,0 0.49,-0.25 0.49,-0.59 0,-1.17 -0.69,-2.28 -2.36,-2.28 -1.53,0 -2.51,1.17 -2.51,2.67 0,1.49 1,2.47 2.78,2.47 z m -2.84,-3.17 c 0.14,-0.6 0.64,-0.97 1.11,-0.97 0.47,0 0.97,0.37 1.1,0.97 z m -0.01,-3.17 c -0.15,0.06 -0.24,0.15 -0.24,0.26 0,0.27 0.12,0.48 0.35,0.48 0.17,0 0.53,-0.11 0.88,-0.19 l 1.29,-0.3 c 0.21,-0.05 0.25,-0.15 0.24,-0.3499998 -0.01,-0.24 -0.08,-0.6 -0.38,-0.6 -0.2,0 -0.41,0.09 -0.67,0.18 z"
         style="font-size:10px;stroke-width:2.61"
         id="path223" />
      <path
         d="m 18.970308,15.722613 c 0,0.36 0.19,0.65 0.6,0.65 0.41,0 0.6,-0.29 0.6,-0.65 v -2.04 c 0,-0.93 0.44,-1.4 1.12,-1.4 0.54,0 0.81,0.34 0.81,1.04 v 2.4 c 0,0.36 0.19,0.65 0.6,0.65 0.41,0 0.6,-0.29 0.6,-0.65 v -2.72 c 0,-1.02 -0.7,-1.8 -1.78,-1.8 -0.55,0 -0.95,0.16 -1.35,0.54 V 9.8826132 c 0,-0.36 -0.19,-0.65 -0.6,-0.65 -0.41,0 -0.6,0.29 -0.6,0.65 z"
         style="font-size:10px;stroke-width:2.61"
         id="path225" />
      <path
         d="m 25.910305,11.852613 c 0,-0.36 -0.19,-0.65 -0.6,-0.65 -0.41,0 -0.6,0.29 -0.6,0.65 v 3.87 c 0,0.36 0.19,0.65 0.6,0.65 0.41,0 0.6,-0.29 0.6,-0.65 z m -0.6,-2.6499998 c -0.37,0 -0.66,0.26 -0.66,0.74 0,0.4799998 0.29,0.7399998 0.66,0.7399998 0.37,0 0.66,-0.26 0.66,-0.7399998 0,-0.48 -0.29,-0.74 -0.66,-0.74 z"
         style="font-size:10px;stroke-width:2.61"
         id="path227" />
      <path
         d="m 29.180304,11.262613 c -1.32,0 -2.16,1 -2.16,2.19 0,1.35 1.04,2.89 3.46,2.89 0.94,0 1.2,-0.17 1.2,-0.56 0,-0.45 -0.2,-0.58 -1.03,-0.58 -1.34,0 -2.31,-0.58 -2.31,-1.78 0,-0.52 0.38,-1.02 1.08,-1.02 h 1.51 c 0.34,0 0.61,-0.18 0.61,-0.57 0,-0.39 -0.27,-0.57 -0.61,-0.57 z"
         style="font-size:10px;stroke-width:2.61"
         id="path229" />
      <path
         d="m 36.640285,11.852613 c 0,-0.36 -0.19,-0.65 -0.6,-0.65 -0.41,0 -0.6,0.29 -0.6,0.65 v 2.07 c 0,0.93 -0.44,1.4 -1.12,1.4 -0.54,0 -0.81,-0.34 -0.81,-1.04 v -2.43 c 0,-0.36 -0.19,-0.65 -0.6,-0.65 -0.41,0 -0.6,0.29 -0.6,0.65 v 2.75 c 0,1.02 0.7,1.8 1.78,1.8 0.55,0 0.95,-0.16 1.35,-0.54 0,0.25 0.19,0.54 0.6,0.54 0.41,0 0.6,-0.29 0.6,-0.65 z"
         style="font-size:10px;stroke-width:2.61"
         id="path231" />
      <path
         d="m 39.250283,9.8826132 c 0,-0.36 -0.19,-0.65 -0.6,-0.65 -0.41,0 -0.6,0.29 -0.6,0.65 v 5.8399998 c 0,0.36 0.19,0.65 0.6,0.65 0.41,0 0.6,-0.29 0.6,-0.65 z"
         style="font-size:10px;stroke-width:2.61"
         id="path233" />
      <path
         d="m 44.620281,16.342613 c 0.32,0 0.58,-0.17 0.58,-0.54 0,-0.37 -0.26,-0.54 -0.58,-0.54 h -1.29 c -0.84,0 -1.55,-0.25 -1.63,-1.19 h 3.06 c 0.42,0 0.49,-0.25 0.49,-0.59 0,-1.17 -0.69,-2.28 -2.36,-2.28 -1.53,0 -2.51,1.17 -2.51,2.67 0,1.49 1,2.47 2.78,2.47 z m -2.84,-3.17 c 0.14,-0.6 0.64,-0.97 1.11,-0.97 0.47,0 0.97,0.37 1.1,0.97 z"
         style="font-size:10px;stroke-width:2.61"
         id="path235" />
      <path
         d="m 51.430263,16.342613 c 1.64,0 2.5,-1.02 2.5,-2.27 0,-1.45 -1.08,-2.87 -3.52,-2.87 -0.84,0 -1.13,0.2 -1.13,0.58 v 6.03 c 0,0.36 0.19,0.65 0.6,0.65 0.41,0 0.6,-0.29 0.6,-0.65 v -1.47 z m -0.95,-4.06 c 1.35,0.04 2.19,0.72 2.19,1.83 0,0.75 -0.6,1.15 -1.59,1.15 h -0.6 z"
         style="font-size:10px;stroke-width:2.61"
         id="path237" />
      <path
         d="m 54.90026,15.692613 c 0,0.39 0.22,0.68 0.6,0.68 0.38,0 0.6,-0.29 0.6,-0.68 v -2.19 c 0,-0.92 0.29,-1.16 0.88,-1.16 0.43,0 0.69,-0.18 0.69,-0.56 0,-0.34 -0.18,-0.58 -0.62,-0.58 -0.56,0 -0.94,0.24 -1.02,0.79 h -0.02 l -0.02,-0.31 c -0.04,-0.45 -0.32,-0.48 -0.54,-0.48 -0.35,0 -0.55,0.2 -0.55,0.61 z"
         style="font-size:10px;stroke-width:2.61"
         id="path239" />
      <path
         d="m 59.530243,11.852613 c 0,-0.36 -0.19,-0.65 -0.6,-0.65 -0.41,0 -0.6,0.29 -0.6,0.65 v 3.87 c 0,0.36 0.19,0.65 0.6,0.65 0.41,0 0.6,-0.29 0.6,-0.65 z m -0.6,-2.6499998 c -0.37,0 -0.66,0.26 -0.66,0.74 0,0.4799998 0.29,0.7399998 0.66,0.7399998 0.37,0 0.66,-0.26 0.66,-0.7399998 0,-0.48 -0.29,-0.74 -0.66,-0.74 z"
         style="font-size:10px;stroke-width:2.61"
         id="path241" />
      <path
         d="m 65.560242,13.802613 c 0,-1.46 -0.9,-2.6 -2.46,-2.6 -1.56,0 -2.46,1.14 -2.46,2.6 0,1.46 0.9,2.6 2.46,2.6 1.56,0 2.46,-1.14 2.46,-2.6 z m -1.26,0 c 0,0.8 -0.38,1.52 -1.2,1.52 -0.82,0 -1.2,-0.72 -1.2,-1.52 0,-0.8 0.38,-1.52 1.2,-1.52 0.82,0 1.2,0.72 1.2,1.52 z"
         style="font-size:10px;stroke-width:2.61"
         id="path243" />
      <path
         d="m 66.570239,15.692613 c 0,0.39 0.22,0.68 0.6,0.68 0.38,0 0.6,-0.29 0.6,-0.68 v -2.19 c 0,-0.92 0.29,-1.16 0.88,-1.16 0.43,0 0.69,-0.18 0.69,-0.56 0,-0.34 -0.18,-0.58 -0.62,-0.58 -0.56,0 -0.94,0.24 -1.02,0.79 h -0.02 l -0.02,-0.31 c -0.04,-0.45 -0.32,-0.48 -0.54,-0.48 -0.35,0 -0.55,0.2 -0.55,0.61 z"
         style="font-size:10px;stroke-width:2.61"
         id="path245" />
      <path
         d="m 71.200222,11.852613 c 0,-0.36 -0.19,-0.65 -0.6,-0.65 -0.41,0 -0.6,0.29 -0.6,0.65 v 3.87 c 0,0.36 0.19,0.65 0.6,0.65 0.41,0 0.6,-0.29 0.6,-0.65 z m -0.6,-2.6499998 c -0.37,0 -0.66,0.26 -0.66,0.74 0,0.4799998 0.29,0.7399998 0.66,0.7399998 0.37,0 0.66,-0.26 0.66,-0.7399998 0,-0.48 -0.29,-0.74 -0.66,-0.74 z"
         style="font-size:10px;stroke-width:2.61"
         id="path247" />
      <path
         d="m 75.070221,12.342613 c 0.32,0 0.58,-0.17 0.58,-0.54 0,-0.37 -0.26,-0.54 -0.58,-0.54 h -0.88 v -0.85 c 0,-0.36 -0.19,-0.6499998 -0.6,-0.6499998 -0.41,0 -0.6,0.2899998 -0.6,0.6499998 v 0.85 h -0.34 c -0.33,0 -0.59,0.17 -0.59,0.54 0,0.37 0.26,0.54 0.59,0.54 h 0.34 v 2.16 c 0,1.84 0.7,1.84 2.22,1.84 0.54,0 0.81,-0.18 0.81,-0.57 0,-0.39 -0.27,-0.57 -0.61,-0.57 h -0.64 c -0.46,0 -0.58,-0.28 -0.58,-0.88 v -1.98 z"
         style="font-size:10px;stroke-width:2.61"
         id="path249" />
      <path
         d="m 80.58022,12.962613 c 0,-1.23 -0.62,-1.7 -1.68,-1.7 h -1.75 c -0.33,0 -0.59,0.17 -0.59,0.54 0,0.37 0.26,0.54 0.59,0.54 h 1.83 c 0.27,0 0.4,0.14 0.4,0.65 h -0.42 c -1.17,0 -2.78,0.39 -2.78,1.83 0,0.96 0.74,1.58 1.75,1.58 0.69,0 1.23,-0.18 1.55,-0.58 0.03,0.38 0.18,0.58 0.51,0.58 0.44,0 0.59,-0.25 0.59,-0.66 z m -1.14,1.57 c 0,0.57 -0.58,0.91 -1.14,0.91 -0.6,0 -0.92,-0.27 -0.92,-0.68 0,-0.47 0.67,-0.87 2.06,-0.87 z"
         style="font-size:10px;stroke-width:2.61"
         id="path251" />
      <path
         d="m 83.430218,11.852613 c 0,-0.36 -0.19,-0.65 -0.6,-0.65 -0.41,0 -0.6,0.29 -0.6,0.65 v 3.87 c 0,0.36 0.19,0.65 0.6,0.65 0.41,0 0.6,-0.29 0.6,-0.65 z m -0.6,-2.6499998 c -0.37,0 -0.66,0.26 -0.66,0.74 0,0.4799998 0.29,0.7399998 0.66,0.7399998 0.37,0 0.66,-0.26 0.66,-0.7399998 0,-0.48 -0.29,-0.74 -0.66,-0.74 z"
         style="font-size:10px;stroke-width:2.61"
         id="path253" />
      <path
         d="m 84.910217,15.692613 c 0,0.39 0.22,0.68 0.6,0.68 0.38,0 0.6,-0.29 0.6,-0.68 v -2.19 c 0,-0.92 0.29,-1.16 0.88,-1.16 0.43,0 0.69,-0.18 0.69,-0.56 0,-0.34 -0.18,-0.58 -0.62,-0.58 -0.56,0 -0.94,0.24 -1.02,0.79 h -0.02 l -0.02,-0.31 c -0.04,-0.45 -0.32,-0.48 -0.54,-0.48 -0.35,0 -0.55,0.2 -0.55,0.61 z"
         style="font-size:10px;stroke-width:2.61"
         id="path255" />
      <path
         d="m 92.130203,16.342613 c 0.32,0 0.58,-0.17 0.58,-0.54 0,-0.37 -0.26,-0.54 -0.58,-0.54 h -1.29 c -0.84,0 -1.55,-0.25 -1.63,-1.19 h 3.06 c 0.42,0 0.49,-0.25 0.49,-0.59 0,-1.17 -0.69,-2.28 -2.36,-2.28 -1.53,0 -2.51,1.17 -2.51,2.67 0,1.49 1,2.47 2.78,2.47 z m -2.84,-3.17 c 0.14,-0.6 0.64,-0.97 1.11,-0.97 0.47,0 0.97,0.37 1.1,0.97 z"
         style="font-size:10px;stroke-width:2.61"
         id="path257" />
    </g>
    <g
       aria-label="Véhicule prioritaire"
       id="text27-3"
       style="font-weight:bold;font-size:10px;line-height:15.625px;font-family:'ITC Benguiat Gothic Std';-inkscape-font-specification:'ITC Benguiat Gothic Std, Bold';text-align:center;writing-mode:lr-tb;text-anchor:middle;fill:#000000;stroke-width:2.61;stroke-linecap:round;stroke-linejoin:round"
       transform="translate(-0.21187069,122.9288)">
      <path
         d="m 10.110335,15.012613 c -0.8199998,-1.44 -1.2199998,-2.93 -1.3799998,-4.58 -0.06,-0.6099998 -0.1,-0.9999998 -0.73,-0.9999998 -0.35,0 -0.63,0.2 -0.63,0.7199998 0,1.37 0.82,4.01 1.53,5.21 0.34,0.57 0.58,1.04 1.2099998,1.04 0.63,0 0.87,-0.47 1.21,-1.04 0.71,-1.2 1.53,-3.84 1.53,-5.21 0,-0.5199998 -0.28,-0.7199998 -0.63,-0.7199998 -0.63,0 -0.67,0.39 -0.73,0.9999998 -0.16,1.65 -0.56,3.14 -1.38,4.58 z"
         style="font-size:10px;stroke-width:2.61"
         id="path221-6" />
      <path
         d="m 17.38031,16.342613 c 0.32,0 0.58,-0.17 0.58,-0.54 0,-0.37 -0.26,-0.54 -0.58,-0.54 h -1.29 c -0.84,0 -1.55,-0.25 -1.63,-1.19 h 3.06 c 0.42,0 0.49,-0.25 0.49,-0.59 0,-1.17 -0.69,-2.28 -2.36,-2.28 -1.53,0 -2.51,1.17 -2.51,2.67 0,1.49 1,2.47 2.78,2.47 z m -2.84,-3.17 c 0.14,-0.6 0.64,-0.97 1.11,-0.97 0.47,0 0.97,0.37 1.1,0.97 z m -0.01,-3.17 c -0.15,0.06 -0.24,0.15 -0.24,0.26 0,0.27 0.12,0.48 0.35,0.48 0.17,0 0.53,-0.11 0.88,-0.19 l 1.29,-0.3 c 0.21,-0.05 0.25,-0.15 0.24,-0.3499998 -0.01,-0.24 -0.08,-0.6 -0.38,-0.6 -0.2,0 -0.41,0.09 -0.67,0.18 z"
         style="font-size:10px;stroke-width:2.61"
         id="path223-7" />
      <path
         d="m 18.970308,15.722613 c 0,0.36 0.19,0.65 0.6,0.65 0.41,0 0.6,-0.29 0.6,-0.65 v -2.04 c 0,-0.93 0.44,-1.4 1.12,-1.4 0.54,0 0.81,0.34 0.81,1.04 v 2.4 c 0,0.36 0.19,0.65 0.6,0.65 0.41,0 0.6,-0.29 0.6,-0.65 v -2.72 c 0,-1.02 -0.7,-1.8 -1.78,-1.8 -0.55,0 -0.95,0.16 -1.35,0.54 V 9.8826132 c 0,-0.36 -0.19,-0.65 -0.6,-0.65 -0.41,0 -0.6,0.29 -0.6,0.65 z"
         style="font-size:10px;stroke-width:2.61"
         id="path225-5" />
      <path
         d="m 25.910305,11.852613 c 0,-0.36 -0.19,-0.65 -0.6,-0.65 -0.41,0 -0.6,0.29 -0.6,0.65 v 3.87 c 0,0.36 0.19,0.65 0.6,0.65 0.41,0 0.6,-0.29 0.6,-0.65 z m -0.6,-2.6499998 c -0.37,0 -0.66,0.26 -0.66,0.74 0,0.4799998 0.29,0.7399998 0.66,0.7399998 0.37,0 0.66,-0.26 0.66,-0.7399998 0,-0.48 -0.29,-0.74 -0.66,-0.74 z"
         style="font-size:10px;stroke-width:2.61"
         id="path227-3" />
      <path
         d="m 29.180304,11.262613 c -1.32,0 -2.16,1 -2.16,2.19 0,1.35 1.04,2.89 3.46,2.89 0.94,0 1.2,-0.17 1.2,-0.56 0,-0.45 -0.2,-0.58 -1.03,-0.58 -1.34,0 -2.31,-0.58 -2.31,-1.78 0,-0.52 0.38,-1.02 1.08,-1.02 h 1.51 c 0.34,0 0.61,-0.18 0.61,-0.57 0,-0.39 -0.27,-0.57 -0.61,-0.57 z"
         style="font-size:10px;stroke-width:2.61"
         id="path229-5" />
      <path
         d="m 36.640285,11.852613 c 0,-0.36 -0.19,-0.65 -0.6,-0.65 -0.41,0 -0.6,0.29 -0.6,0.65 v 2.07 c 0,0.93 -0.44,1.4 -1.12,1.4 -0.54,0 -0.81,-0.34 -0.81,-1.04 v -2.43 c 0,-0.36 -0.19,-0.65 -0.6,-0.65 -0.41,0 -0.6,0.29 -0.6,0.65 v 2.75 c 0,1.02 0.7,1.8 1.78,1.8 0.55,0 0.95,-0.16 1.35,-0.54 0,0.25 0.19,0.54 0.6,0.54 0.41,0 0.6,-0.29 0.6,-0.65 z"
         style="font-size:10px;stroke-width:2.61"
         id="path231-6" />
      <path
         d="m 39.250283,9.8826132 c 0,-0.36 -0.19,-0.65 -0.6,-0.65 -0.41,0 -0.6,0.29 -0.6,0.65 v 5.8399998 c 0,0.36 0.19,0.65 0.6,0.65 0.41,0 0.6,-0.29 0.6,-0.65 z"
         style="font-size:10px;stroke-width:2.61"
         id="path233-2" />
      <path
         d="m 44.620281,16.342613 c 0.32,0 0.58,-0.17 0.58,-0.54 0,-0.37 -0.26,-0.54 -0.58,-0.54 h -1.29 c -0.84,0 -1.55,-0.25 -1.63,-1.19 h 3.06 c 0.42,0 0.49,-0.25 0.49,-0.59 0,-1.17 -0.69,-2.28 -2.36,-2.28 -1.53,0 -2.51,1.17 -2.51,2.67 0,1.49 1,2.47 2.78,2.47 z m -2.84,-3.17 c 0.14,-0.6 0.64,-0.97 1.11,-0.97 0.47,0 0.97,0.37 1.1,0.97 z"
         style="font-size:10px;stroke-width:2.61"
         id="path235-9" />
      <path
         d="m 51.430263,16.342613 c 1.64,0 2.5,-1.02 2.5,-2.27 0,-1.45 -1.08,-2.87 -3.52,-2.87 -0.84,0 -1.13,0.2 -1.13,0.58 v 6.03 c 0,0.36 0.19,0.65 0.6,0.65 0.41,0 0.6,-0.29 0.6,-0.65 v -1.47 z m -0.95,-4.06 c 1.35,0.04 2.19,0.72 2.19,1.83 0,0.75 -0.6,1.15 -1.59,1.15 h -0.6 z"
         style="font-size:10px;stroke-width:2.61"
         id="path237-1" />
      <path
         d="m 54.90026,15.692613 c 0,0.39 0.22,0.68 0.6,0.68 0.38,0 0.6,-0.29 0.6,-0.68 v -2.19 c 0,-0.92 0.29,-1.16 0.88,-1.16 0.43,0 0.69,-0.18 0.69,-0.56 0,-0.34 -0.18,-0.58 -0.62,-0.58 -0.56,0 -0.94,0.24 -1.02,0.79 h -0.02 l -0.02,-0.31 c -0.04,-0.45 -0.32,-0.48 -0.54,-0.48 -0.35,0 -0.55,0.2 -0.55,0.61 z"
         style="font-size:10px;stroke-width:2.61"
         id="path239-2" />
      <path
         d="m 59.530243,11.852613 c 0,-0.36 -0.19,-0.65 -0.6,-0.65 -0.41,0 -0.6,0.29 -0.6,0.65 v 3.87 c 0,0.36 0.19,0.65 0.6,0.65 0.41,0 0.6,-0.29 0.6,-0.65 z m -0.6,-2.6499998 c -0.37,0 -0.66,0.26 -0.66,0.74 0,0.4799998 0.29,0.7399998 0.66,0.7399998 0.37,0 0.66,-0.26 0.66,-0.7399998 0,-0.48 -0.29,-0.74 -0.66,-0.74 z"
         style="font-size:10px;stroke-width:2.61"
         id="path241-7" />
      <path
         d="m 65.560242,13.802613 c 0,-1.46 -0.9,-2.6 -2.46,-2.6 -1.56,0 -2.46,1.14 -2.46,2.6 0,1.46 0.9,2.6 2.46,2.6 1.56,0 2.46,-1.14 2.46,-2.6 z m -1.26,0 c 0,0.8 -0.38,1.52 -1.2,1.52 -0.82,0 -1.2,-0.72 -1.2,-1.52 0,-0.8 0.38,-1.52 1.2,-1.52 0.82,0 1.2,0.72 1.2,1.52 z"
         style="font-size:10px;stroke-width:2.61"
         id="path243-0" />
      <path
         d="m 66.570239,15.692613 c 0,0.39 0.22,0.68 0.6,0.68 0.38,0 0.6,-0.29 0.6,-0.68 v -2.19 c 0,-0.92 0.29,-1.16 0.88,-1.16 0.43,0 0.69,-0.18 0.69,-0.56 0,-0.34 -0.18,-0.58 -0.62,-0.58 -0.56,0 -0.94,0.24 -1.02,0.79 h -0.02 l -0.02,-0.31 c -0.04,-0.45 -0.32,-0.48 -0.54,-0.48 -0.35,0 -0.55,0.2 -0.55,0.61 z"
         style="font-size:10px;stroke-width:2.61"
         id="path245-9" />
      <path
         d="m 71.200222,11.852613 c 0,-0.36 -0.19,-0.65 -0.6,-0.65 -0.41,0 -0.6,0.29 -0.6,0.65 v 3.87 c 0,0.36 0.19,0.65 0.6,0.65 0.41,0 0.6,-0.29 0.6,-0.65 z m -0.6,-2.6499998 c -0.37,0 -0.66,0.26 -0.66,0.74 0,0.4799998 0.29,0.7399998 0.66,0.7399998 0.37,0 0.66,-0.26 0.66,-0.7399998 0,-0.48 -0.29,-0.74 -0.66,-0.74 z"
         style="font-size:10px;stroke-width:2.61"
         id="path247-3" />
      <path
         d="m 75.070221,12.342613 c 0.32,0 0.58,-0.17 0.58,-0.54 0,-0.37 -0.26,-0.54 -0.58,-0.54 h -0.88 v -0.85 c 0,-0.36 -0.19,-0.6499998 -0.6,-0.6499998 -0.41,0 -0.6,0.2899998 -0.6,0.6499998 v 0.85 h -0.34 c -0.33,0 -0.59,0.17 -0.59,0.54 0,0.37 0.26,0.54 0.59,0.54 h 0.34 v 2.16 c 0,1.84 0.7,1.84 2.22,1.84 0.54,0 0.81,-0.18 0.81,-0.57 0,-0.39 -0.27,-0.57 -0.61,-0.57 h -0.64 c -0.46,0 -0.58,-0.28 -0.58,-0.88 v -1.98 z"
         style="font-size:10px;stroke-width:2.61"
         id="path249-6" />
      <path
         d="m 80.58022,12.962613 c 0,-1.23 -0.62,-1.7 -1.68,-1.7 h -1.75 c -0.33,0 -0.59,0.17 -0.59,0.54 0,0.37 0.26,0.54 0.59,0.54 h 1.83 c 0.27,0 0.4,0.14 0.4,0.65 h -0.42 c -1.17,0 -2.78,0.39 -2.78,1.83 0,0.96 0.74,1.58 1.75,1.58 0.69,0 1.23,-0.18 1.55,-0.58 0.03,0.38 0.18,0.58 0.51,0.58 0.44,0 0.59,-0.25 0.59,-0.66 z m -1.14,1.57 c 0,0.57 -0.58,0.91 -1.14,0.91 -0.6,0 -0.92,-0.27 -0.92,-0.68 0,-0.47 0.67,-0.87 2.06,-0.87 z"
         style="font-size:10px;stroke-width:2.61"
         id="path251-0" />
      <path
         d="m 83.430218,11.852613 c 0,-0.36 -0.19,-0.65 -0.6,-0.65 -0.41,0 -0.6,0.29 -0.6,0.65 v 3.87 c 0,0.36 0.19,0.65 0.6,0.65 0.41,0 0.6,-0.29 0.6,-0.65 z m -0.6,-2.6499998 c -0.37,0 -0.66,0.26 -0.66,0.74 0,0.4799998 0.29,0.7399998 0.66,0.7399998 0.37,0 0.66,-0.26 0.66,-0.7399998 0,-0.48 -0.29,-0.74 -0.66,-0.74 z"
         style="font-size:10px;stroke-width:2.61"
         id="path253-6" />
      <path
         d="m 84.910217,15.692613 c 0,0.39 0.22,0.68 0.6,0.68 0.38,0 0.6,-0.29 0.6,-0.68 v -2.19 c 0,-0.92 0.29,-1.16 0.88,-1.16 0.43,0 0.69,-0.18 0.69,-0.56 0,-0.34 -0.18,-0.58 -0.62,-0.58 -0.56,0 -0.94,0.24 -1.02,0.79 h -0.02 l -0.02,-0.31 c -0.04,-0.45 -0.32,-0.48 -0.54,-0.48 -0.35,0 -0.55,0.2 -0.55,0.61 z"
         style="font-size:10px;stroke-width:2.61"
         id="path255-2" />
      <path
         d="m 92.130203,16.342613 c 0.32,0 0.58,-0.17 0.58,-0.54 0,-0.37 -0.26,-0.54 -0.58,-0.54 h -1.29 c -0.84,0 -1.55,-0.25 -1.63,-1.19 h 3.06 c 0.42,0 0.49,-0.25 0.49,-0.59 0,-1.17 -0.69,-2.28 -2.36,-2.28 -1.53,0 -2.51,1.17 -2.51,2.67 0,1.49 1,2.47 2.78,2.47 z m -2.84,-3.17 c 0.14,-0.6 0.64,-0.97 1.11,-0.97 0.47,0 0.97,0.37 1.1,0.97 z"
         style="font-size:10px;stroke-width:2.61"
         id="path257-6" />
    </g>
  </g>
</svg>
