<?xml version="1.0" encoding="UTF-8"?>
<svg xmlns="http://www.w3.org/2000/svg" xmlns:xlink="http://www.w3.org/1999/xlink" width="100pt" height="150pt" viewBox="0 0 100 150" version="1.1">
<g id="surface61">
<path style=" stroke:none;fill-rule:nonzero;fill:rgb(100%,100%,100%);fill-opacity:1;" d="M 1 17.667969 C 1 8.460938 8.460938 1 17.667969 1 L 82.332031 1 C 91.539062 1 99 8.460938 99 17.667969 L 99 132.332031 C 99 141.539062 91.539062 149 82.332031 149 L 17.667969 149 C 8.460938 149 1 141.539062 1 132.332031 L 1 17.667969 "/>
<path style=" stroke:none;fill-rule:nonzero;fill:rgb(99.607843%,99.607843%,99.607843%);fill-opacity:1;" d="M 5 81.152344 L 5 32.304688 L 7.25 31.148438 L 9.5 29.988281 L 7.25 30.5625 C 6.011719 30.878906 5 30.6875 5 30.136719 C 5 29.589844 6.011719 28.945312 7.25 28.707031 L 9.5 28.273438 L 7.25 28.136719 C 6.011719 28.0625 5 27.519531 5 26.933594 C 5 26.324219 5.964844 26.109375 7.25 26.4375 L 9.5 27.011719 L 7.25 25.851562 C 5.890625 25.152344 5 23.769531 5 22.359375 L 5 20.023438 L 50 20.023438 L 95 20.019531 L 95 130 L 5 130 Z M 87.394531 121.25 C 86.5625 114.253906 86.390625 114 82.5 114 C 78.609375 114 78.4375 114.253906 77.605469 121.25 L 77.039062 126 L 87.960938 126 Z M 78 124 C 78 123.449219 80.023438 123 82.5 123 C 84.976562 123 87 123.449219 87 124 C 87 124.550781 84.976562 125 82.5 125 C 80.023438 125 78 124.550781 78 124 Z M 91 121 C 90.175781 120.46875 89.050781 120.03125 88.5 120.03125 C 87.949219 120.03125 88.175781 120.46875 89 121 C 89.824219 121.53125 90.949219 121.96875 91.5 121.96875 C 92.050781 121.96875 91.824219 121.53125 91 121 Z M 91.25 118.335938 C 90.5625 118.058594 89.4375 118.058594 88.75 118.335938 C 88.0625 118.613281 88.625 118.84375 90 118.84375 C 91.375 118.84375 91.9375 118.613281 91.25 118.335938 Z M 91 116 C 91.824219 115.46875 92.050781 115.03125 91.5 115.03125 C 90.949219 115.03125 89.824219 115.46875 89 116 C 88.175781 116.53125 87.949219 116.96875 88.5 116.96875 C 89.050781 116.96875 90.175781 116.53125 91 116 Z M 29.8125 75.734375 C 30.210938 73.667969 27.324219 72.277344 25.800781 73.800781 C 24.277344 75.324219 25.667969 78.210938 27.734375 77.8125 C 28.691406 77.628906 29.628906 76.691406 29.8125 75.734375 Z M 26 75.5 C 26 74.675781 26.675781 74 27.5 74 C 28.324219 74 29 74.675781 29 75.5 C 29 76.324219 28.324219 77 27.5 77 C 26.675781 77 26 76.324219 26 75.5 Z M 62.8125 75.734375 C 63.210938 73.667969 60.324219 72.277344 58.800781 73.800781 C 57.277344 75.324219 58.667969 78.210938 60.734375 77.8125 C 61.691406 77.628906 62.628906 76.691406 62.8125 75.734375 Z M 59 75.5 C 59 74.675781 59.675781 74 60.5 74 C 61.324219 74 62 74.675781 62 75.5 C 62 76.324219 61.324219 77 60.5 77 C 59.675781 77 59 76.324219 59 75.5 Z M 68.8125 75.734375 C 69.210938 73.667969 66.324219 72.277344 64.800781 73.800781 C 63.277344 75.324219 64.667969 78.210938 66.734375 77.8125 C 67.691406 77.628906 68.628906 76.691406 68.8125 75.734375 Z M 65 75.5 C 65 74.675781 65.675781 74 66.5 74 C 67.324219 74 68 74.675781 68 75.5 C 68 76.324219 67.324219 77 66.5 77 C 65.675781 77 65 76.324219 65 75.5 Z M 24.363281 73.5 C 25.109375 71.554688 29.890625 71.554688 30.636719 73.5 C 31.464844 75.660156 56.507812 75.726562 57.335938 73.570312 C 58.105469 71.566406 68.894531 71.566406 69.664062 73.570312 C 69.96875 74.355469 71.515625 75 73.105469 75 C 75.945312 75 76 74.898438 76 69.5 C 76 64.933594 75.703125 63.996094 74.25 63.984375 C 72.878906 63.972656 72.796875 63.78125 73.863281 63.105469 C 75.015625 62.375 75.015625 62.15625 73.863281 61.695312 C 72.746094 61.25 72.769531 60.960938 74 60.089844 C 75.027344 59.367188 75.105469 59.015625 74.25 58.988281 C 72.621094 58.933594 41.378906 58.933594 39.75 58.988281 C 38.90625 59.015625 38.988281 59.351562 40 60.015625 C 41.332031 60.890625 41.332031 61.109375 40 61.984375 C 38.765625 62.796875 38.75 62.972656 39.917969 62.984375 C 40.695312 62.992188 41.035156 63.296875 40.675781 63.660156 C 40.3125 64.019531 37.757812 64.238281 34.996094 64.140625 C 30.515625 63.980469 29.851562 64.234375 28.828125 66.480469 C 27.933594 68.441406 26.9375 69 24.339844 69 C 21.296875 69 21 69.265625 21 72 C 21 75.1875 23.316406 76.21875 24.363281 73.5 Z M 29.015625 68.25 C 29.023438 67.835938 29.46875 66.824219 30 66 C 30.785156 64.785156 30.972656 64.929688 30.984375 66.75 C 30.992188 67.988281 30.550781 69 30 69 C 29.449219 69 29.007812 68.664062 29.015625 68.25 Z M 32 67 C 32 65.898438 32.449219 65 33 65 C 33.550781 65 34 65.898438 34 67 C 34 68.101562 33.550781 69 33 69 C 32.449219 69 32 68.101562 32 67 Z M 49.25 63.257812 C 53.511719 63.070312 60.488281 63.070312 64.75 63.257812 C 69.011719 63.445312 65.523438 63.597656 57 63.597656 C 48.476562 63.597656 44.988281 63.445312 49.25 63.257812 Z M 44 61 C 44 60.449219 44.449219 60 45 60 C 45.550781 60 46 60.449219 46 61 C 46 61.550781 45.550781 62 45 62 C 44.449219 62 44 61.550781 44 61 Z M 47 61 C 47 60.449219 47.449219 60 48 60 C 48.550781 60 49 60.449219 49 61 C 49 61.550781 48.550781 62 48 62 C 47.449219 62 47 61.550781 47 61 Z M 50 61 C 50 60.449219 50.449219 60 51 60 C 51.550781 60 52 60.449219 52 61 C 52 61.550781 51.550781 62 51 62 C 50.449219 62 50 61.550781 50 61 Z M 53 61 C 53 60.449219 53.449219 60 54 60 C 54.550781 60 55 60.449219 55 61 C 55 61.550781 54.550781 62 54 62 C 53.449219 62 53 61.550781 53 61 Z M 56 61 C 56 60.449219 56.449219 60 57 60 C 57.550781 60 58 60.449219 58 61 C 58 61.550781 57.550781 62 57 62 C 56.449219 62 56 61.550781 56 61 Z M 59 61 C 59 60.449219 59.449219 60 60 60 C 60.550781 60 61 60.449219 61 61 C 61 61.550781 60.550781 62 60 62 C 59.449219 62 59 61.550781 59 61 Z M 62 61 C 62 60.449219 62.449219 60 63 60 C 63.550781 60 64 60.449219 64 61 C 64 61.550781 63.550781 62 63 62 C 62.449219 62 62 61.550781 62 61 Z M 65 61 C 65 60.449219 65.449219 60 66 60 C 66.550781 60 67 60.449219 67 61 C 67 61.550781 66.550781 62 66 62 C 65.449219 62 65 61.550781 65 61 Z M 68 61 C 68 60.449219 68.449219 60 69 60 C 69.550781 60 70 60.449219 70 61 C 70 61.550781 69.550781 62 69 62 C 68.449219 62 68 61.550781 68 61 Z M 19.921875 35.25 C 19.875 34.203125 19.640625 34.003906 19.335938 34.75 C 18.667969 36.40625 10.332031 36.40625 9.664062 34.75 C 9.359375 34.003906 9.125 34.203125 9.078125 35.25 C 9.011719 36.714844 9.898438 37 14.5 37 C 19.101562 37 19.988281 36.714844 19.921875 35.25 Z M 18.808594 28.75 C 18.5 24.507812 18.492188 24.5 14.5 24.5 C 10.507812 24.5 10.5 24.507812 10.191406 28.75 L 9.886719 33 L 19.113281 33 Z M 18.808594 28.75 "/>
<path style=" stroke:none;fill-rule:nonzero;fill:rgb(99.607843%,0%,0%);fill-opacity:1;" d="M 78.191406 118.75 C 78.5 114.507812 78.507812 114.5 82.5 114.5 C 86.492188 114.5 86.5 114.507812 86.808594 118.75 L 87.113281 123 L 77.886719 123 Z M 89 121 C 88.175781 120.46875 87.949219 120.03125 88.5 120.03125 C 89.050781 120.03125 90.175781 120.46875 91 121 C 91.824219 121.53125 92.050781 121.96875 91.5 121.96875 C 90.949219 121.96875 89.824219 121.53125 89 121 Z M 88.75 118.335938 C 89.4375 118.058594 90.5625 118.058594 91.25 118.335938 C 91.9375 118.613281 91.375 118.84375 90 118.84375 C 88.625 118.84375 88.0625 118.613281 88.75 118.335938 Z M 89 116 C 89.824219 115.46875 90.949219 115.03125 91.5 115.03125 C 92.050781 115.03125 91.824219 115.46875 91 116 C 90.175781 116.53125 89.050781 116.96875 88.5 116.96875 C 87.949219 116.96875 88.175781 116.53125 89 116 Z M 22 72.15625 C 22 70.171875 22.511719 70 28.433594 70 C 34.683594 70 34.878906 69.921875 35.285156 67.25 C 35.542969 65.550781 35.757812 66.316406 35.851562 69.25 C 35.976562 73.285156 35.714844 74 34.121094 74 C 33.089844 74 31.683594 73.324219 31 72.5 C 29.359375 70.523438 26.105469 70.59375 23.828125 72.65625 C 22.109375 74.210938 22 74.179688 22 72.15625 Z M 37.285156 69.5 C 37.292969 66.75 37.488281 65.742188 37.71875 67.265625 C 37.949219 68.785156 37.941406 71.035156 37.703125 72.265625 C 37.464844 73.492188 37.277344 72.25 37.285156 69.5 Z M 39 69.5 L 39 65 L 75 65 L 75 69.5 C 75 73.234375 74.679688 74 73.121094 74 C 72.089844 74 70.710938 73.355469 70.058594 72.570312 C 69.300781 71.65625 66.9375 71.144531 63.5 71.144531 C 60.0625 71.144531 57.699219 71.65625 56.941406 72.570312 C 56.085938 73.601562 53.417969 74 47.378906 74 L 39 74 Z M 48 69.5 C 48 67.390625 47.535156 67 45 67 C 42.464844 67 42 67.390625 42 69.5 C 42 71.609375 42.464844 72 45 72 C 47.535156 72 48 71.609375 48 69.5 Z M 43 69.5 C 43 68.667969 43.890625 68 45 68 C 46.109375 68 47 68.667969 47 69.5 C 47 70.332031 46.109375 71 45 71 C 43.890625 71 43 70.332031 43 69.5 Z M 52 69 C 52 68.449219 51.550781 68 51 68 C 50.449219 68 50 68.449219 50 69 C 50 69.550781 50.449219 70 51 70 C 51.550781 70 52 69.550781 52 69 Z M 55 69 C 55 68.449219 54.550781 68 54 68 C 53.449219 68 53 68.449219 53 69 C 53 69.550781 53.449219 70 54 70 C 54.550781 70 55 69.550781 55 69 Z M 10.191406 28.75 C 10.5 24.507812 10.507812 24.5 14.5 24.5 C 18.492188 24.5 18.5 24.507812 18.808594 28.75 L 19.113281 33 L 9.886719 33 Z M 6 31 C 6.824219 30.46875 7.949219 30.03125 8.5 30.03125 C 9.050781 30.03125 8.824219 30.46875 8 31 C 7.175781 31.53125 6.050781 31.96875 5.5 31.96875 C 4.949219 31.96875 5.175781 31.53125 6 31 Z M 5.75 28.335938 C 6.4375 28.058594 7.5625 28.058594 8.25 28.335938 C 8.9375 28.613281 8.375 28.84375 7 28.84375 C 5.625 28.84375 5.0625 28.613281 5.75 28.335938 Z M 6 26 C 5.175781 25.46875 4.949219 25.03125 5.5 25.03125 C 6.050781 25.03125 7.175781 25.46875 8 26 C 8.824219 26.53125 9.050781 26.96875 8.5 26.96875 C 7.949219 26.96875 6.824219 26.53125 6 26 Z M 6 26 "/>
<path style=" stroke:none;fill-rule:nonzero;fill:rgb(0%,0%,0%);fill-opacity:1;" d="M 77.078125 124.25 C 77.125 123.203125 77.359375 123.003906 77.664062 123.75 C 77.957031 124.480469 79.96875 125 82.5 125 C 85.03125 125 87.042969 124.480469 87.335938 123.75 C 87.640625 123.003906 87.875 123.203125 87.921875 124.25 C 87.988281 125.714844 87.101562 126 82.5 126 C 77.898438 126 77.011719 125.714844 77.078125 124.25 Z M 25.363281 76.507812 C 25.019531 75.605469 25.214844 74.386719 25.800781 73.800781 C 27.324219 72.277344 30.210938 73.667969 29.8125 75.734375 C 29.367188 78.039062 26.164062 78.59375 25.363281 76.507812 Z M 29 75.5 C 29 74.675781 28.324219 74 27.5 74 C 26.675781 74 26 74.675781 26 75.5 C 26 76.324219 26.675781 77 27.5 77 C 28.324219 77 29 76.324219 29 75.5 Z M 58.363281 76.507812 C 58.019531 75.605469 58.214844 74.386719 58.800781 73.800781 C 60.324219 72.277344 63.210938 73.667969 62.8125 75.734375 C 62.367188 78.039062 59.164062 78.59375 58.363281 76.507812 Z M 62 75.5 C 62 74.675781 61.324219 74 60.5 74 C 59.675781 74 59 74.675781 59 75.5 C 59 76.324219 59.675781 77 60.5 77 C 61.324219 77 62 76.324219 62 75.5 Z M 64.363281 76.507812 C 64.019531 75.605469 64.214844 74.386719 64.800781 73.800781 C 66.324219 72.277344 69.210938 73.667969 68.8125 75.734375 C 68.367188 78.039062 65.164062 78.59375 64.363281 76.507812 Z M 68 75.5 C 68 74.675781 67.324219 74 66.5 74 C 65.675781 74 65 74.675781 65 75.5 C 65 76.324219 65.675781 77 66.5 77 C 67.324219 77 68 76.324219 68 75.5 Z M 21 72 C 21 69.265625 21.296875 69 24.339844 69 C 26.929688 69 27.933594 68.441406 28.816406 66.5 C 29.714844 64.53125 30.695312 64 33.425781 64 L 36.894531 64 L 37.628906 74.5 L 37.816406 69.25 C 37.964844 64.992188 38.332031 63.996094 39.75 63.984375 C 41.121094 63.972656 41.203125 63.78125 40.136719 63.105469 C 38.984375 62.375 38.984375 62.15625 40.136719 61.695312 C 41.253906 61.25 41.230469 60.960938 40 60.089844 C 38.972656 59.367188 38.894531 59.015625 39.75 58.988281 C 41.378906 58.933594 72.621094 58.933594 74.25 58.988281 C 75.09375 59.015625 75.011719 59.351562 74 60.015625 C 72.75 60.835938 72.730469 61.148438 73.863281 61.878906 C 75.015625 62.621094 75.015625 62.84375 73.863281 63.300781 C 72.914062 63.679688 73.03125 63.867188 74.25 63.921875 C 75.695312 63.984375 76 64.957031 76 69.5 C 76 74.898438 75.945312 75 73.105469 75 C 71.515625 75 69.96875 74.355469 69.664062 73.570312 C 68.894531 71.566406 58.105469 71.566406 57.335938 73.570312 C 56.507812 75.726562 31.464844 75.660156 30.636719 73.5 C 30.320312 72.675781 28.910156 72 27.5 72 C 26.089844 72 24.679688 72.675781 24.363281 73.5 C 23.316406 76.21875 21 75.1875 21 72 Z M 27.707031 71 C 28.832031 71 30.316406 71.675781 31 72.5 C 31.683594 73.324219 33.089844 74 34.121094 74 C 35.714844 74 35.976562 73.285156 35.851562 69.25 C 35.757812 66.316406 35.542969 65.550781 35.285156 67.25 C 34.878906 69.921875 34.683594 70 28.433594 70 C 22.511719 70 22 70.171875 22 72.15625 C 22 74.179688 22.109375 74.210938 23.828125 72.65625 C 24.835938 71.746094 26.578125 71 27.707031 71 Z M 56.941406 72.570312 C 57.699219 71.65625 60.0625 71.144531 63.5 71.144531 C 66.9375 71.144531 69.300781 71.65625 70.058594 72.570312 C 70.710938 73.355469 72.089844 74 73.121094 74 C 74.679688 74 75 73.234375 75 69.5 L 75 65 L 39 65 L 39 74 L 47.378906 74 C 53.417969 74 56.085938 73.601562 56.941406 72.570312 Z M 42 69.5 C 42 67.390625 42.464844 67 45 67 C 47.535156 67 48 67.390625 48 69.5 C 48 71.609375 47.535156 72 45 72 C 42.464844 72 42 71.609375 42 69.5 Z M 47 69.5 C 47 68.667969 46.109375 68 45 68 C 43.890625 68 43 68.667969 43 69.5 C 43 70.332031 43.890625 71 45 71 C 46.109375 71 47 70.332031 47 69.5 Z M 50 69 C 50 68.449219 50.449219 68 51 68 C 51.550781 68 52 68.449219 52 69 C 52 69.550781 51.550781 70 51 70 C 50.449219 70 50 69.550781 50 69 Z M 53 69 C 53 68.449219 53.449219 68 54 68 C 54.550781 68 55 68.449219 55 69 C 55 69.550781 54.550781 70 54 70 C 53.449219 70 53 69.550781 53 69 Z M 30.984375 66.75 C 30.972656 64.929688 30.785156 64.785156 30 66 C 28.746094 67.9375 28.746094 69 30 69 C 30.550781 69 30.992188 67.988281 30.984375 66.75 Z M 34 67 C 34 65.898438 33.550781 65 33 65 C 32.449219 65 32 65.898438 32 67 C 32 68.101562 32.449219 69 33 69 C 33.550781 69 34 68.101562 34 67 Z M 64.75 63.257812 C 60.488281 63.070312 53.511719 63.070312 49.25 63.257812 C 44.988281 63.445312 48.476562 63.597656 57 63.597656 C 65.523438 63.597656 69.011719 63.445312 64.75 63.257812 Z M 46 61 C 46 60.449219 45.550781 60 45 60 C 44.449219 60 44 60.449219 44 61 C 44 61.550781 44.449219 62 45 62 C 45.550781 62 46 61.550781 46 61 Z M 49 61 C 49 60.449219 48.550781 60 48 60 C 47.449219 60 47 60.449219 47 61 C 47 61.550781 47.449219 62 48 62 C 48.550781 62 49 61.550781 49 61 Z M 52 61 C 52 60.449219 51.550781 60 51 60 C 50.449219 60 50 60.449219 50 61 C 50 61.550781 50.449219 62 51 62 C 51.550781 62 52 61.550781 52 61 Z M 55 61 C 55 60.449219 54.550781 60 54 60 C 53.449219 60 53 60.449219 53 61 C 53 61.550781 53.449219 62 54 62 C 54.550781 62 55 61.550781 55 61 Z M 58 61 C 58 60.449219 57.550781 60 57 60 C 56.449219 60 56 60.449219 56 61 C 56 61.550781 56.449219 62 57 62 C 57.550781 62 58 61.550781 58 61 Z M 61 61 C 61 60.449219 60.550781 60 60 60 C 59.449219 60 59 60.449219 59 61 C 59 61.550781 59.449219 62 60 62 C 60.550781 62 61 61.550781 61 61 Z M 64 61 C 64 60.449219 63.550781 60 63 60 C 62.449219 60 62 60.449219 62 61 C 62 61.550781 62.449219 62 63 62 C 63.550781 62 64 61.550781 64 61 Z M 67 61 C 67 60.449219 66.550781 60 66 60 C 65.449219 60 65 60.449219 65 61 C 65 61.550781 65.449219 62 66 62 C 66.550781 62 67 61.550781 67 61 Z M 70 61 C 70 60.449219 69.550781 60 69 60 C 68.449219 60 68 60.449219 68 61 C 68 61.550781 68.449219 62 69 62 C 69.550781 62 70 61.550781 70 61 Z M 9.078125 35.25 C 9.125 34.203125 9.359375 34.003906 9.664062 34.75 C 10.332031 36.40625 18.667969 36.40625 19.335938 34.75 C 19.640625 34.003906 19.875 34.203125 19.921875 35.25 C 19.988281 36.714844 19.101562 37 14.5 37 C 9.898438 37 9.011719 36.714844 9.078125 35.25 Z M 9.078125 35.25 "/>
<path style="fill:none;stroke-width:2;stroke-linecap:butt;stroke-linejoin:miter;stroke:rgb(0%,0%,0%);stroke-opacity:1;stroke-miterlimit:10;" d="M 1 17.667969 C 1 8.460938 8.460938 1 17.667969 1 L 82.332031 1 C 91.539062 1 99 8.460938 99 17.667969 L 99 132.332031 C 99 141.539062 91.539062 149 82.332031 149 L 17.667969 149 C 8.460938 149 1 141.539062 1 132.332031 L 1 17.667969 "/>
<path style=" stroke:none;fill-rule:nonzero;fill:rgb(0%,0%,0%);fill-opacity:1;" d="M 11.070312 14.144531 C 10.257812 12.707031 9.851562 11.207031 9.695312 9.566406 C 9.632812 8.957031 9.585938 8.566406 8.960938 8.566406 C 8.617188 8.566406 8.335938 8.769531 8.335938 9.285156 C 8.335938 10.660156 9.148438 13.285156 9.867188 14.488281 C 10.210938 15.066406 10.445312 15.535156 11.070312 15.535156 C 11.710938 15.535156 11.945312 15.066406 12.289062 14.488281 C 12.992188 13.285156 13.820312 10.660156 13.820312 9.285156 C 13.820312 8.769531 13.539062 8.566406 13.179688 8.566406 C 12.554688 8.566406 12.507812 8.957031 12.460938 9.566406 C 12.289062 11.207031 11.898438 12.707031 11.070312 14.144531 Z M 18.710938 15.472656 C 19.039062 15.472656 19.289062 15.300781 19.289062 14.925781 C 19.289062 14.566406 19.039062 14.394531 18.710938 14.394531 L 17.429688 14.394531 C 16.585938 14.394531 15.867188 14.144531 15.789062 13.207031 L 18.851562 13.207031 C 19.273438 13.207031 19.335938 12.957031 19.335938 12.613281 C 19.335938 11.441406 18.648438 10.332031 16.976562 10.332031 C 15.445312 10.332031 14.476562 11.503906 14.476562 13.003906 C 14.476562 14.488281 15.476562 15.472656 17.257812 15.472656 Z M 15.867188 12.300781 C 16.007812 11.707031 16.507812 11.332031 16.976562 11.332031 C 17.445312 11.332031 17.945312 11.707031 18.085938 12.300781 Z M 15.867188 9.128906 C 15.710938 9.191406 15.617188 9.285156 15.617188 9.394531 C 15.617188 9.660156 15.742188 9.878906 15.976562 9.878906 C 16.148438 9.878906 16.507812 9.769531 16.851562 9.675781 L 18.148438 9.378906 C 18.351562 9.332031 18.398438 9.238281 18.382812 9.035156 C 18.367188 8.785156 18.304688 8.425781 18.007812 8.425781 C 17.804688 8.425781 17.585938 8.519531 17.335938 8.613281 Z M 20.304688 14.847656 C 20.304688 15.207031 20.492188 15.503906 20.898438 15.503906 C 21.320312 15.503906 21.507812 15.207031 21.507812 14.847656 L 21.507812 12.816406 C 21.507812 11.878906 21.945312 11.410156 22.632812 11.410156 C 23.164062 11.410156 23.429688 11.753906 23.429688 12.457031 L 23.429688 14.847656 C 23.429688 15.207031 23.632812 15.503906 24.039062 15.503906 C 24.445312 15.503906 24.632812 15.207031 24.632812 14.847656 L 24.632812 12.128906 C 24.632812 11.113281 23.929688 10.332031 22.851562 10.332031 C 22.304688 10.332031 21.898438 10.488281 21.507812 10.878906 L 21.507812 9.019531 C 21.507812 8.660156 21.320312 8.363281 20.898438 8.363281 C 20.492188 8.363281 20.304688 8.660156 20.304688 9.019531 Z M 27.238281 10.988281 C 27.238281 10.628906 27.050781 10.332031 26.644531 10.332031 C 26.238281 10.332031 26.050781 10.628906 26.050781 10.988281 L 26.050781 14.847656 C 26.050781 15.207031 26.238281 15.503906 26.644531 15.503906 C 27.050781 15.503906 27.238281 15.207031 27.238281 14.847656 Z M 26.644531 8.332031 C 26.269531 8.332031 25.988281 8.597656 25.988281 9.066406 C 25.988281 9.550781 26.269531 9.816406 26.644531 9.816406 C 27.019531 9.816406 27.300781 9.550781 27.300781 9.066406 C 27.300781 8.597656 27.019531 8.332031 26.644531 8.332031 Z M 30.519531 10.394531 C 29.191406 10.394531 28.347656 11.394531 28.347656 12.582031 C 28.347656 13.925781 29.394531 15.472656 31.816406 15.472656 C 32.753906 15.472656 33.019531 15.300781 33.019531 14.910156 C 33.019531 14.457031 32.816406 14.332031 31.988281 14.332031 C 30.644531 14.332031 29.675781 13.753906 29.675781 12.550781 C 29.675781 12.035156 30.050781 11.535156 30.753906 11.535156 L 32.269531 11.535156 C 32.597656 11.535156 32.878906 11.347656 32.878906 10.957031 C 32.878906 10.566406 32.597656 10.394531 32.269531 10.394531 Z M 35.019531 9.019531 C 35.019531 8.660156 34.832031 8.363281 34.425781 8.363281 C 34.019531 8.363281 33.832031 8.660156 33.832031 9.019531 L 33.832031 14.847656 C 33.832031 15.207031 34.019531 15.503906 34.425781 15.503906 C 34.832031 15.503906 35.019531 15.207031 35.019531 14.847656 Z M 40.390625 15.472656 C 40.71875 15.472656 40.96875 15.300781 40.96875 14.925781 C 40.96875 14.566406 40.71875 14.394531 40.390625 14.394531 L 39.109375 14.394531 C 38.265625 14.394531 37.546875 14.144531 37.46875 13.207031 L 40.53125 13.207031 C 40.953125 13.207031 41.015625 12.957031 41.015625 12.613281 C 41.015625 11.441406 40.328125 10.332031 38.65625 10.332031 C 37.125 10.332031 36.15625 11.503906 36.15625 13.003906 C 36.15625 14.488281 37.15625 15.472656 38.9375 15.472656 Z M 37.546875 12.300781 C 37.6875 11.707031 38.1875 11.332031 38.65625 11.332031 C 39.125 11.332031 39.625 11.707031 39.765625 12.300781 Z M 47.203125 15.472656 C 48.84375 15.472656 49.703125 14.457031 49.703125 13.207031 C 49.703125 11.753906 48.625 10.332031 46.1875 10.332031 C 45.34375 10.332031 45.046875 10.535156 45.046875 10.910156 L 45.046875 16.941406 C 45.046875 17.300781 45.234375 17.597656 45.65625 17.597656 C 46.0625 17.597656 46.25 17.300781 46.25 16.941406 L 46.25 15.472656 Z M 46.25 11.410156 C 47.609375 11.457031 48.4375 12.128906 48.4375 13.238281 C 48.4375 13.988281 47.84375 14.394531 46.859375 14.394531 L 46.25 14.394531 Z M 50.671875 14.816406 C 50.671875 15.207031 50.890625 15.503906 51.28125 15.503906 C 51.65625 15.503906 51.875 15.207031 51.875 14.816406 L 51.875 12.628906 C 51.875 11.707031 52.171875 11.472656 52.75 11.472656 C 53.1875 11.472656 53.4375 11.285156 53.4375 10.910156 C 53.4375 10.566406 53.265625 10.332031 52.828125 10.332031 C 52.265625 10.332031 51.890625 10.566406 51.796875 11.128906 L 51.78125 11.128906 L 51.765625 10.816406 C 51.71875 10.363281 51.4375 10.332031 51.21875 10.332031 C 50.875 10.332031 50.671875 10.535156 50.671875 10.941406 Z M 55.296875 10.988281 C 55.296875 10.628906 55.109375 10.332031 54.703125 10.332031 C 54.296875 10.332031 54.109375 10.628906 54.109375 10.988281 L 54.109375 14.847656 C 54.109375 15.207031 54.296875 15.503906 54.703125 15.503906 C 55.109375 15.503906 55.296875 15.207031 55.296875 14.847656 Z M 54.703125 8.332031 C 54.328125 8.332031 54.046875 8.597656 54.046875 9.066406 C 54.046875 9.550781 54.328125 9.816406 54.703125 9.816406 C 55.078125 9.816406 55.359375 9.550781 55.359375 9.066406 C 55.359375 8.597656 55.078125 8.332031 54.703125 8.332031 Z M 61.328125 12.925781 C 61.328125 11.472656 60.4375 10.332031 58.875 10.332031 C 57.3125 10.332031 56.40625 11.472656 56.40625 12.925781 C 56.40625 14.394531 57.3125 15.535156 58.875 15.535156 C 60.4375 15.535156 61.328125 14.394531 61.328125 12.925781 Z M 60.078125 12.925781 C 60.078125 13.738281 59.6875 14.457031 58.875 14.457031 C 58.046875 14.457031 57.671875 13.738281 57.671875 12.925781 C 57.671875 12.128906 58.046875 11.410156 58.875 11.410156 C 59.6875 11.410156 60.078125 12.128906 60.078125 12.925781 Z M 62.339844 14.816406 C 62.339844 15.207031 62.558594 15.503906 62.949219 15.503906 C 63.324219 15.503906 63.542969 15.207031 63.542969 14.816406 L 63.542969 12.628906 C 63.542969 11.707031 63.839844 11.472656 64.417969 11.472656 C 64.855469 11.472656 65.105469 11.285156 65.105469 10.910156 C 65.105469 10.566406 64.933594 10.332031 64.496094 10.332031 C 63.933594 10.332031 63.558594 10.566406 63.464844 11.128906 L 63.449219 11.128906 L 63.433594 10.816406 C 63.386719 10.363281 63.105469 10.332031 62.886719 10.332031 C 62.542969 10.332031 62.339844 10.535156 62.339844 10.941406 Z M 66.96875 10.988281 C 66.96875 10.628906 66.78125 10.332031 66.375 10.332031 C 65.96875 10.332031 65.78125 10.628906 65.78125 10.988281 L 65.78125 14.847656 C 65.78125 15.207031 65.96875 15.503906 66.375 15.503906 C 66.78125 15.503906 66.96875 15.207031 66.96875 14.847656 Z M 66.375 8.332031 C 66 8.332031 65.71875 8.597656 65.71875 9.066406 C 65.71875 9.550781 66 9.816406 66.375 9.816406 C 66.75 9.816406 67.03125 9.550781 67.03125 9.066406 C 67.03125 8.597656 66.75 8.332031 66.375 8.332031 Z M 70.839844 11.472656 C 71.167969 11.472656 71.417969 11.300781 71.417969 10.925781 C 71.417969 10.566406 71.167969 10.394531 70.839844 10.394531 L 69.964844 10.394531 L 69.964844 9.535156 C 69.964844 9.175781 69.777344 8.894531 69.355469 8.894531 C 68.949219 8.894531 68.761719 9.175781 68.761719 9.535156 L 68.761719 10.394531 L 68.417969 10.394531 C 68.089844 10.394531 67.824219 10.566406 67.824219 10.925781 C 67.824219 11.300781 68.089844 11.472656 68.417969 11.472656 L 68.761719 11.472656 L 68.761719 13.628906 C 68.761719 15.472656 69.464844 15.472656 70.980469 15.472656 C 71.527344 15.472656 71.792969 15.285156 71.792969 14.910156 C 71.792969 14.519531 71.527344 14.332031 71.183594 14.332031 L 70.542969 14.332031 C 70.074219 14.332031 69.964844 14.050781 69.964844 13.457031 L 69.964844 11.472656 Z M 76.355469 12.097656 C 76.355469 10.863281 75.730469 10.394531 74.667969 10.394531 L 72.917969 10.394531 C 72.589844 10.394531 72.339844 10.566406 72.339844 10.925781 C 72.339844 11.300781 72.589844 11.472656 72.917969 11.472656 L 74.746094 11.472656 C 75.027344 11.472656 75.152344 11.613281 75.152344 12.128906 L 74.730469 12.128906 C 73.558594 12.128906 71.949219 12.519531 71.949219 13.957031 C 71.949219 14.910156 72.699219 15.535156 73.699219 15.535156 C 74.386719 15.535156 74.933594 15.347656 75.246094 14.957031 C 75.277344 15.332031 75.433594 15.535156 75.761719 15.535156 C 76.199219 15.535156 76.355469 15.285156 76.355469 14.878906 Z M 75.214844 13.660156 C 75.214844 14.238281 74.636719 14.566406 74.074219 14.566406 C 73.464844 14.566406 73.152344 14.300781 73.152344 13.894531 C 73.152344 13.425781 73.824219 13.019531 75.214844 13.019531 Z M 79.199219 10.988281 C 79.199219 10.628906 79.011719 10.332031 78.605469 10.332031 C 78.199219 10.332031 78.011719 10.628906 78.011719 10.988281 L 78.011719 14.847656 C 78.011719 15.207031 78.199219 15.503906 78.605469 15.503906 C 79.011719 15.503906 79.199219 15.207031 79.199219 14.847656 Z M 78.605469 8.332031 C 78.230469 8.332031 77.949219 8.597656 77.949219 9.066406 C 77.949219 9.550781 78.230469 9.816406 78.605469 9.816406 C 78.980469 9.816406 79.261719 9.550781 79.261719 9.066406 C 79.261719 8.597656 78.980469 8.332031 78.605469 8.332031 Z M 80.679688 14.816406 C 80.679688 15.207031 80.898438 15.503906 81.289062 15.503906 C 81.664062 15.503906 81.882812 15.207031 81.882812 14.816406 L 81.882812 12.628906 C 81.882812 11.707031 82.179688 11.472656 82.757812 11.472656 C 83.195312 11.472656 83.445312 11.285156 83.445312 10.910156 C 83.445312 10.566406 83.273438 10.332031 82.835938 10.332031 C 82.273438 10.332031 81.898438 10.566406 81.804688 11.128906 L 81.789062 11.128906 L 81.773438 10.816406 C 81.726562 10.363281 81.445312 10.332031 81.226562 10.332031 C 80.882812 10.332031 80.679688 10.535156 80.679688 10.941406 Z M 87.902344 15.472656 C 88.230469 15.472656 88.480469 15.300781 88.480469 14.925781 C 88.480469 14.566406 88.230469 14.394531 87.902344 14.394531 L 86.621094 14.394531 C 85.777344 14.394531 85.058594 14.144531 84.980469 13.207031 L 88.042969 13.207031 C 88.464844 13.207031 88.527344 12.957031 88.527344 12.613281 C 88.527344 11.441406 87.839844 10.332031 86.167969 10.332031 C 84.636719 10.332031 83.667969 11.503906 83.667969 13.003906 C 83.667969 14.488281 84.667969 15.472656 86.449219 15.472656 Z M 85.058594 12.300781 C 85.199219 11.707031 85.699219 11.332031 86.167969 11.332031 C 86.636719 11.332031 87.136719 11.707031 87.277344 12.300781 Z M 88.882812 15.472656 "/>
<path style=" stroke:none;fill-rule:nonzero;fill:rgb(0%,0%,0%);fill-opacity:1;" d="M 13.855469 138.21875 C 13.042969 136.78125 12.636719 135.28125 12.480469 133.640625 C 12.417969 133.03125 12.371094 132.640625 11.746094 132.640625 C 11.402344 132.640625 11.121094 132.84375 11.121094 133.359375 C 11.121094 134.734375 11.933594 137.359375 12.652344 138.5625 C 12.996094 139.140625 13.230469 139.609375 13.855469 139.609375 C 14.496094 139.609375 14.730469 139.140625 15.074219 138.5625 C 15.777344 137.359375 16.605469 134.734375 16.605469 133.359375 C 16.605469 132.84375 16.324219 132.640625 15.964844 132.640625 C 15.339844 132.640625 15.292969 133.03125 15.246094 133.640625 C 15.074219 135.28125 14.683594 136.78125 13.855469 138.21875 Z M 21.496094 139.546875 C 21.824219 139.546875 22.074219 139.375 22.074219 139 C 22.074219 138.640625 21.824219 138.46875 21.496094 138.46875 L 20.214844 138.46875 C 19.371094 138.46875 18.652344 138.21875 18.574219 137.28125 L 21.636719 137.28125 C 22.058594 137.28125 22.121094 137.03125 22.121094 136.6875 C 22.121094 135.515625 21.433594 134.40625 19.761719 134.40625 C 18.230469 134.40625 17.261719 135.578125 17.261719 137.078125 C 17.261719 138.5625 18.261719 139.546875 20.042969 139.546875 Z M 18.652344 136.375 C 18.792969 135.78125 19.292969 135.40625 19.761719 135.40625 C 20.230469 135.40625 20.730469 135.78125 20.871094 136.375 Z M 18.652344 133.203125 C 18.496094 133.265625 18.402344 133.359375 18.402344 133.46875 C 18.402344 133.734375 18.527344 133.953125 18.761719 133.953125 C 18.933594 133.953125 19.292969 133.84375 19.636719 133.75 L 20.933594 133.453125 C 21.136719 133.40625 21.183594 133.3125 21.167969 133.109375 C 21.152344 132.859375 21.089844 132.5 20.792969 132.5 C 20.589844 132.5 20.371094 132.59375 20.121094 132.6875 Z M 23.089844 138.921875 C 23.089844 139.28125 23.277344 139.578125 23.683594 139.578125 C 24.105469 139.578125 24.292969 139.28125 24.292969 138.921875 L 24.292969 136.890625 C 24.292969 135.953125 24.730469 135.484375 25.417969 135.484375 C 25.949219 135.484375 26.214844 135.828125 26.214844 136.53125 L 26.214844 138.921875 C 26.214844 139.28125 26.417969 139.578125 26.824219 139.578125 C 27.230469 139.578125 27.417969 139.28125 27.417969 138.921875 L 27.417969 136.203125 C 27.417969 135.1875 26.714844 134.40625 25.636719 134.40625 C 25.089844 134.40625 24.683594 134.5625 24.292969 134.953125 L 24.292969 133.09375 C 24.292969 132.734375 24.105469 132.4375 23.683594 132.4375 C 23.277344 132.4375 23.089844 132.734375 23.089844 133.09375 Z M 30.023438 135.0625 C 30.023438 134.703125 29.835938 134.40625 29.429688 134.40625 C 29.023438 134.40625 28.835938 134.703125 28.835938 135.0625 L 28.835938 138.921875 C 28.835938 139.28125 29.023438 139.578125 29.429688 139.578125 C 29.835938 139.578125 30.023438 139.28125 30.023438 138.921875 Z M 29.429688 132.40625 C 29.054688 132.40625 28.773438 132.671875 28.773438 133.140625 C 28.773438 133.625 29.054688 133.890625 29.429688 133.890625 C 29.804688 133.890625 30.085938 133.625 30.085938 133.140625 C 30.085938 132.671875 29.804688 132.40625 29.429688 132.40625 Z M 33.304688 134.46875 C 31.976562 134.46875 31.132812 135.46875 31.132812 136.65625 C 31.132812 138 32.179688 139.546875 34.601562 139.546875 C 35.539062 139.546875 35.804688 139.375 35.804688 138.984375 C 35.804688 138.53125 35.601562 138.40625 34.773438 138.40625 C 33.429688 138.40625 32.460938 137.828125 32.460938 136.625 C 32.460938 136.109375 32.835938 135.609375 33.539062 135.609375 L 35.054688 135.609375 C 35.382812 135.609375 35.664062 135.421875 35.664062 135.03125 C 35.664062 134.640625 35.382812 134.46875 35.054688 134.46875 Z M 37.804688 133.09375 C 37.804688 132.734375 37.617188 132.4375 37.210938 132.4375 C 36.804688 132.4375 36.617188 132.734375 36.617188 133.09375 L 36.617188 138.921875 C 36.617188 139.28125 36.804688 139.578125 37.210938 139.578125 C 37.617188 139.578125 37.804688 139.28125 37.804688 138.921875 Z M 43.175781 139.546875 C 43.503906 139.546875 43.753906 139.375 43.753906 139 C 43.753906 138.640625 43.503906 138.46875 43.175781 138.46875 L 41.894531 138.46875 C 41.050781 138.46875 40.332031 138.21875 40.253906 137.28125 L 43.316406 137.28125 C 43.738281 137.28125 43.800781 137.03125 43.800781 136.6875 C 43.800781 135.515625 43.113281 134.40625 41.441406 134.40625 C 39.910156 134.40625 38.941406 135.578125 38.941406 137.078125 C 38.941406 138.5625 39.941406 139.546875 41.722656 139.546875 Z M 40.332031 136.375 C 40.472656 135.78125 40.972656 135.40625 41.441406 135.40625 C 41.910156 135.40625 42.410156 135.78125 42.550781 136.375 Z M 49.988281 139.546875 C 51.628906 139.546875 52.488281 138.53125 52.488281 137.28125 C 52.488281 135.828125 51.410156 134.40625 48.972656 134.40625 C 48.128906 134.40625 47.832031 134.609375 47.832031 134.984375 L 47.832031 141.015625 C 47.832031 141.375 48.019531 141.671875 48.441406 141.671875 C 48.847656 141.671875 49.035156 141.375 49.035156 141.015625 L 49.035156 139.546875 Z M 49.035156 135.484375 C 50.394531 135.53125 51.222656 136.203125 51.222656 137.3125 C 51.222656 138.0625 50.628906 138.46875 49.644531 138.46875 L 49.035156 138.46875 Z M 53.457031 138.890625 C 53.457031 139.28125 53.675781 139.578125 54.066406 139.578125 C 54.441406 139.578125 54.660156 139.28125 54.660156 138.890625 L 54.660156 136.703125 C 54.660156 135.78125 54.957031 135.546875 55.535156 135.546875 C 55.972656 135.546875 56.222656 135.359375 56.222656 134.984375 C 56.222656 134.640625 56.050781 134.40625 55.613281 134.40625 C 55.050781 134.40625 54.675781 134.640625 54.582031 135.203125 L 54.566406 135.203125 L 54.550781 134.890625 C 54.503906 134.4375 54.222656 134.40625 54.003906 134.40625 C 53.660156 134.40625 53.457031 134.609375 53.457031 135.015625 Z M 58.082031 135.0625 C 58.082031 134.703125 57.894531 134.40625 57.488281 134.40625 C 57.082031 134.40625 56.894531 134.703125 56.894531 135.0625 L 56.894531 138.921875 C 56.894531 139.28125 57.082031 139.578125 57.488281 139.578125 C 57.894531 139.578125 58.082031 139.28125 58.082031 138.921875 Z M 57.488281 132.40625 C 57.113281 132.40625 56.832031 132.671875 56.832031 133.140625 C 56.832031 133.625 57.113281 133.890625 57.488281 133.890625 C 57.863281 133.890625 58.144531 133.625 58.144531 133.140625 C 58.144531 132.671875 57.863281 132.40625 57.488281 132.40625 Z M 64.113281 137 C 64.113281 135.546875 63.222656 134.40625 61.660156 134.40625 C 60.097656 134.40625 59.191406 135.546875 59.191406 137 C 59.191406 138.46875 60.097656 139.609375 61.660156 139.609375 C 63.222656 139.609375 64.113281 138.46875 64.113281 137 Z M 62.863281 137 C 62.863281 137.8125 62.472656 138.53125 61.660156 138.53125 C 60.832031 138.53125 60.457031 137.8125 60.457031 137 C 60.457031 136.203125 60.832031 135.484375 61.660156 135.484375 C 62.472656 135.484375 62.863281 136.203125 62.863281 137 Z M 65.125 138.890625 C 65.125 139.28125 65.34375 139.578125 65.734375 139.578125 C 66.109375 139.578125 66.328125 139.28125 66.328125 138.890625 L 66.328125 136.703125 C 66.328125 135.78125 66.625 135.546875 67.203125 135.546875 C 67.640625 135.546875 67.890625 135.359375 67.890625 134.984375 C 67.890625 134.640625 67.71875 134.40625 67.28125 134.40625 C 66.71875 134.40625 66.34375 134.640625 66.25 135.203125 L 66.234375 135.203125 L 66.21875 134.890625 C 66.171875 134.4375 65.890625 134.40625 65.671875 134.40625 C 65.328125 134.40625 65.125 134.609375 65.125 135.015625 Z M 69.753906 135.0625 C 69.753906 134.703125 69.566406 134.40625 69.160156 134.40625 C 68.753906 134.40625 68.566406 134.703125 68.566406 135.0625 L 68.566406 138.921875 C 68.566406 139.28125 68.753906 139.578125 69.160156 139.578125 C 69.566406 139.578125 69.753906 139.28125 69.753906 138.921875 Z M 69.160156 132.40625 C 68.785156 132.40625 68.503906 132.671875 68.503906 133.140625 C 68.503906 133.625 68.785156 133.890625 69.160156 133.890625 C 69.535156 133.890625 69.816406 133.625 69.816406 133.140625 C 69.816406 132.671875 69.535156 132.40625 69.160156 132.40625 Z M 73.625 135.546875 C 73.953125 135.546875 74.203125 135.375 74.203125 135 C 74.203125 134.640625 73.953125 134.46875 73.625 134.46875 L 72.75 134.46875 L 72.75 133.609375 C 72.75 133.25 72.5625 132.96875 72.140625 132.96875 C 71.734375 132.96875 71.546875 133.25 71.546875 133.609375 L 71.546875 134.46875 L 71.203125 134.46875 C 70.875 134.46875 70.609375 134.640625 70.609375 135 C 70.609375 135.375 70.875 135.546875 71.203125 135.546875 L 71.546875 135.546875 L 71.546875 137.703125 C 71.546875 139.546875 72.25 139.546875 73.765625 139.546875 C 74.3125 139.546875 74.578125 139.359375 74.578125 138.984375 C 74.578125 138.59375 74.3125 138.40625 73.96875 138.40625 L 73.328125 138.40625 C 72.859375 138.40625 72.75 138.125 72.75 137.53125 L 72.75 135.546875 Z M 79.140625 136.171875 C 79.140625 134.9375 78.515625 134.46875 77.453125 134.46875 L 75.703125 134.46875 C 75.375 134.46875 75.125 134.640625 75.125 135 C 75.125 135.375 75.375 135.546875 75.703125 135.546875 L 77.53125 135.546875 C 77.8125 135.546875 77.9375 135.6875 77.9375 136.203125 L 77.515625 136.203125 C 76.34375 136.203125 74.734375 136.59375 74.734375 138.03125 C 74.734375 138.984375 75.484375 139.609375 76.484375 139.609375 C 77.171875 139.609375 77.71875 139.421875 78.03125 139.03125 C 78.0625 139.40625 78.21875 139.609375 78.546875 139.609375 C 78.984375 139.609375 79.140625 139.359375 79.140625 138.953125 Z M 78 137.734375 C 78 138.3125 77.421875 138.640625 76.859375 138.640625 C 76.25 138.640625 75.9375 138.375 75.9375 137.96875 C 75.9375 137.5 76.609375 137.09375 78 137.09375 Z M 81.984375 135.0625 C 81.984375 134.703125 81.796875 134.40625 81.390625 134.40625 C 80.984375 134.40625 80.796875 134.703125 80.796875 135.0625 L 80.796875 138.921875 C 80.796875 139.28125 80.984375 139.578125 81.390625 139.578125 C 81.796875 139.578125 81.984375 139.28125 81.984375 138.921875 Z M 81.390625 132.40625 C 81.015625 132.40625 80.734375 132.671875 80.734375 133.140625 C 80.734375 133.625 81.015625 133.890625 81.390625 133.890625 C 81.765625 133.890625 82.046875 133.625 82.046875 133.140625 C 82.046875 132.671875 81.765625 132.40625 81.390625 132.40625 Z M 83.464844 138.890625 C 83.464844 139.28125 83.683594 139.578125 84.074219 139.578125 C 84.449219 139.578125 84.667969 139.28125 84.667969 138.890625 L 84.667969 136.703125 C 84.667969 135.78125 84.964844 135.546875 85.542969 135.546875 C 85.980469 135.546875 86.230469 135.359375 86.230469 134.984375 C 86.230469 134.640625 86.058594 134.40625 85.621094 134.40625 C 85.058594 134.40625 84.683594 134.640625 84.589844 135.203125 L 84.574219 135.203125 L 84.558594 134.890625 C 84.511719 134.4375 84.230469 134.40625 84.011719 134.40625 C 83.667969 134.40625 83.464844 134.609375 83.464844 135.015625 Z M 90.6875 139.546875 C 91.015625 139.546875 91.265625 139.375 91.265625 139 C 91.265625 138.640625 91.015625 138.46875 90.6875 138.46875 L 89.40625 138.46875 C 88.5625 138.46875 87.84375 138.21875 87.765625 137.28125 L 90.828125 137.28125 C 91.25 137.28125 91.3125 137.03125 91.3125 136.6875 C 91.3125 135.515625 90.625 134.40625 88.953125 134.40625 C 87.421875 134.40625 86.453125 135.578125 86.453125 137.078125 C 86.453125 138.5625 87.453125 139.546875 89.234375 139.546875 Z M 87.84375 136.375 C 87.984375 135.78125 88.484375 135.40625 88.953125 135.40625 C 89.421875 135.40625 89.921875 135.78125 90.0625 136.375 Z M 91.667969 139.546875 "/>
</g>
</svg>
