<?xml version="1.0" encoding="UTF-8" standalone="no"?>
<svg
   xmlns:dc="http://purl.org/dc/elements/1.1/"
   xmlns:cc="http://creativecommons.org/ns#"
   xmlns:rdf="http://www.w3.org/1999/02/22-rdf-syntax-ns#"
   xmlns:svg="http://www.w3.org/2000/svg"
   xmlns="http://www.w3.org/2000/svg"
   xmlns:sodipodi="http://sodipodi.sourceforge.net/DTD/sodipodi-0.dtd"
   xmlns:inkscape="http://www.inkscape.org/namespaces/inkscape"
   version="1.1"
   id="svg26"
   width="90"
   height="110"
   viewBox="0 0 90 110"
   sodipodi:docname="100.svg"
   inkscape:version="1.0.1 (3bc2e813f5, 2020-09-07)">
  <metadata
     id="metadata12">
    <rdf:RDF>
      <cc:Work
         rdf:about="">
        <dc:format>image/svg+xml</dc:format>
        <dc:type
           rdf:resource="http://purl.org/dc/dcmitype/StillImage" />
        <dc:title />
      </cc:Work>
    </rdf:RDF>
  </metadata>
  <defs
     id="defs10" />
  <sodipodi:namedview
     pagecolor="#ffffff"
     bordercolor="#666666"
     borderopacity="1"
     objecttolerance="10"
     gridtolerance="10"
     guidetolerance="10"
     inkscape:pageopacity="0"
     inkscape:pageshadow="2"
     inkscape:window-width="2075"
     inkscape:window-height="1317"
     id="namedview8"
     showgrid="false"
     inkscape:zoom="10.836125"
     inkscape:cx="45"
     inkscape:cy="55"
     inkscape:window-x="0"
     inkscape:window-y="0"
     inkscape:window-maximized="0"
     inkscape:current-layer="svg26"
     inkscape:document-rotation="0" />
  <g
     id="g34">
    <g
       id="g11169">
      <path
         style="fill:#fefefe"
         d="M 0,55 V 0 h 45 45 v 55 55 H 45 0 Z"
         id="path11175" />
      <path
         style="fill:#000000"
         d="m 21,62.467881 c 0,-29.058786 0.463688,-31.510196 6.431892,-34.00387 4.914496,-2.053408 30.22172,-2.053408 35.136216,0 C 68.536312,30.957685 69,33.409095 69,62.467881 V 88 H 45 21 Z M 68,64.5 V 42 H 45 22 V 64.5 87 h 23 23 z"
         id="path11171" />
    </g>
  </g>
  <g
     aria-label="100"
     id="text16"
     style="font-style:normal;font-variant:normal;font-weight:bold;font-stretch:normal;font-size:18.6667px;line-height:25px;font-family:'ITC Benguiat Gothic Std';-inkscape-font-specification:'ITC Benguiat Gothic Std, Bold';font-variant-ligatures:normal;font-variant-caps:normal;font-variant-numeric:normal;font-variant-east-asian:normal;writing-mode:lr-tb;fill:#0000ff;stroke-width:3.48;stroke-linecap:round;stroke-linejoin:round">
    <path
       d="m 34.757353,57.655227 c 0,-0.821335 -0.410667,-1.344002 -1.194668,-1.344002 -1.045336,0 -1.138669,0.653334 -3.266673,0.858668 -0.802668,0.07467 -1.288002,0.373334 -1.288002,1.026669 0,0.578667 0.485334,0.989335 1.325336,0.989335 0.690667,0 1.288002,-0.224001 1.885336,-0.317334 v 8.269348 h -1.97867 c -0.634668,0 -1.157335,0.336001 -1.157335,1.064002 0,0.728001 0.522667,1.064002 1.157335,1.064002 h 6.552012 c 0.634668,0 1.138669,-0.336001 1.138669,-1.064002 0,-0.728001 -0.504001,-1.064002 -1.138669,-1.064002 h -2.034671 z"
       id="path226" />
    <path
       d="m 39.311994,62.84457 c 0,3.416006 1.642669,6.533345 5.114676,6.533345 3.472006,0 5.114675,-3.117339 5.114675,-6.533345 0,-3.416006 -1.642669,-6.533345 -5.114675,-6.533345 -3.472007,0 -5.114676,3.117339 -5.114676,6.533345 z m 2.464004,0 c 0,-2.389338 0.933335,-4.293341 2.650672,-4.293341 1.736003,0 2.650671,1.904003 2.650671,4.293341 0,2.389338 -0.914668,4.293341 -2.650671,4.293341 -1.717337,0 -2.650672,-1.904003 -2.650672,-4.293341 z"
       id="path228" />
    <path
       d="m 50.717313,62.84457 c 0,3.416006 1.64267,6.533345 5.114676,6.533345 3.472006,0 5.114676,-3.117339 5.114676,-6.533345 0,-3.416006 -1.64267,-6.533345 -5.114676,-6.533345 -3.472006,0 -5.114676,3.117339 -5.114676,6.533345 z m 2.464004,0 c 0,-2.389338 0.933335,-4.293341 2.650672,-4.293341 1.736003,0 2.650671,1.904003 2.650671,4.293341 0,2.389338 -0.914668,4.293341 -2.650671,4.293341 -1.717337,0 -2.650672,-1.904003 -2.650672,-4.293341 z"
       id="path230" />
  </g>
</svg>
