<?xml version="1.0" encoding="UTF-8" standalone="no"?>
<svg
   xmlns:dc="http://purl.org/dc/elements/1.1/"
   xmlns:cc="http://creativecommons.org/ns#"
   xmlns:rdf="http://www.w3.org/1999/02/22-rdf-syntax-ns#"
   xmlns:svg="http://www.w3.org/2000/svg"
   xmlns="http://www.w3.org/2000/svg"
   xmlns:sodipodi="http://sodipodi.sourceforge.net/DTD/sodipodi-0.dtd"
   xmlns:inkscape="http://www.inkscape.org/namespaces/inkscape"
   version="1.1"
   id="svg26"
   width="90"
   height="110"
   viewBox="0 0 90 110"
   sodipodi:docname="25.svg"
   inkscape:version="1.0.1 (3bc2e813f5, 2020-09-07)">
  <metadata
     id="metadata12">
    <rdf:RDF>
      <cc:Work
         rdf:about="">
        <dc:format>image/svg+xml</dc:format>
        <dc:type
           rdf:resource="http://purl.org/dc/dcmitype/StillImage" />
      </cc:Work>
    </rdf:RDF>
  </metadata>
  <defs
     id="defs10" />
  <sodipodi:namedview
     pagecolor="#ffffff"
     bordercolor="#666666"
     borderopacity="1"
     objecttolerance="10"
     gridtolerance="10"
     guidetolerance="10"
     inkscape:pageopacity="0"
     inkscape:pageshadow="2"
     inkscape:window-width="2075"
     inkscape:window-height="1317"
     id="namedview8"
     showgrid="false"
     inkscape:zoom="9.9727273"
     inkscape:cx="45"
     inkscape:cy="55"
     inkscape:window-x="0"
     inkscape:window-y="0"
     inkscape:window-maximized="0"
     inkscape:current-layer="svg26"
     inkscape:document-rotation="0" />
  <g
     id="g34">
    <g
       id="g11169">
      <path
         style="fill:#fefefe"
         d="M 0,55 V 0 h 45 45 v 55 55 H 45 0 Z"
         id="path11175" />
      <path
         style="fill:#000000"
         d="m 21,62.467881 c 0,-29.058786 0.463688,-31.510196 6.431892,-34.00387 4.914496,-2.053408 30.22172,-2.053408 35.136216,0 C 68.536312,30.957685 69,33.409095 69,62.467881 V 88 H 45 21 Z M 68,64.5 V 42 H 45 22 V 64.5 87 h 23 23 z"
         id="path11171" />
    </g>
  </g>
  <g
     aria-label="25"
     id="text16"
     style="font-style:normal;font-variant:normal;font-weight:bold;font-stretch:normal;font-size:18.6667px;line-height:25px;font-family:'ITC Benguiat Gothic Std';-inkscape-font-specification:'ITC Benguiat Gothic Std, Bold';font-variant-ligatures:normal;font-variant-caps:normal;font-variant-numeric:normal;font-variant-east-asian:normal;writing-mode:lr-tb;fill:#0000ff;stroke-width:3.48;stroke-linecap:round;stroke-linejoin:round">
    <path
       d="m 37.174687,56.653679 c -0.672001,0 -1.213335,0.354667 -1.213335,1.101335 0,0.765335 0.541334,1.138669 1.213335,1.138669 h 3.434673 c 1.045335,0 1.568003,0.261333 1.568003,1.120002 0,1.176002 -1.232002,1.81067 -2.408004,2.482671 -2.464005,1.456002 -4.293341,2.240004 -4.293341,5.002675 0,1.680004 0.504001,1.997337 1.86667,1.997337 H 44.2867 c 0.634668,0 1.138669,-0.336 1.138669,-1.064002 0,-0.709334 -0.504001,-1.064001 -1.138669,-1.064001 h -6.160011 v -0.466668 c 0,-2.333337 6.850679,-2.632005 6.850679,-6.888012 -0.01867,-2.034671 -1.568003,-3.360006 -3.994674,-3.360006 z"
       id="path28" />
    <path
       d="m 50.092009,58.781682 h 4.554675 c 0.634668,0 1.138669,-0.336 1.138669,-1.064002 0,-0.728001 -0.504001,-1.064001 -1.138669,-1.064001 h -5.618677 c -0.746668,0 -1.213335,0.336 -1.269335,0.858668 l -0.280001,2.650671 c -0.056,0.504001 -0.112,0.896002 -0.112,1.288003 0,0.690667 0.429334,1.138668 1.213336,1.138668 0.410667,0 0.784001,-0.07467 1.381335,-0.07467 2.762672,0 4.666676,0.634668 4.666676,2.874672 0,1.045336 -0.821335,1.978671 -2.949339,1.978671 h -3.658673 c -0.634668,0 -1.157336,0.336 -1.157336,1.064001 0,0.728002 0.522668,1.064002 1.157336,1.064002 h 3.509339 c 3.920007,0 5.637344,-1.941336 5.637344,-4.312007 0,-2.856006 -2.538671,-4.797342 -6.533345,-4.797342 h -0.728002 z"
       id="path30" />
  </g>
</svg>
