<?xml version="1.0" encoding="UTF-8" standalone="no"?>
<svg
   xmlns:dc="http://purl.org/dc/elements/1.1/"
   xmlns:cc="http://creativecommons.org/ns#"
   xmlns:rdf="http://www.w3.org/1999/02/22-rdf-syntax-ns#"
   xmlns:svg="http://www.w3.org/2000/svg"
   xmlns="http://www.w3.org/2000/svg"
   xmlns:sodipodi="http://sodipodi.sourceforge.net/DTD/sodipodi-0.dtd"
   xmlns:inkscape="http://www.inkscape.org/namespaces/inkscape"
   version="1.1"
   id="svg851"
   width="70"
   height="50"
   viewBox="0 0 70 50"
   sodipodi:docname="Accident.svg"
   inkscape:version="1.0.1 (3bc2e813f5, 2020-09-07)">
    <g
	id="g863">
	<path
            style="fill:#fefefe"
            d="M 0,25 V 0 H 35 70 V 25 50 H 35 0 Z"
            id="path869" />
	<path
            style="fill:#fe0000"
            d="m 62.208173,45.363256 c 0.924296,-0.924297 2.351011,-1.362655 3.277668,-1.007063 C 67.841676,45.260212 66.35502,47 63.226697,47 60.767864,47 60.692514,46.878915 62.208173,45.363256 Z m -48.495597,0.01599 C 13.320659,44.987326 13,43.841667 13,42.833333 13,41.666667 12.272727,41 11,41 9.6922728,41 9,40.333333 9,39.073977 c 0,-1.776042 0.7355773,-1.914318 9.446109,-1.775711 5.19536,0.08267 9.014703,0.416936 8.487429,0.74281 -0.527274,0.325873 -4.553023,0.464255 -8.946109,0.307516 C 13.594343,38.191853 10,38.448518 10,38.918959 c 0,1.243061 14.156006,1.939781 16.401797,0.807252 1.137475,-0.573617 7.668258,-0.69525 16.25,-0.302649 C 53.299733,39.910689 57,39.778807 57,38.912177 c 0,-0.799381 -1.242867,-0.969051 -3.939644,-0.537819 -2.166804,0.346486 -4.173041,0.252331 -4.458303,-0.209233 -0.285262,-0.461564 -4.249923,-0.723388 -8.810356,-0.58183 L 31.5,37.840671 l 8,-0.780981 c 4.4,-0.42954 8.40908,-0.41211 8.909067,0.03873 0.499987,0.450841 2.862487,0.551966 5.25,0.224721 C 57.611124,36.781453 58,36.919496 58,38.864076 58,40.049852 57.363677,41 56.569551,41 c -0.786747,0 -1.574247,1.0125 -1.75,2.25 -0.436866,3.076029 -6.104744,3.289014 -6.652921,0.25 -0.198417,-1.1 -0.721782,-2.382202 -1.163032,-2.849337 -1.394876,-1.476705 -4.974157,0.383852 -5.609682,2.915987 C 40.820837,45.849977 40.358297,46 33.891592,46 27.367032,46 27,45.877507 27,43.7 c 0,-1.956412 -0.516377,-2.3 -3.456658,-2.3 -2.722698,0 -3.518944,0.435281 -3.75,2.05 -0.295622,2.065936 -4.583621,3.426388 -6.080766,1.929243 z M 15.662281,41.75 c -0.277413,-0.6875 -0.504386,-0.125 -0.504386,1.25 0,1.375 0.226973,1.9375 0.504386,1.25 0.277412,-0.6875 0.277412,-1.8125 0,-2.5 z m 2,0 c -0.277413,-0.6875 -0.504386,-0.125 -0.504386,1.25 0,1.375 0.226973,1.9375 0.504386,1.25 0.277412,-0.6875 0.277412,-1.8125 0,-2.5 z m 33,0 c -0.277413,-0.6875 -0.504386,-0.125 -0.504386,1.25 0,1.375 0.226973,1.9375 0.504386,1.25 0.277412,-0.6875 0.277412,-1.8125 0,-2.5 z m 2,0 c -0.277413,-0.6875 -0.504386,-0.125 -0.504386,1.25 0,1.375 0.226973,1.9375 0.504386,1.25 0.277412,-0.6875 0.277412,-1.8125 0,-2.5 z M 10.499523,34.652308 C 8.5373896,28.419101 9.876077,20.371575 14.561887,10.231385 l 2.434641,-5.2686142 5.251736,0.075374 C 25.136719,5.0796013 32.675,5.0954542 39,5.073374 50.709047,5.032498 51.959544,5.4100994 53.301315,9.3918102 c 0.257422,0.7638988 0.872882,0.6959928 1.981022,-0.2185741 0.884168,-0.7297201 2.644848,-1.1797201 3.912621,-1 C 63.575996,8.7942942 62.34559,16 57.858503,16 c -1.951637,0 -1.899385,1.872 0.212607,7.617005 0.428043,1.164352 0.390416,3.836648 -0.08361,5.938435 -0.47403,2.101787 -0.777638,4.299135 -0.674684,4.882995 0.275552,1.562689 -46.321685,1.775575 -46.813289,0.213873 z m 9.929048,-3.223737 C 21.292857,30.564286 22,29.246429 22,28.5 22,26.749099 19.250901,24 17.5,24 15.749099,24 13,26.749099 13,28.5 c 0,1.750901 2.749099,4.5 4.5,4.5 0.746429,0 2.064286,-0.707143 2.928571,-1.571429 z m -4.452365,-1.604777 c 0.646133,-0.778509 0.561603,-1.708336 -0.25,-2.75 -1.051034,-1.348966 -1.001378,-1.398622 0.347588,-0.347588 1.041664,0.811603 1.971491,0.896133 2.75,0.25 0.839662,-0.696887 0.896887,-0.639662 0.2,0.2 -0.646133,0.778509 -0.561603,1.708336 0.25,2.75 1.051034,1.348966 1.001378,1.398622 -0.347588,0.347588 -1.041664,-0.811603 -1.971491,-0.896133 -2.75,-0.25 -0.839662,0.696887 -0.896887,0.639662 -0.2,-0.2 z m 37.452365,1.604777 C 54.292857,30.564286 55,29.246429 55,28.5 c 0,-0.746429 -0.707143,-2.064286 -1.571429,-2.928571 -1.994594,-1.994595 -3.862548,-1.994595 -5.857142,0 C 46.707143,26.435714 46,27.753571 46,28.5 c 0,1.750901 2.749099,4.5 4.5,4.5 0.746429,0 2.064286,-0.707143 2.928571,-1.571429 z m -4.452365,-1.604777 c 0.646133,-0.778509 0.561603,-1.708336 -0.25,-2.75 -1.051034,-1.348966 -1.001378,-1.398622 0.347588,-0.347588 1.041664,0.811603 1.971491,0.896133 2.75,0.25 0.839662,-0.696887 0.896887,-0.639662 0.2,0.2 -0.646133,0.778509 -0.561603,1.708336 0.25,2.75 1.051034,1.348966 1.001378,1.398622 -0.347588,0.347588 -1.041664,-0.811603 -1.971491,-0.896133 -2.75,-0.25 -0.839662,0.696887 -0.896887,0.639662 -0.2,-0.2 z M 39.971989,14.01429 c 5.293059,-2.700317 5.503496,-3.440575 1.399904,-4.9244537 -1.936894,-0.70039 -3.332029,-1.4630334 -3.1003,-1.6947629 0.23173,-0.2317295 2.010846,0.2428171 3.953592,1.0545482 C 45.50651,9.8206468 45.88364,9.7860582 47.533713,7.9627481 49.281288,6.0316988 49.198458,5.996898 42.404988,5.8079288 38.607244,5.7022897 34.375,5.7036815 33,5.8110217 31.625,5.9183619 27.531491,6.0473558 23.903314,6.0976748 l -6.596686,0.091489 -2.153314,4.4321692 C 13.968991,13.059027 13,15.266465 13,15.526751 13,15.787038 18.192927,16 24.539838,16 34.078553,16 36.754642,15.655658 39.971989,14.01429 Z M 28,13.357193 c 2.475,-0.794788 6.75,-1.635119 9.5,-1.867402 l 5,-0.422332 -4.5,0.84889 c -2.475,0.466889 -6.3,1.349202 -8.5,1.960694 C 23.779719,15.467 22.649615,15.075344 28,13.357193 Z M 25.575145,9.4213494 C 21.193084,7.8161424 19.09317,6.2972932 23,7.5587701 c 1.375,0.4439739 4.525,1.3695043 7,2.0567341 2.868706,0.7965498 3.593726,1.2484328 2,1.2465398 -1.375,-0.0016 -4.266185,-0.649945 -6.424855,-1.4406946 z M 43.333333,7.3333333 C 43.7,6.9666667 44.3,6.9666667 44.666667,7.3333333 45.033333,7.7 44.733333,8 44,8 43.266667,8 42.966667,7.7 43.333333,7.3333333 Z M 45.5,14.935815 c -1.620727,-0.644437 -1.37249,-0.808573 1.309017,-0.86553 2.234597,-0.04746 3.077339,-0.445148 2.595491,-1.224793 -0.392439,-0.63498 -0.306496,-0.907212 0.190984,-0.604961 1.864847,1.133017 3.225625,-1.772001 1.948159,-4.1589688 L 50.331724,5.8170565 47.54553,9.1585282 C 46.013123,10.996338 43.350985,13.253739 41.629668,14.174975 L 38.5,15.849951 43,15.790506 c 3.278136,-0.04331 3.95695,-0.275375 2.5,-0.854691 z M 47,12 c 0,-0.733333 0.3,-1.033333 0.666667,-0.666667 0.366666,0.366667 0.366666,0.966667 0,1.333334 C 47.3,13.033333 47,12.733333 47,12 Z m 7.984687,3.25 c -0.03478,-1.703556 -1.839232,-3.45793 -2.889195,-2.809017 -0.620464,0.383467 -0.826247,1.185648 -0.457295,1.782624 0.385139,0.623168 0.208578,0.799729 -0.41459,0.41459 -0.596976,-0.368952 -1.368062,-0.21348 -1.713526,0.345491 C 49.136904,15.587502 50.123551,16 51.940983,16 c 1.682459,0 3.052126,-0.3375 3.043704,-0.75 z M 61,14.058997 C 61.275,14.009705 60.825,13.492006 60,12.908556 58.865167,12.105989 58.805823,11.723757 59.756231,11.338459 61.450895,10.651438 60.310194,9 58.140983,9 c -2.728785,0 -4.210143,2.002256 -3.064756,4.142431 0.634698,1.185945 1.768868,1.689125 3.203196,1.421114 C 59.50074,14.335337 60.725,14.10829 61,14.058997 Z M 56.428571,12 c 0,-1.295238 0.338096,-1.633333 0.985715,-0.985714 0.647619,0.647619 0.647619,1.323809 0,1.971428 C 56.766667,13.633333 56.428571,13.295238 56.428571,12 Z"
            id="path867" />
	<path
            style="fill:#000000"
            d="M 13.712576,45.379243 C 13.320659,44.987326 13,43.841667 13,42.833333 13,41.666667 12.272727,41 11,41 9.6922728,41 9,40.333333 9,39.073977 c 0,-1.776042 0.7355773,-1.914318 9.446109,-1.775711 5.19536,0.08267 9.014703,0.416936 8.487429,0.74281 -0.527274,0.325873 -4.553023,0.464255 -8.946109,0.307516 C 13.594343,38.191853 10,38.448518 10,38.918959 c 0,1.243061 14.156006,1.939781 16.401797,0.807252 1.137475,-0.573617 7.668258,-0.69525 16.25,-0.302649 C 53.299733,39.910689 57,39.778807 57,38.912177 c 0,-0.799381 -1.242867,-0.969051 -3.939644,-0.537819 -2.166804,0.346486 -4.173041,0.252331 -4.458303,-0.209233 -0.285262,-0.461564 -4.249923,-0.723388 -8.810356,-0.58183 L 31.5,37.840671 39.214106,37.122896 c 4.242759,-0.394777 7.933715,-0.937384 8.202126,-1.205794 0.26841,-0.268411 -7.927938,-0.472063 -18.214107,-0.452561 L 10.5,35.5 9.8714391,30.5 C 9.1765547,24.972419 10.607584,18.788579 14.561887,10.231385 l 2.434641,-5.2686142 5.251736,0.075374 C 25.136719,5.0796013 32.675,5.0954542 39,5.073374 50.709047,5.032498 51.959544,5.4100994 53.301315,9.3918102 c 0.257422,0.7638988 0.872882,0.6959928 1.981022,-0.2185741 0.884168,-0.7297201 2.644848,-1.1797201 3.912621,-1 C 63.575996,8.7942942 62.34559,16 57.858503,16 c -1.951637,0 -1.899385,1.872 0.212607,7.617005 0.428043,1.164352 0.390416,3.836648 -0.08361,5.938435 -0.47403,2.101787 -0.777638,4.299135 -0.674684,4.882995 0.104609,0.593252 -1.919117,1.196467 -4.587347,1.367358 -2.625994,0.168186 -4.518915,0.719394 -4.206492,1.224906 0.312424,0.505513 2.573465,0.64424 5.024535,0.308283 C 57.618519,36.78044 58,36.91099 58,38.864076 58,40.049852 57.363677,41 56.569551,41 c -0.786747,0 -1.574247,1.0125 -1.75,2.25 -0.436866,3.076029 -6.104744,3.289014 -6.652921,0.25 -0.198417,-1.1 -0.721782,-2.382202 -1.163032,-2.849337 -1.394876,-1.476705 -4.974157,0.383852 -5.609682,2.915987 C 40.820837,45.849977 40.358297,46 33.891592,46 27.367032,46 27,45.877507 27,43.7 c 0,-1.956412 -0.516377,-2.3 -3.456658,-2.3 -2.722698,0 -3.518944,0.435281 -3.75,2.05 -0.295622,2.065936 -4.583621,3.426388 -6.080766,1.929243 z M 15.662281,41.75 c -0.277413,-0.6875 -0.504386,-0.125 -0.504386,1.25 0,1.375 0.226973,1.9375 0.504386,1.25 0.277412,-0.6875 0.277412,-1.8125 0,-2.5 z m 2,0 c -0.277413,-0.6875 -0.504386,-0.125 -0.504386,1.25 0,1.375 0.226973,1.9375 0.504386,1.25 0.277412,-0.6875 0.277412,-1.8125 0,-2.5 z m 21.827638,2.233688 c -0.345464,-0.558971 -0.972021,-0.803766 -1.392351,-0.543989 -0.420329,0.259778 -0.764235,-0.107881 -0.764235,-0.817021 0,-0.70914 0.580205,-1.289345 1.289345,-1.289345 0.70914,0 1.057582,0.375 0.774316,0.833334 C 39.113729,42.625 39.358524,43 39.940983,43 40.523442,43 41,42.325 41,41.5 41,40.320513 39.611111,40 34.5,40 28.233333,40 28,40.08974 28,42.5 c 0,2.391595 0.262732,2.5 6.059017,2.5 3.849532,0 5.829968,-0.370609 5.430902,-1.016312 z M 29.333333,42.5 c 0,-0.641667 0.525,-1.166667 1.166667,-1.166667 0.641667,0 1.166667,0.525 1.166667,1.166667 0,0.641667 -0.525,1.166667 -1.166667,1.166667 -0.641667,0 -1.166667,-0.525 -1.166667,-1.166667 z m 4,0 c 0,-0.641667 0.525,-1.166667 1.166667,-1.166667 0.641667,0 1.166667,0.525 1.166667,1.166667 0,0.641667 -0.525,1.166667 -1.166667,1.166667 -0.641667,0 -1.166667,-0.525 -1.166667,-1.166667 z m 17.328948,-0.75 c -0.277413,-0.6875 -0.504386,-0.125 -0.504386,1.25 0,1.375 0.226973,1.9375 0.504386,1.25 0.277412,-0.6875 0.277412,-1.8125 0,-2.5 z m 2,0 c -0.277413,-0.6875 -0.504386,-0.125 -0.504386,1.25 0,1.375 0.226973,1.9375 0.504386,1.25 0.277412,-0.6875 0.277412,-1.8125 0,-2.5 z m 3.863218,-7.708742 C 56.303988,33.682846 56.50018,31.716139 56.961479,29.670796 58.346441,23.530054 57.442655,22 52.430422,22 c -2.384974,0 -5.490046,0.525675 -6.900161,1.168166 -2.156108,0.982389 -2.768468,0.888326 -3.850518,-0.591466 -1.115268,-1.52522 -1.832736,-1.612592 -5.385752,-0.655863 -2.744731,0.739079 -4.94559,0.781924 -6.661133,0.129675 -1.687516,-0.641592 -2.773537,-0.631906 -3.181613,0.02838 -0.340758,0.551357 -1.375165,0.762646 -2.298684,0.469533 -0.92352,-0.293114 -3.807479,-0.732446 -6.408799,-0.976293 -5.448809,-0.510771 -8.2696505,1.345526 -7.335064,4.826948 0.310196,1.155508 0.570137,3.513729 0.577647,5.24049 L 11,34.779131 33.964122,34.736023 C 46.59439,34.712313 56.747009,34.399669 56.525499,34.041258 Z M 14,32 c -1.1,-1.1 -2,-2.675 -2,-3.5 0,-1.938267 3.561733,-5.5 5.5,-5.5 1.938267,0 5.5,3.561733 5.5,5.5 0,0.825 -0.9,2.4 -2,3.5 -1.1,1.1 -2.675,2 -3.5,2 -0.825,0 -2.4,-0.9 -3.5,-2 z m 6.428571,-0.571429 C 21.292857,30.564286 22,29.246429 22,28.5 22,26.749099 19.250901,24 17.5,24 15.749099,24 13,26.749099 13,28.5 c 0,1.750901 2.749099,4.5 4.5,4.5 0.746429,0 2.064286,-0.707143 2.928571,-1.571429 z m -4.452365,-1.604777 c 0.646133,-0.778509 0.561603,-1.708336 -0.25,-2.75 -1.051034,-1.348966 -1.001378,-1.398622 0.347588,-0.347588 1.041664,0.811603 1.971491,0.896133 2.75,0.25 0.839662,-0.696887 0.896887,-0.639662 0.2,0.2 -0.646133,0.778509 -0.561603,1.708336 0.25,2.75 1.051034,1.348966 1.001378,1.398622 -0.347588,0.347588 -1.041664,-0.811603 -1.971491,-0.896133 -2.75,-0.25 -0.839662,0.696887 -0.896887,0.639662 -0.2,-0.2 z M 47,32 c -1.1,-1.1 -2,-2.675 -2,-3.5 0,-1.938267 3.561733,-5.5 5.5,-5.5 1.938267,0 5.5,3.561733 5.5,5.5 0,1.938267 -3.561733,5.5 -5.5,5.5 -0.825,0 -2.4,-0.9 -3.5,-2 z m 6.428571,-0.571429 C 54.292857,30.564286 55,29.246429 55,28.5 c 0,-0.746429 -0.707143,-2.064286 -1.571429,-2.928571 -1.994594,-1.994595 -3.862548,-1.994595 -5.857142,0 C 46.707143,26.435714 46,27.753571 46,28.5 c 0,1.750901 2.749099,4.5 4.5,4.5 0.746429,0 2.064286,-0.707143 2.928571,-1.571429 z m -4.452365,-1.604777 c 0.646133,-0.778509 0.561603,-1.708336 -0.25,-2.75 -1.051034,-1.348966 -1.001378,-1.398622 0.347588,-0.347588 1.041664,0.811603 1.971491,0.896133 2.75,0.25 0.839662,-0.696887 0.896887,-0.639662 0.2,0.2 -0.646133,0.778509 -0.561603,1.708336 0.25,2.75 1.051034,1.348966 1.001378,1.398622 -0.347588,0.347588 -1.041664,-0.811603 -1.971491,-0.896133 -2.75,-0.25 -0.839662,0.696887 -0.896887,0.639662 -0.2,-0.2 z M 26.920673,31.75 c 1.88413,-2.489946 12.274524,-2.489946 14.158654,0 1.126549,1.488774 1.114972,1.56341 -0.07755,0.5 C 40.230797,31.5625 37.08,31 34,31 c -3.08,0 -6.230797,0.5625 -7.001772,1.25 -1.192527,1.06341 -1.204104,0.988774 -0.07756,-0.5 z M 29.75,27.267795 c 2.3375,-0.210535 6.1625,-0.210535 8.5,0 2.3375,0.210535 0.425,0.382791 -4.25,0.382791 -4.675,0 -6.5875,-0.172256 -4.25,-0.382791 z m 0,-2 c 2.3375,-0.210535 6.1625,-0.210535 8.5,0 2.3375,0.210535 0.425,0.382791 -4.25,0.382791 -4.675,0 -6.5875,-0.172256 -4.25,-0.382791 z M 52.0651,21 c 4.216417,0 4.247265,-0.02242 3.327911,-2.418213 C 54.866317,17.209245 52.022214,17 33.893011,17 22.401855,17 13,17.188196 13,17.418213 c 0,0.230016 -0.24586,1.058913 -0.546356,1.841993 -0.41137,1.072013 0.254362,1.376145 2.694556,1.230978 1.782502,-0.106042 4.840468,0.167955 6.795481,0.608882 1.955012,0.440927 3.9496,0.406653 4.432417,-0.07616 0.503799,-0.503799 1.930518,-0.477626 3.348332,0.06143 1.602149,0.609136 3.890826,0.556817 6.511485,-0.148853 3.30278,-0.889347 4.314819,-0.814312 5.539868,0.410736 1.102692,1.102692 2.140565,1.254892 3.926641,0.575828 C 47.0377,21.415367 49.900904,21 52.0651,21 Z M 21,19 c 0,-0.733333 0.3,-1.033333 0.666667,-0.666667 0.366666,0.366667 0.366666,0.966667 0,1.333334 C 21.3,20.033333 21,19.733333 21,19 Z m 25,0 c 0,-0.733333 0.3,-1.033333 0.666667,-0.666667 0.366666,0.366667 0.366666,0.966667 0,1.333334 C 46.3,20.033333 46,19.733333 46,19 Z m -6.028011,-4.98571 c 5.293059,-2.700317 5.503496,-3.440575 1.399904,-4.9244537 -1.936894,-0.70039 -3.332029,-1.4630334 -3.1003,-1.6947629 0.23173,-0.2317295 2.010846,0.2428171 3.953592,1.0545482 C 45.50651,9.8206468 45.88364,9.7860582 47.533713,7.9627481 49.281288,6.0316988 49.198458,5.996898 42.404988,5.8079288 38.607244,5.7022897 34.375,5.7036815 33,5.8110217 31.625,5.9183619 27.531491,6.0473558 23.903314,6.0976748 l -6.596686,0.091489 -2.153314,4.4321692 C 13.968991,13.059027 13,15.266465 13,15.526751 13,15.787038 18.192927,16 24.539838,16 34.078553,16 36.754642,15.655658 39.971989,14.01429 Z M 28,13.357193 c 2.475,-0.794788 6.75,-1.635119 9.5,-1.867402 l 5,-0.422332 -4.5,0.84889 c -2.475,0.466889 -6.3,1.349202 -8.5,1.960694 C 23.779719,15.467 22.649615,15.075344 28,13.357193 Z M 25.575145,9.4213494 C 21.193084,7.8161424 19.09317,6.2972932 23,7.5587701 c 1.375,0.4439739 4.525,1.3695043 7,2.0567341 2.868706,0.7965498 3.593726,1.2484328 2,1.2465398 -1.375,-0.0016 -4.266185,-0.649945 -6.424855,-1.4406946 z M 43.333333,7.3333333 C 43.7,6.9666667 44.3,6.9666667 44.666667,7.3333333 45.033333,7.7 44.733333,8 44,8 43.266667,8 42.966667,7.7 43.333333,7.3333333 Z M 45.5,14.935815 c -1.620727,-0.644437 -1.37249,-0.808573 1.309017,-0.86553 2.234597,-0.04746 3.077339,-0.445148 2.595491,-1.224793 -0.392439,-0.63498 -0.306496,-0.907212 0.190984,-0.604961 1.864847,1.133017 3.225625,-1.772001 1.948159,-4.1589688 L 50.331724,5.8170565 47.54553,9.1585282 C 46.013123,10.996338 43.350985,13.253739 41.629668,14.174975 L 38.5,15.849951 43,15.790506 c 3.278136,-0.04331 3.95695,-0.275375 2.5,-0.854691 z M 47,12 c 0,-0.733333 0.3,-1.033333 0.666667,-0.666667 0.366666,0.366667 0.366666,0.966667 0,1.333334 C 47.3,13.033333 47,12.733333 47,12 Z m 7.984687,3.25 c -0.03478,-1.703556 -1.839232,-3.45793 -2.889195,-2.809017 -0.620464,0.383467 -0.826247,1.185648 -0.457295,1.782624 0.385139,0.623168 0.208578,0.799729 -0.41459,0.41459 -0.596976,-0.368952 -1.368062,-0.21348 -1.713526,0.345491 C 49.136904,15.587502 50.123551,16 51.940983,16 c 1.682459,0 3.052126,-0.3375 3.043704,-0.75 z M 60.5,11.914046 c 0,-2.7195726 -2.772394,-3.7627949 -5.027026,-1.891616 -2.098198,1.74135 -0.08224,5.058001 2.806449,4.617156 C 59.858589,14.398588 60.5,13.611319 60.5,11.914046 Z M 56.428571,12 c 0,-1.295238 0.338096,-1.633333 0.985715,-0.985714 0.647619,0.647619 0.647619,1.323809 0,1.971428 C 56.766667,13.633333 56.428571,13.295238 56.428571,12 Z M 59,12.5 C 59,12.225 59.225,12 59.5,12 59.775,12 60,12.225 60,12.5 60,12.775 59.775,13 59.5,13 59.225,13 59,12.775 59,12.5 Z"
            id="path865" />
    </g>
</svg>
