<?xml version="1.0" encoding="UTF-8" standalone="no"?>
<svg
   xmlns:dc="http://purl.org/dc/elements/1.1/"
   xmlns:cc="http://creativecommons.org/ns#"
   xmlns:rdf="http://www.w3.org/1999/02/22-rdf-syntax-ns#"
   xmlns:svg="http://www.w3.org/2000/svg"
   xmlns="http://www.w3.org/2000/svg"
   xmlns:sodipodi="http://sodipodi.sourceforge.net/DTD/sodipodi-0.dtd"
   xmlns:inkscape="http://www.inkscape.org/namespaces/inkscape"
   version="1.1"
   id="svg2"
   width="90"
   height="110"
   viewBox="0 0 90 110"
   sodipodi:docname="As du volant.svg"
   inkscape:version="1.0.1 (3bc2e813f5, 2020-09-07)">
  <metadata
     id="metadata12">
    <rdf:RDF>
      <cc:Work
         rdf:about="">
        <dc:format>image/svg+xml</dc:format>
        <dc:type
           rdf:resource="http://purl.org/dc/dcmitype/StillImage" />
        <dc:title></dc:title>
      </cc:Work>
    </rdf:RDF>
  </metadata>
  <defs
     id="defs10" />
  <sodipodi:namedview
     pagecolor="#ffffff"
     bordercolor="#666666"
     borderopacity="1"
     objecttolerance="10"
     gridtolerance="10"
     guidetolerance="10"
     inkscape:pageopacity="0"
     inkscape:pageshadow="2"
     inkscape:window-width="1798"
     inkscape:window-height="1030"
     id="namedview8"
     showgrid="false"
     inkscape:zoom="5.5489917"
     inkscape:cx="60"
     inkscape:cy="73.333336"
     inkscape:window-x="755"
     inkscape:window-y="133"
     inkscape:window-maximized="0"
     inkscape:current-layer="svg2" />
  <g
     id="g10"
     transform="matrix(0.74781227,0,0,0.74781227,0.11685682,0.142825)">
    <g
       id="g14">
      <path
         style="fill:#fefefe;stroke-width:1.33333"
         d="M 0,79.555558 C 0,19.95829 0.23034656,12.444445 2.0573771,12.444445 c 1.1666906,0 1.762038,0.769641 1.3751797,1.777778 C 3.0573483,15.2 3.6126977,16 4.6666667,16 5.9062221,16 6.2822967,15.216448 5.7315687,13.781274 5.183694,12.353535 5.4034375,11.885948 6.3479507,12.46969 9.0042672,14.111383 9.3683883,11.005382 6.8798857,7.9322112 L 4.440732,4.9199837 2.220366,8.0900003 0,11.260017 V 5.6300084 0 h 60 60 V 73.333335 146.66667 H 60 0 Z m 113.73157,52.892382 c -0.54788,-1.42774 -0.32813,-1.89532 0.61638,-1.31158 2.65632,1.64169 3.02044,-1.46431 0.53194,-4.53748 l -2.43916,-3.01223 -2.16476,3.09063 c -2.26306,3.23097 -1.81906,6.02176 0.70941,4.45908 0.94452,-0.58374 1.16426,-0.11616 0.61639,1.31158 -0.55073,1.43518 -0.17466,2.21873 1.0649,2.21873 1.23955,0 1.61563,-0.78355 1.0649,-2.21873 z M 40,78.000002 c 1.310192,-1.578686 5.102025,-2 18,-2 12.897975,0 16.689808,0.421314 18,2 0.912919,1.1 2.712919,2 4,2 1.287081,0 3.087081,-0.9 4,-2 0.912919,-1.1 2.690077,-2 3.94924,-2 3.211349,0 5.797748,-6.069056 4.009981,-9.40953 -0.762508,-1.424759 -2.300677,-2.590471 -3.418156,-2.590471 -1.117477,0 -1.660957,-0.6 -1.207732,-1.333333 0.453226,-0.733333 -0.446774,-1.333333 -2,-1.333333 -1.553225,0 -2.453225,0.6 -2,1.333333 1.254486,2.0298 -2.116176,1.608467 -10.666666,-1.333333 -10.769368,-3.705207 -21.747174,-3.514367 -29.710992,0.516498 -3.458955,1.75074 -8.692866,3.901928 -11.630912,4.780415 -2.938048,0.878488 -6.463303,2.417238 -7.8339,3.419443 -3.491159,2.552797 -1.794947,5.950311 2.970697,5.950311 2.133224,0 4.625521,0.9 5.53844,2 0.912919,1.1 2.712919,2 4,2 1.287081,0 3.087081,-0.9 4,-2 z m -5.333333,-3.333334 c 0,-0.733333 0.6,-1.333333 1.333333,-1.333333 0.733333,0 1.333333,0.6 1.333333,1.333333 0,0.733334 -0.6,1.333334 -1.333333,1.333334 -0.733333,0 -1.333333,-0.6 -1.333333,-1.333334 z m 44,0 c 0,-0.733333 0.6,-1.333333 1.333333,-1.333333 0.733333,0 1.333333,0.6 1.333333,1.333333 0,0.733334 -0.6,1.333334 -1.333333,1.333334 -0.733333,0 -1.333333,-0.6 -1.333333,-1.333334 z M 44,62.666668 c 2.566667,-1.405191 6.709659,-2.580041 9.206651,-2.610779 4.456365,-0.05486 4.495534,-0.0068 2.126682,2.610779 -1.828716,2.020708 -4.058882,2.653129 -9.20665,2.610779 l -6.79335,-0.05589 z m 13.01504,-0.15972 c 2.642236,-2.742648 3.36016,-2.914088 5.806191,-1.386517 1.535133,0.958706 2.392954,1.098808 1.90627,0.311337 -1.120552,-1.813091 0.105907,-1.687784 5.939166,0.6068 L 75.333333,63.874261 70,63.754235 c -2.933333,-0.06601 -7.733333,0.330502 -10.666667,0.881152 L 54,65.636568 Z"
         id="path20" />
      <path
         style="fill:#0000fe;stroke-width:1.33333"
         d="m 111.60177,132.44794 c 0.54787,-1.42774 0.32813,-1.89532 -0.61639,-1.31158 -2.52847,1.56268 -2.97247,-1.22811 -0.70941,-4.45908 l 2.16476,-3.09063 2.43916,3.01223 c 2.4885,3.07317 2.12438,6.17917 -0.53194,4.53748 -0.94451,-0.58374 -1.16426,-0.11616 -0.61638,1.31158 0.55073,1.43518 0.17465,2.21873 -1.0649,2.21873 -1.23956,0 -1.61563,-0.78355 -1.0649,-2.21873 z M 22.666667,73.258362 c 0,-0.77457 2.55,-2.525014 5.666666,-3.889876 4.643975,-2.033708 10.742262,-2.65335 33.790184,-3.43339 25.787778,-0.872767 28.195914,-0.763155 28.995218,1.3198 1.035666,2.698902 -1.19722,7.411772 -3.511584,7.411772 -0.897798,0 -2.381772,-1.2 -3.29772,-2.666666 C 83.393483,70.533335 81.454239,69.333335 80,69.333335 c -1.454239,0 -3.393483,1.2 -4.309431,2.666667 C 74.175272,74.426379 72.5812,74.666668 58,74.666668 c -14.5812,0 -16.175272,-0.240289 -17.690569,-2.666666 C 39.393483,70.533335 37.454239,69.333335 36,69.333335 c -1.454239,0 -3.393483,1.2 -4.309431,2.666667 -1.749708,2.801726 -9.023902,3.816094 -9.023902,1.25836 z M 3.6017647,13.781274 C 4.1496393,12.353535 3.9298959,11.885948 2.9853827,12.46969 0.45691104,14.032371 0.01291233,11.241582 2.2759693,8.0106154 L 4.440732,4.9199837 6.8798857,7.9322112 C 9.3683883,11.005382 9.0042672,14.111383 6.3479507,12.46969 5.4034375,11.885948 5.183694,12.353535 5.7315687,13.781274 6.2822967,15.216448 5.9062221,16 4.6666667,16 3.4271112,16 3.0510367,15.216448 3.6017647,13.781274 Z"
         id="path18" />
      <path
         style="fill:#000000;stroke-width:1.33333"
         d="m 32,78.000002 c -0.912919,-1.1 -3.405216,-2 -5.53844,-2 -4.765644,0 -6.461856,-3.397514 -2.970697,-5.950311 1.370597,-1.002205 4.895852,-2.540955 7.8339,-3.419443 2.938046,-0.878487 8.171957,-3.029675 11.630912,-4.780415 7.963818,-4.030865 18.941624,-4.221705 29.710992,-0.516498 8.55049,2.9418 11.921152,3.363133 10.666666,1.333333 -0.453225,-0.733333 0.446775,-1.333333 2,-1.333333 1.553226,0 2.453226,0.6 2,1.333333 -0.453225,0.733333 0.09025,1.333333 1.207732,1.333333 1.117479,0 2.655648,1.165712 3.418156,2.590471 1.787767,3.340474 -0.798632,9.40953 -4.009981,9.40953 -1.259163,0 -3.036321,0.9 -3.94924,2 -0.912919,1.1 -2.712919,2 -4,2 -1.287081,0 -3.087081,-0.9 -4,-2 -1.310192,-1.578686 -5.102025,-2 -18,-2 -12.897975,0 -16.689808,0.421314 -18,2 -0.912919,1.1 -2.712919,2 -4,2 -1.287081,0 -3.087081,-0.9 -4,-2 z m 5.333333,-3.333334 c 0,-0.733333 -0.6,-1.333333 -1.333333,-1.333333 -0.733333,0 -1.333333,0.6 -1.333333,1.333333 0,0.733334 0.6,1.333334 1.333333,1.333334 0.733333,0 1.333333,-0.6 1.333333,-1.333334 z m 44,0 c 0,-0.733333 -0.6,-1.333333 -1.333333,-1.333333 -0.733333,0 -1.333333,0.6 -1.333333,1.333333 0,0.733334 0.6,1.333334 1.333333,1.333334 0.733333,0 1.333333,-0.6 1.333333,-1.333334 z M 31.690569,72.000002 C 32.606517,70.533335 34.545761,69.333335 36,69.333335 c 1.454239,0 3.393483,1.2 4.309431,2.666667 1.515297,2.426377 3.109369,2.666666 17.690569,2.666666 14.5812,0 16.175272,-0.240289 17.690569,-2.666666 0.915948,-1.466667 2.855192,-2.666667 4.309431,-2.666667 1.454239,0 3.393483,1.2 4.309431,2.666667 0.915948,1.466666 2.399922,2.666666 3.29772,2.666666 2.314364,0 4.54725,-4.71287 3.511584,-7.411772 -0.799304,-2.082955 -3.20744,-2.192567 -28.995218,-1.3198 -23.047922,0.78004 -29.146209,1.399682 -33.790184,3.43339 -6.470782,2.833709 -7.395228,5.298182 -1.987396,5.298182 2.235263,0 4.332879,-1.04659 5.344632,-2.666666 z M 55.333333,62.666668 C 57.702185,60.049116 57.663016,60.001031 53.206651,60.055889 50.709659,60.086627 46.566667,61.261477 44,62.666668 l -4.666667,2.554892 6.79335,0.05589 c 5.147768,0.04234 7.377934,-0.590077 9.20665,-2.610785 z M 70,63.754233 75.333333,63.87426 70.666667,62.038567 c -5.833254,-2.294584 -7.059718,-2.419891 -5.939166,-0.6068 0.486684,0.78747 -0.371137,0.647369 -1.90627,-0.311338 C 60.3752,59.59286 59.657276,59.7643 57.01504,62.506948 L 54,65.636567 59.333333,64.635385 C 62.266667,64.084736 67.066667,63.688217 70,63.754233 Z"
         id="path16" />
    </g>
  </g>
</svg>
