<?xml version="1.0" encoding="UTF-8" standalone="no"?>
<svg
   xmlns:dc="http://purl.org/dc/elements/1.1/"
   xmlns:cc="http://creativecommons.org/ns#"
   xmlns:rdf="http://www.w3.org/1999/02/22-rdf-syntax-ns#"
   xmlns:svg="http://www.w3.org/2000/svg"
   xmlns="http://www.w3.org/2000/svg"
   xmlns:xlink="http://www.w3.org/1999/xlink"
   version="1.1"
   id="svg2"
   width="90"
   height="110"
   viewBox="0 0 90 110">
  <g
     id="g10">
    <g
       id="g14">
      <path
         style="fill:#fefefe"
         d="M 0,55 V 0 H 2.940983 C 6.4720522,0 7.8074989,1.5555716 4.9238184,2.3096709 3.2263212,2.7535764 2.9247535,3.510411 3.1850658,6.6733611 3.4996143,10.495313 3.5055115,10.5 8,10.5 c 4.494489,0 4.500386,-0.0047 4.814934,-3.8266389 C 13.075246,3.510411 12.773679,2.7535764 11.076182,2.3096709 4.485007,0.58604007 14.376244,0 50.059017,0 H 90 l -0.01365,50.25 c -0.0075,27.6375 -0.284994,51.2625 -0.616631,52.5 C 88.87566,104.59356 88.065239,105 84.883369,105 82.098152,105 81,104.57582 81,103.5 c 0,-1.07984 1.190445,-1.53249 4.25,-1.616 2.3375,-0.0638 3.456991,-0.32286 2.487757,-0.57568 -0.969234,-0.25283 -1.505176,-0.87563 -1.190983,-1.384002 C 86.860967,99.415943 86.164919,99 85,99 c -1.164919,0 -1.871538,0.398839 -1.570264,0.88631 0.301273,0.48747 -0.397205,1.13343 -1.552174,1.43546 -1.787577,0.46746 -2.042285,1.15374 -1.712327,4.61369 L 80.552852,110 H 40.276426 0 Z m 24.812423,0.735492 C 25.21041,53.668912 22.323609,52.276391 20.8,53.8 c -1.523609,1.523609 -0.131088,4.41041 1.935492,4.012423 0.957848,-0.184464 1.892467,-1.119083 2.076931,-2.076931 z m 33,0 C 58.21041,53.668912 55.323609,52.276391 53.8,53.8 c -1.523609,1.523609 -0.131088,4.41041 1.935492,4.012423 0.957848,-0.184464 1.892467,-1.119083 2.076931,-2.076931 z m 6,0 C 64.21041,53.668912 61.323609,52.276391 59.8,53.8 c -1.523609,1.523609 -0.131088,4.41041 1.935492,4.012423 0.957848,-0.184464 1.892467,-1.119083 2.076931,-2.076931 z M 19.361626,53.5 c 0.747106,-1.946925 5.529642,-1.946925 6.276748,0 0.828271,2.158442 25.86927,2.225443 26.695843,0.07143 0.770105,-2.006863 11.561461,-2.006863 12.331566,0 C 65.388825,55.455645 67,55.406342 67,53.5 67,52.675 67.9,51.1 69,50 71.182265,47.817735 71.591383,43.973526 69.964816,40.934259 69.003941,39.138847 67.714376,39 52,39 36.285624,39 34.996059,39.138847 34.035184,40.934259 32.570162,43.671677 32.751806,47.289599 34.468197,49.55887 36.527618,52.281669 36.346466,54 34,54 32.266667,54 32,53.333333 32,49 V 44 H 28.478561 C 25.69278,44 24.71916,44.522271 23.818046,46.5 22.934035,48.440192 21.931182,49 19.339485,49 16.295613,49 16,49.265561 16,52 c 0,3.186235 2.317702,4.220422 3.361626,1.5 z m 4.653687,-5.25 C 24.023735,47.8375 24.466844,46.825 25,46 25.783874,44.787041 25.972305,44.930562 25.984687,46.75 25.993109,47.9875 25.55,49 25,49 24.45,49 24.006891,48.6625 24.015313,48.25 Z M 27,47 c 0,-1.1 0.45,-2 1,-2 0.55,0 1,0.9 1,2 0,1.1 -0.45,2 -1,2 -0.55,0 -1,-0.9 -1,-2 z M 4,4.5 C 4,3.4166667 5.1111111,3 8,3 10.888889,3 12,3.4166667 12,4.5 12,5.5833333 10.888889,6 8,6 5.1111111,6 4,5.5833333 4,4.5 Z"
         id="path20" />
      <path
         style="fill:#0000fe"
         d="M 80.713721,109.38039 C 80.321175,108.98784 80,107.12454 80,105.23971 c 0,-2.57948 0.491806,-3.55556 1.988753,-3.94702 1.093814,-0.28604 1.742256,-0.91891 1.440983,-1.40638 C 83.128462,99.398839 83.835081,99 85,99 c 1.164919,0 1.871538,0.398839 1.570264,0.88631 -0.301273,0.48747 0.37639,1.12798 1.505918,1.42336 1.697497,0.44391 1.999064,1.20074 1.738752,4.36369 -0.304007,3.69387 -0.454981,3.83695 -4.351213,4.12369 -2.219953,0.16338 -4.357453,-0.0241 -4.75,-0.41666 z M 89,103.5 c 0,-1.08333 -1.111111,-1.5 -4,-1.5 -2.888889,0 -4,0.41667 -4,1.5 0,1.08333 1.111111,1.5 4,1.5 2.888889,0 4,-0.41667 4,-1.5 z M 17,52.154988 C 17,50.171644 17.512432,50 23.433578,50 c 6.25079,0 6.445413,-0.07813 6.850168,-2.75 0.25733,-1.698696 0.473869,-0.934111 0.566422,2 C 30.977392,53.283277 30.716698,54 29.122445,54 28.089789,54 26.684689,53.325 26,52.5 24.359921,50.523826 21.105938,50.594152 18.828741,52.654988 17.110839,54.209667 17,54.179363 17,52.154988 Z M 34.410644,47.5 c -0.345103,-1.375 -0.345103,-3.625 0,-5 L 35.038104,40 H 52 68.961896 l 0.62746,2.5 c 0.345103,1.375 0.345103,3.625 0,5 L 68.961896,50 H 52 35.038104 Z M 3.7137215,10.380388 C 3.3211747,9.9878413 3,8.1245378 3,6.2397137 3,3.660225 3.4918062,2.6841506 4.9887526,2.2926903 6.0825666,2.0066515 6.7310089,1.3737803 6.4297356,0.88630989 6.1284623,0.39883945 6.8350813,0 8,0 9.1649187,0 9.8715377,0.39883945 9.5702644,0.88630989 9.2689911,1.3737803 9.9466538,2.0142928 11.076182,2.3096709 c 1.697497,0.4439055 1.999064,1.2007401 1.738752,4.3636902 -0.304007,3.6938659 -0.454981,3.8369459 -4.3512125,4.1236939 -2.2199532,0.16338 -4.3574532,-0.02412 -4.75,-0.416667 z M 12,4.5 C 12,3.4166667 10.888889,3 8,3 5.1111111,3 4,3.4166667 4,4.5 4,5.5833333 5.1111111,6 8,6 10.888889,6 12,5.5833333 12,4.5 Z"
         id="path18" />
      <path
         style="fill:#000000"
         d="M 20.364193,56.506689 C 20.017826,55.604071 20.213939,54.386061 20.8,53.8 c 1.523609,-1.523609 4.41041,-0.131088 4.012423,1.935492 -0.443302,2.301882 -3.647668,2.857428 -4.44823,0.771197 z m 33,0 C 53.017826,55.604071 53.213939,54.386061 53.8,53.8 c 1.523609,-1.523609 4.41041,-0.131088 4.012423,1.935492 -0.443302,2.301882 -3.647668,2.857428 -4.44823,0.771197 z m 6,0 C 59.017826,55.604071 59.213939,54.386061 59.8,53.8 c 1.523609,-1.523609 4.41041,-0.131088 4.012423,1.935492 -0.443302,2.301882 -3.647668,2.857428 -4.44823,0.771197 z M 16,52 c 0,-2.734439 0.295613,-3 3.339485,-3 2.591697,0 3.59455,-0.559808 4.478561,-2.5 C 24.71916,44.522271 25.69278,44 28.478561,44 H 32 v 5 c 0,4.333333 0.266667,5 2,5 2.346466,0 2.527618,-1.718331 0.468197,-4.44113 C 32.751806,47.289599 32.570162,43.671677 34.035184,40.934259 34.996059,39.138847 36.285624,39 52,39 67.714376,39 69.003941,39.138847 69.964816,40.934259 71.591383,43.973526 71.182265,47.817735 69,50 c -1.1,1.1 -2,2.675 -2,3.5 0,1.906342 -1.611175,1.955645 -2.334217,0.07143 -0.770105,-2.006863 -11.561461,-2.006863 -12.331566,0 C 51.507644,55.725443 26.466645,55.658442 25.638374,53.5 25.321791,52.675 23.909523,52 22.5,52 21.090477,52 19.678209,52.675 19.361626,53.5 18.317702,56.220422 16,55.186235 16,52 Z m 6.706296,-1 c 1.126848,0 2.609015,0.675 3.293704,1.5 0.684689,0.825 2.089789,1.5 3.122445,1.5 1.594253,0 1.854947,-0.716723 1.727723,-4.75 -0.09255,-2.934111 -0.309092,-3.698696 -0.566422,-2 C 29.878991,49.921868 29.684368,50 23.433578,50 17.512432,50 17,50.171644 17,52.154988 c 0,2.024375 0.110839,2.054679 1.828741,0.5 C 19.834548,51.744744 21.579448,51 22.706296,51 Z m 46.88306,-3.5 c 0.345103,-1.375 0.345103,-3.625 0,-5 L 68.961896,40 H 52 35.038104 l -0.62746,2.5 c -0.345103,1.375 -0.345103,3.625 0,5 l 0.62746,2.5 H 52 68.961896 Z M 25.984687,46.75 C 25.972305,44.930562 25.783874,44.787041 25,46 c -1.252922,1.938759 -1.252922,3 0,3 0.55,0 0.993109,-1.0125 0.984687,-2.25 z M 29,47 c 0,-1.1 -0.45,-2 -1,-2 -0.55,0 -1,0.9 -1,2 0,1.1 0.45,2 1,2 0.55,0 1,-0.9 1,-2 z"
         id="path16" />
    </g>
  </g>
</svg>
