<?xml version="1.0" encoding="UTF-8" standalone="no"?>
<svg
   xmlns:dc="http://purl.org/dc/elements/1.1/"
   xmlns:cc="http://creativecommons.org/ns#"
   xmlns:rdf="http://www.w3.org/1999/02/22-rdf-syntax-ns#"
   xmlns:svg="http://www.w3.org/2000/svg"
   xmlns="http://www.w3.org/2000/svg"
   xmlns:xlink="http://www.w3.org/1999/xlink"
   version="1.1"
   id="svg2"
   width="90"
   height="110"
   viewBox="0 0 90 110">
  <g
     id="g10">
    <g
       id="g14">
      <path
         style="fill:#fefefe"
         d="M 0,55 V 0 h 45 45 v 55 55 H 45 0 Z m 83,5.467881 c 0,-6.852079 -0.497788,-11.723493 -1.424649,-13.941783 -1.057415,-2.53075 -1.121858,-3.515897 -0.25,-3.821782 C 82.730334,42.211388 79.746571,38.514851 76,36.106822 74.428486,35.096765 73.5,33.571514 73.5,32 c 0,-1.963971 -0.571226,-2.566069 -2.66416,-2.808139 -3.49413,-0.404134 -4.827066,3.055366 -2.267118,5.884076 1.110982,1.227621 1.831051,3.846176 1.97395,7.178336 0.27913,6.508823 0.166033,6.23237 1.945495,4.755548 1.208314,-1.002812 1.609294,-0.919417 2.132282,0.443467 0.426972,1.112673 -0.430008,2.786751 -2.54208,4.965855 -2.999597,3.0948 -3.146343,3.587729 -2.505729,8.41691 0.560656,4.226437 0.394081,5.239487 -0.946088,5.753758 C 65.976271,67.606819 66.770177,69 70,69 c 2.972841,0 3,-0.05023 3,-5.547966 0,-4.809804 0.36589,-5.864016 2.75,-7.923371 l 2.75,-2.375405 0.69237,3.673371 C 80.403155,63.250447 80.123857,68.015241 78.5,68.638374 75.958577,69.613609 76.839151,71 80,71 h 3 z M 81.177388,64 C 81.053582,61.525 80.568254,57.847269 80.09888,55.827263 79.528874,53.374174 79.619816,51.73824 80.372737,50.90096 80.992731,50.211498 79.377257,51.41423 76.782794,53.573696 72.518632,57.122915 72.051211,57.932183 71.915891,62 l -0.149697,4.5 -0.891944,-5.36863 c -0.861473,-5.18522 -0.780611,-5.496918 2.366903,-9.123747 1.792366,-2.065314 4.254229,-4.244483 5.470807,-4.842599 2.011201,-0.988781 2.265815,-0.796027 2.805325,2.123747 C 81.843636,51.054947 81.951314,56.1 81.756569,60.5 81.561825,64.9 81.301193,66.475 81.177388,64 Z M 71,45.618034 c 0,-0.825 0.45,-1.778115 1,-2.118034 0.55,-0.339919 1,0.05697 1,0.881966 0,0.825 -0.45,1.778115 -1,2.118034 -0.55,0.339919 -1,-0.05697 -1,-0.881966 z M 77.5,40 c -0.995486,-1.1 -1.359975,-2 -0.809975,-2 0.55,0 1.814489,0.9 2.809975,2 0.995486,1.1 1.359975,2 0.809975,2 -0.55,0 -1.814489,-0.9 -2.809975,-2 z M 29.819551,67.25 C 30.080016,65.416028 30.773397,65 33.569551,65 36.56203,65 37,65.319178 37,67.5 c 0,2.444444 0.166667,2.5 7.5,2.5 7.333333,0 7.5,-0.05556 7.5,-2.5 0,-2.114617 0.465397,-2.5 3.019052,-2.5 2.720978,0 2.957102,0.246827 2.391592,2.5 C 56.807779,69.902005 56.968074,70 61.5,70 66.031926,70 66.192221,69.90201 65.589356,67.5 65.126324,65.655135 65.35997,65 66.480948,65 67.333333,65 68,64.12226 68,63 68,61.054422 67.333333,61 43.5,61 19.666667,61 19,61.054422 19,63 c 0,1.333333 0.666667,2 2,2 1.272727,0 2,0.666667 2,1.833333 0,2.550642 1.011323,3.306746 3.962576,2.962577 1.755417,-0.204714 2.635906,-0.989336 2.856975,-2.54591 z M 24.157895,67 c 0,-1.375 0.226973,-1.9375 0.504386,-1.25 0.277412,0.6875 0.277412,1.8125 0,2.5 -0.277413,0.6875 -0.504386,0.125 -0.504386,-1.25 z m 2,0 c 0,-1.375 0.226973,-1.9375 0.504386,-1.25 0.277412,0.6875 0.277412,1.8125 0,2.5 -0.277413,0.6875 -0.504386,0.125 -0.504386,-1.25 z m 2,0 c 0,-1.375 0.226973,-1.9375 0.504386,-1.25 0.277412,0.6875 0.277412,1.8125 0,2.5 -0.277413,0.6875 -0.504386,0.125 -0.504386,-1.25 z M 38,66.5 C 38,64.089744 38.233333,64 44.5,64 50.766667,64 51,64.08974 51,66.5 51,68.910256 50.766667,69 44.5,69 38.233333,69 38,68.91026 38,66.5 Z m 3.447214,-0.58541 c -0.321976,-0.520968 -1.011657,-0.683779 -1.532624,-0.361804 -0.520968,0.321976 -0.683779,1.011657 -0.361804,1.532624 0.321976,0.520968 1.011657,0.683779 1.532624,0.361804 0.520968,-0.321976 0.683779,-1.011657 0.361804,-1.532624 z m 4,0 c -0.321976,-0.520968 -1.011657,-0.683779 -1.532624,-0.361804 -0.520968,0.321976 -0.683779,1.011657 -0.361804,1.532624 0.321976,0.520968 1.011657,0.683779 1.532624,0.361804 0.520968,-0.321976 0.683779,-1.011657 0.361804,-1.532624 z m 4,0 c -0.321976,-0.520968 -1.011657,-0.683779 -1.532624,-0.361804 -0.520968,0.321976 -0.683779,1.011657 -0.361804,1.532624 0.321976,0.520968 1.011657,0.683779 1.532624,0.361804 0.520968,-0.321976 0.683779,-1.011657 0.361804,-1.532624 z M 58.015313,68.25 C 58.023735,67.8375 58.466844,66.825 59,66 c 0.80637,-1.247768 0.983768,-1.163691 1.054972,0.5 l 0.0856,2 L 61,66.5 61.859429,64.5 62,66.5 c 0.136452,1.941402 0.162687,1.943544 0.895419,0.07312 0.700471,-1.788076 0.803465,-1.800194 1.429715,-0.168213 C 65.31613,68.987395 65.302407,69 61.5,69 59.575,69 58.006891,68.6625 58.015313,68.25 Z M 20,62.859407 C 20,62.386733 30.575,62 43.5,62 56.425,62 67,62.369297 67,62.820659 67,63.272021 56.425,63.658755 43.5,63.680066 30.575,63.701377 20,63.332081 20,62.859407 Z M 67.833641,54.5 c 0.42024,-6.297769 -1.36981,-14.607214 -4.470037,-20.75 L 60.966308,29 h -16.96283 -16.96283 l -2.172839,4.25 c -1.195061,2.3375 -2.773866,6.5 -3.508455,9.25 -1.412295,5.287055 -1.829097,15.696924 -0.674711,16.85131 0.376554,0.376554 11.064054,0.564054 23.75,0.416667 L 67.5,59.5 Z M 24.571429,55.428571 C 23.707143,54.564286 23,53.246429 23,52.5 23,50.749099 25.749099,48 27.5,48 c 1.750901,0 4.5,2.749099 4.5,4.5 0,1.750901 -2.749099,4.5 -4.5,4.5 -0.746429,0 -2.064286,-0.707143 -2.928571,-1.571429 z m 4.697603,-2.084508 c -0.677033,-0.273923 -2.027033,-0.290597 -3,-0.03705 -0.972968,0.25354 -0.419032,0.477659 1.230968,0.498038 1.65,0.02038 2.446064,-0.187065 1.769032,-0.460988 z m 0,-2 c -0.677033,-0.273923 -2.027033,-0.290597 -3,-0.03705 -0.972968,0.25354 -0.419032,0.477659 1.230968,0.498038 1.65,0.02038 2.446064,-0.187065 1.769032,-0.460988 z m 28.302397,4.084508 C 56.707143,54.564286 56,53.246429 56,52.5 56,51.753571 56.707143,50.435714 57.571429,49.571429 58.435714,48.707143 59.753571,48 60.5,48 c 1.750901,0 4.5,2.749099 4.5,4.5 0,1.750901 -2.749099,4.5 -4.5,4.5 -0.746429,0 -2.064286,-0.707143 -2.928571,-1.571429 z m 4.697603,-2.084508 c -0.677033,-0.273923 -2.027033,-0.290597 -3,-0.03705 -0.972968,0.25354 -0.419032,0.477659 1.230968,0.498038 1.65,0.02038 2.446064,-0.187065 1.769032,-0.460988 z m 0,-2 c -0.677033,-0.273923 -2.027033,-0.290597 -3,-0.03705 -0.972968,0.25354 -0.419032,0.477659 1.230968,0.498038 1.65,0.02038 2.446064,-0.187065 1.769032,-0.460988 z M 23,39.526751 c 0,-0.260286 0.98967,-2.510286 2.199266,-5 L 27.398531,30 H 44 60.601469 l 2.199265,4.526751 c 1.209596,2.489714 2.199266,4.739714 2.199266,5 0,1.036246 -6.678586,0.394663 -7.824959,-0.75171 -0.966613,-0.966613 -1.638639,-0.966613 -3.186432,0 C 52.106205,39.950622 23,40.65667 23,39.526751 Z m 31.8125,-0.209865 c 0.721875,-0.288871 1.584375,-0.253344 1.916667,0.07895 0.332291,0.332292 -0.258334,0.568641 -1.3125,0.52522 -1.164943,-0.04798 -1.4019,-0.284941 -0.604167,-0.604167 z"
         id="path20" />
      <path
         style="fill:#fe0000"
         d="M 21,52.5 V 46 H 44 67 V 52.5 59 H 44 21 Z M 31,56 c 1.1,-1.1 2,-2.675 2,-3.5 0,-1.938267 -3.561733,-5.5 -5.5,-5.5 -1.938267,0 -5.5,3.561733 -5.5,5.5 0,1.938267 3.561733,5.5 5.5,5.5 0.825,0 2.4,-0.9 3.5,-2 z m 33,0 c 1.1,-1.1 2,-2.675 2,-3.5 0,-0.825 -0.9,-2.4 -2,-3.5 -1.1,-1.1 -2.675,-2 -3.5,-2 -0.825,0 -2.4,0.9 -3.5,2 -1.1,1.1 -2,2.675 -2,3.5 0,0.825 0.9,2.4 2,3.5 1.1,1.1 2.675,2 3.5,2 0.825,0 2.4,-0.9 3.5,-2 z M 48.25,53.267795 c -2.3375,-0.210535 -6.1625,-0.210535 -8.5,0 -2.3375,0.210535 -0.425,0.382791 4.25,0.382791 4.675,0 6.5875,-0.172256 4.25,-0.382791 z m 0,-2 c -2.3375,-0.210535 -6.1625,-0.210535 -8.5,0 -2.3375,0.210535 -0.425,0.382791 4.25,0.382791 4.675,0 6.5875,-0.172256 4.25,-0.382791 z m 0,-2 c -2.3375,-0.210535 -6.1625,-0.210535 -8.5,0 -2.3375,0.210535 -0.425,0.382791 4.25,0.382791 4.675,0 6.5875,-0.172256 4.25,-0.382791 z M 73.199266,42.473249 C 70.826242,37.58885 70.410797,35 72,35 c 0.55,0 1,0.664626 1,1.476947 0,0.812321 1.143273,2.226048 2.540607,3.141617 3.509296,2.299379 5.078134,5.374552 3.312638,6.493297 -2.4609,1.559403 -3.43231,0.934253 -5.653979,-3.638612 z M 22.393011,43.418213 C 22.726855,42.548229 23,41.648229 23,41.418213 23,41.188196 32.401855,41 43.893011,41 c 18.129203,0 20.973306,0.209245 21.5,1.581787 C 65.726855,43.451771 66,44.351771 66,44.581787 66,44.811804 56.051855,45 43.893011,45 c -19.74784,0 -22.042214,-0.168801 -21.5,-1.581787 z m 52.075952,-5.468432 c -0.91846,-1.486099 -0.188001,-2.012205 1.41676,-1.020408 0.85973,0.531342 0.962008,1.0467 0.290138,1.461939 -0.570715,0.352721 -1.33882,0.154032 -1.706898,-0.441531 z M 68.666667,34.333333 C 68.3,33.966667 68,33.066667 68,32.333333 c 0,-1.770139 2.639398,-1.71543 3.32411,0.0689 0.807974,2.105546 -1.097984,3.490558 -2.657443,1.9311 z"
         id="path18" />
      <path
         style="fill:#000000"
         d="m 77,70.106989 c 0,-0.491156 0.675,-1.152033 1.5,-1.468615 1.623857,-0.623133 1.903155,-5.387927 0.69237,-11.811745 L 78.5,53.153258 75.75,55.528663 C 73.36589,57.588018 73,58.64223 73,63.452034 73,68.949774 72.972841,69 70,69 c -3.229823,0 -4.023729,-1.393181 -1.373448,-2.410189 1.340169,-0.514271 1.506744,-1.527321 0.946088,-5.753758 -0.640614,-4.829181 -0.493868,-5.32211 2.505729,-8.41691 2.112072,-2.179104 2.969052,-3.853182 2.54208,-4.965855 -0.522988,-1.362884 -0.923968,-1.446279 -2.132282,-0.443467 -1.779462,1.476822 -1.666365,1.753275 -1.945495,-4.755548 -0.142899,-3.33216 -0.862968,-5.950715 -1.97395,-7.178336 -2.559948,-2.82871 -1.227012,-6.28821 2.267118,-5.884076 C 72.928774,29.433931 73.5,30.036029 73.5,32 c 0,1.571514 0.928486,3.096765 2.5,4.106822 3.746571,2.408029 6.730334,6.104566 5.325351,6.597494 -0.871858,0.305885 -0.807415,1.291032 0.25,3.821782 C 82.502212,48.744388 83,53.615802 83,60.467881 V 71 h -3 c -1.65,0 -3,-0.401855 -3,-0.893011 z m 3.464617,-23.83881 C 79.573408,43.934582 77.529284,41.088946 75.922119,39.944544 74.314953,38.800141 73,37.219454 73,36.431906 73,35.644358 72.55,35 72,35 c -1.593724,0 -1.171797,2.592887 1.224553,7.525297 1.940686,3.994518 2.546815,4.511748 4.75,4.053332 2.292455,-0.47699 2.340931,-0.424369 0.525447,0.570366 -1.1,0.602709 -3.466481,2.787364 -5.258847,4.854789 -3.147311,3.630302 -3.22832,3.942701 -2.366903,9.127586 L 71.766194,66.5 71.915891,62 c 0.13532,-4.067817 0.602741,-4.877085 4.866903,-8.426304 2.594463,-2.159466 4.209937,-3.362198 3.589943,-2.672736 -0.752921,0.83728 -0.843863,2.473214 -0.273857,4.926303 0.469374,2.020006 0.956678,5.697737 1.082899,8.172737 0.12622,2.475 0.38108,0.452494 0.566355,-4.494459 0.245383,-6.551898 -0.103172,-10.146673 -1.283517,-13.237362 z M 73,44.381966 c 0,-0.825 -0.45,-1.221885 -1,-0.881966 -0.55,0.339919 -1,1.293034 -1,2.118034 0,0.825 0.45,1.221885 1,0.881966 0.55,-0.339919 1,-1.293034 1,-2.118034 z m 5.154535,-5.482481 c -1.840006,-1.673039 -3.62242,-2.764933 -3.96092,-2.426433 -0.701419,0.701419 4.78337,5.451544 6.306385,5.461672 0.55,0.0037 -0.505459,-1.362201 -2.345465,-3.035239 z M 71.264432,34.402234 C 72.237577,33.429089 70.901441,31 69.393011,31 68.626855,31 68,31.6 68,32.333333 c 0,2.214828 1.908778,3.424556 3.264432,2.068901 z M 23.712576,69.379243 C 23.320659,68.987326 23,67.841667 23,66.833333 23,65.666667 22.272727,65 21,65 c -1.333333,0 -2,-0.666667 -2,-2 0,-1.945578 0.666667,-2 24.5,-2 23.833333,0 24.5,0.05442 24.5,2 0,1.12226 -0.666667,2 -1.519052,2 -1.120978,0 -1.354624,0.655135 -0.891592,2.5 C 66.192221,69.902005 66.031926,70 61.5,70 56.968074,70 56.807779,69.902005 57.410644,67.5 57.976154,65.246827 57.74003,65 55.019052,65 52.465397,65 52,65.385383 52,67.5 52,69.944444 51.833333,70 44.5,70 37.166667,70 37,69.944444 37,67.5 37,65.319178 36.56203,65 33.569551,65 c -2.796154,0 -3.489535,0.416028 -3.75,2.25 -0.221069,1.556574 -1.101558,2.341196 -2.856975,2.54591 -1.395583,0.16275 -2.858083,-0.02475 -3.25,-0.416667 z M 24.662281,65.75 c -0.277413,-0.6875 -0.504386,-0.125 -0.504386,1.25 0,1.375 0.226973,1.9375 0.504386,1.25 0.277412,-0.6875 0.277412,-1.8125 0,-2.5 z m 2,0 c -0.277413,-0.6875 -0.504386,-0.125 -0.504386,1.25 0,1.375 0.226973,1.9375 0.504386,1.25 0.277412,-0.6875 0.277412,-1.8125 0,-2.5 z m 2,0 c -0.277413,-0.6875 -0.504386,-0.125 -0.504386,1.25 0,1.375 0.226973,1.9375 0.504386,1.25 0.277412,-0.6875 0.277412,-1.8125 0,-2.5 z M 51,66.5 C 51,64.089744 50.766667,64 44.5,64 38.233333,64 38,64.08974 38,66.5 c 0,2.410256 0.233333,2.5 6.5,2.5 6.266667,0 6.5,-0.08974 6.5,-2.5 z m -11.447214,0.58541 c -0.321975,-0.520967 -0.159164,-1.210648 0.361804,-1.532624 0.520967,-0.321975 1.210648,-0.159164 1.532624,0.361804 0.321975,0.520967 0.159164,1.210648 -0.361804,1.532624 -0.520967,0.321975 -1.210648,0.159164 -1.532624,-0.361804 z m 4,0 c -0.321975,-0.520967 -0.159164,-1.210648 0.361804,-1.532624 0.520967,-0.321975 1.210648,-0.159164 1.532624,0.361804 0.321975,0.520967 0.159164,1.210648 -0.361804,1.532624 -0.520967,0.321975 -1.210648,0.159164 -1.532624,-0.361804 z m 4,0 c -0.321975,-0.520967 -0.159164,-1.210648 0.361804,-1.532624 0.520967,-0.321975 1.210648,-0.159164 1.532624,0.361804 0.321975,0.520967 0.159164,1.210648 -0.361804,1.532624 -0.520967,0.321975 -1.210648,0.159164 -1.532624,-0.361804 z M 65,68.581787 C 65,68.351771 64.69631,67.372172 64.325134,66.404902 63.698884,64.772921 63.59589,64.785039 62.895419,66.573115 62.162687,68.443544 62.136452,68.441402 62,66.5 l -0.140571,-2 -0.859429,2 -0.859429,2 -0.0856,-2 C 59.983768,64.836309 59.80637,64.752232 59,66 c -1.601546,2.478215 -1.166725,3 2.5,3 1.925,0 3.5,-0.188196 3.5,-0.418213 z m 2,-5.761128 C 67,62.369297 56.425,62 43.5,62 30.575,62 20,62.386733 20,62.859407 c 0,0.472674 10.575,0.84197 23.5,0.820659 C 56.425,63.658755 67,63.272021 67,62.820659 Z M 20.684643,59.35131 C 19.530257,58.196924 19.947059,47.787055 21.359354,42.5 c 0.734589,-2.75 2.313394,-6.9125 3.508455,-9.25 L 27.040648,29 h 16.96283 16.96283 l 2.397296,4.75 c 3.100227,6.142786 4.890277,14.452231 4.470037,20.75 L 67.5,59.5 44.434643,59.767977 c -12.685946,0.147387 -23.373446,-0.04011 -23.75,-0.416667 z M 67,52.5 V 46 H 44 21 V 52.5 59 H 44 67 Z M 24,56 c -1.1,-1.1 -2,-2.675 -2,-3.5 0,-1.938267 3.561733,-5.5 5.5,-5.5 1.938267,0 5.5,3.561733 5.5,5.5 0,1.938267 -3.561733,5.5 -5.5,5.5 -0.825,0 -2.4,-0.9 -3.5,-2 z m 6.428571,-0.571429 C 31.292857,54.564286 32,53.246429 32,52.5 32,50.749099 29.250901,48 27.5,48 25.749099,48 23,50.749099 23,52.5 c 0,1.750901 2.749099,4.5 4.5,4.5 0.746429,0 2.064286,-0.707143 2.928571,-1.571429 z m -4.159539,-2.121562 c 0.972967,-0.253543 2.322967,-0.236869 3,0.03705 C 29.946064,53.617986 29.15,53.825431 27.5,53.805051 25.85,53.784672 25.296064,53.560553 26.269032,53.307009 Z m 0,-2 c 0.972967,-0.253543 2.322967,-0.236869 3,0.03705 C 29.946064,51.617986 29.15,51.825431 27.5,51.805051 25.85,51.784672 25.296064,51.560553 26.269032,51.307009 Z M 57,56 c -1.1,-1.1 -2,-2.675 -2,-3.5 0,-0.825 0.9,-2.4 2,-3.5 1.1,-1.1 2.675,-2 3.5,-2 0.825,0 2.4,0.9 3.5,2 1.1,1.1 2,2.675 2,3.5 0,0.825 -0.9,2.4 -2,3.5 -1.1,1.1 -2.675,2 -3.5,2 -0.825,0 -2.4,-0.9 -3.5,-2 z m 6.428571,-0.571429 C 64.292857,54.564286 65,53.246429 65,52.5 65,50.749099 62.250901,48 60.5,48 59.753571,48 58.435714,48.707143 57.571429,49.571429 56.707143,50.435714 56,51.753571 56,52.5 c 0,0.746429 0.707143,2.064286 1.571429,2.928571 C 58.435714,56.292857 59.753571,57 60.5,57 c 0.746429,0 2.064286,-0.707143 2.928571,-1.571429 z m -4.159539,-2.121562 c 0.972967,-0.253543 2.322967,-0.236869 3,0.03705 C 62.946064,53.617986 62.15,53.825431 60.5,53.805051 58.85,53.784672 58.296064,53.560553 59.269032,53.307009 Z m 0,-2 c 0.972967,-0.253543 2.322967,-0.236869 3,0.03705 C 62.946064,51.617986 62.15,51.825431 60.5,51.805051 58.85,51.784672 58.296064,51.560553 59.269032,51.307009 Z M 39.75,53.267795 c 2.3375,-0.210535 6.1625,-0.210535 8.5,0 2.3375,0.210535 0.425,0.382791 -4.25,0.382791 -4.675,0 -6.5875,-0.172256 -4.25,-0.382791 z m 0,-2 c 2.3375,-0.210535 6.1625,-0.210535 8.5,0 2.3375,0.210535 0.425,0.382791 -4.25,0.382791 -4.675,0 -6.5875,-0.172256 -4.25,-0.382791 z m 0,-2 c 2.3375,-0.210535 6.1625,-0.210535 8.5,0 2.3375,0.210535 0.425,0.382791 -4.25,0.382791 -4.675,0 -6.5875,-0.172256 -4.25,-0.382791 z M 66,44.581787 c 0,-0.230016 -0.273145,-1.130016 -0.606989,-2 C 64.866317,41.209245 62.022214,41 43.893011,41 32.401855,41 23,41.188196 23,41.418213 c 0,0.230016 -0.273145,1.130016 -0.606989,2 C 21.850797,44.831199 24.145171,45 43.893011,45 56.051855,45 66,44.811804 66,44.581787 Z M 53.988609,38.775041 c 1.547793,-0.966613 2.219819,-0.966613 3.186432,0 C 58.321414,39.921414 65,40.562997 65,39.526751 c 0,-0.260286 -0.98967,-2.510286 -2.199266,-5 L 60.601469,30 H 44 27.398531 l -2.199265,4.526751 C 23.98967,37.016465 23,39.266465 23,39.526751 c 0,1.129919 29.106205,0.423871 30.988609,-0.75171 z m 2.740558,0.620792 c -0.332292,-0.332291 -1.194792,-0.367818 -1.916667,-0.07895 -0.797733,0.319226 -0.560776,0.556183 0.604167,0.604167 1.054166,0.04342 1.644791,-0.192928 1.3125,-0.52522 z"
         id="path16" />
    </g>
  </g>
</svg>
