<?xml version="1.0" encoding="UTF-8" standalone="no"?>
<svg
   xmlns:dc="http://purl.org/dc/elements/1.1/"
   xmlns:cc="http://creativecommons.org/ns#"
   xmlns:rdf="http://www.w3.org/1999/02/22-rdf-syntax-ns#"
   xmlns:svg="http://www.w3.org/2000/svg"
   xmlns="http://www.w3.org/2000/svg"
   xmlns:sodipodi="http://sodipodi.sourceforge.net/DTD/sodipodi-0.dtd"
   xmlns:inkscape="http://www.inkscape.org/namespaces/inkscape"
   version="1.1"
   id="svg2"
   width="90"
   height="110"
   viewBox="0 0 90 110"
   sodipodi:docname="deck.svg"
   inkscape:version="1.0.1 (3bc2e813f5, 2020-09-07)">
  <sodipodi:namedview
     pagecolor="#ffffff"
     bordercolor="#666666"
     borderopacity="1"
     objecttolerance="10"
     gridtolerance="10"
     guidetolerance="10"
     inkscape:pageopacity="0"
     inkscape:pageshadow="2"
     inkscape:window-width="2249"
     inkscape:window-height="1317"
     id="namedview18"
     showgrid="false"
     inkscape:zoom="9.9569862"
     inkscape:cx="49.670088"
     inkscape:cy="55"
     inkscape:window-x="654"
     inkscape:window-y="140"
     inkscape:window-maximized="0"
     inkscape:current-layer="svg2" />
  <metadata
     id="metadata12">
    <rdf:RDF>
      <cc:Work
         rdf:about="">
        <dc:format>image/svg+xml</dc:format>
        <dc:type
           rdf:resource="http://purl.org/dc/dcmitype/StillImage" />
        <dc:title />
      </cc:Work>
    </rdf:RDF>
  </metadata>
  <defs
     id="defs10" />
  <g
     id="g33"
     transform="translate(0,2.6628321)">
    <g
       aria-label="Mille"
       id="text16"
       style="font-style:normal;font-variant:normal;font-weight:bold;font-stretch:normal;font-size:16px;line-height:25px;font-family:'ITC Benguiat Gothic Std';-inkscape-font-specification:'ITC Benguiat Gothic Std, Bold';font-variant-ligatures:normal;font-variant-caps:normal;font-variant-numeric:normal;font-variant-east-asian:normal;writing-mode:lr-tb;fill:#ff0000;fill-opacity:1;stroke-width:3.48;stroke-linecap:round;stroke-linejoin:round"
       transform="matrix(1.8183524,0,0,1.8183524,-33.174606,-42.830249)">
      <path
         d="m 31.752017,43.51383 c -0.656,-0.8 -1.04,-1.824 -1.584,-3.152 -0.256,-0.624 -0.64,-0.88 -1.28,-0.88 -1.232,0 -1.28,0.944 -1.536,2.48 -0.304,1.808 -0.576,4.944 -0.576,6.768 0,1.12 0.08,1.856 0.992,1.856 0.896,0 1.024,-0.608 1.024,-1.36 v -2.528 c 0,-1.392 0.16,-2.832 0.384,-4.304 h 0.032 c 0.256,0.816 1.424,3.488 2.544,3.488 1.12,0 2.288,-2.672 2.544,-3.488 h 0.032 c 0.224,1.472 0.384,2.912 0.384,4.304 v 2.528 c 0,0.752 0.128,1.36 1.024,1.36 0.912,0 0.992,-0.736 0.992,-1.856 0,-1.824 -0.272,-4.96 -0.576,-6.768 -0.256,-1.536 -0.304,-2.48 -1.536,-2.48 -0.64,0 -1.024,0.256 -1.28,0.88 -0.544,1.328 -0.928,2.352 -1.584,3.152 z"
         id="path845" />
      <path
         d="m 40.711988,43.35383 c 0,-0.576 -0.304,-1.04 -0.96,-1.04 -0.656,0 -0.96,0.464 -0.96,1.04 v 6.192 c 0,0.576 0.304,1.04 0.96,1.04 0.656,0 0.96,-0.464 0.96,-1.04 z m -0.96,-4.24 c -0.592,0 -1.056,0.416 -1.056,1.184 0,0.768 0.464,1.184 1.056,1.184 0.592,0 1.056,-0.416 1.056,-1.184 0,-0.768 -0.464,-1.184 -1.056,-1.184 z"
         id="path847" />
      <path
         d="m 45.159986,40.20183 c 0,-0.576 -0.304,-1.04 -0.96,-1.04 -0.656,0 -0.96,0.464 -0.96,1.04 v 9.344 c 0,0.576 0.304,1.04 0.96,1.04 0.656,0 0.96,-0.464 0.96,-1.04 z"
         id="path849" />
      <path
         d="m 49.607985,40.20183 c 0,-0.576 -0.304,-1.04 -0.96,-1.04 -0.656,0 -0.96,0.464 -0.96,1.04 v 9.344 c 0,0.576 0.304,1.04 0.96,1.04 0.656,0 0.96,-0.464 0.96,-1.04 z"
         id="path851" />
      <path
         d="m 58.199983,50.53783 c 0.512,0 0.928,-0.272 0.928,-0.864 0,-0.592 -0.416,-0.864 -0.928,-0.864 h -2.064 c -1.344,0 -2.48,-0.4 -2.608,-1.904 h 4.896 c 0.672,0 0.784,-0.4 0.784,-0.944 0,-1.872 -1.104,-3.648 -3.776,-3.648 -2.448,0 -4.016,1.872 -4.016,4.272 0,2.384 1.6,3.952 4.448,3.952 z m -4.544,-5.072 c 0.224,-0.96 1.024,-1.552 1.776,-1.552 0.752,0 1.552,0.592 1.76,1.552 z"
         id="path853" />
    </g>
    <g
       aria-label="Bornes"
       id="text843"
       style="font-style:normal;font-variant:normal;font-weight:bold;font-stretch:normal;font-size:16px;line-height:25px;font-family:'ITC Benguiat Gothic Std';-inkscape-font-specification:'ITC Benguiat Gothic Std, Bold';font-variant-ligatures:normal;font-variant-caps:normal;font-variant-numeric:normal;font-variant-east-asian:normal;writing-mode:lr-tb;fill:#0000ff;fill-opacity:1;stroke-width:3.48;stroke-linecap:round;stroke-linejoin:round"
       transform="matrix(1.8183524,0,0,1.8183524,-35.82215,-42.830249)">
      <path
         d="m 21.160047,54.456508 c -0.544,0 -0.88,0.48 -0.88,1.088 v 8.832 c 0,0.768 0.336,1.088 1.392,1.088 h 3.776 c 1.792,0 3.104,-1.44 3.104,-3.152 0,-1.28 -0.784,-2.464 -1.776,-3.216 0.832,-0.656 1.216,-1.328 1.216,-2.416 0,-1.168 -0.528,-2.224 -2.352,-2.224 z m 1.136,4.832 c 1.616,0.128 4.144,1.008 4.144,2.96 0,1.072 -0.832,1.392 -2.176,1.392 h -1.968 z m 0,-3.104 h 2.256 c 1.056,0 1.424,0.256 1.424,0.848 0,0.528 -0.304,0.912 -0.816,1.232 -0.832,-0.352 -1.968,-0.576 -2.864,-0.576 z"
         id="path856" />
      <path
         d="m 37.432018,61.400508 c 0,-2.336 -1.44,-4.16 -3.936,-4.16 -2.496,0 -3.936,1.824 -3.936,4.16 0,2.336 1.44,4.16 3.936,4.16 2.496,0 3.936,-1.824 3.936,-4.16 z m -2.016,0 c 0,1.28 -0.608,2.432 -1.92,2.432 -1.312,0 -1.92,-1.152 -1.92,-2.432 0,-1.28 0.608,-2.432 1.92,-2.432 1.312,0 1.92,1.152 1.92,2.432 z"
         id="path858" />
      <path
         d="m 39.048014,64.424508 c 0,0.624 0.352,1.088 0.96,1.088 0.608,0 0.96,-0.464 0.96,-1.088 v -3.504 c 0,-1.472 0.464,-1.856 1.408,-1.856 0.688,0 1.104,-0.288 1.104,-0.896 0,-0.544 -0.288,-0.928 -0.992,-0.928 -0.896,0 -1.504,0.384 -1.632,1.264 h -0.032 l -0.032,-0.496 c -0.064,-0.72 -0.512,-0.768 -0.864,-0.768 -0.56,0 -0.88,0.32 -0.88,0.976 z"
         id="path860" />
      <path
         d="m 44.247986,64.472508 c 0,0.576 0.304,1.04 0.96,1.04 0.656,0 0.96,-0.464 0.96,-1.04 v -3.264 c 0,-1.488 0.704,-2.24 1.792,-2.24 0.864,0 1.296,0.544 1.296,1.664 v 3.84 c 0,0.576 0.304,1.04 0.96,1.04 0.656,0 0.96,-0.464 0.96,-1.04 v -4.352 c 0,-1.632 -1.12,-2.88 -2.848,-2.88 -0.88,0 -1.52,0.256 -2.16,0.864 0,-0.4 -0.304,-0.864 -0.96,-0.864 -0.656,0 -0.96,0.464 -0.96,1.04 z"
         id="path862" />
      <path
         d="m 59.495982,65.464508 c 0.512,0 0.928,-0.272 0.928,-0.864 0,-0.592 -0.416,-0.864 -0.928,-0.864 h -2.064 c -1.344,0 -2.48,-0.4 -2.608,-1.904 h 4.896 c 0.672,0 0.784,-0.4 0.784,-0.944 0,-1.872 -1.104,-3.648 -3.776,-3.648 -2.448,0 -4.016,1.872 -4.016,4.272 0,2.384 1.6,3.952 4.448,3.952 z m -4.544,-5.072 c 0.224,-0.96 1.024,-1.552 1.776,-1.552 0.752,0 1.552,0.592 1.76,1.552 z"
         id="path864" />
      <path
         d="m 65.463978,65.464508 c 1.808,0 3.152,-0.816 3.152,-2.752 0,-3.376 -5.04,-2.144 -5.04,-3.248 0,-0.384 0.4,-0.4 0.688,-0.4 h 2.8 c 0.512,0 0.928,-0.272 0.928,-0.864 0,-0.592 -0.416,-0.864 -0.928,-0.864 h -2.688 c -1.76,0 -2.72,0.656 -2.72,2.112 0,3.344 5.04,1.6 5.04,3.248 0,0.864 -0.608,1.04 -1.376,1.04 h -2.88 c -0.528,0 -0.944,0.272 -0.944,0.864 0,0.592 0.416,0.864 0.944,0.864 z"
         id="path866" />
    </g>
  </g>
</svg>
