<?xml version="1.0" encoding="UTF-8" standalone="no"?>
<svg
   xmlns:dc="http://purl.org/dc/elements/1.1/"
   xmlns:cc="http://creativecommons.org/ns#"
   xmlns:rdf="http://www.w3.org/1999/02/22-rdf-syntax-ns#"
   xmlns:svg="http://www.w3.org/2000/svg"
   xmlns="http://www.w3.org/2000/svg"
   xmlns:sodipodi="http://sodipodi.sourceforge.net/DTD/sodipodi-0.dtd"
   xmlns:inkscape="http://www.inkscape.org/namespaces/inkscape"
   version="1.1"
   id="svg2"
   width="90"
   height="110"
   viewBox="0 0 90 110"
   sodipodi:docname="Fin de limite.svg"
   inkscape:version="1.0.1 (3bc2e813f5, 2020-09-07)">
  <metadata
     id="metadata42">
    <rdf:RDF>
      <cc:Work
         rdf:about="">
        <dc:format>image/svg+xml</dc:format>
        <dc:type
           rdf:resource="http://purl.org/dc/dcmitype/StillImage" />
      </cc:Work>
    </rdf:RDF>
  </metadata>
  <defs
     id="defs40" />
  <sodipodi:namedview
     pagecolor="#ffffff"
     bordercolor="#666666"
     borderopacity="1"
     objecttolerance="10"
     gridtolerance="10"
     guidetolerance="10"
     inkscape:pageopacity="0"
     inkscape:pageshadow="2"
     inkscape:window-width="2363"
     inkscape:window-height="1558"
     id="namedview38"
     showgrid="false"
     inkscape:zoom="21.124567"
     inkscape:cx="7.3431684"
     inkscape:cy="58.532314"
     inkscape:window-x="0"
     inkscape:window-y="0"
     inkscape:window-maximized="0"
     inkscape:current-layer="svg2"
     inkscape:document-rotation="0" />
  <g
     id="g10"
     transform="translate(-0.5,5.5)">
    <g
       id="g14">
      <path
         style="fill:#000000"
         d="M 29,49.5 V 22 H 45.5 62 V 49.5 77 H 45.5 29 Z m 32,0 V 23 H 45.5 30 V 49.5 76 H 45.5 61 Z"
         id="path16" />
    </g>
  </g>
  <g
     aria-label="END
OF
LIMIT"
     id="text46"
     style="font-style:normal;font-variant:normal;font-weight:bold;font-stretch:normal;font-size:13.3333px;line-height:15px;font-family:'ITC Benguiat Gothic Std';-inkscape-font-specification:'ITC Benguiat Gothic Std, Bold';font-variant-ligatures:normal;font-variant-caps:normal;font-variant-numeric:normal;font-variant-east-asian:normal;text-align:center;writing-mode:lr-tb;text-anchor:middle;fill:#00ff00;fill-opacity:1;stroke-width:3.48;stroke-linecap:round;stroke-linejoin:round">
    <path
       d="m 35.013363,36.933341 h 3.333324 c 0.453333,0 0.813332,-0.24 0.813332,-0.759998 0,-0.519999 -0.359999,-0.759998 -0.813332,-0.759998 h -4.359989 c -0.453332,0 -0.733331,0.399999 -0.733331,0.906664 v 7.119982 c 0,0.693331 0.279999,1.146664 1.159997,1.146664 h 3.933323 c 0.453333,0 0.813332,-0.24 0.813332,-0.759998 0,-0.519999 -0.359999,-0.759998 -0.813332,-0.759998 h -3.333324 v -3.466658 h 3.199991 c 0.453333,0 0.813332,-0.24 0.813332,-0.759998 0,-0.519999 -0.359999,-0.759999 -0.813332,-0.759999 h -3.199991 z"
       id="path111" />
    <path
       d="m 47.039996,36.293342 c 0,-0.519998 -0.266666,-0.919997 -0.839998,-0.919997 -0.573332,0 -0.839998,0.399999 -0.839998,0.919997 v 1.666663 c -2.239994,-0.626665 -2.386661,-2.58666 -3.693324,-2.58666 -0.733332,0 -1.053331,0.399999 -1.079997,0.919997 v 7.413315 c 0,0.519999 0.266666,0.919998 0.839998,0.919998 0.573331,0 0.839997,-0.399999 0.839997,-0.919998 v -6.133318 c 0.879998,1.026664 1.999995,1.786662 3.093326,1.906662 v 4.226656 c 0,0.519999 0.266666,0.919998 0.839998,0.919998 0.573332,0 0.839998,-0.399999 0.839998,-0.919998 z"
       id="path113" />
    <path
       d="m 48.7733,43.59999 c 0,0.773332 0.319999,0.986665 1.186663,0.986665 h 2.78666 c 2.266661,0 3.559991,-1.813329 3.559991,-3.826657 0,-2.039995 -1.399996,-5.346653 -6.373317,-5.346653 -0.839998,0 -1.159997,0.373332 -1.159997,1.039997 z m 1.679996,-6.58665 c 2.186661,0 3.95999,1.706663 3.95999,3.866657 0,1.439997 -0.679999,2.106662 -2.66666,2.106662 h -1.29333 z"
       id="path115" />
    <path
       d="m 45.560012,55 c 0,-2.986659 -2.053328,-4.666655 -4.333322,-4.666655 -2.279995,0 -4.333323,1.679996 -4.333323,4.666655 0,2.986659 2.053328,4.666655 4.333323,4.666655 2.279994,0 4.333322,-1.679996 4.333322,-4.666655 z m -1.893329,0 c 0,1.759995 -0.986664,3.146659 -2.439993,3.146659 -1.45333,0 -2.439994,-1.386664 -2.439994,-3.146659 0,-1.759996 0.986664,-3.146659 2.439994,-3.146659 1.453329,0 2.439993,1.386663 2.439993,3.146659 z"
       id="path117" />
    <path
       d="m 48.71998,54.600001 h 2.906659 c 0.453333,0 0.813332,-0.24 0.813332,-0.759998 0,-0.519999 -0.359999,-0.759998 -0.813332,-0.759998 H 48.71998 v -1.146664 h 3.039992 c 0.453333,0 0.813332,-0.239999 0.813332,-0.759998 0,-0.519999 -0.359999,-0.759998 -0.813332,-0.759998 h -4.066656 c -0.453332,0 -0.733331,0.399999 -0.733331,0.906664 v 7.266648 c 0,0.639999 0.226666,1.039998 0.879997,1.039998 0.653332,0 0.879998,-0.399999 0.879998,-1.039998 z"
       id="path119" />
    <path
       d="m 30.706729,73.439991 c 0,0.693332 0.279999,1.146664 1.159997,1.146664 h 3.093326 c 0.479998,0 0.866664,-0.253333 0.866664,-0.799998 0,-0.546665 -0.386666,-0.799998 -0.866664,-0.799998 h -2.573327 v -6.70665 c 0,-0.506665 -0.28,-0.906664 -0.839998,-0.906664 -0.559999,0 -0.839998,0.399999 -0.839998,0.906664 z"
       id="path121" />
    <path
       d="m 38.360021,66.280009 c 0,-0.506665 -0.266666,-0.906664 -0.839998,-0.906664 -0.573332,0 -0.839998,0.399999 -0.839998,0.906664 v 7.439982 c 0,0.506665 0.266666,0.906664 0.839998,0.906664 0.573332,0 0.839998,-0.399999 0.839998,-0.906664 z"
       id="path123" />
    <path
       d="m 44.186671,68.733337 c -0.546665,-0.666665 -0.866665,-1.519997 -1.319997,-2.62666 -0.213333,-0.519999 -0.533332,-0.733332 -1.066664,-0.733332 -1.026664,0 -1.066664,0.786665 -1.279996,2.066662 -0.253333,1.506662 -0.479999,4.119989 -0.479999,5.639985 0,0.933331 0.06667,1.546663 0.826664,1.546663 0.746665,0 0.853331,-0.506665 0.853331,-1.13333 v -2.106662 c 0,-1.159997 0.133333,-2.359994 0.32,-3.586657 h 0.02667 c 0.213333,0.679998 1.186664,2.906659 2.119995,2.906659 0.933331,0 1.906662,-2.226661 2.119995,-2.906659 h 0.02667 c 0.186666,1.226663 0.319999,2.42666 0.319999,3.586657 v 2.106662 c 0,0.626665 0.106667,1.13333 0.853332,1.13333 0.759998,0 0.826664,-0.613332 0.826664,-1.546663 0,-1.519996 -0.226666,-4.133323 -0.479999,-5.639985 -0.213332,-1.279997 -0.253332,-2.066662 -1.279996,-2.066662 -0.533332,0 -0.853332,0.213333 -1.066664,0.733332 -0.453333,1.106663 -0.773332,1.959995 -1.319997,2.62666 z"
       id="path125" />
    <path
       d="m 51.693295,66.280009 c 0,-0.506665 -0.266666,-0.906664 -0.839998,-0.906664 -0.573332,0 -0.839998,0.399999 -0.839998,0.906664 v 7.439982 c 0,0.506665 0.266666,0.906664 0.839998,0.906664 0.573332,0 0.839998,-0.399999 0.839998,-0.906664 z"
       id="path127" />
    <path
       d="m 56.879946,67.013341 h 1.546663 c 0.479999,0 0.866665,-0.253333 0.866665,-0.799998 0,-0.546665 -0.386666,-0.799998 -0.866665,-0.799998 h -4.773321 c -0.479999,0 -0.866665,0.253333 -0.866665,0.799998 0,0.546665 0.386666,0.799998 0.866665,0.799998 h 1.546663 v 6.70665 c 0,0.506665 0.266666,0.906664 0.839998,0.906664 0.573331,0 0.839997,-0.399999 0.839997,-0.906664 z"
       id="path129" />
  </g>
</svg>
