<?xml version="1.0" encoding="UTF-8" standalone="no"?>
<svg
   xmlns:dc="http://purl.org/dc/elements/1.1/"
   xmlns:cc="http://creativecommons.org/ns#"
   xmlns:rdf="http://www.w3.org/1999/02/22-rdf-syntax-ns#"
   xmlns:svg="http://www.w3.org/2000/svg"
   xmlns="http://www.w3.org/2000/svg"
   xmlns:xlink="http://www.w3.org/1999/xlink"
   version="1.1"
   id="svg2"
   width="90"
   height="110"
   viewBox="0 0 90 110">
  <g
     id="g10">
    <g
       id="g14">
      <path
         style="fill:#fefefe"
         d="M 0,55 V 0 h 45 45 v 48 c 0,48 0,48 -2,46 -1.1,-1.1 -2.675,-2 -3.5,-2 -1.938267,0 -5.5,3.561733 -5.5,5.5 0,1.938267 3.561733,5.5 5.5,5.5 0.825,0 2.4,-0.9 3.5,-2 2,-2 2,-2 2,3.5 V 110 H 45 0 Z m 79.75,28.310674 c -1.154323,-0.301656 -1.804474,-1.53862 -1.910037,-3.633998 L 77.679926,76.5 77.276604,79.75 C 77.031961,81.72136 76.308069,83 75.436642,83 74.51531,83 73.942596,81.834255 73.839963,79.75 L 73.679926,76.5 73.276604,79.75 C 73.031961,81.72136 72.308069,83 71.436642,83 70.51531,83 69.942596,81.834255 69.839963,79.75 L 69.679926,76.5 69.276604,79.75 C 69.031961,81.72136 68.308069,83 67.436642,83 66.51531,83 65.942596,81.834255 65.839963,79.75 L 65.679926,76.5 65.276604,79.75 C 65.031961,81.72136 64.308069,83 63.436642,83 62.51531,83 61.942596,81.834255 61.839963,79.75 L 61.679926,76.5 61.276604,79.75 C 61.031961,81.72136 60.308069,83 59.436642,83 58.51531,83 57.942596,81.834255 57.839963,79.75 L 57.679926,76.5 57.276604,79.75 C 57.031961,81.72136 56.308069,83 55.436642,83 54.51531,83 53.942596,81.834255 53.839963,79.75 l -0.160037,-3.25 -0.403322,3.25 c -0.543689,4.381099 -3.220906,4.381099 -3.436641,0 L 49.679926,76.5 49.276604,79.75 C 49.031961,81.72136 48.308069,83 47.436642,83 46.51531,83 45.942596,81.834255 45.839963,79.75 L 45.679926,76.5 45.276604,79.75 C 45.031961,81.72136 44.308069,83 43.436642,83 42.51531,83 41.942596,81.834255 41.839963,79.75 L 41.679926,76.5 41.276604,79.75 C 41.031961,81.72136 40.308069,83 39.436642,83 38.51531,83 37.942596,81.834255 37.839963,79.75 L 37.679926,76.5 37.276604,79.75 C 37.031961,81.72136 36.308069,83 35.436642,83 34.51531,83 33.942596,81.834255 33.839963,79.75 L 33.679926,76.5 33.276604,79.75 C 33.031961,81.72136 32.308069,83 31.436642,83 30.51531,83 29.942596,81.834255 29.839963,79.75 l -0.160037,-3.25 -0.403322,3.25 c -0.543689,4.381099 -3.220906,4.381099 -3.436641,0 L 25.679926,76.5 25.276604,79.75 C 25.031961,81.72136 24.308069,83 23.436642,83 22.51531,83 21.942596,81.834255 21.839963,79.75 L 21.679926,76.5 21.276604,79.75 C 21.031961,81.72136 20.308069,83 19.436642,83 18.51531,83 17.942596,81.834255 17.839963,79.75 L 17.679926,76.5 17.276604,79.75 C 17.031961,81.72136 16.308069,83 15.436642,83 14.51531,83 13.942596,81.834255 13.839963,79.75 L 13.679926,76.5 13.28123,79.687987 c -0.239796,1.917415 -1.072751,3.365745 -2.089963,3.633998 C 10.26107,83.567292 25.7,83.767997 45.5,83.767997 c 19.8,0 35.2125,-0.205795 34.25,-0.457323 z M 58.371834,70.606508 C 69.327588,65.246356 75.458627,55.340661 75.458627,43 c 0,-8.768086 -2.165617,-14.45615 -7.935411,-20.842623 -11.751621,-13.0076394 -33.294811,-13.0076394 -45.046432,0 C 16.70699,28.54385 14.541373,34.231914 14.541373,43 c 0,9.531106 2.668447,15.71726 9.578042,22.204393 9.737786,9.142404 22.495119,11.154425 34.252419,5.402115 z M 36.25,61.592557 C 33.3625,60.217256 31,58.86701 31,58.59201 c 0,-0.275 2.3625,0.599901 5.25,1.944226 6.847087,3.187777 11.288371,3.108019 17.851463,-0.320581 4.314689,-2.254021 5.860171,-3.799503 8.114192,-8.114192 3.556566,-6.808046 3.556566,-11.39488 0,-18.202926 -2.254021,-4.314689 -3.799503,-5.860171 -8.114192,-8.114192 -6.601067,-3.448438 -11.283623,-3.533051 -17.63293,-0.318623 -2.678733,1.356147 -5.033135,2.30301 -5.232004,2.10414 -0.19887,-0.19887 2.15105,-1.590898 5.222045,-3.093396 C 40.88361,22.311498 42.980218,21.85038 46.562805,22.254189 57.334318,23.468295 66.67739,34.129836 65.745887,44.144335 64.38378,58.788191 49.208941,67.764832 36.25,61.592557 Z M 26.463764,51.75 c -3.135862,-6.735579 -3.098479,-11.083604 0.151366,-17.605193 1.438321,-2.886334 2.772896,-5.090115 2.965721,-4.897289 0.192826,0.192826 -0.758982,2.542282 -2.115129,5.221015 -3.103078,6.129362 -3.103587,10.61942 -0.002,17.281467 1.344325,2.8875 2.219226,5.25 1.944226,5.25 -0.275,0 -1.599901,-2.3625 -2.944226,-5.25 z M 44,49 c 0,-0.55 0.45,-1 1,-1 0.55,0 1,0.45 1,1 0,0.55 -0.45,1 -1,1 -0.55,0 -1,-0.45 -1,-1 z m -5,-3 c 0,-0.55 0.45,-1 1,-1 0.55,0 1,0.45 1,1 0,0.55 -0.45,1 -1,1 -0.55,0 -1,-0.45 -1,-1 z m 10,0 c 0,-0.55 0.45,-1 1,-1 0.55,0 1,0.45 1,1 0,0.55 -0.45,1 -1,1 -0.55,0 -1,-0.45 -1,-1 z m -5.553851,-2.087132 c -1.030521,-1.667419 1.287209,-3.57951 2.666719,-2.2 C 47.266792,42.866792 46.544589,45 45,45 44.514919,45 43.815686,44.51079 43.446149,43.912868 Z M 39,40 c 0,-0.55 0.45,-1 1,-1 0.55,0 1,0.45 1,1 0,0.55 -0.45,1 -1,1 -0.55,0 -1,-0.45 -1,-1 z m 10,0 c 0,-0.55 0.45,-1 1,-1 0.55,0 1,0.45 1,1 0,0.55 -0.45,1 -1,1 -0.55,0 -1,-0.45 -1,-1 z m -5,-3 c 0,-0.55 0.45,-1 1,-1 0.55,0 1,0.45 1,1 0,0.55 -0.45,1 -1,1 -0.55,0 -1,-0.45 -1,-1 z M 11,23 c 1.1,-1.1 2,-2.675 2,-3.5 C 13,17.561733 9.4382673,14 7.5,14 5.5617327,14 2,17.561733 2,19.5 2,21.438267 5.5617327,25 7.5,25 8.325,25 9.9,24.1 11,23 Z M 5.3641933,20.506689 C 5.0178262,19.604071 5.2139392,18.386061 5.8,17.8 7.3236089,16.276391 10.21041,17.668912 9.812423,19.735492 9.3691211,22.037374 6.1647553,22.59292 5.3641933,20.506689 Z m 76.9999997,78 C 82.017826,97.604071 82.213939,96.386061 82.8,95.8 c 1.523609,-1.523609 4.41041,-0.131088 4.012423,1.935492 -0.443302,2.301878 -3.647668,2.857428 -4.44823,0.771197 z"
         id="path20" />
      <path
         style="fill:#0000fe"
         d="m 81,101 c -1.1,-1.1 -2,-2.675 -2,-3.5 0,-0.825 0.9,-2.4 2,-3.5 1.1,-1.1 2.675,-2 3.5,-2 0.825,0 2.4,0.9 3.5,2 1.1,1.1 2,2.675 2,3.5 0,0.825 -0.9,2.4 -2,3.5 -1.1,1.1 -2.675,2 -3.5,2 -0.825,0 -2.4,-0.9 -3.5,-2 z m 5.812423,-3.264508 C 87.21041,95.668912 84.323609,94.276391 82.8,95.8 c -1.523609,1.523609 -0.131088,4.41041 1.935492,4.012423 0.957848,-0.184464 1.892467,-1.119083 2.076931,-2.076931 z M 35.929315,60.25 C 31.392071,57.951842 30.048158,56.607929 27.75,52.070685 24.251417,45.163446 24.259957,40.644987 27.78434,33.898537 c 2.254021,-4.314689 3.799503,-5.860171 8.114192,-8.114192 6.808046,-3.556566 11.39488,-3.556566 18.202926,0 4.314689,2.254021 5.860171,3.799503 8.114192,8.114192 3.556566,6.808046 3.556566,11.39488 0,18.202926 -2.254021,4.314689 -3.799503,5.860171 -8.114192,8.114192 -6.74645,3.524388 -11.264909,3.532928 -18.172148,0.03435 z M 38.5,52.986305 c 0,-3.203862 -0.263856,-3.511733 -3.256875,-3.800176 -4.326816,-0.416984 -5.31373,2.045361 -2.163699,5.398416 C 36.298552,58.011147 38.5,57.362057 38.5,52.986305 Z m 18.4522,1.564576 c 3.120053,-3.321144 2.113844,-5.780035 -2.195325,-5.364752 -2.531785,0.243993 -3.33014,0.830988 -3.585956,2.636597 -0.768851,5.426712 2.012905,6.739407 5.781281,2.728155 z M 46,49 c 0,-0.55 -0.45,-1 -1,-1 -0.55,0 -1,0.45 -1,1 0,0.55 0.45,1 1,1 0.55,0 1,-0.45 1,-1 z m -5,-3 c 0,-0.55 -0.45,-1 -1,-1 -0.55,0 -1,0.45 -1,1 0,0.55 0.45,1 1,1 0.55,0 1,-0.45 1,-1 z m 10,0 c 0,-0.55 -0.45,-1 -1,-1 -0.55,0 -1,0.45 -1,1 0,0.55 0.45,1 1,1 0.55,0 1,-0.45 1,-1 z m -4.446149,-2.087132 c 1.030521,-1.667419 -1.287209,-3.57951 -2.666719,-2.2 C 42.733208,42.866792 43.455411,45 45,45 c 0.485081,0 1.184314,-0.48921 1.553851,-1.087132 z M 41,40 c 0,-0.55 -0.45,-1 -1,-1 -0.55,0 -1,0.45 -1,1 0,0.55 0.45,1 1,1 0.55,0 1,-0.45 1,-1 z m 10,0 c 0,-0.55 -0.45,-1 -1,-1 -0.55,0 -1,0.45 -1,1 0,0.55 0.45,1 1,1 0.55,0 1,-0.45 1,-1 z M 38.813871,34.243125 c 0.429723,-4.459007 -2.139082,-5.372459 -5.541144,-1.970398 -3.402061,3.402062 -2.488609,5.970867 1.970398,5.541144 2.866967,-0.276295 3.294451,-0.703779 3.570746,-3.570746 z M 46,37 c 0,-0.55 -0.45,-1 -1,-1 -0.55,0 -1,0.45 -1,1 0,0.55 0.45,1 1,1 0.55,0 1,-0.45 1,-1 z M 58.671731,36.413073 C 59.48725,34.287863 54.712137,29.51275 52.586927,30.328269 50.720167,31.044612 50.478964,35.078964 52.2,36.8 c 1.721036,1.721036 5.755388,1.479833 6.471731,-0.386927 z M 4,23 C 2.9,21.9 2,20.325 2,19.5 2,17.561733 5.5617327,14 7.5,14 9.4382673,14 13,17.561733 13,19.5 13,20.325 12.1,21.9 11,23 9.9,24.1 8.325,25 7.5,25 6.675,25 5.1,24.1 4,23 Z M 9.812423,19.735492 C 10.21041,17.668912 7.3236089,16.276391 5.8,17.8 4.2763911,19.323609 5.6689116,22.21041 7.7354923,21.812423 8.6933397,21.627959 9.6279585,20.69334 9.812423,19.735492 Z"
         id="path18" />
      <path
         style="fill:#000000"
         d="m 11.191267,83.321985 c 1.017212,-0.268253 1.850167,-1.716583 2.089963,-3.633998 L 13.679926,76.5 l 0.160037,3.25 c 0.102633,2.084255 0.675347,3.25 1.596679,3.25 0.871427,0 1.595319,-1.27864 1.839962,-3.25 l 0.403322,-3.25 0.160037,3.25 c 0.215735,4.381099 2.892952,4.381099 3.436641,0 l 0.403322,-3.25 0.160037,3.25 c 0.215735,4.381099 2.892952,4.381099 3.436641,0 l 0.403322,-3.25 0.160037,3.25 c 0.102633,2.084255 0.675347,3.25 1.596679,3.25 0.871427,0 1.595319,-1.27864 1.839962,-3.25 l 0.403322,-3.25 0.160037,3.25 c 0.102633,2.084255 0.675347,3.25 1.596679,3.25 0.871427,0 1.595319,-1.27864 1.839962,-3.25 l 0.403322,-3.25 0.160037,3.25 c 0.102633,2.084255 0.675347,3.25 1.596679,3.25 0.871427,0 1.595319,-1.27864 1.839962,-3.25 l 0.403322,-3.25 0.160037,3.25 c 0.102633,2.084255 0.675347,3.25 1.596679,3.25 0.871427,0 1.595319,-1.27864 1.839962,-3.25 l 0.403322,-3.25 0.160037,3.25 c 0.102633,2.084255 0.675347,3.25 1.596679,3.25 0.871427,0 1.595319,-1.27864 1.839962,-3.25 l 0.403322,-3.25 0.160037,3.25 c 0.102633,2.084255 0.675347,3.25 1.596679,3.25 0.871427,0 1.595319,-1.27864 1.839962,-3.25 l 0.403322,-3.25 0.160037,3.25 c 0.215735,4.381099 2.892952,4.381099 3.436641,0 l 0.403322,-3.25 0.160037,3.25 c 0.102633,2.084255 0.675347,3.25 1.596679,3.25 0.871427,0 1.595319,-1.27864 1.839962,-3.25 l 0.403322,-3.25 0.160037,3.25 c 0.102633,2.084255 0.675347,3.25 1.596679,3.25 0.871427,0 1.595319,-1.27864 1.839962,-3.25 l 0.403322,-3.25 0.160037,3.25 c 0.102633,2.084255 0.675347,3.25 1.596679,3.25 0.871427,0 1.595319,-1.27864 1.839962,-3.25 l 0.403322,-3.25 0.160037,3.25 c 0.102633,2.084255 0.675347,3.25 1.596679,3.25 0.871427,0 1.595319,-1.27864 1.839962,-3.25 l 0.403322,-3.25 0.160037,3.25 c 0.102633,2.084255 0.675347,3.25 1.596679,3.25 0.871427,0 1.595319,-1.27864 1.839962,-3.25 l 0.403322,-3.25 0.160037,3.25 c 0.102633,2.084255 0.675347,3.25 1.596679,3.25 0.871427,0 1.595319,-1.27864 1.839962,-3.25 l 0.403322,-3.25 0.160037,3.176676 c 0.105563,2.095378 0.755714,3.332342 1.910037,3.633998 0.9625,0.251528 -14.45,0.457323 -34.25,0.457323 -19.8,0 -35.23893,-0.200705 -34.308733,-0.446012 z M 34.315086,71.964026 C 27.64921,69.321749 19.735364,61.872164 16.825016,55.5 15.094261,51.710539 14.541373,48.684192 14.541373,43 c 0,-8.768086 2.165617,-14.45615 7.935411,-20.842623 11.751621,-13.0076394 33.294811,-13.0076394 45.046432,0 C 73.29301,28.54385 75.458627,34.231914 75.458627,43 c 0,8.768086 -2.165617,14.45615 -7.935411,20.842623 -8.0177,8.874635 -22.421284,12.397185 -33.20813,8.121403 z M 55.367757,60.630368 C 60.927116,57.372366 65.137611,50.683843 65.745887,44.144335 66.656202,34.357628 57.55159,23.68844 47.092608,22.285596 38.99638,21.199664 29.766987,26.895838 25.929701,35.346867 c -2.423002,5.336289 -2.388422,10.045239 0.114278,15.561514 5.443355,11.99786 18.215001,16.232163 29.323778,9.721987 z M 33.079426,54.584545 c -3.150031,-3.353055 -2.163117,-5.8154 2.163699,-5.398416 2.993019,0.288443 3.256875,0.596314 3.256875,3.800176 0,4.375752 -2.201448,5.024842 -5.420574,1.59824 z m 18.310108,0.988181 c -0.301233,-0.785001 -0.39961,-2.472501 -0.218615,-3.75 0.255816,-1.805609 1.054171,-2.392604 3.585956,-2.636597 4.309169,-0.415283 5.315378,2.043608 2.195325,5.364752 -2.586395,2.753091 -4.746085,3.14982 -5.562666,1.021845 z M 31.352779,36.476944 c -0.40121,-1.045536 0.302735,-2.587003 1.919948,-4.204217 3.402062,-3.402061 5.970867,-2.488609 5.541144,1.970398 -0.276295,2.866967 -0.703779,3.294451 -3.570746,3.570746 -2.306776,0.222309 -3.441672,-0.167701 -3.890346,-1.336927 z M 52.2,36.8 c -1.721036,-1.721036 -1.479833,-5.755388 0.386927,-6.471731 2.12521,-0.815519 6.900323,3.959594 6.084804,6.084804 C 57.955388,38.279833 53.921036,38.521036 52.2,36.8 Z"
         id="path16" />
    </g>
  </g>
</svg>
