<?xml version="1.0" encoding="UTF-8" standalone="no"?>
<svg
   xmlns:dc="http://purl.org/dc/elements/1.1/"
   xmlns:cc="http://creativecommons.org/ns#"
   xmlns:rdf="http://www.w3.org/1999/02/22-rdf-syntax-ns#"
   xmlns:svg="http://www.w3.org/2000/svg"
   xmlns="http://www.w3.org/2000/svg"
   xmlns:sodipodi="http://sodipodi.sourceforge.net/DTD/sodipodi-0.dtd"
   xmlns:inkscape="http://www.inkscape.org/namespaces/inkscape"
   version="1.1"
   id="svg2"
   width="90"
   height="110"
   viewBox="0 0 90 110"
   sodipodi:docname="Limite De Vitesse.svg"
   inkscape:version="1.0.1 (3bc2e813f5, 2020-09-07)">
  <metadata
     id="metadata42">
    <rdf:RDF>
      <cc:Work
         rdf:about="">
        <dc:format>image/svg+xml</dc:format>
        <dc:type
           rdf:resource="http://purl.org/dc/dcmitype/StillImage" />
        <dc:title></dc:title>
      </cc:Work>
    </rdf:RDF>
  </metadata>
  <defs
     id="defs40" />
  <sodipodi:namedview
     pagecolor="#ffffff"
     bordercolor="#666666"
     borderopacity="1"
     objecttolerance="10"
     gridtolerance="10"
     guidetolerance="10"
     inkscape:pageopacity="0"
     inkscape:pageshadow="2"
     inkscape:window-width="2363"
     inkscape:window-height="1558"
     id="namedview38"
     showgrid="false"
     inkscape:zoom="12.105271"
     inkscape:cx="23.695908"
     inkscape:cy="58.532314"
     inkscape:window-x="0"
     inkscape:window-y="0"
     inkscape:window-maximized="0"
     inkscape:current-layer="svg2" />
  <g
     id="g10"
     transform="translate(-0.5,5.5)">
    <g
       id="g14">
      <path
         style="fill:#000000"
         d="M 29,49.5 V 22 H 45.5 62 V 49.5 77 H 45.5 29 Z m 32,0 V 23 H 45.5 30 V 49.5 76 H 45.5 61 Z"
         id="path16" />
    </g>
  </g>
  <g
     aria-label="SPEED
LIMIT"
     id="text46"
     style="font-style:normal;font-variant:normal;font-weight:bold;font-stretch:normal;font-size:9.33333px;line-height:8.7px;font-family:'ITC Benguiat Gothic Std';-inkscape-font-specification:'ITC Benguiat Gothic Std, Bold';font-variant-ligatures:normal;font-variant-caps:normal;font-variant-numeric:normal;font-variant-east-asian:normal;text-align:center;writing-mode:lr-tb;text-anchor:middle;fill:#000000;fill-opacity:1;stroke-width:3.48;stroke-linecap:round;stroke-linejoin:round"
     transform="translate(0,5.6572584)">
    <path
       d="m 35.484683,32.46495 c 0.336,0 0.606666,-0.177334 0.606666,-0.56 0,-0.382667 -0.270666,-0.56 -0.606666,-0.56 h -1.932 c -1.166666,0 -1.903999,0.541333 -1.903999,1.511999 0,2.352 3.761332,0.989333 3.761332,2.697333 0,0.793333 -0.513333,1.092 -1.726666,1.092 h -1.530666 c -0.336,0 -0.606667,0.177333 -0.606667,0.559999 0,0.382667 0.270667,0.56 0.606667,0.56 h 2.006666 c 1.595999,0 2.482666,-1.082666 2.482666,-2.258666 0,-2.603999 -3.761332,-1.819999 -3.761332,-2.669332 0,-0.242667 0.158666,-0.373333 0.447999,-0.373333 z"
       id="path932" />
    <path
       d="m 37.640665,37.159615 c 0,0.354666 0.186666,0.634666 0.588,0.634666 0.401333,0 0.587999,-0.28 0.587999,-0.634666 v -1.932 c 2.333333,-0.634666 3.359999,-1.343999 3.359999,-2.557332 0,-0.784 -0.504,-1.325333 -1.474666,-1.325333 h -2.473332 c -0.401334,0 -0.588,0.205333 -0.588,0.504 z m 1.175999,-4.806665 h 1.362667 c 0.690666,0 0.821333,0.149333 0.821333,0.401333 0,0.569333 -1.568,1.222666 -2.184,1.353333 z"
       id="path934" />
    <path
       d="m 44.061994,32.40895 h 2.333333 c 0.317333,0 0.569333,-0.168 0.569333,-0.532 0,-0.364 -0.252,-0.532 -0.569333,-0.532 h -3.051999 c -0.317334,0 -0.513334,0.28 -0.513334,0.634666 v 4.983999 c 0,0.485333 0.196,0.802666 0.812,0.802666 h 2.753333 c 0.317333,0 0.569333,-0.168 0.569333,-0.532 0,-0.364 -0.252,-0.532 -0.569333,-0.532 h -2.333333 v -2.426665 h 2.239999 c 0.317334,0 0.569333,-0.168 0.569333,-0.532 0,-0.364 -0.251999,-0.532 -0.569333,-0.532 h -2.239999 z"
       id="path936" />
    <path
       d="m 49.251323,32.40895 h 2.333333 c 0.317333,0 0.569333,-0.168 0.569333,-0.532 0,-0.364 -0.252,-0.532 -0.569333,-0.532 h -3.051999 c -0.317333,0 -0.513333,0.28 -0.513333,0.634666 v 4.983999 c 0,0.485333 0.196,0.802666 0.811999,0.802666 h 2.753333 c 0.317333,0 0.569333,-0.168 0.569333,-0.532 0,-0.364 -0.252,-0.532 -0.569333,-0.532 h -2.333333 v -2.426665 h 2.239999 c 0.317334,0 0.569334,-0.168 0.569334,-0.532 0,-0.364 -0.252,-0.532 -0.569334,-0.532 h -2.239999 z"
       id="path938" />
    <path
       d="m 53.180653,37.075615 c 0,0.541333 0.224,0.690666 0.830666,0.690666 h 1.950666 c 1.586666,0 2.491999,-1.269333 2.491999,-2.678666 0,-1.427999 -0.979999,-3.742665 -4.461331,-3.742665 -0.588,0 -0.812,0.261333 -0.812,0.728 z m 1.175999,-4.610665 c 1.530667,0 2.771999,1.194666 2.771999,2.706665 0,1.008 -0.475999,1.474667 -1.866666,1.474667 h -0.905333 z"
       id="path940" />
    <path
       d="m 35.344696,45.663615 c 0,0.485333 0.196,0.802666 0.812,0.802666 h 2.165332 c 0.336,0 0.606667,-0.177333 0.606667,-0.56 0,-0.382666 -0.270667,-0.56 -0.606667,-0.56 h -1.801332 v -4.694665 c 0,-0.354666 -0.196,-0.634666 -0.588,-0.634666 -0.392,0 -0.588,0.28 -0.588,0.634666 z"
       id="path942" />
    <path
       d="m 40.702012,40.651616 c 0,-0.354666 -0.186667,-0.634666 -0.588,-0.634666 -0.401333,0 -0.588,0.28 -0.588,0.634666 v 5.207998 c 0,0.354667 0.186667,0.634667 0.588,0.634667 0.401333,0 0.588,-0.28 0.588,-0.634667 z"
       id="path944" />
    <path
       d="m 44.780676,42.368949 c -0.382667,-0.466667 -0.606667,-1.064 -0.924,-1.838666 -0.149333,-0.364 -0.373333,-0.513333 -0.746666,-0.513333 -0.718667,0 -0.746667,0.550666 -0.896,1.446666 -0.177333,1.054666 -0.336,2.883999 -0.336,3.947999 0,0.653333 0.04667,1.082666 0.578667,1.082666 0.522666,0 0.597333,-0.354667 0.597333,-0.793333 v -1.474666 c 0,-0.812 0.09333,-1.652 0.224,-2.510666 h 0.01867 c 0.149334,0.476 0.830667,2.034666 1.484,2.034666 0.653333,0 1.334666,-1.558666 1.483999,-2.034666 h 0.01867 c 0.130667,0.858666 0.224,1.698666 0.224,2.510666 v 1.474666 c 0,0.438666 0.07467,0.793333 0.597333,0.793333 0.532,0 0.578666,-0.429333 0.578666,-1.082666 0,-1.064 -0.158666,-2.893333 -0.335999,-3.947999 -0.149334,-0.896 -0.177334,-1.446666 -0.896,-1.446666 -0.373333,0 -0.597333,0.149333 -0.746667,0.513333 -0.317333,0.774666 -0.541333,1.371999 -0.923999,1.838666 z"
       id="path946" />
    <path
       d="m 50.035324,40.651616 c 0,-0.354666 -0.186667,-0.634666 -0.588,-0.634666 -0.401333,0 -0.588,0.28 -0.588,0.634666 v 5.207998 c 0,0.354667 0.186667,0.634667 0.588,0.634667 0.401333,0 0.588,-0.28 0.588,-0.634667 z"
       id="path948" />
    <path
       d="m 53.665989,41.164949 h 1.082666 c 0.336,0 0.606667,-0.177333 0.606667,-0.559999 0,-0.382667 -0.270667,-0.56 -0.606667,-0.56 h -3.341332 c -0.336,0 -0.606666,0.177333 -0.606666,0.56 0,0.382666 0.270666,0.559999 0.606666,0.559999 h 1.082666 v 4.694665 c 0,0.354667 0.186667,0.634667 0.588,0.634667 0.401333,0 0.588,-0.28 0.588,-0.634667 z"
       id="path950" />
  </g>
  <g
     aria-label="50"
     id="text100"
     style="font-style:normal;font-variant:normal;font-weight:bold;font-stretch:normal;font-size:24px;line-height:25px;font-family:'ITC Benguiat Gothic Std';-inkscape-font-specification:'ITC Benguiat Gothic Std, Bold';font-variant-ligatures:normal;font-variant-caps:normal;font-variant-numeric:normal;font-variant-east-asian:normal;text-align:center;writing-mode:lr-tb;text-anchor:middle;fill:#ff0000;fill-opacity:1;stroke-width:3.48;stroke-linecap:round;stroke-linejoin:round"
     transform="translate(0,5.6572584)">
    <path
       d="m 35.328023,53.420533 h 5.856 c 0.816,0 1.464,-0.432 1.464,-1.368 0,-0.936 -0.648,-1.368 -1.464,-1.368 h -7.224 c -0.96,0 -1.56,0.432 -1.632,1.104 l -0.36,3.408 c -0.072,0.648 -0.144,1.152 -0.144,1.656 0,0.888 0.552,1.464 1.56,1.464 0.528,0 1.008,-0.096 1.776,-0.096 3.552,0 6,0.816 6,3.696 0,1.344 -1.056,2.544 -3.792,2.544 h -4.704 c -0.816,0 -1.488,0.432 -1.488,1.368 0,0.936 0.672,1.368 1.488,1.368 h 4.512 c 5.04,0 7.248,-2.496 7.248,-5.544 0,-3.672 -3.264,-6.168 -8.4,-6.168 h -0.936 z"
       id="path953" />
    <path
       d="m 45.671979,58.940533 c 0,4.392 2.112,8.4 6.576,8.4 4.464,0 6.576,-4.008 6.576,-8.4 0,-4.392 -2.112,-8.4 -6.576,-8.4 -4.464,0 -6.576,4.008 -6.576,8.4 z m 3.168,0 c 0,-3.072 1.2,-5.52 3.408,-5.52 2.232,0 3.408,2.448 3.408,5.52 0,3.072 -1.176,5.52 -3.408,5.52 -2.208,0 -3.408,-2.448 -3.408,-5.52 z"
       id="path955" />
  </g>
</svg>
