<?xml version="1.0" encoding="UTF-8" standalone="no"?>
<svg
   xmlns:dc="http://purl.org/dc/elements/1.1/"
   xmlns:cc="http://creativecommons.org/ns#"
   xmlns:rdf="http://www.w3.org/1999/02/22-rdf-syntax-ns#"
   xmlns:svg="http://www.w3.org/2000/svg"
   xmlns="http://www.w3.org/2000/svg"
   xmlns:xlink="http://www.w3.org/1999/xlink"
   version="1.1"
   id="svg2"
   width="90"
   height="110"
   viewBox="0 0 90 110">
  <g
     id="g10">
    <g
       id="g14">
      <path
         style="fill:#fefefe"
         d="M 0,55 V 0 h 45 45 v 55 55 H 45 0 Z M 29.819551,67.25 C 30.080016,65.416028 30.773397,65 33.569551,65 36.56203,65 37,65.319178 37,67.5 c 0,2.444444 0.166667,2.5 7.5,2.5 7.333333,0 7.5,-0.05556 7.5,-2.5 0,-2.394183 0.258895,-2.5 6.116577,-2.5 5.985124,0 6.106306,0.05373 5.638672,2.5 -0.368942,1.929997 -0.06068,2.5 1.352038,2.5 1.330879,0 1.647084,-0.476523 1.159446,-1.747288 -0.624623,-1.627741 -0.479701,-1.622274 2.118149,0.0799 1.533755,1.004955 3.025353,1.590484 3.314662,1.301175 0.289308,-0.289306 -0.987235,-1.44858 -2.836764,-2.576162 C 67.013251,65.930043 66.0625,65.005794 66.75,65.003738 67.4375,65.001682 68,64.1 68,63 68,61.054422 67.333333,61 43.5,61 19.666667,61 19,61.054422 19,63 c 0,1.333333 0.666667,2 2,2 1.272727,0 2,0.666667 2,1.833333 0,2.550642 1.011323,3.306746 3.962576,2.962577 1.755417,-0.204714 2.635906,-0.989336 2.856975,-2.54591 z M 25.157895,67 c 0,-1.375 0.226973,-1.9375 0.504386,-1.25 0.277412,0.6875 0.277412,1.8125 0,2.5 -0.277413,0.6875 -0.504386,0.125 -0.504386,-1.25 z m 2,0 c 0,-1.375 0.226973,-1.9375 0.504386,-1.25 0.277412,0.6875 0.277412,1.8125 0,2.5 -0.277413,0.6875 -0.504386,0.125 -0.504386,-1.25 z M 20,62.859407 C 20,62.386733 30.575,62 43.5,62 56.425,62 67,62.369297 67,62.820659 67,63.272021 56.425,63.658755 43.5,63.680066 30.575,63.701377 20,63.332081 20,62.859407 Z m 68.998208,5.324852 c 0.0099,-1.751615 -2.322023,-3.99723 -3.629796,-3.49539 C 84.008333,65.21078 83.940663,64.979389 84.91885,63.15163 85.552185,61.968234 86.504535,61 87.035184,61 c 1.498073,0 1.154944,-1.9758 -1.181216,-6.801662 -1.180318,-2.438212 -2.192818,-6.018271 -2.25,-7.955688 -0.124441,-4.216218 -2.58702,-6.331531 -5.020145,-4.312217 -1.824654,1.514329 -2.089728,5.163662 -0.491182,6.762208 0.774722,0.774722 0.784959,1.667548 0.03518,3.068517 -0.581601,1.086732 -0.773289,2.260043 -0.425974,2.607359 C 78.049166,54.715833 77.856478,55 77.273655,55 76.690833,55 75.948917,54.309263 75.624954,53.46503 75.096533,52.087986 74.725425,52.090628 72.017965,53.49071 70.358084,54.349068 69,55.277637 69,55.554197 c 0,0.27656 1.349454,3.17609 2.998787,6.4434 2.145872,4.25095 3.425762,5.776719 4.5,5.364495 C 77.324454,67.045254 78,67.23015 78,67.772974 c 0,0.545357 2.460078,0.928801 5.498208,0.856988 3.024015,-0.07148 5.499015,-0.272046 5.5,-0.445703 z M 79,67.562032 c 0,-1.408584 4.479717,-8.808886 5.590394,-9.235093 2.191283,-0.840874 3.169243,0.642908 1.321377,2.004822 -0.871797,0.642531 -2.157502,2.242549 -2.857122,3.555594 -1.203753,2.2592 -1.134689,2.3611 1.286557,1.898249 1.407226,-0.269008 2.74588,0.0067 2.974786,0.612645 0.259553,0.687093 -1.227042,1.148496 -3.9499,1.225953 C 80.964741,67.692513 79,67.664537 79,67.562032 Z m -5.049437,-6.658937 c -1.149547,-2.253298 -1.918566,-4.268425 -1.708931,-4.478061 0.209635,-0.209635 1.360179,1.633973 2.556765,4.096906 2.725294,5.609476 1.988451,5.940733 -0.847834,0.381155 z m 2,-1 c -1.149547,-2.253298 -1.918566,-4.268425 -1.708931,-4.478061 0.209635,-0.209635 1.360179,1.633973 2.556765,4.096906 2.725294,5.609476 1.988451,5.940733 -0.847834,0.381155 z M 79.5,61 C 79.160081,60.45 79.358524,60 79.940983,60 80.523442,60 81,60.45 81,61 81,61.55 80.801558,62 80.559017,62 80.316476,62 79.839919,61.55 79.5,61 Z M 79.036104,47.567461 c -0.716021,-1.337897 -1.004003,-3.208733 -0.63996,-4.157413 0.615173,-1.603114 0.786401,-1.590229 2.425679,0.18254 C 82.777385,45.707395 83.201372,50 81.454694,50 80.84049,50 79.752124,48.905357 79.036104,47.567461 Z M 67.833641,54.5 c 0.42024,-6.297769 -1.36981,-14.607214 -4.470037,-20.75 L 60.966308,29 h -16.96283 -16.96283 l -2.172839,4.25 c -1.195061,2.3375 -2.773866,6.5 -3.508455,9.25 -1.412295,5.287055 -1.829097,15.696924 -0.674711,16.85131 0.376554,0.376554 11.064054,0.564054 23.75,0.416667 L 67.5,59.5 Z M 24.571429,55.428571 C 23.707143,54.564286 23,53.246429 23,52.5 23,50.749099 25.749099,48 27.5,48 c 1.750901,0 4.5,2.749099 4.5,4.5 0,1.750901 -2.749099,4.5 -4.5,4.5 -0.746429,0 -2.064286,-0.707143 -2.928571,-1.571429 z m 3.825565,-1.261904 C 28.68026,53.708333 28.276612,53.333333 27.5,53.333333 c -0.776612,0 -1.18026,0.375 -0.896994,0.833334 C 26.886271,54.625 27.289919,55 27.5,55 c 0.210081,0 0.613729,-0.375 0.896994,-0.833333 z m 0.872038,-2.822604 c -0.677033,-0.273923 -2.027033,-0.290597 -3,-0.03705 -0.972968,0.25354 -0.419032,0.477659 1.230968,0.498038 1.65,0.02038 2.446064,-0.187065 1.769032,-0.460988 z m 28.302397,4.084508 C 56.707143,54.564286 56,53.246429 56,52.5 56,51.753571 56.707143,50.435714 57.571429,49.571429 58.435714,48.707143 59.753571,48 60.5,48 c 1.750901,0 4.5,2.749099 4.5,4.5 0,1.750901 -2.749099,4.5 -4.5,4.5 -0.746429,0 -2.064286,-0.707143 -2.928571,-1.571429 z m 3.825565,-1.261904 C 61.68026,53.708333 61.276612,53.333333 60.5,53.333333 c -0.776612,0 -1.18026,0.375 -0.896994,0.833334 C 59.886271,54.625 60.289919,55 60.5,55 c 0.210081,0 0.613729,-0.375 0.896994,-0.833333 z m 0.872038,-2.822604 c -0.677033,-0.273923 -2.027033,-0.290597 -3,-0.03705 -0.972968,0.25354 -0.419032,0.477659 1.230968,0.498038 1.65,0.02038 2.446064,-0.187065 1.769032,-0.460988 z M 23,39.526751 c 0,-0.260286 0.98967,-2.510286 2.199266,-5 L 27.398531,30 H 44 60.601469 l 2.199265,4.526751 c 1.209596,2.489714 2.199266,4.739714 2.199266,5 0,1.036246 -6.678586,0.394663 -7.824959,-0.75171 -0.966613,-0.966613 -1.638639,-0.966613 -3.186432,0 C 52.106205,39.950622 23,40.65667 23,39.526751 Z m 31.8125,-0.209865 c 0.721875,-0.288871 1.584375,-0.253344 1.916667,0.07895 0.332291,0.332292 -0.258334,0.568641 -1.3125,0.52522 -1.164943,-0.04798 -1.4019,-0.284941 -0.604167,-0.604167 z"
         id="path20" />
      <path
         style="fill:#00fe00"
         d="M 38,66.5 C 38,64.089744 38.233333,64 44.5,64 50.766667,64 51,64.08974 51,66.5 51,68.910256 50.766667,69 44.5,69 38.233333,69 38,68.91026 38,66.5 Z m 3.447214,-0.58541 c -0.321976,-0.520968 -1.011657,-0.683779 -1.532624,-0.361804 -0.520968,0.321976 -0.683779,1.011657 -0.361804,1.532624 0.321976,0.520968 1.011657,0.683779 1.532624,0.361804 0.520968,-0.321976 0.683779,-1.011657 0.361804,-1.532624 z m 4,0 c -0.321976,-0.520968 -1.011657,-0.683779 -1.532624,-0.361804 -0.520968,0.321976 -0.683779,1.011657 -0.361804,1.532624 0.321976,0.520968 1.011657,0.683779 1.532624,0.361804 0.520968,-0.321976 0.683779,-1.011657 0.361804,-1.532624 z m 4,0 c -0.321976,-0.520968 -1.011657,-0.683779 -1.532624,-0.361804 -0.520968,0.321976 -0.683779,1.011657 -0.361804,1.532624 0.321976,0.520968 1.011657,0.683779 1.532624,0.361804 0.520968,-0.321976 0.683779,-1.011657 0.361804,-1.532624 z M 79,58.833333 c 0,-0.641666 0.271285,-0.895382 0.602855,-0.563812 0.33157,0.33157 1.667349,-0.60593 2.968398,-2.083333 1.847068,-2.097433 2.372471,-2.315053 2.397146,-0.992892 0.01738,0.931313 -0.968527,2.393813 -2.190905,3.25 C 80.127356,60.299525 79,60.415927 79,58.833333 Z M 21,52.5 V 46 H 44 67 V 52.5 59 H 44 21 Z M 31,56 c 1.1,-1.1 2,-2.675 2,-3.5 0,-1.938267 -3.561733,-5.5 -5.5,-5.5 -1.938267,0 -5.5,3.561733 -5.5,5.5 0,1.938267 3.561733,5.5 5.5,5.5 0.825,0 2.4,-0.9 3.5,-2 z m 33,0 c 1.1,-1.1 2,-2.675 2,-3.5 0,-0.825 -0.9,-2.4 -2,-3.5 -1.1,-1.1 -2.675,-2 -3.5,-2 -0.825,0 -2.4,0.9 -3.5,2 -1.1,1.1 -2,2.675 -2,3.5 0,0.825 0.9,2.4 2,3.5 1.1,1.1 2.675,2 3.5,2 0.825,0 2.4,-0.9 3.5,-2 z M 51.079327,54.25 c 1.126549,-1.488774 1.114972,-1.56341 -0.07755,-0.5 C 50.230797,54.4375 47.08,55 44,55 40.92,55 37.769203,54.4375 36.998228,53.75 35.805701,52.68659 35.794124,52.761226 36.920673,54.25 37.912361,55.560552 39.690072,56 44,56 c 4.309928,0 6.087639,-0.439448 7.079327,-1.75 z M 48.25,51.267795 c -2.3375,-0.210535 -6.1625,-0.210535 -8.5,0 -2.3375,0.210535 -0.425,0.382791 4.25,0.382791 4.675,0 6.5875,-0.172256 4.25,-0.382791 z m 0,-2 c -2.3375,-0.210535 -6.1625,-0.210535 -8.5,0 -2.3375,0.210535 -0.425,0.382791 4.25,0.382791 4.675,0 6.5875,-0.172256 4.25,-0.382791 z M 80.632961,55 c 0.604171,-0.825 1.301528,-2.152836 1.549682,-2.950746 0.289058,-0.929436 0.688173,-1.067295 1.110691,-0.383647 0.362727,0.586905 -0.33463,1.91474 -1.549682,2.950746 C 80.5286,55.652359 80.028789,55.825 80.632961,55 Z M 79,52.618034 c 0,-0.825 0.45,-1.778115 1,-2.118034 0.55,-0.339919 1,0.05697 1,0.881966 0,0.825 -0.45,1.778115 -1,2.118034 -0.55,0.339919 -1,-0.05697 -1,-0.881966 z M 22.393011,43.418213 C 22.726855,42.548229 23,41.648229 23,41.418213 23,41.188196 32.401855,41 43.893011,41 c 18.129203,0 20.973306,0.209245 21.5,1.581787 C 65.726855,43.451771 66,44.351771 66,44.581787 66,44.811804 56.051855,45 43.893011,45 c -19.74784,0 -22.042214,-0.168801 -21.5,-1.581787 z"
         id="path18" />
      <path
         style="fill:#000000"
         d="M 23.712576,69.379243 C 23.320659,68.987326 23,67.841667 23,66.833333 23,65.666667 22.272727,65 21,65 c -1.333333,0 -2,-0.666667 -2,-2 0,-1.945578 0.666667,-2 24.5,-2 23.833333,0 24.5,0.05442 24.5,2 0,1.1 -0.5625,2.001682 -1.25,2.003738 -0.6875,0.0021 0.263251,0.926305 2.11278,2.053887 1.849529,1.127582 3.126072,2.286856 2.836764,2.576165 -0.289309,0.289309 -1.780907,-0.29622 -3.314662,-1.301175 -2.59785,-1.702177 -2.742772,-1.707644 -2.118149,-0.0799 C 66.754371,69.523477 66.438166,70 65.107287,70 63.694573,70 63.386307,69.429997 63.755249,67.5 64.222883,65.053728 64.101701,65 58.116577,65 52.258895,65 52,65.105817 52,67.5 52,69.944444 51.833333,70 44.5,70 37.166667,70 37,69.944444 37,67.5 37,65.319178 36.56203,65 33.569551,65 c -2.796154,0 -3.489535,0.416028 -3.75,2.25 -0.221069,1.556574 -1.101558,2.341196 -2.856975,2.54591 -1.395583,0.16275 -2.858083,-0.02475 -3.25,-0.416667 z M 25.662281,65.75 c -0.277413,-0.6875 -0.504386,-0.125 -0.504386,1.25 0,1.375 0.226973,1.9375 0.504386,1.25 0.277412,-0.6875 0.277412,-1.8125 0,-2.5 z m 2,0 c -0.277413,-0.6875 -0.504386,-0.125 -0.504386,1.25 0,1.375 0.226973,1.9375 0.504386,1.25 0.277412,-0.6875 0.277412,-1.8125 0,-2.5 z M 51,66.5 C 51,64.089744 50.766667,64 44.5,64 38.233333,64 38,64.08974 38,66.5 c 0,2.410256 0.233333,2.5 6.5,2.5 6.266667,0 6.5,-0.08974 6.5,-2.5 z m -11.447214,0.58541 c -0.321975,-0.520967 -0.159164,-1.210648 0.361804,-1.532624 0.520967,-0.321975 1.210648,-0.159164 1.532624,0.361804 0.321975,0.520967 0.159164,1.210648 -0.361804,1.532624 -0.520967,0.321975 -1.210648,0.159164 -1.532624,-0.361804 z m 4,0 c -0.321975,-0.520967 -0.159164,-1.210648 0.361804,-1.532624 0.520967,-0.321975 1.210648,-0.159164 1.532624,0.361804 0.321975,0.520967 0.159164,1.210648 -0.361804,1.532624 -0.520967,0.321975 -1.210648,0.159164 -1.532624,-0.361804 z m 4,0 c -0.321975,-0.520967 -0.159164,-1.210648 0.361804,-1.532624 0.520967,-0.321975 1.210648,-0.159164 1.532624,0.361804 0.321975,0.520967 0.159164,1.210648 -0.361804,1.532624 -0.520967,0.321975 -1.210648,0.159164 -1.532624,-0.361804 z M 67,62.820659 C 67,62.369297 56.425,62 43.5,62 30.575,62 20,62.386733 20,62.859407 c 0,0.472674 10.575,0.84197 23.5,0.820659 C 56.425,63.658755 67,63.272021 67,62.820659 Z m 11,4.952315 c 0,-0.542824 -0.675546,-0.72772 -1.501213,-0.410882 -1.074238,0.412224 -2.354128,-1.113545 -4.5,-5.364495 C 70.349454,58.730287 69,55.830757 69,55.554197 c 0,-0.27656 1.358084,-1.205129 3.017965,-2.063487 2.70746,-1.400082 3.078568,-1.402724 3.606989,-0.02568 C 75.948917,54.309263 76.690833,55 77.273655,55 c 0.582823,0 0.775511,-0.284167 0.428195,-0.631483 -0.347315,-0.347316 -0.155627,-1.520627 0.425974,-2.607359 0.749776,-1.400969 0.739539,-2.293795 -0.03518,-3.068517 -1.598546,-1.598546 -1.333472,-5.247879 0.491182,-6.762208 2.433125,-2.019314 4.895704,0.096 5.020145,4.312217 0.05718,1.937417 1.069682,5.517476 2.25,7.955688 C 88.190128,59.0242 88.533257,61 87.035184,61 c -0.530649,0 -1.482999,0.968234 -2.116334,2.15163 -0.978187,1.827759 -0.910517,2.05915 0.449562,1.537239 1.307773,-0.50184 3.639737,1.743775 3.629796,3.49539 -9.85e-4,0.173657 -2.475985,0.374224 -5.5,0.445703 C 80.460078,68.701775 78,68.318331 78,67.772974 Z m 9.315992,-1.374725 c -0.228906,-0.605963 -1.56756,-0.881653 -2.974786,-0.612645 -2.421246,0.462851 -2.49031,0.360951 -1.286557,-1.898249 0.69962,-1.313045 1.985325,-2.913063 2.857122,-3.555594 1.847866,-1.361914 0.869906,-2.845696 -1.321377,-2.004822 C 83.479717,58.753146 79,66.153448 79,67.562032 c 0,0.102505 1.964741,0.130481 4.366092,0.06217 2.722858,-0.07746 4.209453,-0.53886 3.9499,-1.225953 z M 74.798397,60.52194 C 73.601811,58.059007 72.451267,56.215399 72.241632,56.425034 71.789245,56.877421 75.829896,65 76.507327,65 c 0.256674,0 -0.512345,-2.015127 -1.70893,-4.47806 z m 2,-1 C 75.601811,57.059007 74.451267,55.215399 74.241632,55.425034 73.789245,55.877421 77.829896,64 78.507327,64 c 0.256674,0 -0.512345,-2.015127 -1.70893,-4.47806 z M 80.1125,58.7125 C 79.295833,57.895833 79,58.00774 79,59.133333 79,61.12119 80.344703,62.465892 80.841667,60.975 81.0525,60.3425 80.724375,59.324375 80.1125,58.7125 Z M 83.8,57.8 C 84.46,57.14 85,55.945256 85,55.145012 85,53.990025 84.587625,54.063219 83,55.5 80.945608,57.359199 80.383048,59 81.8,59 c 0.44,0 1.34,-0.54 2,-1.2 z M 83.293334,51.665607 C 82.870816,50.981959 82.471701,51.119818 82.182643,52.049254 81.934489,52.847164 81.237132,54.175 80.632961,55 c -0.604172,0.825 -0.104361,0.652359 1.110691,-0.383647 1.215052,-1.036006 1.912409,-2.363841 1.549682,-2.950746 z M 81,51.440983 C 81,50.648442 81.353571,50 81.785714,50 c 1.478599,0 0.801988,-4.497733 -0.963891,-6.407412 -1.675697,-1.812154 -1.798085,-1.818023 -2.450624,-0.117535 -0.377762,0.984433 -0.158612,2.635706 0.487,3.669495 0.65829,1.05409 0.88315,3.037817 0.511977,4.516687 -0.465451,1.854509 -0.321828,2.426918 0.483981,1.928901 C 80.484371,53.200642 81,52.233524 81,51.440983 Z M 20.684643,59.35131 C 19.530257,58.196924 19.947059,47.787055 21.359354,42.5 c 0.734589,-2.75 2.313394,-6.9125 3.508455,-9.25 L 27.040648,29 h 16.96283 16.96283 l 2.397296,4.75 c 3.100227,6.142786 4.890277,14.452231 4.470037,20.75 L 67.5,59.5 44.434643,59.767977 c -12.685946,0.147387 -23.373446,-0.04011 -23.75,-0.416667 z M 67,52.5 V 46 H 44 21 V 52.5 59 H 44 67 Z M 24,56 c -1.1,-1.1 -2,-2.675 -2,-3.5 0,-1.938267 3.561733,-5.5 5.5,-5.5 1.938267,0 5.5,3.561733 5.5,5.5 0,1.938267 -3.561733,5.5 -5.5,5.5 -0.825,0 -2.4,-0.9 -3.5,-2 z m 6.428571,-0.571429 C 31.292857,54.564286 32,53.246429 32,52.5 32,50.749099 29.250901,48 27.5,48 25.749099,48 23,50.749099 23,52.5 c 0,1.750901 2.749099,4.5 4.5,4.5 0.746429,0 2.064286,-0.707143 2.928571,-1.571429 z M 26.603006,54.166667 C 26.31974,53.708333 26.723388,53.333333 27.5,53.333333 c 0.776612,0 1.18026,0.375 0.896994,0.833334 C 28.113729,54.625 27.710081,55 27.5,55 27.289919,55 26.886271,54.625 26.603006,54.166667 Z m -0.333974,-2.859658 c 0.972967,-0.253543 2.322967,-0.236869 3,0.03705 C 29.946064,51.617986 29.15,51.825431 27.5,51.805051 25.85,51.784672 25.296064,51.560553 26.269032,51.307009 Z M 57,56 c -1.1,-1.1 -2,-2.675 -2,-3.5 0,-0.825 0.9,-2.4 2,-3.5 1.1,-1.1 2.675,-2 3.5,-2 0.825,0 2.4,0.9 3.5,2 1.1,1.1 2,2.675 2,3.5 0,0.825 -0.9,2.4 -2,3.5 -1.1,1.1 -2.675,2 -3.5,2 -0.825,0 -2.4,-0.9 -3.5,-2 z m 6.428571,-0.571429 C 64.292857,54.564286 65,53.246429 65,52.5 65,50.749099 62.250901,48 60.5,48 59.753571,48 58.435714,48.707143 57.571429,49.571429 56.707143,50.435714 56,51.753571 56,52.5 c 0,0.746429 0.707143,2.064286 1.571429,2.928571 C 58.435714,56.292857 59.753571,57 60.5,57 c 0.746429,0 2.064286,-0.707143 2.928571,-1.571429 z M 59.603006,54.166667 C 59.31974,53.708333 59.723388,53.333333 60.5,53.333333 c 0.776612,0 1.18026,0.375 0.896994,0.833334 C 61.113729,54.625 60.710081,55 60.5,55 60.289919,55 59.886271,54.625 59.603006,54.166667 Z m -0.333974,-2.859658 c 0.972967,-0.253543 2.322967,-0.236869 3,0.03705 C 62.946064,51.617986 62.15,51.825431 60.5,51.805051 58.85,51.784672 58.296064,51.560553 59.269032,51.307009 Z M 36.920673,54.25 c -1.126549,-1.488774 -1.114972,-1.56341 0.07755,-0.5 C 37.769203,54.4375 40.92,55 44,55 c 3.08,0 6.230797,-0.5625 7.001772,-1.25 1.192527,-1.06341 1.204104,-0.988774 0.07755,0.5 -1.88413,2.489946 -12.274524,2.489946 -14.158654,0 z M 39.75,51.267795 c 2.3375,-0.210535 6.1625,-0.210535 8.5,0 2.3375,0.210535 0.425,0.382791 -4.25,0.382791 -4.675,0 -6.5875,-0.172256 -4.25,-0.382791 z m 0,-2 c 2.3375,-0.210535 6.1625,-0.210535 8.5,0 2.3375,0.210535 0.425,0.382791 -4.25,0.382791 -4.675,0 -6.5875,-0.172256 -4.25,-0.382791 z M 66,44.581787 c 0,-0.230016 -0.273145,-1.130016 -0.606989,-2 C 64.866317,41.209245 62.022214,41 43.893011,41 32.401855,41 23,41.188196 23,41.418213 c 0,0.230016 -0.273145,1.130016 -0.606989,2 C 21.850797,44.831199 24.145171,45 43.893011,45 56.051855,45 66,44.811804 66,44.581787 Z M 53.988609,38.775041 c 1.547793,-0.966613 2.219819,-0.966613 3.186432,0 C 58.321414,39.921414 65,40.562997 65,39.526751 c 0,-0.260286 -0.98967,-2.510286 -2.199266,-5 L 60.601469,30 H 44 27.398531 l -2.199265,4.526751 C 23.98967,37.016465 23,39.266465 23,39.526751 c 0,1.129919 29.106205,0.423871 30.988609,-0.75171 z m 2.740558,0.620792 c -0.332292,-0.332291 -1.194792,-0.367818 -1.916667,-0.07895 -0.797733,0.319226 -0.560776,0.556183 0.604167,0.604167 1.054166,0.04342 1.644791,-0.192928 1.3125,-0.52522 z"
         id="path16" />
    </g>
  </g>
</svg>
