<?xml version="1.0" encoding="UTF-8" standalone="no"?>
<svg
   xmlns:dc="http://purl.org/dc/elements/1.1/"
   xmlns:cc="http://creativecommons.org/ns#"
   xmlns:rdf="http://www.w3.org/1999/02/22-rdf-syntax-ns#"
   xmlns:svg="http://www.w3.org/2000/svg"
   xmlns="http://www.w3.org/2000/svg"
   xmlns:xlink="http://www.w3.org/1999/xlink"
   version="1.1"
   id="svg2"
   width="90"
   height="110"
   viewBox="0 0 90 110">
  <g
     id="g10">
    <g
       id="g14">
      <path
         style="fill:#fefefe"
         d="M 0,55.029346 V 0.05869225 l 45,-0.0376821 45,-0.0376821 V 54.991664 110 H 45 0 Z M 29.819551,67.25 C 30.080016,65.416028 30.773397,65 33.569551,65 36.56203,65 37,65.319178 37,67.5 c 0,2.444444 0.166667,2.5 7.5,2.5 7.333333,0 7.5,-0.05556 7.5,-2.5 0,-2.097926 0.471303,-2.5 2.930449,-2.5 2.277636,0 3.001635,0.50123 3.25,2.25 0.25029,1.762322 0.969788,2.25 3.319551,2.25 2.349763,0 3.069261,-0.487678 3.319551,-2.25 0.175753,-1.2375 0.963253,-2.25 1.75,-2.25 C 67.356298,65 68,64.1 68,63 68,61.054422 67.333333,61 43.5,61 19.666667,61 19,61.054422 19,63 c 0,1.333333 0.666667,2 2,2 1.272727,0 2,0.666667 2,1.833333 0,2.550642 1.011323,3.306746 3.962576,2.962577 1.755417,-0.204714 2.635906,-0.989336 2.856975,-2.54591 z M 25.157895,67 c 0,-1.375 0.226973,-1.9375 0.504386,-1.25 0.277412,0.6875 0.277412,1.8125 0,2.5 -0.277413,0.6875 -0.504386,0.125 -0.504386,-1.25 z m 2,0 c 0,-1.375 0.226973,-1.9375 0.504386,-1.25 0.277412,0.6875 0.277412,1.8125 0,2.5 -0.277413,0.6875 -0.504386,0.125 -0.504386,-1.25 z m 33,0 c 0,-1.375 0.226973,-1.9375 0.504386,-1.25 0.277412,0.6875 0.277412,1.8125 0,2.5 -0.277413,0.6875 -0.504386,0.125 -0.504386,-1.25 z m 2,0 c 0,-1.375 0.226973,-1.9375 0.504386,-1.25 0.277412,0.6875 0.277412,1.8125 0,2.5 -0.277413,0.6875 -0.504386,0.125 -0.504386,-1.25 z M 20,62.859407 C 20,62.386733 30.575,62 43.5,62 56.425,62 67,62.369297 67,62.820659 67,63.272021 56.425,63.658755 43.5,63.680066 30.575,63.701377 20,63.332081 20,62.859407 Z M 67.833641,54.5 c 0.42024,-6.297769 -1.36981,-14.607214 -4.470037,-20.75 L 60.966308,29 h -16.96283 -16.96283 l -2.172839,4.25 c -1.195061,2.3375 -2.773866,6.5 -3.508455,9.25 -1.412295,5.287055 -1.829097,15.696924 -0.674711,16.85131 0.376554,0.376554 11.064054,0.564054 23.75,0.416667 L 67.5,59.5 Z M 24.571429,55.428571 C 23.707143,54.564286 23,53.246429 23,52.5 23,50.749099 25.749099,48 27.5,48 c 1.750901,0 4.5,2.749099 4.5,4.5 0,1.750901 -2.749099,4.5 -4.5,4.5 -0.746429,0 -2.064286,-0.707143 -2.928571,-1.571429 z m 3.825565,-1.261904 C 28.68026,53.708333 28.276612,53.333333 27.5,53.333333 c -0.776612,0 -1.18026,0.375 -0.896994,0.833334 C 26.886271,54.625 27.289919,55 27.5,55 c 0.210081,0 0.613729,-0.375 0.896994,-0.833333 z m 0.872038,-2.822604 c -0.677033,-0.273923 -2.027033,-0.290597 -3,-0.03705 -0.972968,0.25354 -0.419032,0.477659 1.230968,0.498038 1.65,0.02038 2.446064,-0.187065 1.769032,-0.460988 z m 28.302397,4.084508 C 56.707143,54.564286 56,53.246429 56,52.5 56,51.753571 56.707143,50.435714 57.571429,49.571429 58.435714,48.707143 59.753571,48 60.5,48 c 1.750901,0 4.5,2.749099 4.5,4.5 0,1.750901 -2.749099,4.5 -4.5,4.5 -0.746429,0 -2.064286,-0.707143 -2.928571,-1.571429 z m 3.825565,-1.261904 C 61.68026,53.708333 61.276612,53.333333 60.5,53.333333 c -0.776612,0 -1.18026,0.375 -0.896994,0.833334 C 59.886271,54.625 60.289919,55 60.5,55 c 0.210081,0 0.613729,-0.375 0.896994,-0.833333 z m 0.872038,-2.822604 c -0.677033,-0.273923 -2.027033,-0.290597 -3,-0.03705 -0.972968,0.25354 -0.419032,0.477659 1.230968,0.498038 1.65,0.02038 2.446064,-0.187065 1.769032,-0.460988 z M 23,39.549158 c 0,-0.27261 0.98967,-2.532693 2.199266,-5.022407 L 27.398531,30 H 44 60.601469 l 2.199265,4.526751 C 64.01033,37.016465 65,39.220687 65,39.425023 c 0,0.204337 -9.45,0.427382 -21,0.495656 -11.55,0.06827 -21,-0.09891 -21,-0.371521 z m 33.729167,-1.153325 c -0.332292,-0.332291 -1.194792,-0.367818 -1.916667,-0.07895 -0.797733,0.319226 -0.560776,0.556183 0.604167,0.604167 1.054166,0.04342 1.644791,-0.192928 1.3125,-0.52522 z M 55.5,32.5 c 1.381136,0 2.188137,0.907749 2.667041,3 l 0.686682,3 -0.176862,-2.899138 c -0.221944,-3.638146 -2.849912,-5.532058 -5.093038,-3.670429 -0.871103,0.722951 -1.530581,2.496856 -1.465508,3.942012 0.113985,2.531411 0.141788,2.517783 0.75982,-0.372445 0.45065,-2.107459 1.23069,-3 2.621865,-3 z"
         id="path20" />
      <path
         style="fill:#00fe00"
         d="M 38,66.5 C 38,64.089744 38.233333,64 44.5,64 50.766667,64 51,64.08974 51,66.5 51,68.910256 50.766667,69 44.5,69 38.233333,69 38,68.91026 38,66.5 Z m 3.447214,-0.58541 c -0.321976,-0.520968 -1.011657,-0.683779 -1.532624,-0.361804 -0.520968,0.321976 -0.683779,1.011657 -0.361804,1.532624 0.321976,0.520968 1.011657,0.683779 1.532624,0.361804 0.520968,-0.321976 0.683779,-1.011657 0.361804,-1.532624 z m 4,0 c -0.321976,-0.520968 -1.011657,-0.683779 -1.532624,-0.361804 -0.520968,0.321976 -0.683779,1.011657 -0.361804,1.532624 0.321976,0.520968 1.011657,0.683779 1.532624,0.361804 0.520968,-0.321976 0.683779,-1.011657 0.361804,-1.532624 z m 4,0 c -0.321976,-0.520968 -1.011657,-0.683779 -1.532624,-0.361804 -0.520968,0.321976 -0.683779,1.011657 -0.361804,1.532624 0.321976,0.520968 1.011657,0.683779 1.532624,0.361804 0.520968,-0.321976 0.683779,-1.011657 0.361804,-1.532624 z M 21,52.5 V 46 H 44 67 V 52.5 59 H 44 21 Z M 31,56 c 1.1,-1.1 2,-2.675 2,-3.5 0,-1.938267 -3.561733,-5.5 -5.5,-5.5 -1.938267,0 -5.5,3.561733 -5.5,5.5 0,1.938267 3.561733,5.5 5.5,5.5 0.825,0 2.4,-0.9 3.5,-2 z m 33,0 c 1.1,-1.1 2,-2.675 2,-3.5 0,-0.825 -0.9,-2.4 -2,-3.5 -1.1,-1.1 -2.675,-2 -3.5,-2 -0.825,0 -2.4,0.9 -3.5,2 -1.1,1.1 -2,2.675 -2,3.5 0,0.825 0.9,2.4 2,3.5 1.1,1.1 2.675,2 3.5,2 0.825,0 2.4,-0.9 3.5,-2 z M 51.079327,54.25 c 1.126549,-1.488774 1.114972,-1.56341 -0.07755,-0.5 C 50.230797,54.4375 47.08,55 44,55 40.92,55 37.769203,54.4375 36.998228,53.75 35.805701,52.68659 35.794124,52.761226 36.920673,54.25 37.912361,55.560552 39.690072,56 44,56 c 4.309928,0 6.087639,-0.439448 7.079327,-1.75 z M 48.25,51.267795 c -2.3375,-0.210535 -6.1625,-0.210535 -8.5,0 -2.3375,0.210535 -0.425,0.382791 4.25,0.382791 4.675,0 6.5875,-0.172256 4.25,-0.382791 z m 0,-2 c -2.3375,-0.210535 -6.1625,-0.210535 -8.5,0 -2.3375,0.210535 -0.425,0.382791 4.25,0.382791 4.675,0 6.5875,-0.172256 4.25,-0.382791 z M 22.393011,43.418213 C 22.726855,42.548229 23,41.648229 23,41.418213 23,41.188196 32.401855,41 43.893011,41 c 18.129203,0 20.973306,0.209245 21.5,1.581787 C 65.726855,43.451771 66,44.351771 66,44.581787 66,44.811804 56.051855,45 43.893011,45 c -19.74784,0 -22.042214,-0.168801 -21.5,-1.581787 z"
         id="path18" />
      <path
         style="fill:#000000"
         d="M 23.712576,69.379243 C 23.320659,68.987326 23,67.841667 23,66.833333 23,65.666667 22.272727,65 21,65 c -1.333333,0 -2,-0.666667 -2,-2 0,-1.945578 0.666667,-2 24.5,-2 23.833333,0 24.5,0.05442 24.5,2 0,1.1 -0.643702,2 -1.430449,2 -0.786747,0 -1.574247,1.0125 -1.75,2.25 C 64.569261,69.012322 63.849763,69.5 61.5,69.5 59.150237,69.5 58.430739,69.012322 58.180449,67.25 57.932084,65.50123 57.208085,65 54.930449,65 52.471303,65 52,65.402074 52,67.5 52,69.944444 51.833333,70 44.5,70 37.166667,70 37,69.944444 37,67.5 37,65.319178 36.56203,65 33.569551,65 c -2.796154,0 -3.489535,0.416028 -3.75,2.25 -0.221069,1.556574 -1.101558,2.341196 -2.856975,2.54591 -1.395583,0.16275 -2.858083,-0.02475 -3.25,-0.416667 z M 25.662281,65.75 c -0.277413,-0.6875 -0.504386,-0.125 -0.504386,1.25 0,1.375 0.226973,1.9375 0.504386,1.25 0.277412,-0.6875 0.277412,-1.8125 0,-2.5 z m 2,0 c -0.277413,-0.6875 -0.504386,-0.125 -0.504386,1.25 0,1.375 0.226973,1.9375 0.504386,1.25 0.277412,-0.6875 0.277412,-1.8125 0,-2.5 z M 51,66.5 C 51,64.089744 50.766667,64 44.5,64 38.233333,64 38,64.08974 38,66.5 c 0,2.410256 0.233333,2.5 6.5,2.5 6.266667,0 6.5,-0.08974 6.5,-2.5 z m -11.447214,0.58541 c -0.321975,-0.520967 -0.159164,-1.210648 0.361804,-1.532624 0.520967,-0.321975 1.210648,-0.159164 1.532624,0.361804 0.321975,0.520967 0.159164,1.210648 -0.361804,1.532624 -0.520967,0.321975 -1.210648,0.159164 -1.532624,-0.361804 z m 4,0 c -0.321975,-0.520967 -0.159164,-1.210648 0.361804,-1.532624 0.520967,-0.321975 1.210648,-0.159164 1.532624,0.361804 0.321975,0.520967 0.159164,1.210648 -0.361804,1.532624 -0.520967,0.321975 -1.210648,0.159164 -1.532624,-0.361804 z m 4,0 c -0.321975,-0.520967 -0.159164,-1.210648 0.361804,-1.532624 0.520967,-0.321975 1.210648,-0.159164 1.532624,0.361804 0.321975,0.520967 0.159164,1.210648 -0.361804,1.532624 -0.520967,0.321975 -1.210648,0.159164 -1.532624,-0.361804 z M 60.662281,65.75 c -0.277413,-0.6875 -0.504386,-0.125 -0.504386,1.25 0,1.375 0.226973,1.9375 0.504386,1.25 0.277412,-0.6875 0.277412,-1.8125 0,-2.5 z m 2,0 c -0.277413,-0.6875 -0.504386,-0.125 -0.504386,1.25 0,1.375 0.226973,1.9375 0.504386,1.25 0.277412,-0.6875 0.277412,-1.8125 0,-2.5 z M 67,62.820659 C 67,62.369297 56.425,62 43.5,62 30.575,62 20,62.386733 20,62.859407 c 0,0.472674 10.575,0.84197 23.5,0.820659 C 56.425,63.658755 67,63.272021 67,62.820659 Z M 20.684643,59.35131 C 19.530257,58.196924 19.947059,47.787055 21.359354,42.5 c 0.734589,-2.75 2.313394,-6.9125 3.508455,-9.25 L 27.040648,29 h 16.96283 16.96283 l 2.397296,4.75 c 3.100227,6.142786 4.890277,14.452231 4.470037,20.75 L 67.5,59.5 44.434643,59.767977 c -12.685946,0.147387 -23.373446,-0.04011 -23.75,-0.416667 z M 67,52.5 V 46 H 44 21 V 52.5 59 H 44 67 Z M 24,56 c -1.1,-1.1 -2,-2.675 -2,-3.5 0,-1.938267 3.561733,-5.5 5.5,-5.5 1.938267,0 5.5,3.561733 5.5,5.5 0,1.938267 -3.561733,5.5 -5.5,5.5 -0.825,0 -2.4,-0.9 -3.5,-2 z m 6.428571,-0.571429 C 31.292857,54.564286 32,53.246429 32,52.5 32,50.749099 29.250901,48 27.5,48 25.749099,48 23,50.749099 23,52.5 c 0,1.750901 2.749099,4.5 4.5,4.5 0.746429,0 2.064286,-0.707143 2.928571,-1.571429 z M 26.603006,54.166667 C 26.31974,53.708333 26.723388,53.333333 27.5,53.333333 c 0.776612,0 1.18026,0.375 0.896994,0.833334 C 28.113729,54.625 27.710081,55 27.5,55 27.289919,55 26.886271,54.625 26.603006,54.166667 Z m -0.333974,-2.859658 c 0.972967,-0.253543 2.322967,-0.236869 3,0.03705 C 29.946064,51.617986 29.15,51.825431 27.5,51.805051 25.85,51.784672 25.296064,51.560553 26.269032,51.307009 Z M 57,56 c -1.1,-1.1 -2,-2.675 -2,-3.5 0,-0.825 0.9,-2.4 2,-3.5 1.1,-1.1 2.675,-2 3.5,-2 0.825,0 2.4,0.9 3.5,2 1.1,1.1 2,2.675 2,3.5 0,0.825 -0.9,2.4 -2,3.5 -1.1,1.1 -2.675,2 -3.5,2 -0.825,0 -2.4,-0.9 -3.5,-2 z m 6.428571,-0.571429 C 64.292857,54.564286 65,53.246429 65,52.5 65,50.749099 62.250901,48 60.5,48 59.753571,48 58.435714,48.707143 57.571429,49.571429 56.707143,50.435714 56,51.753571 56,52.5 c 0,0.746429 0.707143,2.064286 1.571429,2.928571 C 58.435714,56.292857 59.753571,57 60.5,57 c 0.746429,0 2.064286,-0.707143 2.928571,-1.571429 z M 59.603006,54.166667 C 59.31974,53.708333 59.723388,53.333333 60.5,53.333333 c 0.776612,0 1.18026,0.375 0.896994,0.833334 C 61.113729,54.625 60.710081,55 60.5,55 60.289919,55 59.886271,54.625 59.603006,54.166667 Z m -0.333974,-2.859658 c 0.972967,-0.253543 2.322967,-0.236869 3,0.03705 C 62.946064,51.617986 62.15,51.825431 60.5,51.805051 58.85,51.784672 58.296064,51.560553 59.269032,51.307009 Z M 36.920673,54.25 c -1.126549,-1.488774 -1.114972,-1.56341 0.07755,-0.5 C 37.769203,54.4375 40.92,55 44,55 c 3.08,0 6.230797,-0.5625 7.001772,-1.25 1.192527,-1.06341 1.204104,-0.988774 0.07755,0.5 -1.88413,2.489946 -12.274524,2.489946 -14.158654,0 z M 39.75,51.267795 c 2.3375,-0.210535 6.1625,-0.210535 8.5,0 2.3375,0.210535 0.425,0.382791 -4.25,0.382791 -4.675,0 -6.5875,-0.172256 -4.25,-0.382791 z m 0,-2 c 2.3375,-0.210535 6.1625,-0.210535 8.5,0 2.3375,0.210535 0.425,0.382791 -4.25,0.382791 -4.675,0 -6.5875,-0.172256 -4.25,-0.382791 z M 66,44.581787 c 0,-0.230016 -0.273145,-1.130016 -0.606989,-2 C 64.866317,41.209245 62.022214,41 43.893011,41 32.401855,41 23,41.188196 23,41.418213 c 0,0.230016 -0.273145,1.130016 -0.606989,2 C 21.850797,44.831199 24.145171,45 43.893011,45 56.051855,45 66,44.811804 66,44.581787 Z m -1,-5.156764 c 0,-0.204336 -0.98967,-2.408558 -2.199266,-4.898272 L 60.601469,30 H 44 27.398531 l -2.199265,4.526751 C 23.98967,37.016465 23,39.276548 23,39.549158 c 0,0.272611 9.45,0.439795 21,0.371521 11.55,-0.06827 21,-0.291319 21,-0.495656 z M 54.8125,38.316886 c 0.721875,-0.288871 1.584375,-0.253344 1.916667,0.07895 0.332291,0.332292 -0.258334,0.568641 -1.3125,0.52522 -1.164943,-0.04798 -1.4019,-0.284941 -0.604167,-0.604167 z m -2.694185,-2.444441 c -0.06507,-1.445156 0.594405,-3.219061 1.465508,-3.942012 2.243126,-1.861629 4.871094,0.03228 5.093038,3.670429 L 58.853723,38.5 l -0.686682,-3 c -0.478904,-2.092251 -1.285905,-3 -2.667041,-3 -1.391175,0 -2.171215,0.892541 -2.621865,3 -0.618032,2.890228 -0.645835,2.903856 -0.75982,0.372445 z"
         id="path16" />
    </g>
  </g>
</svg>
