<?xml version="1.0" encoding="UTF-8" standalone="no"?>
<svg
   xmlns:dc="http://purl.org/dc/elements/1.1/"
   xmlns:cc="http://creativecommons.org/ns#"
   xmlns:rdf="http://www.w3.org/1999/02/22-rdf-syntax-ns#"
   xmlns:svg="http://www.w3.org/2000/svg"
   xmlns="http://www.w3.org/2000/svg"
   xmlns:xlink="http://www.w3.org/1999/xlink"
   version="1.1"
   id="svg2"
   width="90"
   height="110"
   viewBox="0 0 90 110">
  <g
     id="g10">
    <g
       id="g14">
      <path
         style="fill:#fefefe"
         d="M 0,55.027421 V 0.05484199 L 45,0.02111043 90,-0.01262113 V 54.993689 110 H 45 0 Z M 69,54.5 V 10 H 45 21 V 54.5 99 H 45 69 Z M 40.312475,88.535401 c -2.348463,-1.021392 -3.492945,-2.405717 -4.347789,-5.258934 -2.629798,-8.777482 4.790477,-15.49474 13.223899,-11.971031 7.217829,3.015802 7.370692,14.309456 0.234043,17.291339 -4.094476,1.710781 -5.050281,1.704342 -9.110153,-0.06137 z m 8.48715,-0.615395 c 6.729084,-2.345771 6.474464,-13.684355 -0.357934,-15.93925 -8.019546,-2.646689 -14.108724,3.438053 -11.463007,11.454656 1.574108,4.769595 6.089437,6.482607 11.820941,4.484594 z m -8.48715,-24.384605 c -2.348463,-1.021392 -3.492945,-2.405717 -4.347789,-5.258934 -2.629798,-8.777482 4.790477,-15.49474 13.223899,-11.971031 7.217829,3.015802 7.370692,14.309456 0.234043,17.291339 -4.094476,1.710781 -5.050281,1.704342 -9.110153,-0.06137 z m 8.48715,-0.615395 c 6.729084,-2.345771 6.474464,-13.684355 -0.357934,-15.93925 -8.019546,-2.646689 -14.108724,3.438053 -11.463007,11.454656 1.574108,4.769595 6.089437,6.482607 11.820941,4.484594 z m -8.48715,-24.384605 c -2.348463,-1.021392 -3.492945,-2.405717 -4.347789,-5.258934 -2.629798,-8.777482 4.790477,-15.49474 13.223899,-11.971031 7.217829,3.015802 7.370692,14.309456 0.234043,17.291339 -4.094476,1.710781 -5.050281,1.704342 -9.110153,-0.06137 z m 8.48715,-0.615395 c 6.729084,-2.345771 6.474464,-13.684355 -0.357934,-15.93925 -8.019546,-2.646689 -14.108724,3.438053 -11.463007,11.454656 1.574108,4.769595 6.089437,6.482607 11.820941,4.484594 z"
         id="path20" />
      <path
         style="fill:#fe0000"
         d="m 40.806236,37.856465 c -3.637558,-1.330973 -5.398521,-6.531794 -3.82548,-11.298156 1.455743,-4.410943 6.210962,-6.3102 11.460935,-4.577553 6.832398,2.254895 7.087018,13.593479 0.357934,15.93925 -3.619159,1.261646 -4.388352,1.255531 -7.993389,-0.06354 z"
         id="path18" />
      <path
         style="fill:#000000"
         d="M 21,54.5 V 10 H 45 69 V 54.5 99 H 45 21 Z m 28.422628,34.096775 c 7.136649,-2.981883 6.983786,-14.275537 -0.234043,-17.291339 -8.433422,-3.523709 -15.853697,3.193549 -13.223899,11.971031 0.854844,2.853217 1.999326,4.237542 4.347789,5.258934 4.059872,1.765716 5.015677,1.772155 9.110153,0.06137 z m -8.616392,-0.74031 c -3.637558,-1.330973 -5.398521,-6.531794 -3.82548,-11.298156 1.455743,-4.410943 6.210962,-6.3102 11.460935,-4.577553 6.832398,2.254895 7.087018,13.593479 0.357934,15.93925 -3.619159,1.261646 -4.388352,1.255531 -7.993389,-0.06354 z m 8.616392,-24.25969 c 7.136649,-2.981883 6.983786,-14.275537 -0.234043,-17.291339 -8.433422,-3.523709 -15.853697,3.193549 -13.223899,11.971031 0.854844,2.853217 1.999326,4.237542 4.347789,5.258934 4.059872,1.765716 5.015677,1.772155 9.110153,0.06137 z m -8.616392,-0.74031 c -3.637558,-1.330973 -5.398521,-6.531794 -3.82548,-11.298156 1.455743,-4.410943 6.210962,-6.3102 11.460935,-4.577553 6.832398,2.254895 7.087018,13.593479 0.357934,15.93925 -3.619159,1.261646 -4.388352,1.255531 -7.993389,-0.06354 z m 8.616392,-24.25969 c 7.136649,-2.981883 6.983786,-14.275537 -0.234043,-17.291339 -8.433422,-3.523709 -15.853697,3.193549 -13.223899,11.971031 0.854844,2.853217 1.999326,4.237542 4.347789,5.258934 4.059872,1.765716 5.015677,1.772155 9.110153,0.06137 z"
         id="path16" />
    </g>
  </g>
</svg>
