<?xml version="1.0" encoding="UTF-8" standalone="no"?>
<svg
   xmlns:dc="http://purl.org/dc/elements/1.1/"
   xmlns:cc="http://creativecommons.org/ns#"
   xmlns:rdf="http://www.w3.org/1999/02/22-rdf-syntax-ns#"
   xmlns:svg="http://www.w3.org/2000/svg"
   xmlns="http://www.w3.org/2000/svg"
   xmlns:xlink="http://www.w3.org/1999/xlink"
   version="1.1"
   id="svg2"
   width="90"
   height="110"
   viewBox="0 0 90 110">
  <g
     id="g10">
    <g
       id="g14">
      <path
         style="fill:#fefefe"
         d="M 0,61.152814 V 12.305629 L 2.25,11.147544 4.5,9.9894591 2.25,10.562117 C 1.0125,10.877079 0,10.685749 0,10.136939 0,9.5881284 1.0125,8.9440859 2.25,8.705733 L 4.5,8.2723641 2.25,8.1361821 C 1.0125,8.0612819 0,7.5196755 0,6.9326123 0,6.322682 0.96429721,6.1106525 2.25,6.4378828 L 4.5,7.0105409 2.25,5.8524561 C 0.8892593,5.1520769 0,3.7710899 0,2.3582889 V 0.02220648 L 45,0.02150521 90,0.02080394 V 55.010402 110 H 45 0 Z M 82.395927,101.25 C 81.562708,94.255113 81.39043,94 77.5,94 c -3.89043,0 -4.062708,0.255113 -4.895927,7.25 L 72.038261,106 H 77.5 82.961739 Z M 73,104 c 0,-0.55 2.025,-1 4.5,-1 2.475,0 4.5,0.45 4.5,1 0,0.55 -2.025,1 -4.5,1 -2.475,0 -4.5,-0.45 -4.5,-1 z m 13,-3 c -0.825,-0.53316 -1.95,-0.96937 -2.5,-0.96937 -0.55,0 -0.325,0.43621 0.5,0.96937 0.825,0.53316 1.95,0.96937 2.5,0.96937 0.55,0 0.325,-0.43621 -0.5,-0.96937 z m 0.25,-2.662281 c -0.6875,-0.277412 -1.8125,-0.277412 -2.5,0 -0.6875,0.277413 -0.125,0.504386 1.25,0.504386 1.375,0 1.9375,-0.226973 1.25,-0.504386 z M 86,96 c 0.825,-0.533156 1.05,-0.969374 0.5,-0.969374 -0.55,0 -1.675,0.436218 -2.5,0.969374 -0.825,0.533156 -1.05,0.969374 -0.5,0.969374 0.55,0 1.675,-0.436218 2.5,-0.969374 z M 24.812423,55.735492 C 25.21041,53.668912 22.323609,52.276391 20.8,53.8 c -1.523609,1.523609 -0.131088,4.41041 1.935492,4.012423 0.957848,-0.184464 1.892467,-1.119083 2.076931,-2.076931 z M 21,55.5 C 21,54.675 21.675,54 22.5,54 23.325,54 24,54.675 24,55.5 24,56.325 23.325,57 22.5,57 21.675,57 21,56.325 21,55.5 Z m 36.812423,0.235492 C 58.21041,53.668912 55.323609,52.276391 53.8,53.8 c -1.523609,1.523609 -0.131088,4.41041 1.935492,4.012423 0.957848,-0.184464 1.892467,-1.119083 2.076931,-2.076931 z M 54,55.5 C 54,54.675 54.675,54 55.5,54 56.325,54 57,54.675 57,55.5 57,56.325 56.325,57 55.5,57 54.675,57 54,56.325 54,55.5 Z m 9.812423,0.235492 C 64.21041,53.668912 61.323609,52.276391 59.8,53.8 c -1.523609,1.523609 -0.131088,4.41041 1.935492,4.012423 0.957848,-0.184464 1.892467,-1.119083 2.076931,-2.076931 z M 60,55.5 C 60,54.675 60.675,54 61.5,54 62.325,54 63,54.675 63,55.5 63,56.325 62.325,57 61.5,57 60.675,57 60,56.325 60,55.5 Z m -40.638374,-2 c 0.747106,-1.946925 5.529642,-1.946925 6.276748,0 0.828271,2.158442 25.86927,2.225443 26.695843,0.07143 0.770105,-2.006863 11.561461,-2.006863 12.331566,0 C 64.96729,54.357143 66.515833,55 68.106989,55 70.947002,55 71,54.899244 71,49.5 c 0,-4.565595 -0.297311,-5.502602 -1.75,-5.515313 -1.369538,-0.01198 -1.453642,-0.203073 -0.386847,-0.878949 1.15087,-0.729143 1.15087,-0.948496 0,-1.408556 C 67.745263,41.250306 67.769885,40.961396 69,40.091444 c 1.026177,-0.725725 1.105148,-1.074193 0.25,-1.103158 -1.630181,-0.05522 -32.869819,-0.05522 -34.5,0 -0.844498,0.0286 -0.763398,0.361774 0.25,1.027027 1.333333,0.875277 1.333333,1.094097 0,1.969374 -1.235982,0.811371 -1.25065,0.987383 -0.08333,1 0.779166,0.0084 1.120172,0.311808 0.75779,0.67419 -0.362383,0.362382 -2.918171,0.578911 -5.679529,0.481177 -4.477724,-0.158484 -5.144759,0.09468 -6.168305,2.341123 C 22.933669,48.440997 21.937837,49 19.339485,49 16.295613,49 16,49.265561 16,52 c 0,3.186235 2.317702,4.220422 3.361626,1.5 z m 4.653687,-5.25 C 24.023735,47.8375 24.466844,46.825 25,46 25.783874,44.787041 25.972305,44.930562 25.984687,46.75 25.993109,47.9875 25.55,49 25,49 24.45,49 24.006891,48.6625 24.015313,48.25 Z M 27,47 c 0,-1.1 0.45,-2 1,-2 0.55,0 1,0.9 1,2 0,1.1 -0.45,2 -1,2 -0.55,0 -1,-0.9 -1,-2 z m 17.25,-3.743308 c 4.2625,-0.187451 11.2375,-0.187451 15.5,0 4.2625,0.187451 0.775,0.34082 -7.75,0.34082 -8.525,0 -12.0125,-0.153369 -7.75,-0.34082 z M 39,41 c 0,-0.55 0.45,-1 1,-1 0.55,0 1,0.45 1,1 0,0.55 -0.45,1 -1,1 -0.55,0 -1,-0.45 -1,-1 z m 3,0 c 0,-0.55 0.45,-1 1,-1 0.55,0 1,0.45 1,1 0,0.55 -0.45,1 -1,1 -0.55,0 -1,-0.45 -1,-1 z m 3,0 c 0,-0.55 0.45,-1 1,-1 0.55,0 1,0.45 1,1 0,0.55 -0.45,1 -1,1 -0.55,0 -1,-0.45 -1,-1 z m 3,0 c 0,-0.55 0.45,-1 1,-1 0.55,0 1,0.45 1,1 0,0.55 -0.45,1 -1,1 -0.55,0 -1,-0.45 -1,-1 z m 3,0 c 0,-0.55 0.45,-1 1,-1 0.55,0 1,0.45 1,1 0,0.55 -0.45,1 -1,1 -0.55,0 -1,-0.45 -1,-1 z m 3,0 c 0,-0.55 0.45,-1 1,-1 0.55,0 1,0.45 1,1 0,0.55 -0.45,1 -1,1 -0.55,0 -1,-0.45 -1,-1 z m 3,0 c 0,-0.55 0.45,-1 1,-1 0.55,0 1,0.45 1,1 0,0.55 -0.45,1 -1,1 -0.55,0 -1,-0.45 -1,-1 z m 3,0 c 0,-0.55 0.45,-1 1,-1 0.55,0 1,0.45 1,1 0,0.55 -0.45,1 -1,1 -0.55,0 -1,-0.45 -1,-1 z m 3,0 c 0,-0.55 0.45,-1 1,-1 0.55,0 1,0.45 1,1 0,0.55 -0.45,1 -1,1 -0.55,0 -1,-0.45 -1,-1 z M 14.921053,15.25 c -0.04716,-1.045438 -0.282017,-1.246741 -0.583334,-0.5 -0.668788,1.657431 -9.0066504,1.657431 -9.6754383,0 C 4.3609641,14.003259 4.12611,14.204562 4.0789474,15.25 4.0128971,16.714115 4.8984962,17 9.5,17 c 4.601504,0 5.487103,-0.285885 5.421053,-1.75 z M 13.807498,8.75 C 13.500693,4.509583 13.490981,4.5 9.5,4.5 5.5090193,4.5 5.4993066,4.509583 5.1925022,8.75 L 4.8850043,13 H 9.5 14.114996 Z"
         id="path20" />
      <path
         style="fill:#fe0000"
         d="M 73.192502,98.75 C 73.499307,94.509583 73.509019,94.5 77.5,94.5 c 3.990981,0 4.000693,0.0096 4.307498,4.25 L 82.114996,103 H 77.5 72.885004 Z M 84,101 c -0.825,-0.53316 -1.05,-0.96937 -0.5,-0.96937 0.55,0 1.675,0.43621 2.5,0.96937 0.825,0.53316 1.05,0.96937 0.5,0.96937 -0.55,0 -1.675,-0.43621 -2.5,-0.96937 z m -0.25,-2.662281 c 0.6875,-0.277412 1.8125,-0.277412 2.5,0 0.6875,0.277413 0.125,0.504386 -1.25,0.504386 -1.375,0 -1.9375,-0.226973 -1.25,-0.504386 z M 84,96 c 0.825,-0.533156 1.95,-0.969374 2.5,-0.969374 0.55,0 0.325,0.436218 -0.5,0.969374 -0.825,0.533156 -1.95,0.969374 -2.5,0.969374 -0.55,0 -0.325,-0.436218 0.5,-0.969374 z M 17,52.154988 C 17,50.171644 17.512432,50 23.433578,50 c 6.25079,0 6.445413,-0.07813 6.850168,-2.75 0.25733,-1.698696 0.473869,-0.934111 0.566422,2 C 30.977392,53.283277 30.716698,54 29.122445,54 28.089789,54 26.684689,53.325 26,52.5 24.359921,50.523826 21.105938,50.594152 18.828741,52.654988 17.110839,54.209667 17,54.179363 17,52.154988 Z M 32.286014,49.5 c 0.0075,-2.75 0.201713,-3.756313 0.431567,-2.23625 0.229855,1.520062 0.223712,3.770062 -0.01365,5 C 32.466569,53.493687 32.278507,52.25 32.286014,49.5 Z M 34,49.5 V 45 h 18 18 v 4.5 C 70,53.235511 69.681029,54 68.122445,54 67.089789,54 65.711365,53.357143 65.05928,52.571429 64.300914,51.657653 61.937231,51.142857 58.5,51.142857 c -3.437231,0 -5.800914,0.514796 -6.55928,1.428572 C 51.085842,53.601493 48.418152,54 42.377555,54 H 34 Z m 9,0 C 43,47.388889 42.533333,47 40,47 c -2.533333,0 -3,0.388889 -3,2.5 0,2.111111 0.466667,2.5 3,2.5 2.533333,0 3,-0.388889 3,-2.5 z m -5,0 c 0,-0.833333 0.888889,-1.5 2,-1.5 1.111111,0 2,0.666667 2,1.5 0,0.833333 -0.888889,1.5 -2,1.5 -1.111111,0 -2,-0.666667 -2,-1.5 z M 47,49 c 0,-0.55 -0.45,-1 -1,-1 -0.55,0 -1,0.45 -1,1 0,0.55 0.45,1 1,1 0.55,0 1,-0.45 1,-1 z m 3,0 c 0,-0.55 -0.45,-1 -1,-1 -0.55,0 -1,0.45 -1,1 0,0.55 0.45,1 1,1 0.55,0 1,-0.45 1,-1 z M 5.1925022,8.75 C 5.4993066,4.509583 5.5090193,4.5 9.5,4.5 c 3.990981,0 4.000693,0.00958 4.307498,4.25 L 14.114996,13 H 9.5 4.8850043 Z M 1,11 C 1.825,10.466844 2.95,10.030626 3.5,10.030626 4.05,10.030626 3.825,10.466844 3,11 2.175,11.533156 1.05,11.969374 0.5,11.969374 -0.05,11.969374 0.175,11.533156 1,11 Z M 0.75,8.3377193 c 0.6875,-0.2774123 1.8125,-0.2774123 2.5,0 0.6875,0.2774123 0.125,0.504386 -1.25,0.504386 -1.375,0 -1.9375,-0.2269737 -1.25,-0.504386 z M 1,6 C 0.175,5.4668441 -0.05,5.0306255 0.5,5.0306255 1.05,5.0306255 2.175,5.4668441 3,6 3.825,6.5331559 4.05,6.9693745 3.5,6.9693745 2.95,6.9693745 1.825,6.5331559 1,6 Z"
         id="path18" />
      <path
         style="fill:#000000"
         d="m 72.078947,104.25 c 0.04716,-1.04544 0.282017,-1.24674 0.583334,-0.5 0.294599,0.73009 2.306725,1.25 4.837719,1.25 2.530994,0 4.54312,-0.51991 4.837719,-1.25 0.301317,-0.74674 0.536171,-0.54544 0.583334,0.5 0.06605,1.46411 -0.819549,1.75 -5.421053,1.75 -4.601504,0 -5.487103,-0.28589 -5.421053,-1.75 z M 20.364193,56.506689 C 20.017826,55.604071 20.213939,54.386061 20.8,53.8 c 1.523609,-1.523609 4.41041,-0.131088 4.012423,1.935492 -0.443302,2.301882 -3.647668,2.857428 -4.44823,0.771197 z M 24,55.5 C 24,54.675 23.325,54 22.5,54 21.675,54 21,54.675 21,55.5 c 0,0.825 0.675,1.5 1.5,1.5 0.825,0 1.5,-0.675 1.5,-1.5 z m 29.364193,1.006689 C 53.017826,55.604071 53.213939,54.386061 53.8,53.8 c 1.523609,-1.523609 4.41041,-0.131088 4.012423,1.935492 -0.443302,2.301882 -3.647668,2.857428 -4.44823,0.771197 z M 57,55.5 C 57,54.675 56.325,54 55.5,54 54.675,54 54,54.675 54,55.5 c 0,0.825 0.675,1.5 1.5,1.5 0.825,0 1.5,-0.675 1.5,-1.5 z m 2.364193,1.006689 C 59.017826,55.604071 59.213939,54.386061 59.8,53.8 c 1.523609,-1.523609 4.41041,-0.131088 4.012423,1.935492 -0.443302,2.301882 -3.647668,2.857428 -4.44823,0.771197 z M 63,55.5 C 63,54.675 62.325,54 61.5,54 60.675,54 60,54.675 60,55.5 60,56.325 60.675,57 61.5,57 62.325,57 63,56.325 63,55.5 Z M 16,52 c 0,-2.734439 0.295613,-3 3.339485,-3 2.591697,0 3.59455,-0.559808 4.478561,-2.5 0.896385,-1.967351 1.878218,-2.5 4.608256,-2.5 h 3.469179 l 0.367277,5.25 0.367277,5.25 0.184983,-5.25 c 0.149965,-4.256184 0.516254,-5.252899 1.934982,-5.265313 1.369538,-0.01198 1.453642,-0.203073 0.386847,-0.878949 -1.15087,-0.729143 -1.15087,-0.948496 0,-1.408556 1.11789,-0.446876 1.093268,-0.735786 -0.136847,-1.605738 -1.026177,-0.725725 -1.105148,-1.074193 -0.25,-1.103158 1.630181,-0.05522 32.869819,-0.05522 34.5,0 0.844498,0.0286 0.763398,0.361774 -0.25,1.027027 -1.248137,0.81935 -1.271115,1.13227 -0.136847,1.863636 1.15087,0.742071 1.15087,0.963371 0,1.421053 C 67.912744,43.677964 68.029876,43.866009 69.25,43.921053 70.694976,43.98624 71,44.958647 71,49.5 c 0,5.399244 -0.053,5.5 -2.893011,5.5 -1.591156,0 -3.139699,-0.642857 -3.441206,-1.428571 -0.770105,-2.006863 -11.561461,-2.006863 -12.331566,0 C 51.507644,55.725443 26.466645,55.658442 25.638374,53.5 25.321791,52.675 23.909523,52 22.5,52 21.090477,52 19.678209,52.675 19.361626,53.5 18.317702,56.220422 16,55.186235 16,52 Z m 6.706296,-1 c 1.126848,0 2.609015,0.675 3.293704,1.5 0.684689,0.825 2.089789,1.5 3.122445,1.5 1.594253,0 1.854947,-0.716723 1.727723,-4.75 -0.09255,-2.934111 -0.309092,-3.698696 -0.566422,-2 C 29.878991,49.921868 29.684368,50 23.433578,50 17.512432,50 17,50.171644 17,52.154988 c 0,2.024375 0.110839,2.054679 1.828741,0.5 C 19.834548,51.744744 21.579448,51 22.706296,51 Z m 29.234424,1.571429 c 0.758366,-0.913776 3.122049,-1.428572 6.55928,-1.428572 3.437231,0 5.800914,0.514796 6.55928,1.428572 C 65.711365,53.357143 67.089789,54 68.122445,54 69.681029,54 70,53.235511 70,49.5 V 45 H 52 34 v 4.5 4.5 h 8.377555 c 6.040597,0 8.708287,-0.398507 9.563165,-1.428571 z M 37,49.5 c 0,-2.111111 0.466667,-2.5 3,-2.5 2.533333,0 3,0.388889 3,2.5 0,2.111111 -0.466667,2.5 -3,2.5 -2.533333,0 -3,-0.388889 -3,-2.5 z m 5,0 C 42,48.666667 41.111111,48 40,48 c -1.111111,0 -2,0.666667 -2,1.5 0,0.833333 0.888889,1.5 2,1.5 1.111111,0 2,-0.666667 2,-1.5 z M 45,49 c 0,-0.55 0.45,-1 1,-1 0.55,0 1,0.45 1,1 0,0.55 -0.45,1 -1,1 -0.55,0 -1,-0.45 -1,-1 z m 3,0 c 0,-0.55 0.45,-1 1,-1 0.55,0 1,0.45 1,1 0,0.55 -0.45,1 -1,1 -0.55,0 -1,-0.45 -1,-1 z M 25.984687,46.75 C 25.972305,44.930562 25.783874,44.787041 25,46 c -1.252922,1.938759 -1.252922,3 0,3 0.55,0 0.993109,-1.0125 0.984687,-2.25 z M 29,47 c 0,-1.1 -0.45,-2 -1,-2 -0.55,0 -1,0.9 -1,2 0,1.1 0.45,2 1,2 0.55,0 1,-0.9 1,-2 z m 30.75,-3.743308 c -4.2625,-0.187451 -11.2375,-0.187451 -15.5,0 -4.2625,0.187451 -0.775,0.34082 7.75,0.34082 8.525,0 12.0125,-0.153369 7.75,-0.34082 z M 41,41 c 0,-0.55 -0.45,-1 -1,-1 -0.55,0 -1,0.45 -1,1 0,0.55 0.45,1 1,1 0.55,0 1,-0.45 1,-1 z m 3,0 c 0,-0.55 -0.45,-1 -1,-1 -0.55,0 -1,0.45 -1,1 0,0.55 0.45,1 1,1 0.55,0 1,-0.45 1,-1 z m 3,0 c 0,-0.55 -0.45,-1 -1,-1 -0.55,0 -1,0.45 -1,1 0,0.55 0.45,1 1,1 0.55,0 1,-0.45 1,-1 z m 3,0 c 0,-0.55 -0.45,-1 -1,-1 -0.55,0 -1,0.45 -1,1 0,0.55 0.45,1 1,1 0.55,0 1,-0.45 1,-1 z m 3,0 c 0,-0.55 -0.45,-1 -1,-1 -0.55,0 -1,0.45 -1,1 0,0.55 0.45,1 1,1 0.55,0 1,-0.45 1,-1 z m 3,0 c 0,-0.55 -0.45,-1 -1,-1 -0.55,0 -1,0.45 -1,1 0,0.55 0.45,1 1,1 0.55,0 1,-0.45 1,-1 z m 3,0 c 0,-0.55 -0.45,-1 -1,-1 -0.55,0 -1,0.45 -1,1 0,0.55 0.45,1 1,1 0.55,0 1,-0.45 1,-1 z m 3,0 c 0,-0.55 -0.45,-1 -1,-1 -0.55,0 -1,0.45 -1,1 0,0.55 0.45,1 1,1 0.55,0 1,-0.45 1,-1 z m 3,0 c 0,-0.55 -0.45,-1 -1,-1 -0.55,0 -1,0.45 -1,1 0,0.55 0.45,1 1,1 0.55,0 1,-0.45 1,-1 z M 4.0789474,15.25 c 0.047163,-1.045438 0.2820167,-1.246741 0.5833333,-0.5 0.6687879,1.657431 9.0066503,1.657431 9.6754383,0 0.301317,-0.746741 0.536171,-0.545438 0.583334,0.5 C 14.987103,16.714115 14.101504,17 9.5,17 4.8984962,17 4.0128971,16.714115 4.0789474,15.25 Z"
         id="path16" />
    </g>
  </g>
</svg>
