<?xml version="1.0" encoding="UTF-8" standalone="no"?>
<svg xmlns="http://www.w3.org/2000/svg" xmlns:xlink="http://www.w3.org/1999/xlink" class="card" face="7S" height="3.5in" preserveAspectRatio="none" viewBox="-106 -164.5 212 329" width="2.25in"><symbol id="SS7" viewBox="-600 -600 1200 1200" preserveAspectRatio="xMinYMid"><path d="M0 -500C100 -250 355 -100 355 185A150 150 0 0 1 55 185A10 10 0 0 0 35 185C35 385 85 400 130 500L-130 500C-85 400 -35 385 -35 185A10 10 0 0 0 -55 185A150 150 0 0 1 -355 185C-355 -100 -100 -250 0 -500Z" fill="black"></path></symbol><symbol id="VS7" viewBox="-500 -500 1000 1000" preserveAspectRatio="xMinYMid"><path d="M-265 -320L-265 -460L265 -460C135 -200 -90 100 -90 460" stroke="black" stroke-width="80" stroke-linecap="square" stroke-miterlimit="1.5" fill="none"></path></symbol><rect width="211" height="328" x="-105.5" y="-164" rx="12" ry="12" fill="white" stroke="black"></rect><use xlink:href="#VS7" height="32" x="-100.4" y="-152.5"></use><use xlink:href="#SS7" height="26.769" x="-97.784" y="-115.5"></use><use xlink:href="#SS7" height="54" x="-72.167" y="-130.667"></use><use xlink:href="#SS7" height="54" x="18.167" y="-130.667"></use><use xlink:href="#SS7" height="54" x="-72.167" y="-27"></use><use xlink:href="#SS7" height="54" x="18.167" y="-27"></use><use xlink:href="#SS7" height="54" x="-27" y="-78.833"></use><g transform="rotate(180)"><use xlink:href="#VS7" height="32" x="-100.4" y="-152.5"></use><use xlink:href="#SS7" height="26.769" x="-97.784" y="-115.5"></use><use xlink:href="#SS7" height="54" x="-72.167" y="-130.667"></use><use xlink:href="#SS7" height="54" x="18.167" y="-130.667"></use></g></svg>