<?xml version="1.0" encoding="UTF-8" standalone="no"?>
<svg xmlns="http://www.w3.org/2000/svg" xmlns:xlink="http://www.w3.org/1999/xlink" class="card" face="9C" height="3.5in" preserveAspectRatio="none" viewBox="-106 -164.5 212 329" width="2.25in"><symbol id="SC9" viewBox="-600 -600 1200 1200" preserveAspectRatio="xMinYMid"><path d="M30 150C35 385 85 400 130 500L-130 500C-85 400 -35 385 -30 150A10 10 0 0 0 -50 150A210 210 0 1 1 -124 -51A10 10 0 0 0 -110 -65A230 230 0 1 1 110 -65A10 10 0 0 0 124 -51A210 210 0 1 1 50 150A10 10 0 0 0 30 150Z" fill="black"></path></symbol><symbol id="VC9" viewBox="-500 -500 1000 1000" preserveAspectRatio="xMinYMid"><path d="M250 -100A250 250 0 0 1 -250 -100L-250 -210A250 250 0 0 1 250 -210L250 210A250 250 0 0 1 0 460C-150 460 -180 400 -200 375" stroke="black" stroke-width="80" stroke-linecap="square" stroke-miterlimit="1.5" fill="none"></path></symbol><rect width="211" height="328" x="-105.5" y="-164" rx="12" ry="12" fill="white" stroke="black"></rect><use xlink:href="#VC9" height="32" x="-100.4" y="-152.5"></use><use xlink:href="#SC9" height="26.769" x="-97.784" y="-115.5"></use><use xlink:href="#SC9" height="54" x="-72.167" y="-130.735"></use><use xlink:href="#SC9" height="54" x="18.167" y="-130.735"></use><use xlink:href="#SC9" height="54" x="-72.167" y="-61.578"></use><use xlink:href="#SC9" height="54" x="18.167" y="-61.578"></use><use xlink:href="#SC9" height="54" x="-27" y="-32.4"></use><g transform="rotate(180)"><use xlink:href="#VC9" height="32" x="-100.4" y="-152.5"></use><use xlink:href="#SC9" height="26.769" x="-97.784" y="-115.5"></use><use xlink:href="#SC9" height="54" x="-72.167" y="-130.735"></use><use xlink:href="#SC9" height="54" x="18.167" y="-130.735"></use><use xlink:href="#SC9" height="54" x="-72.167" y="-61.578"></use><use xlink:href="#SC9" height="54" x="18.167" y="-61.578"></use></g></svg>