<?xml version="1.0" encoding="UTF-8" standalone="no"?>
<svg
   class="card"
   face="AS"
   height="21.017838in"
   preserveAspectRatio="none"
   viewBox="-106 -164.5 1673.1196 1975.6767"
   width="17.757166in"
   version="1.1"
   id="svg24"
   sodipodi:docname="game.svg"
   inkscape:version="1.1.1 (3bf5ae0d25, 2021-09-20)"
   xmlns:inkscape="http://www.inkscape.org/namespaces/inkscape"
   xmlns:sodipodi="http://sodipodi.sourceforge.net/DTD/sodipodi-0.dtd"
   xmlns="http://www.w3.org/2000/svg"
   xmlns:svg="http://www.w3.org/2000/svg">
  <sodipodi:namedview
     id="namedview32"
     pagecolor="#ffffff"
     bordercolor="#666666"
     borderopacity="1.0"
     inkscape:pageshadow="2"
     inkscape:pageopacity="0.0"
     inkscape:pagecheckerboard="0"
     inkscape:document-units="in"
     showgrid="false"
     fit-margin-top="0"
     fit-margin-left="0"
     fit-margin-right="0"
     fit-margin-bottom="0"
     inkscape:zoom="0.21370312"
     inkscape:cx="-189.51525"
     inkscape:cy="400.08774"
     inkscape:window-width="2069"
     inkscape:window-height="1111"
     inkscape:window-x="4126"
     inkscape:window-y="347"
     inkscape:window-maximized="0"
     inkscape:current-layer="svg24" />
  <defs
     id="defs28" />
  <g
     id="g361"
     transform="matrix(1.0734005,0,0,0.98270338,275.05718,326.85169)">
    <path
       d="m 0,-500 c 100,250 355,400 355,685 a 150,150 0 0 1 -300,0 10,10 0 0 0 -20,0 c 0,200 50,215 95,315 h -260 c 45,-100 95,-115 95,-315 a 10,10 0 0 0 -20,0 150,150 0 0 1 -300,0 c 0,-285 255,-435 355,-685 z"
       fill="#000000"
       id="path5" />
  </g>
  <g
     id="use10"
     transform="matrix(1.1020325,0,0,0.97916665,1115.0133,341.51807)">
    <path
       d="m 0,-300 c 0,-100 100,-200 200,-200 100,0 200,100 200,250 C 400,0 0,400 0,500 0,400 -400,0 -400,-250 c 0,-150 100,-250 200,-250 100,0 200,100 200,200 z"
       fill="#ff0000"
       id="path58" />
  </g>
  <g
     id="use223"
     transform="matrix(0.98148148,0,0,0.97916665,297.61603,1321.5934)">
    <path
       d="M -400,0 C -350,0 0,-450 0,-500 0,-450 350,0 400,0 350,0 0,450 0,500 0,450 -350,0 -400,0 Z"
       fill="#ff0000"
       id="path264" />
  </g>
  <g
     id="use413"
     transform="matrix(0.90443512,0,0,0.97916665,1145.1857,1320.1549)">
    <path
       d="m 30,150 c 5,235 55,250 100,350 H -130 C -85,400 -35,385 -30,150 a 10,10 0 0 0 -20,0 210,210 0 1 1 -74,-201 10,10 0 0 0 14,-14 230,230 0 1 1 220,0 10,10 0 0 0 14,14 210,210 0 1 1 -74,201 10,10 0 0 0 -20,0 z"
       fill="#000000"
       id="path454" />
  </g>
</svg>
